<?xml version="1.0" encoding="utf-8"?>
<!-- Generator: Adobe Illustrator 21.0.0, SVG Export Plug-In . SVG Version: 6.00 Build 0)  -->
<svg version="1.1" id="Layer_1" xmlns="http://www.w3.org/2000/svg" xmlns:xlink="http://www.w3.org/1999/xlink" x="0px" y="0px"
	 viewBox="0 0 544 544" style="enable-background:new 0 0 544 544;" xml:space="preserve">
<style type="text/css">
	.st0{fill:url(#SVGID_1_);}
	.st1{opacity:0.35;fill:#474040;stroke:#9E8D7B;stroke-width:2;stroke-miterlimit:10;enable-background:new    ;}
	.st2{fill:#D9D9D9;}
	.st3{font-family:'Palatino-Roman';}
	.st4{font-size:19.9988px;}
	.st5{fill:none;stroke:#A79583;stroke-miterlimit:10;stroke-opacity:0.5;}
	.st6{opacity:0.5;fill:#020201;stroke:#A79583;stroke-miterlimit:10;enable-background:new    ;}
	.st7{opacity:0.2;fill:#231F20;stroke:#C6B198;stroke-miterlimit:10;enable-background:new    ;}
	.st8{font-size:12px;}
	.st9{font-family:'Palatino-Italic';}
</style>
<g id="info-content1">
	
		<radialGradient id="SVGID_1_" cx="517.9985" cy="535.998" r="272.5534" gradientTransform="matrix(1 0 0 -1 -245.9985 807.998)" gradientUnits="userSpaceOnUse">
		<stop  offset="0.625" style="stop-color:#000000;stop-opacity:0.65"/>
		<stop  offset="1" style="stop-color:#000000;stop-opacity:0"/>
	</radialGradient>
	<rect class="st0" width="544" height="544"/>
	<circle class="st1" cx="272" cy="272" r="210.8"/>
</g>
<g id="info-content2">
	<text transform="matrix(1 0 0 1 229.2188 195.5313)" class="st2 st3 st4">Greetings</text>
	<line class="st5" x1="319.6" y1="190.4" x2="408" y2="190.4"/>
	<line class="st5" x1="136" y1="190.4" x2="224.4" y2="190.4"/>
	
		<rect x="411.4" y="187.9" transform="matrix(0.7071 -0.7071 0.7071 0.7071 -13.7824 349.3174)" class="st6" width="6.8" height="6.8"/>
	
		<rect x="125.1" y="186.2" transform="matrix(0.7071 -0.7071 0.7071 0.7071 -96.4386 146.3773)" class="st6" width="6.8" height="6.8"/>
	<line class="st5" x1="197.2" y1="373.4" x2="346.8" y2="373.4"/>
	<path class="st7" d="M248.2,376.8c17,0,30.6,0,47.6,0c-6.8,3.4-17,6.8-23.8,10.2L248.2,376.8z"/>
</g>
<text transform="matrix(1 0 0 1 96.7842 221.1926)"><tspan x="0" y="0" class="st2 st3 st8">Welcome to our sanctuary, where you can find many explorations</tspan><tspan x="1.2" y="22" class="st2 st3 st8">of our online portfolio. We grant you a unique online experience, </tspan><tspan x="28.4" y="44" class="st2 st3 st8">in the digital realm. Doing so you can find many works</tspan><tspan x="50.6" y="66" class="st2 st3 st8">of ours from Web Deisgn, Ad Campaigns, and </tspan><tspan x="33.2" y="88" class="st2 st3 st8">Videos Games, for your small to mid size businesses, </tspan><tspan x="99.1" y="110" class="st2 st3 st8">so please feel free to explore.</tspan><tspan x="150.4" y="132" class="st2 st3 st8">- </tspan><tspan x="157.4" y="132" class="st2 st9 st8">Namaste</tspan></text>
</svg>
