<?xml version="1.0" encoding="utf-8"?>
<!-- Generator: Adobe Illustrator 21.0.0, SVG Export Plug-In . SVG Version: 6.00 Build 0)  -->
<svg version="1.1" xmlns="http://www.w3.org/2000/svg" xmlns:xlink="http://www.w3.org/1999/xlink" x="0px" y="0px"
	 viewBox="0 0 370 350" style="enable-background:new 0 0 370 350;" xml:space="preserve">
<style type="text/css">
	.st0{fill:url(#SVGID_1_);}
	.st1{clip-path:url(#SVGID_3_);fill:#55494B;}
	.st2{clip-path:url(#SVGID_5_);fill:#55494B;}
	.st3{clip-path:url(#SVGID_7_);fill:#55494B;}
	.st4{clip-path:url(#SVGID_9_);fill:#55494B;}
	.st5{fill:#FFFFFF;}
</style>
<g class="radial-gradient-bkg">
	<radialGradient id="SVGID_1_" cx="185" cy="175" r="180.0694" gradientUnits="userSpaceOnUse">
		<stop  offset="0" style="stop-color:#594D4D"/>
		<stop  offset="9.466267e-02" style="stop-color:#4B4141"/>
		<stop  offset="0.3437" style="stop-color:#2A2525"/>
		<stop  offset="0.5833" style="stop-color:#131010"/>
		<stop  offset="0.8073" style="stop-color:#050404"/>
		<stop  offset="1" style="stop-color:#000000"/>
	</radialGradient>
	<rect class="st0" width="370" height="350"/>
</g>
<g class="logo">
	<g class="triangle">
		<rect x="169.7" y="136.3" transform="matrix(0.7071 -0.7071 0.7071 0.7071 -53.0235 175.1767)" width="30.5" height="30.5"/>
		<rect x="169.7" y="183.2" transform="matrix(0.7071 -0.7071 0.7071 0.7071 -86.1645 188.9353)" width="30.5" height="30.5"/>
		<rect x="193.2" y="159.7" transform="matrix(0.7071 -0.7071 0.7071 0.7071 -62.6647 198.6058)" width="30.5" height="30.5"/>
		<rect x="146.3" y="159.7" transform="matrix(0.7071 -0.7071 0.7071 0.7071 -76.4233 165.4648)" width="30.5" height="30.5"/>
	</g>
	<g class="circle">
		<g id="Layer_3">
		</g>
		<g id="Layer_3_circle">
		</g>
		<g id="Layer_3_circle_2">
		</g>
		<g id="Layer_3_circle_3">
		</g>
		<g>
			<g>
				<defs>
					
						<rect id="SVGID_2_" x="169.7" y="136.3" transform="matrix(0.7071 -0.7071 0.7071 0.7071 -53.0235 175.1767)" width="30.5" height="30.5"/>
				</defs>
				<clipPath id="SVGID_3_">
					<use xlink:href="#SVGID_2_"  style="overflow:visible;"/>
				</clipPath>
				<circle class="st1" cx="184.6" cy="175.5" r="18.8"/>
			</g>
		</g>
		<g>
			<g>
				<defs>
					
						<rect id="SVGID_4_" x="169.7" y="183.2" transform="matrix(0.7071 -0.7071 0.7071 0.7071 -86.1645 188.9353)" width="30.5" height="30.5"/>
				</defs>
				<clipPath id="SVGID_5_">
					<use xlink:href="#SVGID_4_"  style="overflow:visible;"/>
				</clipPath>
				<circle class="st2" cx="184.6" cy="175.5" r="18.8"/>
			</g>
		</g>
		<g>
			<g>
				<defs>
					
						<rect id="SVGID_6_" x="193.2" y="159.7" transform="matrix(0.7071 -0.7071 0.7071 0.7071 -62.6647 198.6058)" width="30.5" height="30.5"/>
				</defs>
				<clipPath id="SVGID_7_">
					<use xlink:href="#SVGID_6_"  style="overflow:visible;"/>
				</clipPath>
				<circle class="st3" cx="184.6" cy="175.5" r="18.8"/>
			</g>
		</g>
		<g>
			<g>
				<defs>
					
						<rect id="SVGID_8_" x="146.3" y="159.7" transform="matrix(0.7071 -0.7071 0.7071 0.7071 -76.4233 165.4648)" width="30.5" height="30.5"/>
				</defs>
				<clipPath id="SVGID_9_">
					<use xlink:href="#SVGID_8_"  style="overflow:visible;"/>
				</clipPath>
				<circle class="st4" cx="184.6" cy="175.5" r="18.8"/>
			</g>
		</g>
	</g>
	<g class="s-icon">
		<path class="st5" d="M188.1,172.2c1.7,0.1,3-0.2,3.8-0.6c1.4-0.8,2.2-2.1,2.2-3.7c0-1.2-0.4-2.3-1.2-3.1c-0.9-0.8-2-1.2-3.4-1.3
			c-1.9,0-3.5,0.5-4.9,1.5c-1.4,1-2.2,2.4-2.4,4l-2.1-0.1c-0.7,0-1.3,0.1-1.7,0.4c-0.4,0.3-0.6,0.7-0.6,1.3c0,0.8,0.5,1.2,1.7,1.2
			l3.4,0.1c0.3,0.7,0.9,1.5,1.6,2.4c1.1,1.3,1.8,2.2,2.1,2.9c0.3,0.6,0.5,1.3,0.5,2c0,1.2-0.5,2.2-1.4,3c-0.9,0.8-1.9,1.2-3,1.2
			c-1,0-1.9-0.4-2.5-1c-0.7-0.7-1-1.5-0.9-2.5c0-0.6,0.2-1.3,0.6-1.9c0.4-0.6,0.9-1.1,1.5-1.5l1-0.6c0.7-0.4,1-0.8,1-1.4
			c0-0.4-0.1-0.7-0.4-1c-0.3-0.3-0.6-0.4-1.1-0.4c-0.9,0-1.8,0.3-2.9,1.1c-2,1.5-3,3.3-3.1,5.6c-0.1,1.9,0.5,3.4,1.7,4.7
			c1.2,1.2,2.8,1.9,4.7,1.9c2.5,0.1,4.6-0.7,6.2-2.5c1.2-1.3,1.8-2.7,1.8-4.5c0.1-1.8-0.5-3.5-1.8-5.1l-0.6-0.8l-1.1-1.5
			L188.1,172.2z M186.6,167.2c0.8-0.5,1.6-0.8,2.5-0.8c0.6,0,1,0.1,1.4,0.4c0.3,0.2,0.5,0.6,0.5,0.9c0,1-0.9,1.4-2.6,1.4l-3-0.1
			C185.5,168.4,185.9,167.8,186.6,167.2z"/>
	</g>
</g>
</svg>
