<?xml version="1.0" standalone="no"?>
<!DOCTYPE svg PUBLIC "-//W3C//DTD SVG 1.1//EN" "http://www.w3.org/Graphics/SVG/1.1/DTD/svg11.dtd" >
<svg xmlns="http://www.w3.org/2000/svg" xmlns:xlink="http://www.w3.org/1999/xlink" version="1.1">
<metadata>
Created by FontForge 20161116 at Sat Aug 18 01:21:37 2012
 By Jimmy Wärting
circleright (c) 1991-99, 2006 Apple Computer, Inc. circleright (c) 1991-92 Type Solutions, Inc. All rights reserved.
</metadata>
<defs>
<font id="Palatino-BoldItalic" horiz-adv-x="1139" >
  <font-face 
    font-family="Palatino"
    font-weight="400"
    font-style="italic"
    font-stretch="normal"
    units-per-em="2048"
    panose-1="0 0 0 0 0 0 0 0 0 0"
    ascent="1638"
    descent="-410"
    x-height="969"
    cap-height="1412"
    bbox="-981 -972 3825 2394"
    underline-thickness="122"
    underline-position="-272"
    slope="-12"
    unicode-range="U+0008-FFFC"
  />
<missing-glyph horiz-adv-x="1536" 
d="M256 0v1280h1024v-1280h-1024zM288 32h960v1216h-960v-1216z" />
    <glyph glyph-name="fi" unicode="fi" horiz-adv-x="1251" 
d="M87 824l12 51q179 58 206 70q20 110 41.5 158t75 104.5t186.5 155.5q99 74 149 96t91 22q75 0 137 -27q-34 -57 -55.5 -130.5t-28.5 -118.5l-41 -1q-33 58 -80.5 86.5t-82.5 28.5q-23 0 -44 -14.5t-38 -49t-39 -131.5l-43 -201l180 -1q116 0 183 9q41 5 146 34
q55 15 73 15q25 0 43.5 -19t18.5 -50q0 -34 -11 -77q-18 -71 -121 -408q-50 -159 -60 -202q-7 -28 -7 -43q0 -17 9.5 -27.5t22.5 -10.5q20 0 54 18q64 33 120 74l21 -52q-196 -143 -274.5 -180.5t-123.5 -37.5q-29 0 -51.5 25t-22.5 70q0 33 9.5 84.5t59.5 213.5l110 364
q25 79 25 90q0 15 -11.5 28t-23.5 13q-10 0 -38 -10q-38 -14 -53 -16q-25 -5 -68 -5l-232 2l-64 -287q-86 -380 -152 -579q-44 -132 -94.5 -217.5t-137 -169t-148.5 -114.5q-43 -22 -92 -22q-39 0 -72 17q33 94 64 219l30 7q18 -39 46.5 -62.5t60.5 -23.5q22 0 42 11t31 30
q19 30 34 95q29 120 64 297l38 185l118 614q-68 2 -109 2t-83 -2zM1029 1277q0 65 40.5 106.5t99.5 41.5q50 0 80.5 -30.5t30.5 -80.5q0 -71 -39 -114.5t-99 -43.5q-53 0 -83 31t-30 90z" />
    <glyph glyph-name="fl" unicode="fl" horiz-adv-x="1251" 
d="M1188 227l25 -53q-140 -96 -197 -130q-83 -50 -137 -69q-28 -10 -47 -10q-33 0 -57.5 28.5t-24.5 77.5q0 43 9 93q7 35 60 234q130 488 186 745q28 130 28 162q0 19 -12.5 29t-45.5 10q-31 0 -63 -4q-16 -55 -24 -127l-30 -7q-83 115 -161 115q-20 0 -36.5 -8.5
t-32 -26.5t-28 -60.5t-33.5 -133.5l-36 -163q111 2 159 5.5t97 11.5l9 -17l-31 -103q-77 3 -166 3q-50 0 -90 -5l-64 -287q-86 -380 -152 -579q-44 -132 -94.5 -217.5t-137 -169t-148.5 -114.5q-43 -22 -92 -22q-39 0 -72 17q33 94 64 219l30 7q18 -39 46.5 -62.5
t60.5 -23.5q22 0 42 11t31 30q19 30 34 95q29 120 64 297l38 185l118 614q-68 2 -109 2t-83 -2l12 51q179 58 206 70q19 104 39.5 154t80 112t206.5 169q88 65 135 83t101 18q39 0 79 -13q-12 -30 -18 -65q250 35 374 84l24 -24q-40 -130 -165 -601t-157 -633q-5 -28 -5 -50
q0 -18 9.5 -29t23.5 -11q15 0 33 9q14 7 125 79z" />
    <glyph glyph-name=".notdef" horiz-adv-x="1536" 
d="M256 0v1280h1024v-1280h-1024zM288 32h960v1216h-960v-1216z" />
    <glyph glyph-name="uni0000" horiz-adv-x="0" 
 />
    <glyph glyph-name="uni0000" horiz-adv-x="0" 
 />
    <glyph glyph-name="uni0000" horiz-adv-x="0" 
 />
    <glyph glyph-name="nonmarkingreturn" unicode="&#x9;" horiz-adv-x="512" 
 />
    <glyph glyph-name="nonmarkingreturn" unicode="&#xd;" horiz-adv-x="512" 
 />
    <glyph glyph-name="nonmarkingreturn" unicode="&#xa;" horiz-adv-x="512" 
 />
    <glyph glyph-name="space" unicode=" " horiz-adv-x="512" 
 />
    <glyph glyph-name="exclam" unicode="!" horiz-adv-x="682" 
d="M287 390l-26 17q5 38 7 62q12 110 37 366q39 396 40 417q3 33 6 100q106 18 158.5 29t124.5 30l23 -18q-193 -610 -253 -811q-26 -86 -37 -142zM137 98q0 79 43 127t105 48q57 0 89.5 -32.5t32.5 -89.5q0 -78 -44.5 -126.5t-111.5 -48.5q-55 0 -84.5 30.5t-29.5 91.5z
" />
    <glyph glyph-name="quotedbl" unicode="&#x22;" horiz-adv-x="1024" 
d="M345 955h-68l142 426q15 46 42 67.5t61 21.5q41 0 67.5 -25.5t26.5 -68.5q0 -15 -7 -42q-5 -19 -13 -30zM785 955h-68l142 426q15 46 42.5 67.5t60.5 21.5q41 0 67.5 -25.5t26.5 -68.5q0 -15 -7 -42q-5 -19 -13 -30z" />
    <glyph glyph-name="numbersign" unicode="#" horiz-adv-x="1241" 
d="M391 336l-87 -336h-74l87 336h-179l47 170h176l109 418h-175l47 170h172l79 305h74l-79 -305h291l79 305h74l-79 -305h180l-47 -170h-177l-109 -418h176l-47 -170h-173l-87 -336h-74l87 336h-291zM835 924h-291l-109 -418h291z" />
    <glyph glyph-name="dollar" unicode="$" horiz-adv-x="1024" 
d="M321 -222l37 205q-84 3 -149 22.5t-165 72.5q15 38 28 112q20 117 24 181h69q0 -44 -9 -156q30 -48 80 -80t140 -52l88 498q-122 23 -188.5 60.5t-100 104t-33.5 153.5q0 176 125.5 308.5t337.5 157.5l19 137h82l-22 -137q82 -1 143 -17.5t147 -63.5q-14 -42 -32 -136
t-21 -138h-65q7 59 7 112q0 10 -1 31q-22 39 -70 69t-125 42l-84 -470q138 -31 195 -58q73 -36 117 -102.5t44 -166.5q0 -124 -70.5 -236.5t-199.5 -181.5t-229 -66l-35 -205h-84zM587 1266q-93 -4 -152.5 -42.5t-86 -104t-26.5 -125.5q0 -63 37.5 -106t146.5 -74zM457 80
q63 0 108 15.5t84.5 51t64.5 92.5t25 121q0 51 -23.5 93t-63.5 67q-24 14 -110 41z" />
    <glyph glyph-name="percent" unicode="%" horiz-adv-x="1821" 
d="M944 252q0 190 126 336.5t312 146.5q123 0 182 -76t59 -171q0 -79 -18.5 -156.5t-66 -162.5t-132 -141.5t-196.5 -56.5q-129 0 -197.5 71.5t-68.5 209.5zM426 -125h-100l851 1395q-42 -28 -107.5 -46t-118.5 -18q-39 0 -101.5 17t-83.5 41q12 -22 18.5 -53.5t6.5 -62.5
q0 -82 -21.5 -160.5t-68 -157t-130.5 -132.5t-182 -54q-135 0 -203.5 69.5t-68.5 204.5q0 109 48.5 219t118 166t134.5 81.5t141 25.5q54 0 101.5 -18t71.5 -45t97 -60.5t133 -33.5q87 0 165.5 50.5t133.5 128.5q8 -3 17 -5.5t18 -2.5q11 0 22 2.5t21 5.5zM1174 456
q-31 -72 -42.5 -144.5t-11.5 -138.5q0 -69 29.5 -109t92.5 -40q58 0 114 59t94 138.5t55.5 157.5t17.5 141q0 76 -30 119.5t-85 43.5q-73 0 -131 -61t-103 -166zM691 1182q0 83 -24.5 128t-83.5 45q-63 0 -122 -53.5t-94.5 -141t-53.5 -161t-18 -151.5q0 -66 30.5 -106
t87.5 -40q59 0 110 48t89.5 129.5t58.5 161t20 141.5z" />
    <glyph glyph-name="ampersand" unicode="&#x26;" horiz-adv-x="1706" 
d="M1539 1078q60 -29 86 -64q34 -47 34 -112q0 -60 -26 -115.5t-67.5 -86.5t-104.5 -46q-43 -11 -194 -37q60 -25 89.5 -68.5t29.5 -105.5q0 -84 -49 -165t-143.5 -147t-218.5 -108q-157 -55 -323 -55q-245 0 -372 111.5t-127 281.5q0 134 84 231q108 124 331 194
q-49 7 -79 24q-52 28 -81.5 75.5t-29.5 113.5q0 76 44 147q33 52 114 116t153 100q95 47 207 47q62 0 120.5 -14t112.5 -42q-10 -30 -17 -65q-5 -26 -26 -178q0 -5 1 -14h-62l-4 121q-43 41 -90 61t-107 20q-110 0 -178 -64.5t-68 -158.5q0 -91 62 -152t158 -61q22 0 62 7
q-23 -76 -27 -121q-35 7 -64 7q-104 0 -193 -42t-135 -121t-46 -175q0 -147 103.5 -243t289.5 -96q130 0 223.5 47t142 119t48.5 153q0 51 -22.5 93.5t-63 63.5t-82.5 21q-34 0 -63.5 -13t-48 -34t-30.5 -52q-4 -12 -16 -67h-50l22 218q59 55 126.5 81.5t242.5 48.5
q123 16 161 23q93 18 129.5 38.5t54.5 49.5t18 62q0 35 -18 60t-53 37v14z" />
    <glyph glyph-name="quotesingle" unicode="'" horiz-adv-x="512" 
d="M329 955h-68l142 426q15 46 42 67.5t61 21.5q41 0 67.5 -25.5t26.5 -68.5q0 -15 -7 -42q-5 -19 -13 -30z" />
    <glyph glyph-name="parenleft" unicode="(" horiz-adv-x="682" 
d="M505 -255q-104 115 -192 267t-119.5 267.5t-31.5 250.5q0 146 40 268q59 182 181 340.5t361 345.5l50 -50q-194 -189 -301.5 -462.5t-107.5 -584.5q0 -370 175 -600z" />
    <glyph glyph-name="parenright" unicode=")" horiz-adv-x="682" 
d="M452 1484q103 -115 191.5 -267t119.5 -267.5t31 -250.5q0 -146 -39 -268q-59 -182 -181.5 -340.5t-361.5 -345.5l-50 50q195 189 302.5 462.5t107.5 584.5q0 370 -175 600z" />
    <glyph glyph-name="asterisk" unicode="*" horiz-adv-x="909" 
d="M562 1096l-162 -223l-52 -5l-55 59l-5 47l225 156l-225 100l-10 48l54 81l40 7l171 -185l-1 281l46 33h71l41 -38l-98 -283l216 157l42 -25l29 -87l-26 -45l-245 -50l178 -150l10 -49l-63 -57l-52 7z" />
    <glyph glyph-name="plus" unicode="+" horiz-adv-x="1241" 
d="M696 668h446v-147h-446v-445h-146v445h-446v147h446v445h146v-445z" />
    <glyph glyph-name="comma" unicode="," horiz-adv-x="512" 
d="M-60 -341l-37 30q72 102 133.5 264.5t69.5 270.5q137 25 258 70l33 -30l-92 -175q-46 -82 -110 -173.5t-148 -186.5z" />
    <glyph glyph-name="hyphen" unicode="-" horiz-adv-x="797" 
d="M90 405l-12 19q43 100 57 187q83 -13 256 -13q251 0 337 9l10 -17q-46 -107 -60 -187q-115 11 -341 11q-158 0 -247 -9z" />
    <glyph glyph-name="period" unicode="." horiz-adv-x="512" 
d="M83 114q0 76 45.5 124.5t108.5 48.5q59 0 95 -36t36 -99q0 -80 -44.5 -129t-109.5 -49q-61 0 -96 35.5t-35 104.5z" />
    <glyph glyph-name="slash" unicode="/" horiz-adv-x="645" 
d="M-39 -238l573 1835h147l-563 -1835h-157z" />
    <glyph glyph-name="zero" unicode="0" horiz-adv-x="1024" 
d="M88 456q0 375 149.5 659t398.5 284q98 0 169 -41t111.5 -106t61 -160.5t20.5 -197.5q0 -224 -71 -446q-86 -264 -235 -392q-106 -91 -250 -91q-104 0 -182 52t-125 158t-47 281zM321 230q0 -101 34 -144t86 -43q71 0 113 57q74 101 150 510q60 324 60 522q0 98 -37 143
t-92 45q-44 0 -79 -30q-48 -41 -90 -167t-89 -386q-56 -310 -56 -507z" />
    <glyph glyph-name="one" unicode="1" horiz-adv-x="1024" 
d="M85 0l6 71q180 4 220 19q14 5 25 19q16 21 34 113q32 157 110 602q60 339 63 371l-19 -10l-238 -107q-89 -40 -114 -51l-19 15l34 135l175 48q77 21 182.5 60t186.5 78q36 17 63 35l37 -28q-8 -34 -66 -353l-99 -544q-43 -242 -49 -290q-2 -19 -2 -36q0 -33 18.5 -49
t83.5 -20q95 -7 171 -7l-12 -71q-61 3 -205 6.5t-191 3.5q-59 0 -242 -4q-103 -3 -153 -6z" />
    <glyph glyph-name="two" unicode="2" horiz-adv-x="1024" 
d="M-2 1l8 56l150 142q113 110 227.5 241.5t179 240.5t90.5 198q17 60 17 114q0 108 -55.5 164t-153.5 56q-64 0 -109.5 -21.5t-81.5 -67.5q-26 -32 -76 -126l-61 20l114 275q67 57 121 77q75 29 168 29q111 0 203 -42t137.5 -122t45.5 -186q0 -64 -14 -113.5t-49 -109
t-113 -148.5q-54 -63 -145 -152q-221 -215 -318 -304v-12h108l275 3q120 1 158 4.5t88 12.5l16 -15q-13 -29 -28 -75q-25 -82 -39 -140q-298 11 -426 11q-74 0 -201 -4q-162 -6 -236 -6z" />
    <glyph glyph-name="three" unicode="3" horiz-adv-x="1024" 
d="M20 57l61 327l67 -6q-6 -70 -6 -107q0 -108 57 -165t162 -57q85 0 151 48t104 148.5t38 207.5q0 122 -59 183.5t-166 61.5q-63 0 -146 -28l-10 11l32 104q32 -7 68 -7q166 0 236 85t70 191q0 86 -50 134.5t-141 48.5q-48 0 -94.5 -14.5t-88.5 -54t-79 -110.5l-57 24
l114 224q31 28 59 43q41 21 103 35.5t131 14.5q110 0 191 -36.5t117.5 -98.5t36.5 -139t-36.5 -143.5t-122.5 -126.5t-157 -83l-2 -8q173 -20 243 -104.5t70 -201.5q0 -126 -72 -239t-202.5 -181t-294.5 -68q-92 0 -164 19t-163 68z" />
    <glyph glyph-name="four" unicode="4" horiz-adv-x="1024" 
d="M203 0l10 70l168 8q39 2 53.5 10.5t22.5 28.5q19 47 52 255l-500 -5l9 76l127 201q51 79 152.5 222t173.5 239q30 40 181 229q139 27 247 68l27 -22q-28 -129 -56 -291l-101 -565q130 3 144 4q59 3 73 4l10 -8l-39 -157q-117 5 -216 6l-25 -165q-7 -63 -7 -79
q0 -23 10.5 -34t50 -17t169.5 -11l-13 -67q-9 0 -177 7q-83 3 -169 3q-65 0 -133 -2zM540 524l73 419l17 91l33 181q-100 -124 -186 -243q-142 -195 -211 -298q-43 -65 -90 -150q62 -3 128 -3q118 0 236 3z" />
    <glyph glyph-name="five" unicode="5" horiz-adv-x="1024" 
d="M17 68q17 67 33.5 154.5t21.5 147.5l61 -8q-5 -33 -5 -58q0 -74 29.5 -133t83 -89t120.5 -30q69 0 117 30t84 80t58 109q38 103 38 219q0 128 -59 191.5t-163 63.5q-68 0 -121 -29t-96 -93l-63 27l44 223q49 256 60.5 325t25.5 168l10 8q125 -14 335 -14q212 0 328 9
l12 -19l-92 -182q-172 -14 -250 -14q-227 0 -284 7l-86 -403q59 49 127 75.5t159 26.5q115 0 201 -43t131 -127.5t45 -174.5q0 -119 -60.5 -245t-192 -211t-308.5 -85q-102 0 -190 24q-66 19 -154 70z" />
    <glyph glyph-name="six" unicode="6" horiz-adv-x="1024" 
d="M974 1102l-60 7q10 89 -30.5 135.5t-117.5 45.5q-57 0 -109 -24.5t-96 -73.5t-81 -124.5t-63 -158.5q-39 -121 -53 -217q75 83 150 119.5t158 36.5q132 0 216 -85.5t84 -233.5q0 -103 -38 -205q-26 -72 -59 -117.5t-90 -94.5q-91 -79 -171.5 -113t-169.5 -34
q-92 0 -165 35.5t-116 98t-62.5 144.5t-19.5 172q0 194 69 394q43 122 118 231.5t176 192.5t203.5 124.5t194.5 41.5q125 -2 207 -59q-46 -103 -75 -238zM326 304q0 -130 47 -186t125 -56q62 0 103 35q55 48 86.5 159t31.5 223q0 128 -45.5 181t-121.5 53
q-103 0 -164.5 -107.5t-61.5 -301.5z" />
    <glyph glyph-name="seven" unicode="7" horiz-adv-x="1024" 
d="M157 0l-13 25q82 117 129 190q190 294 256 391l286 419q49 71 81 115q-60 4 -93 4q-401 0 -480 -3t-161 -10l-10 13l26 123q9 47 17 100l9 13q19 0 120 -6q70 -4 109 -5q12 0 160 -1l297 -5q98 0 222 7l-6 -75q-68 -92 -187 -285.5t-270 -472.5q-82 -152 -186 -368
q-46 -97 -72 -169q-8 0 -135 7q-85 -6 -99 -7z" />
    <glyph glyph-name="eight" unicode="8" horiz-adv-x="1024" 
d="M391 672q-66 37 -100 69q-45 44 -68 95.5t-23 123.5q0 93 39 165.5t120 141t162 100.5t167 32q139 0 220.5 -76.5t81.5 -190.5q0 -74 -32 -134.5t-98 -117.5q-40 -35 -168 -116q123 -62 180 -141t57 -179q0 -65 -25.5 -137t-72 -126.5t-128 -108t-147 -80t-157.5 -26.5
q-159 0 -250.5 85.5t-91.5 218.5q0 64 21 118.5t67.5 106.5t110.5 96q25 17 135 81zM632 798q112 79 160 159q36 57 36 136q0 67 -25.5 114t-74.5 71t-105 24q-62 0 -116 -30.5t-81.5 -84.5t-27.5 -115q0 -80 47.5 -141.5t186.5 -132.5zM452 634q-57 -30 -112 -82
t-86.5 -115.5t-31.5 -141.5q0 -106 63.5 -169.5t167.5 -63.5q73 0 132 33.5t93 100.5t34 141q0 88 -57.5 151t-202.5 146z" />
    <glyph glyph-name="nine" unicode="9" horiz-adv-x="1024" 
d="M108 -1q-3 35 -17 89q-18 72 -35 120l47 23q73 -162 232 -162q115 0 193 91q120 141 190 509q-80 -91 -163 -133q-62 -32 -135 -32q-75 0 -148 35.5t-114.5 114t-41.5 196.5q0 110 37 207q24 65 64.5 114t117 104.5t149 87t157.5 31.5q105 0 190.5 -51.5t128.5 -155
t43 -241.5q0 -145 -39 -296q-53 -206 -166 -364t-269 -249q-123 -72 -253 -72q-39 0 -73.5 6.5t-94.5 27.5zM363 869q0 -108 49 -163.5t122 -55.5q50 0 96 29q32 20 59 66t41 111q19 95 19 186q0 87 -22 144.5t-62 83t-90 25.5q-53 0 -94 -27.5t-66 -82.5q-34 -74 -47 -174
q-6 -50 -5 -142z" />
    <glyph glyph-name="colon" unicode=":" horiz-adv-x="512" 
d="M168 755q0 77 45.5 125t108.5 48q59 0 95 -36t36 -99q0 -80 -44.5 -129t-109.5 -49q-61 0 -96 35.5t-35 104.5zM51 114q0 76 45.5 124.5t108.5 48.5q59 0 95 -36t36 -99q0 -80 -44.5 -129t-109.5 -49q-61 0 -96 35.5t-35 104.5z" />
    <glyph glyph-name="semicolon" unicode=";" horiz-adv-x="512" 
d="M169 755q0 77 45 125t108 48q60 0 96 -36t36 -99q0 -80 -44.5 -129t-109.5 -49q-62 0 -96.5 35.5t-34.5 104.5zM-75 -341l-37 30q72 102 133.5 264.5t69.5 270.5q137 25 258 70l33 -30l-92 -175q-46 -82 -110 -173.5t-148 -186.5z" />
    <glyph glyph-name="less" unicode="&#x3c;" horiz-adv-x="1241" 
d="M40 471v119l1062 448l67 -128l-879 -377l882 -340l-104 -133z" />
    <glyph glyph-name="equal" unicode="=" horiz-adv-x="1241" 
d="M70 780h1101v-148h-1101v148zM70 417h1101v-148h-1101v148z" />
    <glyph glyph-name="greater" unicode="&#x3e;" horiz-adv-x="1241" 
d="M1200 625v-121l-1062 -447l-67 128l877 377l-880 340l104 133z" />
    <glyph glyph-name="question" unicode="?" horiz-adv-x="909" 
d="M413 380q-56 54 -72.5 87.5t-16.5 70.5q0 52 31 104t111 132q126 127 162 190.5t36 126.5q0 66 -50 112t-132 46q-50 0 -95.5 -18t-70 -50t-62.5 -123l-65 10q62 154 87 256q78 48 140.5 67.5t135.5 19.5q106 0 192.5 -37t130.5 -107t44 -161q0 -78 -29.5 -140
t-111.5 -134q-62 -55 -175 -131q-82 -54 -108 -76q-48 -42 -67 -75q-14 -25 -14 -51q0 -46 44 -84zM206 98q0 79 43.5 127t105.5 48q56 0 88.5 -32.5t32.5 -89.5q0 -78 -44 -126.5t-111 -48.5q-56 0 -85.5 30.5t-29.5 91.5z" />
    <glyph glyph-name="at" unicode="@" horiz-adv-x="1706" 
d="M1396 224l-14 -72q-82 -61 -157.5 -102t-171.5 -66t-215 -25q-262 -2 -471 168.5t-209 464.5q0 339 225 573.5t599 234.5q315 0 482.5 -165.5t167.5 -424.5q0 -199 -117.5 -347.5t-278.5 -148.5q-76 0 -134.5 50.5t-58.5 153.5q-44 -109 -113.5 -153.5t-173.5 -44.5
q-112 0 -181 74.5t-74 213.5q5 223 110.5 381.5t289.5 158.5q89 0 140 -34.5t73 -107.5q11 23 24.5 58.5t19.5 49.5l192 10q-10 -46 -33 -154t-42 -199.5t-30 -146.5t-15 -88t-4 -70q0 -41 21.5 -60.5t54.5 -19.5q91 0 164.5 113t73.5 309q0 225 -144.5 377t-417.5 152
q-283 0 -467 -207.5t-184 -503.5q0 -275 170.5 -432.5t400.5 -157.5q151 0 263 47t235 141zM818 420q78 0 133 73.5t75 137.5t36.5 151t16.5 142q0 65 -35 107t-96 42q-73 0 -118.5 -69t-72 -149t-39.5 -151.5t-13 -135.5q1 -76 29.5 -112t83.5 -36z" />
    <glyph glyph-name="A" unicode="A" horiz-adv-x="1479" 
d="M-69 0v67q106 9 115 12q14 5 25 15q14 14 118 190l411 690q229 388 248 425h195q35 -261 75 -534q69 -471 103 -673q14 -80 27 -98q8 -9 19 -14q18 -7 135 -13v-67l-315 7q-23 0 -299 -7v67q91 0 129 9q25 5 32 14t7 32q0 72 -48 423q-58 1 -83 1l-369 -1
q-114 -195 -186 -349q-30 -64 -30 -83q0 -14 10 -23q15 -13 51 -17q21 -2 116 -6l-7 -67l-230 7zM504 635q28 -2 65 -2q295 0 328 2l-78 533z" />
    <glyph glyph-name="B" unicode="B" horiz-adv-x="1366" 
d="M21 0l5 64q111 21 126 31q9 7 16 23q14 31 62 297.5t102 591.5q36 214 36 268q0 22 -8 31.5t-37 16.5q-21 4 -86 7l-39 2h-15l6 67l316 -5q18 0 208 5q87 2 158 2q148 0 233.5 -27.5t136.5 -93t51 -159.5q0 -72 -32.5 -139t-95 -117t-136.5 -78q-22 -9 -155 -44
q146 -17 218.5 -51.5t108.5 -100t36 -151.5q0 -98 -46 -177.5t-116 -134t-154 -86.5q-121 -46 -260 -46q-64 0 -164 6q-132 7 -217 7q-75 0 -258 -9zM543 769q38 -2 76 -2q93 0 146 9.5t98.5 33t79.5 63.5t55.5 104.5t21.5 124.5q0 58 -26 105.5t-68 67.5q-60 30 -179 30
q-51 0 -108 -6l-5 -29l-45 -237q-38 -219 -46 -264zM434 111q161 -25 228 -25q103 0 166 44.5t97 134t34 171.5q0 85 -34 142.5t-94.5 81t-196.5 23.5q-27 0 -108 -2q-5 -37 -58 -348q-14 -79 -34 -222z" />
    <glyph glyph-name="C" unicode="C" horiz-adv-x="1403" 
d="M1276 239l-23 -80q-81 -54 -178.5 -101t-171.5 -66q-99 -27 -214 -27q-149 0 -252 41.5t-168.5 108.5t-94.5 147q-39 107 -39 239q0 183 58 350q56 127 137.5 224.5t243.5 211.5q118 68 222.5 102t221.5 34q123 0 233.5 -29t159.5 -65q-63 -201 -78 -338h-71l5 171
q0 23 -8 34q-13 19 -41.5 35.5t-97.5 43.5q-80 24 -181 24q-116 0 -194 -31.5t-140.5 -93t-107 -163t-64 -218t-19.5 -278.5q0 -124 43.5 -220t133.5 -145t213 -49q85 0 165 21t141 50q19 9 143 85z" />
    <glyph glyph-name="D" unicode="D" horiz-adv-x="1593" 
d="M23 0l6 64q96 12 118 27q12 8 20 25q11 26 57 274t111 638q30 182 30 240q0 20 -7.5 30t-21 14t-67.5 8q-95 7 -100 7l13 72q97 -11 230 -11q111 0 270 3q198 4 260 4q201 0 329.5 -55.5t201 -180t72.5 -295.5q0 -151 -58 -316t-174.5 -290t-265 -191t-321.5 -66
q-57 0 -215 5q-92 3 -187 3q-75 0 -121 -1zM434 128l202 -26q55 -6 102 -6q112 0 194 33q58 24 101 68q68 69 119 170.5t81.5 248t30.5 272.5q0 86 -25 172.5t-79.5 142t-129.5 78t-190 22.5q-113 0 -200 -12l-102 -558q-84 -466 -104 -605z" />
    <glyph glyph-name="E" unicode="E" horiz-adv-x="1251" 
d="M18 0l10 63q98 14 119 29q9 6 17 24q18 43 60 275q20 109 80 454q68 387 68 430q0 21 -9 30q-13 13 -55 19q-26 5 -132 11l13 64q302 -6 327 -6l363 4q98 2 238 2q68 0 117 -6l10 -12q-12 -53 -41 -228q-7 -46 -11 -84h-68l2 144q0 29 -4.5 38t-15.5 15q-16 10 -46.5 16
t-113.5 14q-51 5 -110 5q-111 0 -189 -12l-70 -354q-13 -65 -29 -155q255 -5 281 -5q91 0 190 5l6 -12l-25 -97q-19 1 -197 6l-174 5q-17 0 -96 -3q-20 -116 -53 -300l-35 -195q-6 -36 -8 -67q78 -12 234 -12q84 0 131 4q119 12 145 18t39.5 16t23 30t55.5 181h75
q-18 -83 -29 -136l-36 -199l-10 -12q-48 -7 -125 -7q-143 0 -305 4q-269 6 -290 6q-193 0 -327 -10z" />
    <glyph glyph-name="F" unicode="F" 
d="M-2 0l5 70q112 2 136 9q14 5 23 14t17 34.5t38 192.5l96 547q64 357 64 408q0 21 -9 30q-13 13 -54 19q-27 5 -132 11l12 64q303 -6 314 -6l356 5q90 1 217 1q71 0 120 -6l10 -12q-11 -53 -40 -228q-8 -46 -12 -84h-68l2 144q0 31 -6 41t-26.5 18.5t-69.5 14.5
q-103 14 -176 14q-86 0 -163 -12q-13 -45 -26 -115l-82 -469l61 -1q200 0 269 2.5t148 11.5l9 -13l-28 -101q-161 4 -374 4q-59 0 -105 -4q-59 -357 -63 -386q-7 -49 -7 -79t11.5 -43t46.5 -18t143 -8l-6 -70q-180 6 -307 6q-103 0 -344 -6z" />
    <glyph glyph-name="G" unicode="G" horiz-adv-x="1593" 
d="M1334 100l-7 -8q-56 -11 -161 -46q-138 -47 -230.5 -64t-191.5 -17q-288 0 -440 145.5t-152 401.5q0 177 62.5 319.5t150 251t195.5 178t229 116.5q132 46 277 46q121 0 235 -27t176 -65l8 -15q-56 -205 -59 -219q-11 -51 -20 -110h-72q7 107 9 196q-73 55 -140 79
q-95 33 -214 33q-121 0 -205 -31t-139 -84t-99.5 -133t-83.5 -211q-34 -158 -34 -315q0 -230 104 -342.5t287 -112.5q137 0 240 57l38 153q11 43 24 125q8 48 8 64t-10 27.5t-30 15.5q-32 5 -172 8l13 70q180 -7 287 -7q79 0 317 7l-11 -70q-64 -1 -88 -10.5t-36 -29
t-30 -101.5l-18 -86q-17 -79 -20 -102t-3 -46q0 -18 6 -41z" />
    <glyph glyph-name="H" unicode="H" horiz-adv-x="1593" 
d="M1676 1399l-11 -75h-31q-82 1 -115 -12q-11 -5 -18 -14q-11 -14 -20 -50q-19 -82 -80 -411q-53 -287 -74 -415q-44 -264 -44 -295q0 -30 31 -41t159 -16l-12 -70q-142 8 -338 8q-181 0 -307 -8l11 70q114 0 145 12q14 5 20 13q10 13 22 61q4 15 44 217q50 252 60 321
l-266 2l-328 -2q-9 -66 -27 -171t-41 -257l-17 -103q-3 -17 -3 -28q0 -19 12.5 -34.5t35 -21t134.5 -9.5l-12 -70q-142 8 -338 8q-181 0 -307 -8l11 70q143 9 162 20q12 7 21 24q15 30 52 227l86 485q68 372 68 442q0 20 -8 31t-25 16q-25 8 -81 8q-54 0 -70 1l12 75h11
l343 -8l284 8l-11 -75h-29q-69 1 -109 -6q-12 -3 -20.5 -10.5t-16.5 -29.5q-12 -31 -43 -193l-55 -294q215 -8 299 -8q96 0 293 8q3 20 32 191q5 27 26 174q8 49 9.5 71.5t1.5 41.5t-8 29t-29 14q-50 10 -141 12l12 75h12l342 -8z" />
    <glyph glyph-name="I" unicode="I" horiz-adv-x="797" 
d="M0 0l8 69q93 -2 143 11q11 3 18 9q15 14 25.5 43t50.5 252l94 530q51 293 51 357q0 24 -13.5 36.5t-50.5 15.5q-23 2 -127 6l11 70q155 -6 289 -6q90 0 366 6l-12 -70q-114 0 -139 -8q-15 -5 -26.5 -16t-18.5 -36q-18 -53 -71 -355q-68 -388 -93 -536q-34 -197 -34 -246
q0 -23 10.5 -36t39.5 -20t147 -7l-9 -69q-244 8 -317 8q-49 0 -342 -8z" />
    <glyph glyph-name="J" unicode="J" horiz-adv-x="797" 
d="M-26 -403l-7 64l7 6q19 -8 36.5 -12.5t34.5 -4.5q27 0 50.5 12.5t37.5 34.5q28 42 50 139t23 105l149 868q67 392 67 464q0 26 -29 35.5t-174 13.5l9 77q322 -9 370 -9q170 0 292 9l-12 -77q-84 4 -130 -8q-18 -4 -28 -14q-12 -12 -22 -46q-17 -58 -71 -359
q-67 -376 -91 -523q-39 -242 -63.5 -346.5t-74 -197t-123.5 -160.5q-56 -52 -116 -76q-45 -17 -98 -17q-28 0 -46 4.5t-41 17.5z" />
    <glyph glyph-name="K" unicode="K" horiz-adv-x="1479" 
d="M6 0l9 73q132 -3 158 15q15 10 25 46q22 81 130 698q67 377 67 435q0 29 -15.5 42.5t-61.5 14.5q-105 3 -111 3l12 72q305 -4 335 -4q86 0 306 4l-11 -72q-130 -2 -155 -16q-11 -6 -17 -21q-13 -27 -53 -237l-66 -358q66 42 201 163q43 39 217 208q149 144 206 210
q29 33 36 51q4 12 4 38v34q53 -7 70 -7l67 2q48 2 152 3q12 0 40 2l-1 -72q-82 -2 -106.5 -9t-55.5 -28q-61 -42 -226 -188q-92 -83 -350 -326l392 -550q87 -121 114.5 -138.5t107.5 -20.5l-7 -67l-118 4q-105 4 -136 4q-47 0 -121 -8l-126 192q-55 83 -183 259
q-100 137 -177 232q-45 -231 -82 -460q-11 -68 -11 -91q0 -21 8 -32t24.5 -17t49.5 -8l102 -2l-10 -73q-293 9 -341 9q-110 0 -292 -9z" />
    <glyph glyph-name="L" unicode="L" horiz-adv-x="1251" 
d="M51 0l11 62q111 28 119 33q11 7 18 21q13 25 46 209q88 501 103 598q50 319 50 349q0 24 -11 34.5t-47 14.5l-127 9l12 69q57 0 195.5 -5.5t188.5 -5.5q53 0 111 3l163 8l-11 -75h-22q-114 1 -144 -14q-12 -6 -20 -19q-15 -24 -43 -175q-36 -194 -69 -395l-101 -607
q152 -10 250 -10q169 0 262 22q37 9 51 27q19 26 82 215h72q-56 -234 -72 -360q-56 -8 -122 -8q-80 0 -238 4q-296 6 -340 6q-236 0 -367 -10z" />
    <glyph glyph-name="M" unicode="M" horiz-adv-x="1933" 
d="M-46 0l5 73l96 6q15 5 25 14q14 15 28 54t93 319q98 352 161 600q41 160 41 187q0 28 -24.5 49.5t-173.5 27.5l7 69q63 -7 170 -7q164 0 280 7q48 -204 83 -346l177 -690q55 85 220 354q116 187 226 375q135 231 181 307l25 -2q118 -7 132 -7l307 9l-9 -74
q-97 0 -127 -10q-20 -7 -33 -24q-16 -23 -36 -115q-7 -36 -47 -261l-99 -576q-29 -169 -29 -206q0 -38 25.5 -48t158.5 -17l-10 -68q-269 8 -316 8q-64 0 -308 -8l7 73q11 0 124 8q17 3 27.5 12t17.5 24q11 27 51 237q47 252 77 436l62 399q-35 -55 -76 -121l-225 -360
q-100 -161 -197 -324.5t-138 -236.5q-79 -142 -99 -175h-53q-7 26 -73 290l-142 562q-59 233 -75 293l-87 -353q-90 -354 -98 -387q-39 -171 -46 -217q-3 -21 -3 -38q0 -21 17 -32q21 -15 92 -18q32 -1 61 -4l-6 -68l-15 -1l-255 9z" />
    <glyph glyph-name="N" unicode="N" horiz-adv-x="1593" 
d="M-4 0l8 73q110 6 120 10q19 7 32 24t31 102q50 227 76 361q97 502 121 647q-41 62 -65 82q-17 13 -42.5 18.5t-141.5 15.5l7 66q146 -6 161 -6l278 6q27 -45 65 -112l101 -180q169 -288 281.5 -482.5t195.5 -329.5q164 882 164 980q0 32 -30.5 42.5t-150.5 15.5l10 66
q77 -4 181 -4q163 0 301 4l-10 -71q-23 -1 -33 -1l-54 1q-26 0 -48 -13q-11 -6 -19 -19q-19 -34 -82 -329.5t-127 -647.5q-23 -128 -52 -328h-176l-636 1108q-63 -332 -77 -414q-68 -408 -75.5 -467.5t-7.5 -80.5q0 -28 9.5 -40t38 -19t133.5 -5l-11 -73l-280 7z" />
    <glyph glyph-name="O" unicode="O" horiz-adv-x="1706" 
d="M153 532q0 135 40 282.5t122 269.5q61 90 150.5 164.5t221 124.5t308.5 50q296 0 458 -154t162 -417q0 -206 -90 -397q-107 -225 -303 -357.5t-466 -132.5q-143 0 -258.5 40t-193.5 115.5t-114.5 177.5t-36.5 234zM433 469q0 -80 15.5 -148.5t44 -114t73.5 -78.5
t110.5 -53t132.5 -20q101 0 172.5 33t122.5 89.5t94 146.5q58 119 97 279t39 307q0 93 -19.5 170t-59.5 128.5t-115 86.5t-176 35q-109 0 -185.5 -35t-136.5 -107t-111 -196t-74.5 -271t-23.5 -252z" />
    <glyph glyph-name="P" unicode="P" horiz-adv-x="1366" 
d="M21 0l7 68q125 0 154 12q12 5 19 15q15 22 43 168q71 367 119.5 654.5t48.5 345.5q0 23 -10.5 36t-34.5 18q-31 7 -156 8l10 74q199 -11 331 -11q66 0 201.5 4t219.5 4q155 0 237.5 -40.5t123.5 -118t41 -176.5q0 -108 -42 -194.5t-106.5 -147t-138.5 -94.5
q-105 -48 -220 -48q-95 0 -203 37l-10 73q94 -29 159 -29q68 0 136 44t110.5 142t42.5 204q0 80 -26.5 139t-88 90t-146.5 31q-44 0 -150 -16q-37 -185 -110 -598t-86 -516q-3 -27 -3 -47q0 -25 11.5 -36.5t57.5 -17.5q24 -4 140 -8l-10 -69l-341 8q-55 0 -330 -8z" />
    <glyph glyph-name="Q" unicode="Q" horiz-adv-x="1706" 
d="M151 533q0 134 39.5 281t121.5 269q61 90 150.5 165t221.5 125t309 50q296 0 458 -154t162 -417q0 -206 -90 -397q-107 -225 -303 -357.5t-466 -132.5q-142 0 -258.5 40t-194 115.5t-114 177.5t-36.5 235zM431 469q0 -80 15.5 -148.5t44 -114t73.5 -78.5t110.5 -53
t132.5 -20q101 0 172.5 33t122.5 89.5t94 146.5q58 119 97 279t39 307q0 93 -19.5 170t-59.5 128.5t-115 86.5t-176 35q-109 0 -185.5 -35t-136.5 -107t-111 -196t-74.5 -271t-23.5 -252zM301 -320q-3 91 33 158.5t100 101.5t126 34t127 -18q91 -26 301 -120
q153 -67 226 -88.5t125 -21.5q62 0 102 46.5t62 136.5l62 -20q-20 -85 -44 -139t-55 -95t-61 -64t-64.5 -34.5t-76.5 -11.5t-78 8q-46 12 -105 39q-31 14 -130 71q-245 139 -313.5 166t-124.5 27q-55 0 -101.5 -44.5t-49.5 -158.5l-9 -5z" />
    <glyph glyph-name="R" unicode="R" horiz-adv-x="1479" 
d="M17 0l6 70h17q94 -1 122 10q12 4 20 13q14 16 24 56.5t69 379.5l63 361q58 321 58 377q0 21 -10.5 33.5t-35.5 18t-140 7.5l11 73l205 -9q78 -3 121 -3q23 0 227 7q91 2 180 2q144 0 221 -29t124.5 -99t47.5 -161q0 -125 -92.5 -232t-326.5 -148q53 -87 233 -391
q115 -194 142 -226q19 -22 40 -31t87 -9l-6 -70l-215 6l-119 -5q-12 -1 -36 -1l-129 239q-115 202 -169 294q-22 38 -37 61q-23 38 -85 133l8 32q41 -3 63 -3q109 0 195.5 38t131.5 116t45 181q0 106 -59.5 160t-189.5 54q-97 0 -159 -14q-22 -110 -101 -554
q-40 -221 -74 -434q-21 -131 -22.5 -145.5t-1.5 -26.5q0 -22 10 -35t34 -18q35 -8 143 -8l-6 -70l-354 10q-49 0 -280 -10z" />
    <glyph glyph-name="S" unicode="S" 
d="M91 75q11 42 29.5 149.5t22.5 161.5h66l-2 -114q0 -21 2 -61q32 -48 120 -90.5t188 -42.5q164 0 234 73t70 180q0 53 -11.5 89.5t-39 62t-69 41.5t-143.5 48q-178 45 -247 105q-95 83 -95 242q0 201 161 352.5t396 151.5q91 0 169.5 -23t144.5 -69q-19 -73 -30 -131.5
t-26 -169.5h-65q2 40 2 70q0 13 -2 94q-22 30 -45 47q-36 27 -93 46.5t-128 19.5q-90 0 -155.5 -35t-97.5 -93.5t-33 -145.5q1 -78 29 -119t129 -75q130 -30 207.5 -52.5t137 -51t93 -93.5t33.5 -152q0 -145 -92 -269t-217.5 -190t-281.5 -66q-103 0 -198 29t-163 81z" />
    <glyph glyph-name="T" unicode="T" horiz-adv-x="1251" 
d="M211 0l8 71q126 -2 156 9q15 5 25 17q14 18 26 76q33 160 95.5 516.5t102.5 596.5l-60 1q-257 0 -293.5 -26.5t-78.5 -219.5h-74q27 145 51 341l11 12l255 -10q115 -4 264 -4q208 0 454 6q129 4 209 13l14 -17q-43 -218 -50.5 -261.5t-10.5 -79.5h-75q10 85 10 155
q0 51 -9.5 63t-35.5 18q-46 10 -202 10q-73 0 -111 -1l-88 -461q-39 -206 -79 -450q-27 -163 -31 -209q-2 -20 -2 -38q0 -23 9 -34t33 -16q35 -7 152 -7l-8 -71q-260 8 -345 8q-106 0 -322 -8z" />
    <glyph glyph-name="U" unicode="U" horiz-adv-x="1593" 
d="M1719 1423l-9 -74q-112 1 -141 -10q-14 -6 -23 -16q-13 -15 -24 -60q-26 -107 -77.5 -393t-76.5 -437q-42 -256 -42 -292q0 -28 9 -40t29 -18q37 -11 111 -11l43 1l-11 -73q-188 5 -197 5l-270 -5l-10 12q30 137 49 251q-166 -177 -301 -249q-92 -49 -210 -49
q-96 0 -168 29q-55 23 -99 64.5t-68 86.5q-36 70 -36 144q0 32 2 64q4 46 16 120q20 128 52 297.5t46 256.5q29 177 33 206.5t4 56.5q0 22 -6.5 31.5t-23.5 15.5q-22 9 -68 12q-78 5 -86 5l11 69q22 -1 111 -2l235 -5h12q49 0 116 7l12 -15q-43 -189 -60 -279
q-44 -230 -90 -500q-33 -189 -36.5 -224t-3.5 -68q0 -92 59 -146.5t162 -54.5q74 0 156 37t171 125q58 58 68 85q6 17 41 221q43 246 57 328q55 332 55 368q0 22 -17 32q-28 15 -172 22l9 69h19l331 -7z" />
    <glyph glyph-name="V" unicode="V" horiz-adv-x="1366" 
d="M511 -8q-9 95 -96 635q-19 121 -84 495q-28 161 -36 174.5t-22 20.5q-28 14 -131 11v71l264 -6l339 6l-4 -66l-91 -6q-40 -4 -54 -16.5t-14 -37.5q0 -21 5 -83l18 -138l119 -767l234 424q148 267 250 489q35 77 35 98q0 13 -13 20q-22 11 -158 17l7 66l200 -5l245 5
l-7 -71q-58 1 -81 -7q-18 -6 -30 -21q-15 -19 -71 -120l-499 -891q-95 -170 -130 -239q-13 -26 -26 -58h-169z" />
    <glyph glyph-name="W" unicode="W" horiz-adv-x="2048" 
d="M428 -17q-12 124 -38 432q-23 273 -60 612q-25 229 -43 261q-5 9 -16 15q-27 14 -127 12l5 70q147 -4 315 -4q154 0 280 4v-70h-18q-86 1 -117 -8q-17 -6 -24 -17q-11 -17 -11 -56q0 -30 4 -95l13 -177l59 -664l190 390l92 181l256 530h65l301 -1130l206 526l40 109
q47 122 64 171q37 110 48 161q3 15 3 29q0 17 -5 25t-19 14q-19 7 -50 9q-60 3 -101 2l9 70q179 -6 253 -6q94 0 191 6l-6 -70h-9q-43 1 -71 -5q-9 -2 -16 -8q-11 -8 -20.5 -26.5t-73.5 -170.5q-96 -228 -99 -236q-5 -14 -12 -31l-226 -551l-23 -52q-26 -66 -97 -252h-172
q-22 100 -79 313l-30 115l-159 584l-502 -1012h-170z" />
    <glyph glyph-name="X" unicode="X" horiz-adv-x="1479" 
d="M-19 1l5 74q92 2 121 8q18 3 34 14.5t60 58.5l477 511l-202 395q-31 61 -75.5 140t-60.5 96q-12 13 -26.5 19.5t-44.5 8.5q-64 3 -105 3l5 70l26 -1l342 -5q16 0 288 5v-69q-91 0 -127 -6q-22 -4 -28.5 -11.5t-6.5 -16.5q0 -12 3 -23q20 -58 74 -170l125 -243l161 180
l92 109q46 55 80 104q19 28 22 36l2 8q0 6 -6 12q-10 10 -36 14q-35 6 -135 7l5 70q209 -8 223 -8l310 8l-5 -70q-85 -1 -113 -8q-16 -4 -28 -12q-30 -20 -100 -89.5t-223 -230.5l-203 -214l190 -373l94 -181q52 -99 68 -118q11 -12 24 -18q27 -11 126 -18l-5 -66l-310 6
l-318 -7v74q102 0 136 5q16 3 22 10q9 11 9 25q0 17 -12 47q-35 85 -135 276l-74 143l-183 -202q-45 -49 -110.5 -130t-77.5 -106q-6 -11 -6 -22q0 -26 27 -35q20 -7 154 -10l-6 -74q-233 6 -271 6q-47 0 -272 -6z" />
    <glyph glyph-name="Y" unicode="Y" horiz-adv-x="1251" 
d="M277 0l7 71q45 -2 93.5 1t67 12.5t28.5 26.5q14 24 22 81l22 118q13 71 25 154q4 27 4 40q0 41 -33.5 163.5t-70 235.5t-74.5 182.5t-73 101.5q-20 18 -44 26q-31 10 -59 15q-36 2 -76 0l-6 47q70 46 125 85q48 37 76 55q27 4 44 4q48 0 89.5 -17.5t81.5 -63.5
q53 -60 96 -176t83 -289l54 -252q62 145 97 211q87 163 179 292t164 193q52 47 102 68q34 14 96 16q-7 -96 11 -181q-89 -11 -172 -61q-82 -58 -184 -197q-128 -173 -209 -375q-35 -85 -68 -265q-26 -143 -26 -190q0 -23 10.5 -35.5t36.5 -18.5q43 -9 157 -9l-8 -69
q-182 9 -307 9q-97 0 -361 -9z" />
    <glyph glyph-name="Z" unicode="Z" horiz-adv-x="1366" 
d="M6 0v59q34 32 116.5 130.5t226.5 277.5l660 822h-258q-151 0 -258 -7.5t-143 -17.5q-13 -12 -25 -43q-29 -74 -56 -173h-73q47 249 55 337l14 14q349 -8 640 -8q128 0 179 1l297 7v-64q-40 -43 -90 -101q-85 -100 -171 -206l-168 -211l-564 -707h288q204 0 316 8
q78 7 144 24q53 93 92 233h74q-34 -136 -46 -191.5t-33 -175.5l-10 -8q-44 -2 -66 -2l-269 8q-133 2 -567 2q-86 0 -137 -1z" />
    <glyph glyph-name="bracketleft" unicode="[" horiz-adv-x="682" 
d="M89 -252l-13 12q15 61 48 237q76 505 136 863q68 465 83 595l14 13q118 -6 209 -6t238 7l-10 -71q-184 -2 -208 -10q-14 -5 -20 -11.5t-10 -21.5q-20 -81 -89 -504q-16 -98 -76 -499.5t-60 -473.5q0 -26 15 -37q20 -16 90 -19l131 -6l-11 -69q-86 6 -300 6
q-115 0 -167 -5z" />
    <glyph glyph-name="backslash" unicode="\" horiz-adv-x="1241" 
d="M999 -238h-153l-579 1835h153z" />
    <glyph glyph-name="bracketright" unicode="]" horiz-adv-x="682" 
d="M-70 -254l10 71h28q138 -1 171 11q9 4 17 12q10 12 16 40q19 78 87 518t98 676t30 267q0 22 -10 34t-31 15q-38 6 -193 9l11 73q85 -6 245 -6q148 0 222 4l14 -13q-18 -73 -30 -142q-31 -163 -82 -488t-99 -639l-65 -430l-11 -10h-8l-194 2z" />
    <glyph glyph-name="asciicircum" unicode="^" horiz-adv-x="1241" 
d="M129 563l412 822h162l408 -822h-197l-292 569l-292 -569h-201z" />
    <glyph glyph-name="underscore" unicode="_" horiz-adv-x="1024" 
d="M-12 -333v122h1047v-122h-1047z" />
    <glyph glyph-name="grave" unicode="`" horiz-adv-x="682" 
d="M670 1121h-80l-244 174q-56 40 -66 52q-21 25 -21 56q0 33 24 56t61 23q30 0 55 -15.5t76 -83.5z" />
    <glyph glyph-name="a" unicode="a" 
d="M1025 228l22 -64q-247 -202 -353 -202q-25 0 -45 25t-20 69q0 37 12 98q15 81 73 310q-113 -180 -132 -206q-83 -110 -156.5 -175t-156.5 -102q-41 -19 -72 -19q-51 0 -84 41t-33 140q0 139 53 315.5t94 231.5q30 39 140.5 123t170.5 115.5t143 31.5q47 0 106.5 -14
t107.5 -39l92 54l33 -24q-23 -58 -46 -154q-68 -284 -109 -487q-19 -98 -19 -125q0 -21 6.5 -29.5t16.5 -8.5q16 0 49 18q46 26 107 77zM760 806q-44 23 -85 34t-79 11q-70 0 -118.5 -51t-108 -268t-59.5 -327q0 -42 12 -58t28 -16q17 0 43 20q75 56 158 168.5t140 241
t69 245.5z" />
    <glyph glyph-name="b" unicode="b" horiz-adv-x="1100" 
d="M120 1335l13 57q192 30 269.5 50t132.5 45l24 -20q-10 -36 -39 -176l-136 -654q62 86 102 128q61 64 131 110.5t140.5 69.5t125.5 23q62 0 93 -43q50 -68 50 -205q0 -151 -55 -304q-41 -116 -106 -195q-48 -59 -136 -121t-183.5 -98.5t-183.5 -36.5q-83 0 -141.5 26.5
t-85.5 78t-27 115.5q0 28 3 61q4 47 15 111l51 267q41 248 59 349q48 269 48 314q0 18 -8.5 28t-31.5 15t-124 5zM331 238q0 -88 40 -132t103 -44q66 0 126 57q86 80 138.5 247t52.5 296q0 92 -30 134q-21 30 -55 30q-37 0 -99.5 -38t-127.5 -119t-106.5 -200t-41.5 -231z
" />
    <glyph glyph-name="c" unicode="c" horiz-adv-x="909" 
d="M811 247l23 -64q-129 -89 -207 -133t-149 -65.5t-131 -21.5q-79 0 -142 33.5t-94 97.5t-31 146q0 128 38 262t86 197t137 118l172 104q80 40 172 40q51 0 100.5 -11.5t117.5 -40.5q-17 -42 -34 -112q-24 -96 -36 -174h-68q9 55 9 106q0 10 -1 30q-44 37 -92 55.5
t-99 18.5q-58 0 -98 -23.5t-76 -84.5q-25 -44 -47 -128q-47 -182 -47 -300q0 -97 43.5 -147.5t110.5 -50.5q73 0 169 41.5t174 106.5z" />
    <glyph glyph-name="d" unicode="d" 
d="M1047 228l19 -60q-157 -116 -173 -126q-68 -45 -114 -63q-29 -11 -56 -11q-30 0 -52 25.5t-22 70.5q0 35 12 93q5 24 76 317q-138 -259 -330 -412q-121 -97 -199 -97q-52 0 -89.5 48t-37.5 151q0 127 31.5 254t76.5 222q32 67 60 101q21 24 101 78q144 97 202.5 119
t119.5 22q57 0 137 -21l34 221q13 84 13 126q0 16 -8 25.5t-32 14.5q-36 6 -131 5l12 61q190 4 408 88l25 -19q-39 -152 -208 -988q-51 -252 -51 -306q0 -17 6.5 -25t15.5 -8q5 0 11 2q9 2 28 13t44 29zM784 820q-41 19 -79.5 27t-92.5 8q-76 0 -113 -26q-26 -19 -58 -89
q-43 -94 -78 -224q-48 -185 -48 -315q0 -40 10 -54t27 -14q20 0 43 11q46 24 91 71q67 68 136 176q51 77 90.5 175t53.5 167z" />
    <glyph glyph-name="e" unicode="e" horiz-adv-x="909" 
d="M775 237l22 -55q-142 -95 -191 -123q-92 -51 -161.5 -72.5t-125.5 -21.5q-73 0 -134.5 29.5t-91.5 85t-30 126.5q0 138 56 328q28 94 63.5 153t101.5 113q105 86 241 140q76 29 140 29q93 0 144.5 -46.5t51.5 -123.5q0 -95 -58 -176.5t-201.5 -140t-294.5 -82.5
q-11 -75 -11 -131q0 -95 45.5 -131t104.5 -36q61 0 149.5 35.5t179.5 99.5zM315 455q95 22 135 40q78 34 118 71t69.5 97.5t29.5 108.5q0 47 -27 73.5t-70 26.5q-50 0 -98.5 -36t-88.5 -139q-31 -79 -68 -242z" />
    <glyph glyph-name="f" unicode="f" horiz-adv-x="682" 
d="M100 830l9 51q32 12 98 30.5t108 37.5q5 15 13 53q19 86 36 118q27 50 83 103q87 81 193.5 158t140 91.5t94.5 14.5q40 0 82 -16q-40 -135 -57 -255l-30 -6q-42 63 -82 89t-72 26q-25 0 -48 -14t-36.5 -38t-27.5 -74q-36 -133 -59 -266h23q27 -1 134 6q65 4 97 10l10 -16
q-21 -54 -31 -103q-47 1 -154 1q-67 0 -100 -1l-111 -481q-80 -323 -136.5 -466.5t-151 -253t-191.5 -160.5q-51 -27 -98 -27q-35 0 -76 17q28 74 41.5 119.5t24.5 99.5l32 6q21 -48 45.5 -69t54.5 -21q29 0 53.5 18.5t42.5 66.5q35 96 92 403l145 748q-60 1 -131 1
q-36 0 -60 -1z" />
    <glyph glyph-name="g" unicode="g" horiz-adv-x="1024" 
d="M291 30q-54 47 -54 99q0 17 10 44q125 73 181 116l-37 -1q-114 0 -196.5 59t-82.5 193q0 77 28 149.5t76 123.5q36 38 82 61q99 50 205 83q45 14 85 14q47 0 93 -10q25 -5 67 -22l33 -12q67 -7 143 -7q25 0 89 4q37 3 57 3l11 -16l-23 -104q-22 4 -59 6q-67 4 -84 4
q-11 0 -34 -1q23 -54 23 -114q0 -55 -16 -109.5t-44 -102.5q-21 -37 -49.5 -65t-68 -49.5t-120.5 -53.5q-59 -23 -77 -33q-37 -21 -55 -43q-11 -15 -11 -28q0 -23 23.5 -48.5t114.5 -87.5q159 -108 200.5 -165.5t41.5 -129.5q0 -133 -112 -221q-155 -122 -407 -122
q-151 0 -247.5 38t-137.5 96.5t-41 121.5q0 39 17 80t51 79.5t81.5 68.5t119.5 59zM324 543q0 -96 40.5 -140.5t110.5 -44.5q35 0 63 12t52 36t46.5 69t35 108t12.5 117q0 103 -45.5 141.5t-105.5 38.5q-101 0 -155 -105t-54 -232zM335 -7l-100 -49q-60 -35 -89.5 -63
t-47.5 -68t-18 -86q0 -85 64 -138q84 -70 220 -70q60 0 109 14.5t82 38.5t54.5 61t21.5 79q0 55 -44.5 98.5t-251.5 182.5z" />
    <glyph glyph-name="h" unicode="h" 
d="M53 -27l-20 19q51 174 84 326q21 96 94 474q55 282 74 425q7 55 7 70q0 26 -26 35q-15 5 -141 7l11 61q95 7 206.5 32.5t201.5 58.5l21 -17q-15 -58 -44 -184q-51 -223 -71 -317l-96 -450q69 105 124 168q82 94 154 151q53 43 115.5 78.5t107.5 50.5q33 10 68 10
q42 0 62.5 -21t20.5 -66q0 -37 -6 -72q-19 -97 -66 -257q-89 -304 -89 -374q0 -25 7.5 -34.5t20.5 -9.5q15 0 34 9q28 14 119 79l23 -54q-174 -129 -251 -167.5t-121 -38.5q-30 0 -50.5 25t-20.5 78q0 34 8 79q6 33 51 201q92 348 92 392q0 20 -10 31t-26 11q-27 0 -68 -23
q-69 -39 -146.5 -132t-137.5 -224q-44 -94 -84 -260q-20 -79 -21 -131q-31 -1 -80 -10q-95 -19 -131 -29z" />
    <glyph glyph-name="i" unicode="i" horiz-adv-x="682" 
d="M393 1274q0 66 40.5 107.5t99.5 41.5q50 0 80.5 -30.5t30.5 -80.5q0 -71 -39 -114.5t-99 -43.5q-53 0 -83 31t-30 89zM84 670l-25 53l137 101q105 74 141 94q58 32 103 46q28 8 49 8q24 0 42.5 -20t18.5 -55q0 -38 -8 -79q-13 -64 -72 -279t-73 -281.5t-14 -87.5
q0 -16 8.5 -25t18.5 -9q12 0 38 14q59 31 132 81l27 -53q-79 -56 -179 -120.5t-147 -81.5q-30 -11 -58 -11q-34 0 -56 25.5t-22 78.5q0 42 9 87q11 60 52 214q84 318 84 374q0 13 -6.5 20t-16.5 7q-40 0 -183 -101z" />
    <glyph glyph-name="j" unicode="j" horiz-adv-x="682" 
d="M423 1274q0 66 40.5 107.5t99.5 41.5q50 0 80.5 -30.5t30.5 -80.5q0 -71 -39 -114.5t-99 -43.5q-53 0 -83 31t-30 89zM-120 -555q17 60 20 163l29 6q35 -46 54 -57t43 -11q14 0 26 6.5t25 25.5q18 28 54 185q28 121 82 386l55 279q53 266 53 313q0 17 -6 24.5t-15 7.5
q-17 0 -58 -21q-63 -32 -138 -89l-26 55l169 121q88 62 138 88t90 38q28 7 52 7t38 -17.5t14 -63.5q0 -57 -61 -320q-98 -418 -147.5 -595t-96 -261t-131.5 -174q-64 -67 -105 -87t-91 -20q-33 0 -67 11z" />
    <glyph glyph-name="k" unicode="k" 
d="M109 -23l-17 25q54 189 98 388q27 128 86 428q51 265 67 391q8 56 8 78q0 21 -7.5 30t-24.5 12q-13 2 -141 4l18 61q99 7 213.5 33t195.5 60l24 -21q-7 -34 -22 -102t-66 -301l-69 -312l-61 -292l166 197q100 114 189.5 189.5t153.5 100t128 24.5q16 0 30.5 -1.5
t27.5 -5.5l1 -10q-29 -97 -37 -151l-11 -8q-32 10 -54.5 15t-36.5 5q-51 0 -109.5 -22.5t-106.5 -58.5q-37 -28 -83 -79q8 -24 71.5 -196t99.5 -238.5t56 -80.5q11 -7 23 -7q18 0 51 15q52 24 102 60l21 -58l-162 -108q-78 -47 -132 -68q-22 -8 -42 -8q-18 0 -35 11
q-23 15 -48 59t-79 189q-80 217 -92 254q-67 -71 -93 -113q-16 -26 -27 -65q-20 -77 -40 -196q-7 -44 -7 -88q-104 -7 -227 -39z" />
    <glyph glyph-name="l" unicode="l" horiz-adv-x="682" 
d="M572 233l30 -54l-189 -128q-80 -52 -130 -72q-36 -14 -66 -14q-35 0 -53 23q-26 32 -26 89q0 50 15 133q23 128 30 161l154 689l23 116q9 47 12 72q2 16 2 28q0 22 -8.5 33t-28 15t-134.5 5l10 59q219 26 415 94l25 -22l-108 -462l-123 -571q-38 -164 -43 -214
q-2 -18 -2 -32q0 -21 8 -31t19 -10q16 0 49 17q55 27 119 76z" />
    <glyph glyph-name="m" unicode="m" horiz-adv-x="1706" 
d="M105 -29l-20 28l47 149q19 63 58 227.5t54 268.5q9 63 9 91q0 21 -9 32.5t-21 11.5q-9 0 -26 -10q-26 -15 -126 -90l-30 50q201 168 288 215q61 33 104 33q23 0 39 -17.5t16 -46.5q0 -28 -8 -69q-12 -60 -88 -391q124 225 270 358q180 165 291 165q30 0 50.5 -21.5
t20.5 -58.5q0 -28 -6 -62q-10 -64 -32 -153l-60 -228q86 165 171 260q126 140 256 209q92 49 158 49q33 0 53.5 -24.5t20.5 -72.5q0 -69 -38 -208q-76 -281 -95.5 -374t-19.5 -122q0 -17 7 -25t17 -8q8 0 19 4q19 7 57 33q72 49 84 59l28 -51l-125 -94q-71 -51 -117.5 -76.5
t-92.5 -39.5q-25 -7 -45 -7q-30 0 -52.5 24.5t-22.5 63.5q0 36 9 85q13 66 86 346q50 189 50 241q0 24 -9.5 35t-23.5 11q-22 0 -67 -26t-110 -96.5t-109 -145.5q-61 -103 -102 -233q-53 -172 -59 -271q-43 0 -76 -4t-136 -24l-23 28q38 98 85 273t73 325q17 97 17 135
q0 20 -9.5 30.5t-23.5 10.5q-24 0 -52 -16q-67 -40 -148.5 -144.5t-128.5 -204.5t-76 -222.5t-32 -176.5q-33 -1 -80 -9q-82 -14 -139 -29z" />
    <glyph glyph-name="n" unicode="n" 
d="M89 -28l-26 24q25 65 47 141q47 166 72.5 273t44.5 234q10 67 10 92q0 17 -7 25t-17 8q-34 0 -149 -87l-27 54q194 156 282 204q58 32 98 32q28 0 42 -14.5t14 -49.5q0 -43 -12 -102q-18 -94 -81 -333q94 174 240 313q107 101 206 151q66 34 116 34q42 0 64 -24t22 -70
q0 -36 -12 -95q-20 -93 -86 -330q-33 -119 -48 -204q-10 -57 -10 -76t7 -29q6 -7 17 -7q18 0 51 18q52 28 103 69l25 -56q-165 -126 -264 -174q-59 -28 -110 -28q-38 0 -54 28.5t-16 70.5q0 79 73 335.5t73 330.5q0 19 -10.5 29.5t-27.5 10.5q-22 0 -50 -16
q-61 -35 -142 -134t-128.5 -204t-71.5 -198q-35 -135 -43 -209q-127 -10 -215 -37z" />
    <glyph glyph-name="o" unicode="o" 
d="M101 284q0 124 41.5 258t89.5 193q30 37 106.5 97.5t168 100t194.5 39.5q86 0 157 -26t107 -67.5t53 -99.5t17 -127q0 -131 -43.5 -261.5t-100.5 -199.5q-41 -48 -128.5 -106.5t-168 -89t-181.5 -30.5q-119 0 -188.5 42t-96.5 115.5t-27 161.5zM337 292q0 -123 46.5 -176
t131.5 -53q57 0 98.5 27.5t76 89t63.5 169.5q42 158 42 302q0 122 -48.5 176.5t-126.5 54.5q-80 0 -137 -59.5t-101.5 -226.5t-44.5 -304z" />
    <glyph glyph-name="p" unicode="p" 
d="M-6 -555l-21 15q90 333 117 447q58 244 119 534q33 162 43 236q3 29 3 49q0 31 -6 39t-18 8q-18 0 -49 -15q-52 -27 -109 -69l-27 51q118 93 179 134q95 64 152 87q37 15 61 15q29 0 44.5 -16.5t15.5 -50.5q0 -26 -10 -76q-12 -65 -69 -289q96 147 161 217
q50 53 128 109.5t135.5 79t109.5 22.5q32 0 53.5 -17t39.5 -69q25 -71 25 -156q0 -125 -52 -278.5t-101 -215.5t-151 -131t-170 -100t-160 -31q-59 0 -116 13q-61 -244 -89 -395q-7 -38 -10 -104q-37 -4 -89 -13q-112 -21 -139 -30zM345 127q99 -53 193 -53q56 0 97.5 30
t80.5 109.5t84 246.5q34 128 34 232q0 74 -16 98q-12 18 -35 18q-25 0 -66 -20q-56 -28 -118 -91t-114.5 -152t-78.5 -168q-18 -52 -61 -250z" />
    <glyph glyph-name="q" unicode="q" horiz-adv-x="1100" 
d="M466 -555l-19 38q32 25 38 32q7 10 14 27q15 40 63 253q5 21 84 377l54 230q-160 -232 -333 -349q-119 -80 -196 -80q-51 0 -76.5 49.5t-25.5 123.5q0 123 49 297.5t105 250.5q28 39 143 125t177 119t139 33q62 0 117 -13.5t117 -41.5l95 57l36 -21q-20 -41 -40 -118
q-47 -181 -135 -608l-121 -568q-20 -97 -20 -140q0 -6 3 -30q-34 0 -91 -10q-117 -19 -177 -33zM779 818q-37 22 -82.5 33.5t-82.5 11.5q-56 0 -96 -19q-27 -13 -49 -44q-38 -54 -85 -193q-31 -93 -59 -226t-28 -175q0 -37 13 -54t32 -17q29 0 85.5 39t137 139.5
t120.5 176.5q61 118 94 328z" />
    <glyph glyph-name="r" unicode="r" horiz-adv-x="797" 
d="M120 -30l-21 26l46 159q39 151 61 259.5t36 219.5q6 55 6 91q0 29 -6.5 38.5t-16.5 9.5q-32 0 -150 -92l-25 55q136 110 202 156.5t125 70.5q28 11 47 11q24 0 41 -19.5t17 -56.5q0 -29 -10 -80q-5 -28 -73 -317h14q74 175 150 289t135 152q39 24 88 24q29 0 61 -10
q-17 -59 -29 -137.5t-14 -137.5l-23 -14q-49 42 -105 42q-53 0 -97 -37q-61 -50 -125 -199q-80 -186 -115 -460l-154 -24q-29 -6 -65 -19z" />
    <glyph glyph-name="s" unicode="s" horiz-adv-x="909" 
d="M95 298h62l3 -96q43 -50 112.5 -83.5t143.5 -33.5q64 0 105.5 19.5t61 57t19.5 74.5t-18 68t-46.5 45.5t-108.5 29.5q-140 27 -186.5 54.5t-73.5 78t-27 108.5q0 55 23 109q18 40 50 72t116.5 84.5t133 69.5t115.5 17q66 0 128.5 -15.5t122.5 -47.5q-20 -91 -37 -239h-60
l-12 99q-48 45 -109 68t-119 23q-45 0 -84.5 -19t-59.5 -52.5t-20 -72.5q0 -55 38 -90t174 -59q88 -16 111 -24q44 -14 77.5 -42t53.5 -71.5t20 -93.5q0 -73 -32 -123t-107 -110t-134 -89q-83 -40 -204 -40q-70 0 -128 11q-42 8 -146 46q12 41 23 117q17 108 19 150z" />
    <glyph glyph-name="t" unicode="t" horiz-adv-x="797" 
d="M682 260l25 -56q-52 -41 -164 -118t-179 -104q-45 -17 -78 -17q-59 0 -88 36.5t-29 92.5q0 35 10 89q7 41 78 361q47 215 57 276h-220l13 54q87 18 234 69q2 24 14 95q19 112 19 183q50 11 98 27l152 53l23 -25q-33 -97 -91 -350h103q102 0 174 8l8 -8q-22 -83 -27 -114
q-88 8 -174 8h-106q-6 -29 -41 -178q-1 -5 -63 -307q-19 -95 -23 -125q-2 -17 -2 -30q0 -24 13 -37t35 -13q31 0 76 25q82 46 153 105z" />
    <glyph glyph-name="u" unicode="u" 
d="M73 705l-24 56q185 135 280 180q67 31 109 31q30 0 47.5 -18.5t17.5 -58.5q0 -33 -7 -72q-12 -64 -49 -203q-72 -275 -88 -353q-11 -51 -11 -76q0 -21 10 -31t25 -10q20 0 47 17q43 26 109 101t111 152q77 130 119 268.5t50 236.5q113 7 218 39l17 -17q-39 -124 -98 -345
t-77 -322q-11 -66 -11 -96q0 -19 8 -28t21 -9q15 0 32 9q24 13 116 80l19 -56l-111 -85q-65 -48 -115 -78.5t-84 -40.5q-24 -7 -46 -7q-29 0 -47.5 20.5t-18.5 61.5q0 21 4 44q8 52 29 139l57 219q-46 -85 -92 -147q-76 -104 -173 -195t-179 -129q-44 -20 -80 -20
q-44 0 -71 29.5t-27 86.5q0 37 9 84q6 35 44 175q50 185 71 295q15 80 15 109q0 23 -8 33t-21 10q-29 0 -147 -79z" />
    <glyph glyph-name="v" unicode="v" 
d="M54 683l85 267q71 14 114 14q38 0 126 -7.5t144 -7.5q52 0 82 7q22 6 45 21l28 -39q-56 -62 -122 -172.5t-102.5 -234t-36.5 -233.5q0 -106 37 -153t99 -47q46 0 97.5 28.5t105 107.5t96.5 210q43 133 43 245q-1 43 -21.5 73t-53.5 30q-30 0 -64 -15l-23 48q37 27 82 74
q35 35 52 63q25 7 44 7q40 0 76 -18q20 -10 38 -33.5t27.5 -61t9.5 -91.5q0 -85 -22 -163q-36 -128 -102 -243q-86 -149 -179.5 -236.5t-173 -122.5t-147.5 -35q-108 0 -176.5 74.5t-68.5 213.5q0 105 37 199t113 187q54 67 187 200q-59 -13 -86 -15.5t-106 -2.5l-90 2
q-40 0 -57 -8t-38 -52l-40 -80h-59z" />
    <glyph glyph-name="w" unicode="w" horiz-adv-x="1706" 
d="M50 680q47 133 60.5 181t19.5 91q58 12 100 12q46 0 107 -6q115 -10 171 -10q89 0 146 23l29 -33q-93 -103 -159.5 -226.5t-97.5 -246.5q-19 -75 -19 -161q0 -123 38 -169q28 -35 67 -35q25 0 55 15q39 20 82 70q66 76 108 163t68 176t60 248q22 106 21 145
q126 22 218 53l26 -18q-26 -79 -63 -233t-45 -193q-11 -58 -20.5 -135t-9.5 -131q0 -85 33.5 -124t83.5 -39q50 1 123 56q106 107 161 256t55 282q0 62 -22 87.5t-61 25.5q-29 0 -62 -13l-28 47q83 57 142 120q33 7 56 7q35 0 60 -17q40 -26 60.5 -70t20.5 -114
q0 -151 -80 -318q-64 -132 -165 -249t-203.5 -174.5t-184.5 -57.5q-71 0 -131 54t-60 177q0 55 19 158l-64 -110q-26 -43 -66 -89q-63 -74 -120.5 -117t-106.5 -60q-36 -13 -78 -13q-89 0 -150.5 72t-61.5 211q0 94 32.5 184t107.5 186q54 71 204 222q-35 -11 -56 -14
t-40 -4l-97 -3l-76 2q-29 0 -55.5 -3t-37.5 -25t-24 -52q-20 -45 -28 -61h-62z" />
    <glyph glyph-name="x" unicode="x" horiz-adv-x="1024" 
d="M-16 -8q16 45 26 115.5t9 96.5l49 4l13 -63q31 -12 53 -12q24 0 45 9q32 14 58 37q35 33 80 89q81 103 106 143q-36 225 -57 291q-15 47 -42 67.5t-58 20.5q-36 0 -76 -25t-67 -71l-47 26q81 131 94 153.5t27 56.5q41 20 79 30t72 10q92 0 147 -57t87 -240q5 -29 9 -51
q93 135 115 164q64 84 103 118t75.5 49t69.5 15q30 0 68 -16q-34 -92 -46 -221l-44 -8l-18 56q-22 10 -39 10q-32 0 -63 -17q-45 -25 -98 -86q-37 -43 -107 -145q27 -168 42 -225q24 -97 38.5 -127t33 -43t36.5 -13q21 0 48 14q36 19 112 83l32 -50l-118 -100
q-60 -50 -98.5 -74t-64 -32t-46.5 -8q-42 0 -79 30.5t-57 101.5q-16 53 -45 235l-102 -145q-75 -102 -131 -157q-38 -38 -70 -52t-67 -14q-19 0 -30.5 3.5t-56.5 23.5z" />
    <glyph glyph-name="y" unicode="y" 
d="M48 -357l126 80l30 -13q-2 -21 -2 -35q0 -55 34 -95.5t99 -40.5q39 0 77 19t77 67.5t79 153.5t90 297l66 263q-96 -133 -151 -192q-100 -106 -180 -149q-53 -29 -86 -29q-38 0 -69 43.5t-31 153.5v34q1 10 2 23l23 223q13 110 16 153q5 84 5 91q0 52 -4 68
q-3 12 -12.5 19.5t-20.5 7.5q-15 0 -47 -18q-56 -31 -113 -77l-26 57l185 140q69 48 120 69q39 15 66 15q36 0 55 -25q26 -34 26 -100q0 -25 -2 -58l-45 -405q-8 -115 -8 -145q0 -44 6 -63q3 -13 12.5 -20.5t17.5 -7.5q12 0 32 12q53 32 113 113t105.5 176.5t76.5 193.5
q46 147 63 275q149 31 229 49l23 -18q-47 -118 -140 -473q-78 -298 -121 -423q-70 -198 -169.5 -337.5t-230.5 -215.5q-94 -54 -187 -54q-101 0 -155 48.5t-54 127.5v22z" />
    <glyph glyph-name="z" unicode="z" horiz-adv-x="1024" 
d="M54 61l689 716q-74 -37 -154 -37q-56 0 -160.5 13.5t-137.5 13.5q-18 0 -43 -3q-14 -26 -49 -106l-57 5l92 287q55 18 104 18q42 0 87.5 -7.5t123 -28.5t127 -29t94.5 -8q51 0 82 17.5t56 56.5l40 -16l-28 -104l-666 -685q73 31 112.5 41t76.5 10q52 0 158.5 -19
t150.5 -19q17 0 49 4l53 116l56 -5q-40 -113 -76 -289q-51 -27 -118 -27q-49 0 -92 7q-28 4 -162.5 38.5t-222.5 34.5q-101 0 -160 -67z" />
    <glyph glyph-name="braceleft" unicode="{" horiz-adv-x="682" 
d="M34 627q66 16 99.5 35.5t54.5 53.5q29 48 43 127l63 367q13 74 32 115t48 69q20 20 43 31q49 27 102 38q53 9 133 7l-5 -39q-55 -2 -78 -22t-43 -63q-22 -54 -30 -102l-62 -366q-16 -91 -47 -146q-24 -41 -68 -68q-34 -21 -102 -37q50 -16 72.5 -30.5t36.5 -34.5t20 -42
t6 -64q0 -40 -12 -104l-67 -388q-6 -40 -7 -73q1 -47 10.5 -68.5t30 -28t38.5 -8t35 -1.5l-11 -40q-170 3 -210 19t-64 56t-20 139q3 39 9 59l71 388q7 41 7 81q0 37 -12 61t-41 44q-22 15 -75 35z" />
    <glyph glyph-name="bar" unicode="|" horiz-adv-x="1241" 
d="M541 0v1497h157v-1497h-157z" />
    <glyph glyph-name="braceright" unicode="}" horiz-adv-x="682" 
d="M699 633q-66 -16 -99.5 -35.5t-54.5 -54.5q-29 -48 -43 -126l-63 -367q-13 -75 -27 -109.5t-39 -77.5q-25 -28 -58 -44q-43 -16 -66.5 -20.5t-52.5 -7.5t-118 -3l9 39q39 1 67.5 10.5t53.5 64.5q21 54 29 113l62 366q16 92 47 146q24 41 69 68q33 21 101 38
q-50 15 -72.5 30t-36.5 34.5t-19.5 42t-5.5 63.5q0 40 11 105l59 344q7 42 7 73q0 40 -5.5 55.5t-16 27t-26.5 17.5t-55 6l10 39q164 0 207.5 -25.5t60 -61.5t16.5 -100q0 -39 -8 -84l-63 -346q-8 -41 -8 -81q0 -37 12 -61t41 -44q22 -15 75 -34z" />
    <glyph glyph-name="asciitilde" unicode="~" horiz-adv-x="1241" 
d="M219 310l-113 126q77 138 147 194t152 56q91 0 271 -83q119 -55 173 -55q37 0 77 28.5t101 129.5l111 -127q-90 -145 -155.5 -189.5t-141.5 -44.5q-33 0 -67.5 9t-104.5 39q-149 64 -203 80q-38 11 -64 11q-47 0 -90 -39q-27 -25 -93 -135z" />
    <glyph glyph-name="Adieresis" unicode="&#xc4;" horiz-adv-x="1479" 
d="M-69 0v67q106 9 115 12q14 5 25 15q14 14 118 190l411 690q229 388 248 425h195q35 -261 75 -534q69 -471 103 -673q14 -80 27 -98q8 -9 19 -14q18 -7 135 -13v-67l-315 7q-23 0 -299 -7v67q91 0 129 9q25 5 32 14t7 32q0 72 -48 423q-58 1 -83 1l-369 -1
q-114 -195 -186 -349q-30 -64 -30 -83q0 -14 10 -23q15 -13 51 -17q21 -2 116 -6l-7 -67l-230 7zM504 635q28 -2 65 -2q295 0 328 2l-78 533zM728 1761q50 0 85 -35t35 -85t-35.5 -85.5t-85.5 -35.5q-49 0 -84.5 35.5t-35.5 85.5t35 85t86 35zM1147 1761q50 0 85 -35t35 -85
t-35 -85.5t-85 -35.5t-85.5 35.5t-35.5 85.5t35 85t86 35z" />
    <glyph glyph-name="Aring" unicode="&#xc5;" horiz-adv-x="1479" 
d="M-69 0v67q106 9 115 12q14 5 25 15q14 14 118 190l411 690q229 388 248 425h195q35 -261 75 -534q69 -471 103 -673q14 -80 27 -98q8 -9 19 -14q18 -7 135 -13v-67l-315 7q-23 0 -299 -7v67q91 0 129 9q25 5 32 14t7 32q0 72 -48 423q-58 1 -83 1l-369 -1
q-114 -195 -186 -349q-30 -64 -30 -83q0 -14 10 -23q15 -13 51 -17q21 -2 116 -6l-7 -67l-230 7zM504 635q28 -2 65 -2q295 0 328 2l-78 533zM445 1639q10 93 71.5 139t164.5 46q89 0 141 -38.5t52 -111.5q0 -13 -5 -61t-69 -100t-160 -52q-86 0 -141 41.5t-55 115.5
q0 14 1 21zM554 1620v-10q0 -44 23 -73t65 -29q49 0 82 43t40 127q0 48 -23 75t-68 27q-51 0 -85 -38.5t-34 -121.5z" />
    <glyph glyph-name="Ccedilla" unicode="&#xc7;" horiz-adv-x="1403" 
d="M749 -33l-65 -97q23 5 47 5q60 0 99 -17.5t61.5 -52t22.5 -69.5q0 -71 -64 -126t-190 -55q-59 0 -103 10t-108 39l40 63q81 -33 144 -33q52 0 80.5 25t28.5 61q0 32 -24 54t-69 22q-29 0 -68 -9l-22 24l106 155q-99 0 -205.5 33t-182.5 107t-109 172.5t-33 222.5
q0 183 58 350q67 145 142.5 232t152.5 146.5t145.5 97t168 67t216.5 29.5q123 0 233.5 -29t159.5 -65q-63 -201 -78 -338h-71l5 171q0 23 -8 34q-13 19 -41.5 36.5t-95.5 42.5q-82 21 -185 25q-114 -4 -191.5 -36t-138.5 -92.5t-105.5 -164.5t-66 -226.5t-21.5 -265.5
q0 -124 43.5 -220t133.5 -145t213 -49q85 0 165 21t141 50q19 9 143 85l23 -18l-23 -80q-95 -63 -198 -110t-167.5 -62.5t-138.5 -19.5z" />
    <glyph glyph-name="Eacute" unicode="&#xc9;" horiz-adv-x="1251" 
d="M18 0l10 63q98 14 119 29q9 6 17 24q18 43 60 275q20 109 80 454q68 387 68 430q0 21 -9 30q-13 13 -55 19q-26 5 -132 11l13 64q302 -6 327 -6l363 4q98 2 238 2q68 0 117 -6l10 -12q-12 -53 -41 -228q-7 -46 -11 -84h-68l2 144q0 29 -4.5 38t-15.5 15q-16 10 -46.5 16
t-113.5 14q-51 5 -110 5q-111 0 -189 -12l-70 -354q-13 -65 -29 -155q255 -5 281 -5q91 0 190 5l6 -12l-25 -97q-19 1 -197 6l-174 5q-17 0 -96 -3q-20 -116 -53 -300l-35 -195q-6 -36 -8 -67q78 -12 234 -12q84 0 131 4q119 12 145 18t39.5 16t23 30t55.5 181h75
q-18 -83 -29 -136l-36 -199l-10 -12q-48 -7 -125 -7q-143 0 -305 4q-269 6 -290 6q-193 0 -327 -10zM743 1497h-87l243 253l61 63q28 26 45.5 34.5t35.5 8.5q39 0 64.5 -24.5t25.5 -59.5q0 -27 -16 -48t-67 -48q-31 -17 -39 -22z" />
    <glyph glyph-name="Ntilde" unicode="&#xd1;" horiz-adv-x="1593" 
d="M-4 0l8 73q110 6 120 10q19 7 32 24t31 102q50 227 76 361q97 502 121 647q-41 62 -65 82q-17 13 -42.5 18.5t-141.5 15.5l7 66q146 -6 161 -6l278 6q27 -45 65 -112l101 -180q169 -288 281.5 -482.5t195.5 -329.5q164 882 164 980q0 32 -30.5 42.5t-150.5 15.5l10 66
q77 -4 181 -4q163 0 301 4l-10 -71q-23 -1 -33 -1l-54 1q-26 0 -48 -13q-11 -6 -19 -19q-19 -34 -82 -329.5t-127 -647.5q-23 -128 -52 -328h-176l-636 1108q-63 -332 -77 -414q-68 -408 -75.5 -467.5t-7.5 -80.5q0 -28 9.5 -40t38 -19t133.5 -5l-11 -73l-280 7zM710 1516
h-73q29 121 88 176.5t131 55.5q34 0 71.5 -9.5t121.5 -41.5q60 -23 84 -29t44 -6q25 0 48 18.5t47 70.5h72q-21 -114 -82.5 -173.5t-136.5 -59.5q-31 0 -58.5 6.5t-107.5 38t-104.5 38t-44.5 6.5q-30 0 -56 -20.5t-44 -70.5z" />
    <glyph glyph-name="Odieresis" unicode="&#xd6;" horiz-adv-x="1706" 
d="M153 532q0 135 40 282.5t122 269.5q61 90 150.5 164.5t221 124.5t308.5 50q296 0 458 -154t162 -417q0 -206 -90 -397q-107 -225 -303 -357.5t-466 -132.5q-143 0 -258.5 40t-193.5 115.5t-114.5 177.5t-36.5 234zM433 469q0 -80 15.5 -148.5t44 -114t73.5 -78.5
t110.5 -53t132.5 -20q101 0 172.5 33t122.5 89.5t94 146.5q58 119 97 279t39 307q0 93 -19.5 170t-59.5 128.5t-115 86.5t-176 35q-109 0 -185.5 -35t-136.5 -107t-111 -196t-74.5 -271t-23.5 -252zM839 1775q50 0 85 -35t35 -85t-35.5 -85.5t-85.5 -35.5q-49 0 -84.5 35.5
t-35.5 85.5t35 85t86 35zM1258 1775q50 0 85 -35t35 -85t-35 -85.5t-85 -35.5t-85.5 35.5t-35.5 85.5t35 85t86 35z" />
    <glyph glyph-name="Udieresis" unicode="&#xdc;" horiz-adv-x="1593" 
d="M1719 1423l-9 -74q-112 1 -141 -10q-14 -6 -23 -16q-13 -15 -24 -60q-26 -107 -77.5 -393t-76.5 -437q-42 -256 -42 -292q0 -28 9 -40t29 -18q37 -11 111 -11l43 1l-11 -73q-188 5 -197 5l-270 -5l-10 12q30 137 49 251q-166 -177 -301 -249q-92 -49 -210 -49
q-96 0 -168 29q-55 23 -99 64.5t-68 86.5q-36 70 -36 144q0 32 2 64q4 46 16 120q20 128 52 297.5t46 256.5q29 177 33 206.5t4 56.5q0 22 -6.5 31.5t-23.5 15.5q-22 9 -68 12q-78 5 -86 5l11 69q22 -1 111 -2l235 -5h12q49 0 116 7l12 -15q-43 -189 -60 -279
q-44 -230 -90 -500q-33 -189 -36.5 -224t-3.5 -68q0 -92 59 -146.5t162 -54.5q74 0 156 37t171 125q58 58 68 85q6 17 41 221q43 246 57 328q55 332 55 368q0 22 -17 32q-28 15 -172 22l9 69h19l331 -7zM797 1775q50 0 85 -35t35 -85t-35.5 -85.5t-85.5 -35.5
q-49 0 -84.5 35.5t-35.5 85.5t35 85t86 35zM1216 1775q50 0 85 -35t35 -85t-35 -85.5t-85 -35.5t-85.5 35.5t-35.5 85.5t35 85t86 35z" />
    <glyph glyph-name="aacute" unicode="&#xe1;" 
d="M1025 228l22 -64q-247 -202 -353 -202q-25 0 -45 25t-20 69q0 37 12 98q15 81 73 310q-113 -180 -132 -206q-83 -110 -156.5 -175t-156.5 -102q-41 -19 -72 -19q-51 0 -84 41t-33 140q0 139 53 315.5t94 231.5q30 39 140.5 123t170.5 115.5t143 31.5q47 0 106.5 -14
t107.5 -39l92 54l33 -24q-23 -58 -46 -154q-68 -284 -109 -487q-19 -98 -19 -125q0 -21 6.5 -29.5t16.5 -8.5q16 0 49 18q46 26 107 77zM760 806q-44 23 -85 34t-79 11q-70 0 -118.5 -51t-108 -268t-59.5 -327q0 -42 12 -58t28 -16q17 0 43 20q75 56 158 168.5t140 241
t69 245.5zM686 1088h-87l243 253l61 63q28 26 45.5 34.5t35.5 8.5q39 0 64.5 -24.5t25.5 -59.5q0 -27 -16 -48t-67 -48q-31 -17 -39 -22z" />
    <glyph glyph-name="agrave" unicode="&#xe0;" 
d="M1025 228l22 -64q-247 -202 -353 -202q-25 0 -45 25t-20 69q0 37 12 98q15 81 73 310q-113 -180 -132 -206q-83 -110 -156.5 -175t-156.5 -102q-41 -19 -72 -19q-51 0 -84 41t-33 140q0 139 53 315.5t94 231.5q30 39 140.5 123t170.5 115.5t143 31.5q47 0 106.5 -14
t107.5 -39l92 54l33 -24q-23 -58 -46 -154q-68 -284 -109 -487q-19 -98 -19 -125q0 -21 6.5 -29.5t16.5 -8.5q16 0 49 18q46 26 107 77zM760 806q-44 23 -85 34t-79 11q-70 0 -118.5 -51t-108 -268t-59.5 -327q0 -42 12 -58t28 -16q17 0 43 20q75 56 158 168.5t140 241
t69 245.5zM897 1088h-80l-244 174q-56 40 -66 52q-21 25 -21 56q0 33 24 56t61 23q30 0 55 -15.5t76 -83.5z" />
    <glyph glyph-name="acircumflex" unicode="&#xe2;" 
d="M1025 228l22 -64q-247 -202 -353 -202q-25 0 -45 25t-20 69q0 37 12 98q15 81 73 310q-113 -180 -132 -206q-83 -110 -156.5 -175t-156.5 -102q-41 -19 -72 -19q-51 0 -84 41t-33 140q0 139 53 315.5t94 231.5q30 39 140.5 123t170.5 115.5t143 31.5q47 0 106.5 -14
t107.5 -39l92 54l33 -24q-23 -58 -46 -154q-68 -284 -109 -487q-19 -98 -19 -125q0 -21 6.5 -29.5t16.5 -8.5q16 0 49 18q46 26 107 77zM760 806q-44 23 -85 34t-79 11q-70 0 -118.5 -51t-108 -268t-59.5 -327q0 -42 12 -58t28 -16q17 0 43 20q75 56 158 168.5t140 241
t69 245.5zM720 1437h141l176 -349h-90l-178 204l-271 -204h-101z" />
    <glyph glyph-name="adieresis" unicode="&#xe4;" 
d="M1025 228l22 -64q-247 -202 -353 -202q-25 0 -45 25t-20 69q0 37 12 98q15 81 73 310q-113 -180 -132 -206q-83 -110 -156.5 -175t-156.5 -102q-41 -19 -72 -19q-51 0 -84 41t-33 140q0 139 53 315.5t94 231.5q30 39 140.5 123t170.5 115.5t143 31.5q47 0 106.5 -14
t107.5 -39l92 54l33 -24q-23 -58 -46 -154q-68 -284 -109 -487q-19 -98 -19 -125q0 -21 6.5 -29.5t16.5 -8.5q16 0 49 18q46 26 107 77zM760 806q-44 23 -85 34t-79 11q-70 0 -118.5 -51t-108 -268t-59.5 -327q0 -42 12 -58t28 -16q17 0 43 20q75 56 158 168.5t140 241
t69 245.5zM555 1378q50 0 85 -35t35 -85t-35.5 -85.5t-85.5 -35.5q-49 0 -84.5 35.5t-35.5 85.5t35 85t86 35zM974 1378q50 0 85 -35t35 -85t-35 -85.5t-85 -35.5t-85.5 35.5t-35.5 85.5t35 85t86 35z" />
    <glyph glyph-name="atilde" unicode="&#xe3;" 
d="M1025 228l22 -64q-247 -202 -353 -202q-25 0 -45 25t-20 69q0 37 12 98q15 81 73 310q-113 -180 -132 -206q-83 -110 -156.5 -175t-156.5 -102q-41 -19 -72 -19q-51 0 -84 41t-33 140q0 139 53 315.5t94 231.5q30 39 140.5 123t170.5 115.5t143 31.5q47 0 106.5 -14
t107.5 -39l92 54l33 -24q-23 -58 -46 -154q-68 -284 -109 -487q-19 -98 -19 -125q0 -21 6.5 -29.5t16.5 -8.5q16 0 49 18q46 26 107 77zM760 806q-44 23 -85 34t-79 11q-70 0 -118.5 -51t-108 -268t-59.5 -327q0 -42 12 -58t28 -16q17 0 43 20q75 56 158 168.5t140 241
t69 245.5zM482 1154h-73q29 121 88 176.5t131 55.5q34 0 71.5 -9.5t121.5 -41.5q60 -23 84 -29t44 -6q25 0 48 18.5t47 70.5h72q-21 -114 -82.5 -173.5t-136.5 -59.5q-31 0 -58.5 6.5t-107.5 38t-104.5 38t-44.5 6.5q-30 0 -56 -20.5t-44 -70.5z" />
    <glyph glyph-name="aring" unicode="&#xe5;" 
d="M1025 228l22 -64q-247 -202 -353 -202q-25 0 -45 25t-20 69q0 37 12 98q15 81 73 310q-113 -180 -132 -206q-83 -110 -156.5 -175t-156.5 -102q-41 -19 -72 -19q-51 0 -84 41t-33 140q0 139 53 315.5t94 231.5q30 39 140.5 123t170.5 115.5t143 31.5q47 0 106.5 -14
t107.5 -39l92 54l33 -24q-23 -58 -46 -154q-68 -284 -109 -487q-19 -98 -19 -125q0 -21 6.5 -29.5t16.5 -8.5q16 0 49 18q46 26 107 77zM760 806q-44 23 -85 34t-79 11q-70 0 -118.5 -51t-108 -268t-59.5 -327q0 -42 12 -58t28 -16q17 0 43 20q75 56 158 168.5t140 241
t69 245.5zM200 1227q10 93 71.5 139t164.5 46q89 0 141 -38.5t52 -111.5q0 -13 -5 -61t-69 -100t-160 -52q-86 0 -141 41.5t-55 115.5q0 14 1 21zM309 1208v-10q0 -44 23 -73t65 -29q49 0 82 43t40 127q0 48 -23 75t-68 27q-51 0 -85 -38.5t-34 -121.5z" />
    <glyph glyph-name="ccedilla" unicode="&#xe7;" horiz-adv-x="909" 
d="M441 -26l-70 -104q23 5 47 5q60 0 99 -17.5t61 -52t22 -69.5q0 -71 -63.5 -126t-189.5 -55q-59 0 -103.5 10t-107.5 39l40 63q81 -33 144 -33q52 0 80.5 25t28.5 61q0 32 -24 54t-69 22q-29 0 -68 -9l-22 24l104 152q-85 0 -148.5 34.5t-92.5 100t-29 142.5q0 128 38 262
t86 197t137 118l172 104q80 40 172 40q51 0 100.5 -11.5t117.5 -40.5q-17 -42 -34 -112q-24 -96 -36 -174h-68q9 55 9 106q0 10 -1 30q-44 37 -92 55.5t-99 18.5q-58 0 -98 -23.5t-76 -84.5q-25 -44 -47 -128q-47 -182 -47 -300q0 -97 43.5 -147.5t110.5 -50.5
q73 0 169 41.5t174 106.5l23 -64q-156 -107 -235 -147.5t-158 -61.5z" />
    <glyph glyph-name="eacute" unicode="&#xe9;" horiz-adv-x="909" 
d="M775 237l22 -55q-142 -95 -191 -123q-92 -51 -161.5 -72.5t-125.5 -21.5q-73 0 -134.5 29.5t-91.5 85t-30 126.5q0 138 56 328q28 94 63.5 153t101.5 113q105 86 241 140q76 29 140 29q93 0 144.5 -46.5t51.5 -123.5q0 -95 -58 -176.5t-201.5 -140t-294.5 -82.5
q-11 -75 -11 -131q0 -95 45.5 -131t104.5 -36q61 0 149.5 35.5t179.5 99.5zM315 455q95 22 135 40q78 34 118 71t69.5 97.5t29.5 108.5q0 47 -27 73.5t-70 26.5q-50 0 -98.5 -36t-88.5 -139q-31 -79 -68 -242zM658 1088h-87l243 253l61 63q28 26 45.5 34.5t35.5 8.5
q39 0 64.5 -24.5t25.5 -59.5q0 -27 -16 -48t-67 -48q-31 -17 -39 -22z" />
    <glyph glyph-name="egrave" unicode="&#xe8;" horiz-adv-x="909" 
d="M775 237l22 -55q-142 -95 -191 -123q-92 -51 -161.5 -72.5t-125.5 -21.5q-73 0 -134.5 29.5t-91.5 85t-30 126.5q0 138 56 328q28 94 63.5 153t101.5 113q105 86 241 140q76 29 140 29q93 0 144.5 -46.5t51.5 -123.5q0 -95 -58 -176.5t-201.5 -140t-294.5 -82.5
q-11 -75 -11 -131q0 -95 45.5 -131t104.5 -36q61 0 149.5 35.5t179.5 99.5zM315 455q95 22 135 40q78 34 118 71t69.5 97.5t29.5 108.5q0 47 -27 73.5t-70 26.5q-50 0 -98.5 -36t-88.5 -139q-31 -79 -68 -242zM869 1088h-80l-244 174q-56 40 -66 52q-21 25 -21 56
q0 33 24 56t61 23q30 0 55 -15.5t76 -83.5z" />
    <glyph glyph-name="ecircumflex" unicode="&#xea;" horiz-adv-x="909" 
d="M775 237l22 -55q-142 -95 -191 -123q-92 -51 -161.5 -72.5t-125.5 -21.5q-73 0 -134.5 29.5t-91.5 85t-30 126.5q0 138 56 328q28 94 63.5 153t101.5 113q105 86 241 140q76 29 140 29q93 0 144.5 -46.5t51.5 -123.5q0 -95 -58 -176.5t-201.5 -140t-294.5 -82.5
q-11 -75 -11 -131q0 -95 45.5 -131t104.5 -36q61 0 149.5 35.5t179.5 99.5zM315 455q95 22 135 40q78 34 118 71t69.5 97.5t29.5 108.5q0 47 -27 73.5t-70 26.5q-50 0 -98.5 -36t-88.5 -139q-31 -79 -68 -242zM692 1437h141l176 -349h-90l-178 204l-271 -204h-101z" />
    <glyph glyph-name="edieresis" unicode="&#xeb;" horiz-adv-x="909" 
d="M775 237l22 -55q-142 -95 -191 -123q-92 -51 -161.5 -72.5t-125.5 -21.5q-73 0 -134.5 29.5t-91.5 85t-30 126.5q0 138 56 328q28 94 63.5 153t101.5 113q105 86 241 140q76 29 140 29q93 0 144.5 -46.5t51.5 -123.5q0 -95 -58 -176.5t-201.5 -140t-294.5 -82.5
q-11 -75 -11 -131q0 -95 45.5 -131t104.5 -36q61 0 149.5 35.5t179.5 99.5zM315 455q95 22 135 40q78 34 118 71t69.5 97.5t29.5 108.5q0 47 -27 73.5t-70 26.5q-50 0 -98.5 -36t-88.5 -139q-31 -79 -68 -242zM527 1378q50 0 85 -35t35 -85t-35.5 -85.5t-85.5 -35.5
q-49 0 -84.5 35.5t-35.5 85.5t35 85t86 35zM946 1378q50 0 85 -35t35 -85t-35 -85.5t-85 -35.5t-85.5 35.5t-35.5 85.5t35 85t86 35z" />
    <glyph glyph-name="iacute" unicode="&#xed;" horiz-adv-x="682" 
d="M580 231l27 -53q-79 -56 -179 -120.5t-147 -81.5q-30 -11 -58 -11q-34 0 -56 25.5t-22 78.5q0 42 9 87q11 60 52 214q84 318 84 374q0 13 -6.5 20t-16.5 7q-40 0 -183 -101l-25 53l137 101q105 74 141 94q58 32 103 46q28 8 49 8q24 0 42.5 -20t18.5 -55q0 -38 -8 -79
q-13 -64 -72 -279t-73 -281.5t-14 -87.5q0 -16 8.5 -25t18.5 -9q12 0 38 14q59 31 132 81zM459 1088h-87l243 253l61 63q28 26 45.5 34.5t35.5 8.5q39 0 64.5 -24.5t25.5 -59.5q0 -27 -16 -48t-67 -48q-31 -17 -39 -22z" />
    <glyph glyph-name="igrave" unicode="&#xec;" horiz-adv-x="682" 
d="M580 231l27 -53q-79 -56 -179 -120.5t-147 -81.5q-30 -11 -58 -11q-34 0 -56 25.5t-22 78.5q0 42 9 87q11 60 52 214q84 318 84 374q0 13 -6.5 20t-16.5 7q-40 0 -183 -101l-25 53l137 101q105 74 141 94q58 32 103 46q28 8 49 8q24 0 42.5 -20t18.5 -55q0 -38 -8 -79
q-13 -64 -72 -279t-73 -281.5t-14 -87.5q0 -16 8.5 -25t18.5 -9q12 0 38 14q59 31 132 81zM670 1088h-80l-244 174q-56 40 -66 52q-21 25 -21 56q0 33 24 56t61 23q30 0 55 -15.5t76 -83.5z" />
    <glyph glyph-name="icircumflex" unicode="&#xee;" horiz-adv-x="682" 
d="M580 231l27 -53q-79 -56 -179 -120.5t-147 -81.5q-30 -11 -58 -11q-34 0 -56 25.5t-22 78.5q0 42 9 87q11 60 52 214q84 318 84 374q0 13 -6.5 20t-16.5 7q-40 0 -183 -101l-25 53l137 101q105 74 141 94q58 32 103 46q28 8 49 8q24 0 42.5 -20t18.5 -55q0 -38 -8 -79
q-13 -64 -72 -279t-73 -281.5t-14 -87.5q0 -16 8.5 -25t18.5 -9q12 0 38 14q59 31 132 81zM493 1437h141l176 -349h-90l-178 204l-271 -204h-101z" />
    <glyph glyph-name="idieresis" unicode="&#xef;" horiz-adv-x="682" 
d="M580 231l27 -53q-79 -56 -179 -120.5t-147 -81.5q-30 -11 -58 -11q-34 0 -56 25.5t-22 78.5q0 42 9 87q11 60 52 214q84 318 84 374q0 13 -6.5 20t-16.5 7q-40 0 -183 -101l-25 53l137 101q105 74 141 94q58 32 103 46q28 8 49 8q24 0 42.5 -20t18.5 -55q0 -38 -8 -79
q-13 -64 -72 -279t-73 -281.5t-14 -87.5q0 -16 8.5 -25t18.5 -9q12 0 38 14q59 31 132 81zM328 1378q50 0 85 -35t35 -85t-35.5 -85.5t-85.5 -35.5q-49 0 -84.5 35.5t-35.5 85.5t35 85t86 35zM747 1378q50 0 85 -35t35 -85t-35 -85.5t-85 -35.5t-85.5 35.5t-35.5 85.5t35 85
t86 35z" />
    <glyph glyph-name="ntilde" unicode="&#xf1;" 
d="M89 -28l-26 24q25 65 47 141q47 166 72.5 273t44.5 234q10 67 10 92q0 17 -7 25t-17 8q-34 0 -149 -87l-27 54q194 156 282 204q58 32 98 32q28 0 42 -14.5t14 -49.5q0 -43 -12 -102q-18 -94 -81 -333q94 174 240 313q107 101 206 151q66 34 116 34q42 0 64 -24t22 -70
q0 -36 -12 -95q-20 -93 -86 -330q-33 -119 -48 -204q-10 -57 -10 -76t7 -29q6 -7 17 -7q18 0 51 18q52 28 103 69l25 -56q-165 -126 -264 -174q-59 -28 -110 -28q-38 0 -54 28.5t-16 70.5q0 79 73 335.5t73 330.5q0 19 -10.5 29.5t-27.5 10.5q-22 0 -50 -16
q-61 -35 -142 -134t-128.5 -204t-71.5 -198q-35 -135 -43 -209q-127 -10 -215 -37zM482 1154h-73q29 121 88 176.5t131 55.5q34 0 71.5 -9.5t121.5 -41.5q60 -23 84 -29t44 -6q25 0 48 18.5t47 70.5h72q-21 -114 -82.5 -173.5t-136.5 -59.5q-31 0 -58.5 6.5t-107.5 38
t-104.5 38t-44.5 6.5q-30 0 -56 -20.5t-44 -70.5z" />
    <glyph glyph-name="oacute" unicode="&#xf3;" 
d="M101 284q0 124 41.5 258t89.5 193q30 37 106.5 97.5t168 100t194.5 39.5q86 0 157 -26t107 -67.5t53 -99.5t17 -127q0 -131 -43.5 -261.5t-100.5 -199.5q-41 -48 -128.5 -106.5t-168 -89t-181.5 -30.5q-119 0 -188.5 42t-96.5 115.5t-27 161.5zM337 292q0 -123 46.5 -176
t131.5 -53q57 0 98.5 27.5t76 89t63.5 169.5q42 158 42 302q0 122 -48.5 176.5t-126.5 54.5q-80 0 -137 -59.5t-101.5 -226.5t-44.5 -304zM686 1088h-87l243 253l61 63q28 26 45.5 34.5t35.5 8.5q39 0 64.5 -24.5t25.5 -59.5q0 -27 -16 -48t-67 -48q-31 -17 -39 -22z" />
    <glyph glyph-name="ograve" unicode="&#xf2;" 
d="M101 284q0 124 41.5 258t89.5 193q30 37 106.5 97.5t168 100t194.5 39.5q86 0 157 -26t107 -67.5t53 -99.5t17 -127q0 -131 -43.5 -261.5t-100.5 -199.5q-41 -48 -128.5 -106.5t-168 -89t-181.5 -30.5q-119 0 -188.5 42t-96.5 115.5t-27 161.5zM337 292q0 -123 46.5 -176
t131.5 -53q57 0 98.5 27.5t76 89t63.5 169.5q42 158 42 302q0 122 -48.5 176.5t-126.5 54.5q-80 0 -137 -59.5t-101.5 -226.5t-44.5 -304zM897 1088h-80l-244 174q-56 40 -66 52q-21 25 -21 56q0 33 24 56t61 23q30 0 55 -15.5t76 -83.5z" />
    <glyph glyph-name="ocircumflex" unicode="&#xf4;" 
d="M101 284q0 124 41.5 258t89.5 193q30 37 106.5 97.5t168 100t194.5 39.5q86 0 157 -26t107 -67.5t53 -99.5t17 -127q0 -131 -43.5 -261.5t-100.5 -199.5q-41 -48 -128.5 -106.5t-168 -89t-181.5 -30.5q-119 0 -188.5 42t-96.5 115.5t-27 161.5zM337 292q0 -123 46.5 -176
t131.5 -53q57 0 98.5 27.5t76 89t63.5 169.5q42 158 42 302q0 122 -48.5 176.5t-126.5 54.5q-80 0 -137 -59.5t-101.5 -226.5t-44.5 -304zM720 1437h141l176 -349h-90l-178 204l-271 -204h-101z" />
    <glyph glyph-name="odieresis" unicode="&#xf6;" 
d="M101 284q0 124 41.5 258t89.5 193q30 37 106.5 97.5t168 100t194.5 39.5q86 0 157 -26t107 -67.5t53 -99.5t17 -127q0 -131 -43.5 -261.5t-100.5 -199.5q-41 -48 -128.5 -106.5t-168 -89t-181.5 -30.5q-119 0 -188.5 42t-96.5 115.5t-27 161.5zM337 292q0 -123 46.5 -176
t131.5 -53q57 0 98.5 27.5t76 89t63.5 169.5q42 158 42 302q0 122 -48.5 176.5t-126.5 54.5q-80 0 -137 -59.5t-101.5 -226.5t-44.5 -304zM555 1378q50 0 85 -35t35 -85t-35.5 -85.5t-85.5 -35.5q-49 0 -84.5 35.5t-35.5 85.5t35 85t86 35zM974 1378q50 0 85 -35t35 -85
t-35 -85.5t-85 -35.5t-85.5 35.5t-35.5 85.5t35 85t86 35z" />
    <glyph glyph-name="otilde" unicode="&#xf5;" 
d="M101 284q0 124 41.5 258t89.5 193q30 37 106.5 97.5t168 100t194.5 39.5q86 0 157 -26t107 -67.5t53 -99.5t17 -127q0 -131 -43.5 -261.5t-100.5 -199.5q-41 -48 -128.5 -106.5t-168 -89t-181.5 -30.5q-119 0 -188.5 42t-96.5 115.5t-27 161.5zM337 292q0 -123 46.5 -176
t131.5 -53q57 0 98.5 27.5t76 89t63.5 169.5q42 158 42 302q0 122 -48.5 176.5t-126.5 54.5q-80 0 -137 -59.5t-101.5 -226.5t-44.5 -304zM482 1154h-73q29 121 88 176.5t131 55.5q34 0 71.5 -9.5t121.5 -41.5q60 -23 84 -29t44 -6q25 0 48 18.5t47 70.5h72
q-21 -114 -82.5 -173.5t-136.5 -59.5q-31 0 -58.5 6.5t-107.5 38t-104.5 38t-44.5 6.5q-30 0 -56 -20.5t-44 -70.5z" />
    <glyph glyph-name="uacute" unicode="&#xfa;" 
d="M73 705l-24 56q185 135 280 180q67 31 109 31q30 0 47.5 -18.5t17.5 -58.5q0 -33 -7 -72q-12 -64 -49 -203q-72 -275 -88 -353q-11 -51 -11 -76q0 -21 10 -31t25 -10q20 0 47 17q43 26 109 101t111 152q77 130 119 268.5t50 236.5q113 7 218 39l17 -17q-39 -124 -98 -345
t-77 -322q-11 -66 -11 -96q0 -19 8 -28t21 -9q15 0 32 9q24 13 116 80l19 -56l-111 -85q-65 -48 -115 -78.5t-84 -40.5q-24 -7 -46 -7q-29 0 -47.5 20.5t-18.5 61.5q0 21 4 44q8 52 29 139l57 219q-46 -85 -92 -147q-76 -104 -173 -195t-179 -129q-44 -20 -80 -20
q-44 0 -71 29.5t-27 86.5q0 37 9 84q6 35 44 175q50 185 71 295q15 80 15 109q0 23 -8 33t-21 10q-29 0 -147 -79zM686 1088h-87l243 253l61 63q28 26 45.5 34.5t35.5 8.5q39 0 64.5 -24.5t25.5 -59.5q0 -27 -16 -48t-67 -48q-31 -17 -39 -22z" />
    <glyph glyph-name="ugrave" unicode="&#xf9;" 
d="M73 705l-24 56q185 135 280 180q67 31 109 31q30 0 47.5 -18.5t17.5 -58.5q0 -33 -7 -72q-12 -64 -49 -203q-72 -275 -88 -353q-11 -51 -11 -76q0 -21 10 -31t25 -10q20 0 47 17q43 26 109 101t111 152q77 130 119 268.5t50 236.5q113 7 218 39l17 -17q-39 -124 -98 -345
t-77 -322q-11 -66 -11 -96q0 -19 8 -28t21 -9q15 0 32 9q24 13 116 80l19 -56l-111 -85q-65 -48 -115 -78.5t-84 -40.5q-24 -7 -46 -7q-29 0 -47.5 20.5t-18.5 61.5q0 21 4 44q8 52 29 139l57 219q-46 -85 -92 -147q-76 -104 -173 -195t-179 -129q-44 -20 -80 -20
q-44 0 -71 29.5t-27 86.5q0 37 9 84q6 35 44 175q50 185 71 295q15 80 15 109q0 23 -8 33t-21 10q-29 0 -147 -79zM850 1088h-80l-244 174q-56 40 -66 52q-21 25 -21 56q0 33 24 56t61 23q30 0 55 -15.5t76 -83.5z" />
    <glyph glyph-name="ucircumflex" unicode="&#xfb;" 
d="M73 705l-24 56q185 135 280 180q67 31 109 31q30 0 47.5 -18.5t17.5 -58.5q0 -33 -7 -72q-12 -64 -49 -203q-72 -275 -88 -353q-11 -51 -11 -76q0 -21 10 -31t25 -10q20 0 47 17q43 26 109 101t111 152q77 130 119 268.5t50 236.5q113 7 218 39l17 -17q-39 -124 -98 -345
t-77 -322q-11 -66 -11 -96q0 -19 8 -28t21 -9q15 0 32 9q24 13 116 80l19 -56l-111 -85q-65 -48 -115 -78.5t-84 -40.5q-24 -7 -46 -7q-29 0 -47.5 20.5t-18.5 61.5q0 21 4 44q8 52 29 139l57 219q-46 -85 -92 -147q-76 -104 -173 -195t-179 -129q-44 -20 -80 -20
q-44 0 -71 29.5t-27 86.5q0 37 9 84q6 35 44 175q50 185 71 295q15 80 15 109q0 23 -8 33t-21 10q-29 0 -147 -79zM673 1437h141l176 -349h-90l-178 204l-271 -204h-101z" />
    <glyph glyph-name="udieresis" unicode="&#xfc;" 
d="M73 705l-24 56q185 135 280 180q67 31 109 31q30 0 47.5 -18.5t17.5 -58.5q0 -33 -7 -72q-12 -64 -49 -203q-72 -275 -88 -353q-11 -51 -11 -76q0 -21 10 -31t25 -10q20 0 47 17q43 26 109 101t111 152q77 130 119 268.5t50 236.5q113 7 218 39l17 -17q-39 -124 -98 -345
t-77 -322q-11 -66 -11 -96q0 -19 8 -28t21 -9q15 0 32 9q24 13 116 80l19 -56l-111 -85q-65 -48 -115 -78.5t-84 -40.5q-24 -7 -46 -7q-29 0 -47.5 20.5t-18.5 61.5q0 21 4 44q8 52 29 139l57 219q-46 -85 -92 -147q-76 -104 -173 -195t-179 -129q-44 -20 -80 -20
q-44 0 -71 29.5t-27 86.5q0 37 9 84q6 35 44 175q50 185 71 295q15 80 15 109q0 23 -8 33t-21 10q-29 0 -147 -79zM508 1378q50 0 85 -35t35 -85t-35.5 -85.5t-85.5 -35.5q-49 0 -84.5 35.5t-35.5 85.5t35 85t86 35zM927 1378q50 0 85 -35t35 -85t-35 -85.5t-85 -35.5
t-85.5 35.5t-35.5 85.5t35 85t86 35z" />
    <glyph glyph-name="dagger" unicode="&#x2020;" 
d="M145 816q12 22 25 79.5t13 86.5q40 -6 146 -10t184 -4q14 71 33.5 226.5t19.5 205.5q14 -2 53 -3t70 -1h14h15h13h12q19 0 35.5 0.5t31.5 3.5q-21 -61 -59 -218.5t-47 -217.5q67 0 181 4.5t138 9.5q-13 -21 -26 -79t-18 -95q-66 8 -156 13t-149 5q-14 -59 -41.5 -220
t-53.5 -350.5t-26 -251.5q-19 0 -53 1t-67 2l-118 -3q17 70 56 248.5t73 350t40 223.5q-69 0 -150 -2t-189 -4z" />
    <glyph glyph-name="degree" unicode="&#xb0;" horiz-adv-x="819" 
d="M577.5 1395.5q81.5 -44.5 126 -125t44.5 -167.5q0 -88 -44.5 -168t-124.5 -124.5t-167 -44.5q-88 0 -168.5 44.5t-125 124.5t-44.5 168q0 87 44.5 167.5t126 125t166.5 44.5t166.5 -44.5zM261 1253q-62 -62 -62 -150t63 -149t151 -61t149 61t61 149t-62 150t-150 62
t-150 -62z" />
    <glyph glyph-name="cent" unicode="&#xa2;" horiz-adv-x="1024" 
d="M668 994q17 3 46.5 5.5t49.5 2.5q45 0 94 -15t73 -44l-57 -209l-38 -1q-9 82 -45 127.5t-120 45.5h-20l-152 -799q91 0 153 29t139 72l2 -68q-44 -26 -102.5 -54t-103 -46.5t-68 -24.5t-42.5 -11l-41 -214h-72l38 202q-3 -1 -21 -1t-28 -1q-100 0 -186.5 71t-86.5 221
q0 170 53 310t134 212t228 133l97 39l42 218h73zM584 899q-52 -11 -86.5 -39t-80 -90.5t-79.5 -180.5t-34 -247q0 -114 31 -166t99 -65z" />
    <glyph glyph-name="sterling" unicode="&#xa3;" horiz-adv-x="1024" 
d="M386 818q9 53 22.5 108.5t36.5 143t81 155t139.5 118t161.5 70.5t144 20q52 0 118.5 -12t110.5 -31q-26 -74 -54 -157.5t-37 -129.5l-47 12q14 115 -31.5 177.5t-148.5 62.5t-154.5 -83t-69.5 -168.5t-31 -165t-22 -120.5q86 0 150 1t111 3l-12 -85q-47 2 -123.5 3.5
t-134.5 1.5q-21 -114 -87.5 -273t-260.5 -331l12 -12q42 18 85 37q56 21 102 21q96 0 148 -6q48 -8 87 -13.5t79 -9t70 -3.5q62 0 94.5 45t59.5 153h53l-52 -342q-37 -14 -61 -18.5t-82 -4.5q-168 0 -271 24.5t-168 40t-107 15.5q-38 0 -73 -5t-64 -14q-30 -38 -53 -60
t-41 -22q-19 0 -35 9.5t-29 24.5l16 63q50 18 75 28.5t87 60.5t104.5 169t92.5 423q-83 0 -126.5 -1t-78.5 -4l8 85q20 -1 80 -2.5t126 -1.5z" />
    <glyph glyph-name="section" unicode="&#xa7;" 
d="M100 -178l58 277l68 -3l-9 -170q50 -72 119.5 -108.5t136.5 -36.5q64 0 127.5 33.5t94 84.5t30.5 96q0 40 -24.5 82.5t-79.5 82.5q-38 28 -171.5 97.5t-183 114.5t-74 103.5t-24.5 118.5q0 59 24 112.5t69 101.5q31 31 103 84q-45 43 -63.5 81t-18.5 83q0 83 55.5 173
t146 143.5t202.5 53.5q87 0 175 -25.5t156 -73.5l-56 -264l-67 4l4 147q-65 59 -129 86t-135 27q-89 0 -141 -47t-52 -111q0 -32 15.5 -62t46.5 -59q61 -58 253 -161q92 -50 127 -79q52 -43 81.5 -98.5t29.5 -121.5q0 -76 -44 -155t-146 -150q46 -41 69 -88.5t23 -102.5
q0 -139 -140 -270t-325 -131q-110 0 -203 41q-64 28 -128 90zM729 331q50 24 81 73.5t31 97.5q0 36 -16.5 69.5t-48 61t-148.5 96.5l-194 111q-97 -85 -97 -178q0 -44 33.5 -94t106.5 -95z" />
    <glyph glyph-name="bullet" unicode="&#x2022;" horiz-adv-x="1241" 
d="M621 1067q74 0 144 -38t109.5 -104.5t39.5 -150.5q0 -76 -39 -146t-108.5 -108.5t-145.5 -38.5t-146 38.5t-108.5 108.5t-38.5 146q0 84 39.5 150.5t110 104.5t143.5 38z" />
    <glyph glyph-name="paragraph" unicode="&#xb6;" 
d="M714 -264l281 1593l-128 1l-281 -1594h128zM639 554l136 776q-167 0 -271 -87t-104 -263q0 -181 54.5 -274.5t184.5 -151.5zM950 1394l321 4l-44 -54l-140 -16l-281 -1592l175 -3q-45 -44 -86.5 -52.5t-130.5 -8.5q-74 0 -148 2.5t-162 5.5t-118 3q5 4 19 20t26 29l113 4
l135 760q-268 79 -422.5 208.5t-154.5 313.5q0 175 134 277.5t390 102.5q61 0 204.5 -2t169.5 -2z" />
    <glyph glyph-name="germandbls" unicode="&#xdf;" 
d="M70 822l7 51q34 8 196 66q5 2 15 7l34 137q17 47 59 94q62 72 179.5 157t192 115.5t152.5 30.5q95 0 159.5 -63.5t64.5 -154.5q0 -76 -36 -145.5t-138 -169.5t-102 -159q0 -30 12 -57q16 -39 64 -99q74 -93 91 -117q25 -38 37 -71.5t12 -68.5q0 -69 -33 -133.5
t-102 -132.5t-133.5 -105.5t-141.5 -37.5q-46 0 -94 11t-98 33l57 237h49v-102q33 -34 72 -51.5t84 -17.5q71 0 112 39.5t41 98.5q0 41 -18 80.5t-115 179.5q-54 78 -68.5 113.5t-14.5 63.5q0 34 15.5 70t65.5 96q98 118 117 146q35 52 54.5 110t19.5 118q0 76 -45 120.5
t-118 44.5q-67 0 -117.5 -37.5t-75.5 -117.5t-87 -366q-123 -565 -187 -780q-46 -155 -97.5 -259t-135.5 -195.5t-167 -135.5q-60 -31 -104 -31q-31 0 -74 17l64 224h30q25 -43 55.5 -63t55.5 -20q39 0 69.5 40t72.5 254l184 936q-57 2 -93 2t-98 -2z" />
    <glyph glyph-name="registered" unicode="&#xae;" horiz-adv-x="1530" 
d="M751 332v41q-49 2 -61.5 5.5t-17.5 12.5q-10 16 -10 60v239q34 3 47 3q41 0 61.5 -11.5t38 -41t58.5 -124.5q65 -146 86 -165t76 -19h119v41q-32 0 -48 16q-28 26 -85 149q-26 56 -32 65q-17 30 -40 57t-39 38t-51 23q76 19 116.5 45t64.5 70.5t24 91.5q0 51 -26 101
t-81.5 75.5t-166.5 25.5h-356v-44q51 0 59 -2q16 -4 24 -16.5t8 -61.5v-565q0 -37 -6 -48q-4 -9 -14 -14q-17 -7 -57 -7l-14 1v-41h323zM662 1034q0 19 9 33q7 10 19 11q38 5 65 5q71 0 114 -43.5t43 -119.5q0 -73 -39.5 -124.5t-156.5 -51.5q-19 0 -54 3v287zM765 -35
q-302 0 -515.5 213.5t-213.5 515.5t213.5 515.5t515.5 213.5t515.5 -213.5t213.5 -515.5t-213.5 -515.5t-515.5 -213.5zM765 46q269 0 458 189t189 459q0 268 -189 458t-458 190t-458 -189t-189 -459q0 -268 189 -458t458 -190z" />
    <glyph glyph-name="circleright" unicode="&#xa9;" horiz-adv-x="1530" 
d="M765 -35q-302 0 -515.5 213.5t-213.5 515.5t213.5 515.5t515.5 213.5t515.5 -213.5t213.5 -515.5t-213.5 -515.5t-515.5 -213.5zM765 46q269 0 458 189t189 459q0 268 -189 458t-458 190t-458 -189t-189 -459q0 -268 189 -458t458 -190zM1040 497l54 -23q-21 -54 -48 -82
q-49 -51 -123 -81.5t-164 -30.5q-193 0 -301 148q-81 109 -81 254q0 126 56 229.5t149.5 153.5t211.5 50q39 0 79 -7q15 -2 122 -30q49 -13 76 -23v-218h-68q-19 73 -33 100q-24 45 -67 74t-104 29q-100 0 -171.5 -84t-71.5 -237q0 -112 41 -197t100.5 -122.5t128.5 -37.5
q45 0 85.5 15t64.5 37t64 83z" />
    <glyph glyph-name="trademark" unicode="&#x2122;" horiz-adv-x="2048" 
d="M57 1184v215h768v-215h-62q-4 60 -16 86t-40 40q-40 20 -97 20h-91v-627q0 -41 9 -56.5t32 -24.5q14 -5 83 -13v-54h-412v54q84 6 109.5 29t25.5 73v619h-92q-64 0 -94 -14t-44 -42t-16 -90h-63zM1216 1399l249 -582l247 582h281v-51h-39q-33 0 -44 -5.5t-14 -13.5
q-5 -12 -5 -56v-562q0 -69 18 -83q15 -11 84 -19v-54h-364v54q68 3 86.5 18.5t18.5 83.5v581l-303 -737h-22l-316 737v-595q0 -46 12 -64q9 -14 29 -19q7 -2 64 -5v-54h-273v54q60 5 75.5 11.5t19.5 16.5q8 24 8 60v595q0 30 -3.5 38t-12.5 12q-13 6 -41 6h-30v51h275z" />
    <glyph glyph-name="acute" unicode="&#xb4;" horiz-adv-x="682" 
d="M459 1121h-87l243 253l61 63q28 26 45.5 34.5t35.5 8.5q39 0 64.5 -24.5t25.5 -59.5q0 -27 -16 -48t-67 -48q-31 -17 -39 -22z" />
    <glyph glyph-name="dieresis" unicode="&#xa8;" horiz-adv-x="682" 
d="M328 1411q50 0 85 -35t35 -85t-35.5 -85.5t-85.5 -35.5q-49 0 -84.5 35.5t-35.5 85.5t35 85t86 35zM747 1411q50 0 85 -35t35 -85t-35 -85.5t-85 -35.5t-85.5 35.5t-35.5 85.5t35 85t86 35z" />
    <glyph glyph-name="notequal.old" horiz-adv-x="1124" 
d="M716 619l-132 -153h498v-146h-622l-218 -255l-111 84l149 171h-236v146h365l132 153h-497v146h620l222 255l109 -84l-149 -171h236v-146h-366z" />
    <glyph glyph-name="AE" unicode="&#xc6;" horiz-adv-x="1933" 
d="M-123 0l11 65q75 2 98 9q14 4 27.5 18t66.5 88l653 1004q37 56 47 78q6 13 6 25q0 9 -5 14q-8 10 -23 14q-30 8 -95 10t-87 2l12 68q265 -4 418 -4q227 0 445 4q131 2 152 2q203 0 236 2l10 -12q-12 -36 -23 -100q-23 -128 -33 -217h-68l-1 138q0 35 -3.5 44t-12.5 16
q-17 11 -65 19q-91 14 -232 14q-68 0 -146 -4q-31 -171 -42 -231l-49 -293q143 -4 209 -4q167 0 249 12l8 -12l-30 -103q-5 0 -79 4q-127 8 -307 8h-66q-72 -376 -98 -573q177 -7 219 -7q129 0 228 13q60 9 80 24q14 10 25 39q30 78 56 179l71 -1q-47 -208 -62 -336l-12 -11
q-116 -5 -217 -5l-601 2q-117 0 -195 -2l12 61q68 6 87.5 12.5t31.5 18.5t20 33q4 9 21.5 102.5t23.5 131.5q2 17 31 182q-77 4 -448 2q-97 -153 -151 -251q-31 -57 -55.5 -105t-28.5 -62q-2 -7 -2 -12q0 -12 9 -21q12 -14 38 -20q36 -7 129 -7l-11 -65q-114 3 -289 3
q-117 0 -193 -3zM898 633l82 480q26 150 26 173q0 14 -8 21.5t-26 7.5q-11 0 -18.5 -3.5t-13.5 -8.5q-23 -23 -90 -117q-42 -58 -137 -203q-62 -95 -223 -348q38 -4 85 -4q210 0 323 2z" />
    <glyph glyph-name="Oslash" unicode="&#xd8;" horiz-adv-x="1706" 
d="M278 145q-61 68 -89 149q-38 109 -38 231t34 262q43 180 147.5 324t272.5 228t386 84q236 0 396 -103l168 177l73 -70l-162 -172q68 -70 100 -148q47 -117 47 -256q0 -211 -102.5 -421t-298 -337.5t-456.5 -127.5q-242 0 -401 112l-177 -187l-74 69zM446 323l820 869
q-49 67 -128.5 102.5t-173.5 35.5q-106 0 -178 -31t-128 -91.5t-107.5 -166t-82.5 -250.5q-37 -181 -37 -327q0 -65 15 -141zM1310 1090l-825 -875q28 -45 62 -73q47 -39 115 -63t145 -24q107 0 184.5 38.5t139.5 118.5t116 235q86 244 86 453q0 99 -23 190z" />
    <glyph glyph-name="infinity" unicode="&#x221e;" horiz-adv-x="1460" 
d="M34 546q0 146 85.5 236t238.5 90q132 0 215.5 -49.5t196.5 -178.5q91 109 122 142t88 61.5t142 28.5q154 0 233 -84t79 -206q0 -150 -105 -253t-273 -103q-95 0 -185 41.5t-185 154.5q-86 -80 -128.5 -115.5t-98 -60t-125.5 -24.5q-132 0 -216 91t-84 229zM144 544
q0 -105 60 -171.5t146 -66.5q79 0 147 44.5t143 131.5q-23 27 -56.5 75.5t-68 108t-81.5 98t-114 38.5q-74 0 -125 -66t-51 -192zM1318 564q0 107 -57.5 172.5t-148.5 65.5q-80 0 -151.5 -56.5t-146.5 -165.5l96 -128q52 -68 106 -106t118 -38q81 0 132.5 68.5t51.5 187.5z
" />
    <glyph glyph-name="plusminus" unicode="&#xb1;" horiz-adv-x="1124" 
d="M636 768h446v-150h-446v-412h-146v412h-446v150h446v444h146v-444zM44 0v141h1038v-141h-1038z" />
    <glyph glyph-name="lessequal" unicode="&#x2264;" horiz-adv-x="1124" 
d="M44 608v126l965 446l69 -131l-825 -373l820 -349l-98 -122zM44 0v141h1038v-141h-1038z" />
    <glyph glyph-name="greaterequal" unicode="&#x2265;" horiz-adv-x="1124" 
d="M1082 777v-126l-965 -446l-66 128l817 380l-814 344l97 123zM44 0v141h1038v-141h-1038z" />
    <glyph glyph-name="yen" unicode="&#xa5;" horiz-adv-x="1024" 
d="M606 530l-57 -308q-4 -29 -4 -57q0 -52 19 -69.5t86.5 -23.5t91.5 -6l-11 -66l-352 9l-333 -9l11 66q19 0 54 3t39 3q79 8 105.5 37t40.5 111l58 310h-361l12 70h349l-69 256h-235l12 70h200l-83 313q-12 42 -43.5 68t-70.5 26v66l250 -7l281 7l-13 -64
q-25 -4 -37.5 -6.5t-43.5 -10t-45 -24t-17 -35t-3 -32.5q0 -16 1 -22t17 -67.5t31 -120.5t27 -91h247l112 187q20 35 38 75.5t23 70.5q5 31 -16 50.5t-52 23.5l-51 4l3 62l236 -5l145 5l-9 -66q-68 -16 -103 -45t-77.5 -88.5t-112.5 -170.5l-65 -103h228l-12 -70h-260
l-165 -256h380l-12 -70h-384zM529 856q11 -49 29 -111.5t30 -95.5l129 207h-188z" />
    <glyph glyph-name="mu" unicode="&#xb5;" horiz-adv-x="1180" 
d="M192 -396l-161 -60l-30 30q8 92 30 194.5t67 282t65.5 271.5t54 234t53.5 236.5t26 153.5q64 16 130.5 31t81.5 15q19 0 19 -6q0 -3 -12 -40t-43 -157.5t-49.5 -206t-30 -142t-17.5 -124.5q0 -118 16.5 -174t97.5 -56q67 0 130 74.5t96.5 178t54 183t49.5 200.5t53 220
q66 14 134.5 28t85.5 14q24 0 24 -14q0 -5 -19.5 -58.5t-53 -151t-59 -193t-40 -171t-14.5 -116.5q0 -68 8.5 -105t43.5 -37q25 0 80 37.5t85 66.5l-4 -45q-86 -88 -181 -148.5t-151 -60.5q-53 0 -72.5 43.5t-19.5 126.5q4 46 15 102q-49 -119 -129 -196.5t-187 -77.5
q-78 0 -138 47.5t-72 130.5q-13 -62 -19 -109t-12.5 -116.5t-6.5 -119.5q0 -106 21 -215z" />
    <glyph glyph-name="partialdiff.old" horiz-adv-x="1012" 
d="M155 358q0 157 59 293t190 234t342 131q-47 80 -86 125t-96.5 88.5t-123 65t-142.5 21.5q-58 0 -120.5 -33t-99.5 -79l-25 24q36 72 152.5 142t228.5 70q272 0 450.5 -209.5t178.5 -532.5q0 -290 -161.5 -503t-391.5 -213q-164 0 -259.5 109t-95.5 267zM393 344
q0 -146 45 -217.5t127 -71.5q124 0 196 157.5t72 460.5q0 89 -15.5 163.5t-36.5 120.5q-210 0 -299 -170.5t-89 -442.5z" />
    <glyph glyph-name="summation.old" horiz-adv-x="1460" 
d="M663 476l-555 890v33h1174l28 -328h-76q-10 80 -44.5 125t-79 63.5t-146.5 18.5h-493l417 -669l-524 -799h626q102 0 146.5 13.5t79.5 59.5t44 127h77l-27 -411h-1202v23z" />
    <glyph glyph-name="product" unicode="&#x220f;" horiz-adv-x="1686" 
d="M533 1294v-1201l4 -197q1 -112 11 -142q4 -13 13.5 -21t30 -12t117.5 -7v-88q-165 7 -327 7q-149 0 -277 -7v88q109 4 128 8.5t26.5 14t12.5 67.5q8 99 8 289v840l-3 193q-2 115 -11 144q-4 14 -13.5 22t-30.5 12.5t-117 6.5v88h1557v-88q-94 -2 -115.5 -6t-31 -11.5
t-14.5 -21.5q-9 -30 -10 -140l-4 -199v-840q0 -152 3 -195q8 -131 12 -147q2 -11 8.5 -17.5t24 -11t127.5 -8.5v-88q-128 7 -278 7q-160 0 -326 -7v88q95 3 116 6.5t31 11.5t14 21q10 31 11 140l4 200v1201h-701z" />
    <glyph glyph-name="integral.old" horiz-adv-x="561" 
d="M171 255l-14 377q-6 147 -6 246q0 231 59 371.5t162.5 207t212.5 66.5q79 0 123 -39.5t44 -99.5q0 -53 -34 -88t-85 -35q-35 0 -59.5 11.5t-40.5 33.5q-14 18 -23.5 52.5t-17.5 41t-18 6.5q-25 0 -45 -23q-27 -31 -37.5 -105.5t-10.5 -194.5q0 -75 5 -198l16 -403
q5 -112 5 -324q0 -161 -25 -277t-78 -205q-39 -67 -87 -109t-110 -64.5t-127 -22.5q-83 0 -127 38.5t-44 95.5q0 51 34.5 84t88.5 33q37 0 61 -14t36 -32q8 -12 22 -66q7 -19 17 -27q7 -7 16 -7q18 0 35.5 13.5t29.5 41.5q9 21 15 70q14 103 14 238q0 146 -7 307z" />
    <glyph glyph-name="ordfeminine" unicode="&#xaa;" horiz-adv-x="682" 
d="M713 960l15 -36q-93 -74 -142 -98t-87 -24q-22 0 -32.5 11.5t-10.5 39.5q0 26 6 57q1 5 44 190q-90 -158 -205 -243q-75 -56 -140 -56q-26 0 -43 21q-21 28 -21 82q0 52 13 115t42 132.5t43 89.5q8 12 69 54q113 79 139 89q35 14 84 14q36 0 68 -7.5t74 -25.5l59 34
l21 -16q-8 -26 -31 -91q-2 -9 -9 -38l-62 -262q-12 -48 -12 -64q0 -11 6 -19q5 -6 11 -6q9 0 24.5 8t76.5 49zM538 1307q-22 12 -53 19.5t-54 7.5q-38 0 -69 -26t-58 -110q-57 -180 -57 -255q0 -18 9 -29t20 -11q14 0 32 13q29 21 89 96t85 119q37 66 56 176z" />
    <glyph glyph-name="ordmasculine" unicode="&#xba;" horiz-adv-x="682" 
d="M104 993q0 72 27.5 151.5t57 112t82 68.5t109.5 55t129 19q100 0 149 -48.5t49 -141.5q0 -76 -25.5 -155t-78.5 -129q-70 -66 -160 -99q-62 -23 -144 -23q-100 0 -147.5 47.5t-47.5 142.5zM257 975q0 -54 30.5 -86t76.5 -32q38 0 68.5 19.5t55.5 59.5t42 94q27 87 27 176
q0 49 -10 72q-13 33 -37.5 50t-59.5 17q-40 0 -72 -21.5t-58 -67.5t-42 -112q-21 -90 -21 -169z" />
    <glyph glyph-name="ae" unicode="&#xe6;" horiz-adv-x="1511" 
d="M1344 239l25 -57q-191 -133 -325 -185q-88 -34 -163 -34q-89 0 -150 45t-92 139q-122 -110 -202 -148.5t-159 -38.5q-96 0 -150.5 56t-54.5 153q0 79 36 151t94.5 114t160.5 64.5t256 22.5q18 0 53 -1q8 55 8 94q0 112 -61 173.5t-172 61.5q-30 0 -61 -4t-64 -12
l-52 -136l-37 7l-15 154l71 51q37 27 104.5 45.5t136.5 18.5q116 0 202.5 -37.5t121.5 -128.5q98 80 188.5 123.5t193.5 43.5q99 0 149.5 -46.5t50.5 -126.5q0 -100 -60 -169.5t-210 -117.5t-285 -59q-18 -123 -18 -184q0 -50 17 -88t53.5 -57t77.5 -19q58 0 147 32t185 100
zM894 511q68 9 139 33q52 18 78 33q34 19 64.5 50t49 74t18.5 79q0 37 -23 65.5t-75 28.5q-42 0 -79.5 -21.5t-65.5 -62.5t-56 -121zM665 458l-65 1q-158 0 -236 -65t-78 -155q0 -62 29.5 -94t87.5 -32q57 0 105 25t82 68t49 95q24 87 26 157z" />
    <glyph glyph-name="oslash" unicode="&#xf8;" 
d="M30 -55l122 138q-24 36 -38 92.5t-14 107.5q0 123 45 276q32 109 72 164.5t129.5 121t171 99.5t176.5 34q52 0 90 -8.5t117 -39.5l111 123l61 -57l-108 -122q64 -77 64 -200q0 -126 -34.5 -252t-79.5 -192t-137.5 -131t-180.5 -99t-192 -34q-119 0 -196 52l-114 -126z
M770 782q-26 50 -55 70q-43 30 -104 30q-81 0 -134 -61q-72 -82 -108 -263t-34 -267zM352 181q27 -61 59 -84q43 -31 107 -31q45 0 77 16t63 55q43 56 69 133q34 102 53 243q9 72 8 159z" />
    <glyph glyph-name="questiondown" unicode="&#xbf;" horiz-adv-x="909" 
d="M700 851q0 -79 -43.5 -127t-105.5 -48q-56 0 -88.5 32.5t-32.5 89.5q0 78 44 126.5t111 48.5q56 0 85.5 -30.5t29.5 -91.5zM493 569q56 -54 72.5 -87.5t16.5 -70.5q0 -52 -31 -104t-111 -132q-126 -127 -162 -190.5t-36 -126.5q0 -66 50 -112t132 -46q50 0 95.5 18
t70 49.5t62.5 123.5l65 -10q-62 -155 -87 -256q-78 -48 -140.5 -67.5t-135.5 -19.5q-106 0 -192.5 37t-130.5 107t-44 161q0 77 29.5 139.5t111.5 134.5q62 55 175 130q81 55 107 77q49 41 68 75q14 25 14 51q0 46 -44 83z" />
    <glyph glyph-name="exclamdown" unicode="&#xa1;" horiz-adv-x="682" 
d="M527 856q0 -40 -16 -84.5t-50 -70t-83 -25.5q-56 0 -88.5 32t-32.5 87q0 69 40 123.5t113 54.5q54 0 85.5 -31t31.5 -86zM376 559l26 -18q-5 -37 -7 -62q-12 -110 -37 -366q-39 -395 -40 -416q-3 -33 -6 -101q-106 -17 -158.5 -28t-124.5 -31l-23 19q192 610 253 810
q26 87 37 143z" />
    <glyph glyph-name="logicalnot" unicode="&#xac;" horiz-adv-x="1241" 
d="M969 242v407h-875v151h1025v-558h-150z" />
    <glyph glyph-name="radical.old" horiz-adv-x="1124" 
d="M351 0l-219 690h-163v68l352 38l163 -522l399 1125h224v-81h-165l-475 -1318h-116z" />
    <glyph glyph-name="florin" unicode="&#x192;" horiz-adv-x="1024" 
d="M-16 -368q3 31 17 78t29 90l20 2q18 -27 40 -42t52 -15q65 0 101.5 83t76.5 362l77 665h-259l6 82h261q33 225 139 360t306 135q78 0 137.5 -20t64.5 -44l-85 -161l-43 9q3 12 5.5 22.5t2.5 23.5q0 41 -23.5 71.5t-80.5 31.5q-74 -5 -118.5 -109t-75.5 -319h292l-10 -82
h-292q-12 -89 -25 -191t-28.5 -188.5t-53 -243.5t-119.5 -315.5t-178 -235.5t-174 -77q-18 0 -34.5 6.5t-27.5 21.5z" />
    <glyph glyph-name="approxequal.old" horiz-adv-x="1124" 
d="M100 645l-85 95q101 125 163 162t121 37q91 0 191 -34l180 -69q80 -33 152 -33q55 0 101.5 29t106.5 110l79 -90q-66 -104 -140 -152t-132 -48q-77 0 -182 38l-185 66q-100 35 -159 35q-52 0 -103 -35q-34 -23 -108 -111zM1030 601l79 -90q-66 -104 -140 -152t-133 -48
q-76 0 -181 38l-185 67q-100 34 -159 34q-52 0 -103 -34q-34 -24 -108 -112l-85 95q101 126 165 163.5t121 37.5q89 0 189 -36l180 -68q80 -34 151 -34q56 0 102.5 29t106.5 110z" />
    <glyph glyph-name="guillemotleft" unicode="&#xab;" horiz-adv-x="1024" 
d="M480 497v45l282 247q75 67 147 134l45 -39l-263 -370l175 -384l-50 -30l-16 19l-172 210q-132 148 -148 168zM89 496v46l282 247q75 67 147 134l46 -39l-264 -370l176 -384l-51 -30l-16 19l-172 210q-131 148 -148 167z" />
    <glyph glyph-name="guillemotright" unicode="&#xbb;" horiz-adv-x="1024" 
d="M953 527v-46l-281 -247q-75 -66 -148 -134l-45 40l263 370l-175 384l50 29l16 -18l182 -220q122 -138 138 -158zM563 527v-46l-282 -247q-75 -66 -148 -134l-45 39l264 371l-176 384l50 29l16 -18l182 -220q122 -138 139 -158z" />
    <glyph glyph-name="ellipsis" unicode="&#x2026;" horiz-adv-x="2048" 
d="M168 114q0 76 45.5 124.5t108.5 48.5q59 0 95 -36t36 -99q0 -80 -44.5 -129t-109.5 -49q-61 0 -96 35.5t-35 104.5zM1533 114q0 76 45.5 124.5t108.5 48.5q60 0 96 -36t36 -99q0 -80 -44.5 -129t-109.5 -49q-62 0 -97 35.5t-35 104.5zM851 114q0 76 45 124.5t109 48.5
q59 0 95 -36t36 -99q0 -80 -44.5 -129t-109.5 -49q-62 0 -96.5 35.5t-34.5 104.5z" />
    <glyph glyph-name="nonbreakingspace" unicode="&#xa0;" horiz-adv-x="512" 
 />
    <glyph glyph-name="Agrave" unicode="&#xc0;" horiz-adv-x="1479" 
d="M-69 0v67q106 9 115 12q14 5 25 15q14 14 118 190l411 690q229 388 248 425h195q35 -261 75 -534q69 -471 103 -673q14 -80 27 -98q8 -9 19 -14q18 -7 135 -13v-67l-315 7q-23 0 -299 -7v67q91 0 129 9q25 5 32 14t7 32q0 72 -48 423q-58 1 -83 1l-369 -1
q-114 -195 -186 -349q-30 -64 -30 -83q0 -14 10 -23q15 -13 51 -17q21 -2 116 -6l-7 -67l-230 7zM504 635q28 -2 65 -2q295 0 328 2l-78 533zM1134 1497h-80l-244 174q-56 40 -66 52q-21 25 -21 56q0 33 24 56t61 23q30 0 55 -15.5t76 -83.5z" />
    <glyph glyph-name="Atilde" unicode="&#xc3;" horiz-adv-x="1479" 
d="M-69 0v67q106 9 115 12q14 5 25 15q14 14 118 190l411 690q229 388 248 425h195q35 -261 75 -534q69 -471 103 -673q14 -80 27 -98q8 -9 19 -14q18 -7 135 -13v-67l-315 7q-23 0 -299 -7v67q91 0 129 9q25 5 32 14t7 32q0 72 -48 423q-58 1 -83 1l-369 -1
q-114 -195 -186 -349q-30 -64 -30 -83q0 -14 10 -23q15 -13 51 -17q21 -2 116 -6l-7 -67l-230 7zM504 635q28 -2 65 -2q295 0 328 2l-78 533zM655 1516h-73q29 121 88 176.5t131 55.5q34 0 71.5 -9.5t121.5 -41.5q60 -23 84 -29t44 -6q25 0 48 18.5t47 70.5h72
q-21 -114 -82.5 -173.5t-136.5 -59.5q-31 0 -58.5 6.5t-107.5 38t-104.5 38t-44.5 6.5q-30 0 -56 -20.5t-44 -70.5z" />
    <glyph glyph-name="Otilde" unicode="&#xd5;" horiz-adv-x="1706" 
d="M153 532q0 135 40 282.5t122 269.5q61 90 150.5 164.5t221 124.5t308.5 50q296 0 458 -154t162 -417q0 -206 -90 -397q-107 -225 -303 -357.5t-466 -132.5q-143 0 -258.5 40t-193.5 115.5t-114.5 177.5t-36.5 234zM433 469q0 -80 15.5 -148.5t44 -114t73.5 -78.5
t110.5 -53t132.5 -20q101 0 172.5 33t122.5 89.5t94 146.5q58 119 97 279t39 307q0 93 -19.5 170t-59.5 128.5t-115 86.5t-176 35q-109 0 -185.5 -35t-136.5 -107t-111 -196t-74.5 -271t-23.5 -252zM766 1528h-73q29 121 88 176.5t131 55.5q34 0 71.5 -9.5t121.5 -41.5
q60 -23 84 -29t44 -6q25 0 48 18.5t47 70.5h72q-21 -114 -82.5 -173.5t-136.5 -59.5q-31 0 -58.5 6.5t-107.5 38t-104.5 38t-44.5 6.5q-30 0 -56 -20.5t-44 -70.5z" />
    <glyph glyph-name="OE" unicode="&#x152;" horiz-adv-x="1933" 
d="M1828 354h80q-15 -49 -38 -148q-31 -134 -42 -192l-9 -8q-75 -6 -174 -6l-296 3q-6 0 -170.5 -1t-183.5 -2l-12 14q11 27 18 46l26 84q-66 -66 -104 -92q-59 -41 -134.5 -63.5t-180.5 -22.5q-230 0 -356 119q-155 145 -155 407q0 160 55 338q39 124 102.5 228.5t155 187
t214.5 130t259 47.5q87 0 164.5 -21t126.5 -54.5t93 -89.5q8 63 13 130l14 8h97l551 3q31 0 111 -3l11 -14q-33 -112 -71 -310h-66q7 76 7 145q0 33 -6 43t-16 15q-32 16 -102 23q-21 1 -144.5 3t-149.5 1l-120 -532q97 -2 141 -2q172 0 282 15l9 -14l-33 -103
q-106 9 -181 12t-237 5l-121 -580q54 -4 123 -4q307 0 347.5 26t101.5 229zM1161 850q30 137 30 214q0 64 -39 129t-112 101.5t-161 36.5q-143 0 -248.5 -97t-181 -335.5t-75.5 -460.5q0 -131 34 -208t103.5 -122t159.5 -45q85 0 162.5 37t129 98t80.5 143q21 61 58 229z
" />
    <glyph glyph-name="oe" unicode="&#x153;" horiz-adv-x="1593" 
d="M1455 243l26 -58q-191 -133 -296.5 -177.5t-184.5 -44.5q-75 0 -132 32t-97 95q-110 -73 -205 -105q-71 -23 -152 -23q-110 0 -180.5 37.5t-103 112t-32.5 158.5q0 139 47 295q30 98 72.5 156.5t129 120.5t175 98t180.5 36q116 0 202 -49q51 -29 96 -99q85 60 123 81
q59 32 114 48.5t110 16.5q97 0 146.5 -46.5t49.5 -127.5q0 -111 -68.5 -191t-230 -140t-256.5 -66q-12 -93 -12 -136q0 -48 17.5 -86t53 -56.5t82.5 -18.5q35 0 70 8.5t78 26.5q17 8 86.5 47t91.5 55zM336 291q0 -116 48 -172t128 -56q62 0 104 27.5t84 111t68 219.5t26 222
q0 128 -46.5 182.5t-129.5 54.5q-78 0 -127 -48q-70 -69 -112.5 -247t-42.5 -294zM997 462q108 27 137 39q51 20 86 45.5t65.5 64.5t49.5 90q15 39 15 73q0 48 -26.5 75.5t-70.5 27.5q-33 0 -64.5 -14.5t-57 -43t-47.5 -77.5q-31 -69 -51 -138q-27 -102 -36 -142z" />
    <glyph glyph-name="endash" unicode="&#x2013;" horiz-adv-x="1024" 
d="M2 438l38 139h1020l-38 -139h-1020z" />
    <glyph glyph-name="emdash" unicode="&#x2014;" horiz-adv-x="2048" 
d="M268 438l38 139h1511l-38 -139h-1511z" />
    <glyph glyph-name="quotedblleft" unicode="&#x201c;" horiz-adv-x="1024" 
d="M1015 1417l30 -34q-53 -74 -112 -231t-71 -264q-25 -2 -58 -11q-144 -39 -189 -53l-29 32q84 156 108 195q83 138 120.5 191.5t86.5 107.5zM564 1417l30 -34q-53 -74 -111.5 -231t-70.5 -264q-25 -2 -59 -11q-144 -39 -189 -53l-29 32q85 156 108 195q83 138 121 191.5
t86 107.5z" />
    <glyph glyph-name="quotedblright" unicode="&#x201d;" horiz-adv-x="1024" 
d="M165 824l-30 34q53 74 111.5 231t70.5 264q25 3 59 12q144 38 189 52l29 -32q-85 -156 -108 -195q-83 -138 -121 -191t-86 -108zM615 824l-29 34q53 74 111.5 231t70.5 264q25 3 59 12q143 38 188 52l30 -32q-85 -156 -109 -195q-83 -138 -120.5 -191t-86.5 -108z" />
    <glyph glyph-name="quoteleft" unicode="&#x2018;" horiz-adv-x="569" 
d="M584 1418l30 -34q-53 -74 -111.5 -231t-70.5 -264q-25 -3 -59 -12q-144 -38 -189 -52l-29 32q85 156 108 195q83 137 121 190.5t86 108.5z" />
    <glyph glyph-name="quoteright" unicode="&#x2019;" horiz-adv-x="569" 
d="M185 825l-30 34q53 74 111.5 231t70.5 263q25 3 59 12q144 39 189 53l29 -33q-85 -155 -108 -194q-83 -138 -121 -191.5t-86 -107.5z" />
    <glyph glyph-name="divide" unicode="&#xf7;" horiz-adv-x="1124" 
d="M563 1147q54 0 92.5 -38.5t38.5 -93.5q0 -54 -38.5 -92.5t-92.5 -38.5q-55 0 -93.5 38.5t-38.5 92.5q0 55 38.5 93.5t93.5 38.5zM12 671h1101v-152h-1101v152zM563 306q54 0 92.5 -38.5t38.5 -92.5q0 -55 -38.5 -93.5t-92.5 -38.5q-55 0 -93.5 38.5t-38.5 93.5
q0 54 38.5 92.5t93.5 38.5z" />
    <glyph glyph-name="lozenge" unicode="&#x25ca;" horiz-adv-x="1012" 
d="M506 -12l-514 725l514 726l515 -726zM506 255l326 458l-326 461l-325 -461z" />
    <glyph glyph-name="ydieresis" unicode="&#xff;" 
d="M48 -357l126 80l30 -13q-2 -21 -2 -35q0 -55 34 -95.5t99 -40.5q39 0 77 19t77 67.5t79 153.5t90 297l66 263q-96 -133 -151 -192q-100 -106 -180 -149q-53 -29 -86 -29q-38 0 -69 43.5t-31 153.5v34q1 10 2 23l23 223q13 110 16 153q5 84 5 91q0 52 -4 68
q-3 12 -12.5 19.5t-20.5 7.5q-15 0 -47 -18q-56 -31 -113 -77l-26 57l185 140q69 48 120 69q39 15 66 15q36 0 55 -25q26 -34 26 -100q0 -25 -2 -58l-45 -405q-8 -115 -8 -145q0 -44 6 -63q3 -13 12.5 -20.5t17.5 -7.5q12 0 32 12q53 32 113 113t105.5 176.5t76.5 193.5
q46 147 63 275q149 31 229 49l23 -18q-47 -118 -140 -473q-78 -298 -121 -423q-70 -198 -169.5 -337.5t-230.5 -215.5q-94 -54 -187 -54q-101 0 -155 48.5t-54 127.5v22zM508 1378q50 0 85 -35t35 -85t-35.5 -85.5t-85.5 -35.5q-49 0 -84.5 35.5t-35.5 85.5t35 85t86 35z
M927 1378q50 0 85 -35t35 -85t-35 -85.5t-85 -35.5t-85.5 35.5t-35.5 85.5t35 85t86 35z" />
    <glyph glyph-name="Ydieresis" unicode="&#x178;" horiz-adv-x="1251" 
d="M274 0l7 71q45 -2 93.5 1t67 12.5t28.5 26.5q14 24 22 81l22 118q13 71 25 154q4 27 4 40q0 41 -33.5 163.5t-70 235.5t-74.5 182.5t-73 101.5q-20 18 -44 26q-31 10 -59 15q-36 2 -76 0l-6 47q70 46 125 85q48 37 76 55q27 4 44 4q48 0 89.5 -17.5t81.5 -63.5
q53 -60 96 -176t83 -289l54 -252q62 145 97 211q87 163 179 292t164 193q52 47 102 68q34 14 96 16q-7 -96 11 -181q-89 -11 -172 -61q-82 -58 -184 -197q-128 -173 -209 -375q-35 -85 -68 -265q-26 -143 -26 -190q0 -23 10.5 -35.5t36.5 -18.5q43 -9 157 -9l-8 -69
q-182 9 -307 9q-97 0 -361 -9zM612 1752q50 0 85 -35t35 -85t-35.5 -85.5t-85.5 -35.5q-49 0 -84.5 35.5t-35.5 85.5t35 85t86 35zM1031 1752q50 0 85 -35t35 -85t-35 -85.5t-85 -35.5t-85.5 35.5t-35.5 85.5t35 85t86 35z" />
    <glyph glyph-name="fraction" unicode="&#x2044;" horiz-adv-x="342" 
d="M-340 -238l898 1835h123l-898 -1835h-123z" />
    <glyph glyph-name="guilsinglleft" unicode="&#x2039;" horiz-adv-x="682" 
d="M88 496v46l282 247q75 67 147 134l46 -39l-264 -370l176 -384l-51 -30l-16 19l-172 210q-131 148 -148 167z" />
    <glyph glyph-name="guilsinglright" unicode="&#x203a;" horiz-adv-x="682" 
d="M562 527v-46l-282 -247q-75 -66 -148 -134l-45 39l264 371l-176 384l50 29l16 -18l182 -220q122 -138 139 -158z" />
    <glyph glyph-name="daggerdbl" unicode="&#x2021;" 
d="M583 419q24 -3 78 -3q62 0 131 4t97 10q-8 -20 -20.5 -73t-12.5 -79q-27 0 -137 6t-158 6q-18 -102 -36.5 -229t-18.5 -177q-14 2 -50 3t-66 1q-31 0 -60 -0.5t-54 -3.5q14 44 54.5 200.5t48.5 203.5q-41 0 -160 -6t-139 -6q10 25 21.5 77t11.5 81q63 -7 138.5 -10.5
t150.5 -3.5q19 89 43.5 215t45.5 255q-42 0 -125.5 -2.5t-179.5 -5.5q7 18 17 72.5t10 81.5q45 -6 134 -10t162 -4q16 84 33.5 203t17.5 174q16 -2 47.5 -4t56.5 -2t61 2t50 4q-15 -47 -47.5 -183.5t-42.5 -193.5q73 0 182.5 3.5t139.5 8.5q-9 -26 -19.5 -80t-13.5 -82
q-72 8 -158.5 14t-149.5 6q-17 -74 -44.5 -233t-38.5 -240z" />
    <glyph glyph-name="periodcentered" unicode="&#xb7;" horiz-adv-x="512" 
d="M256 776q64 0 109 -45t45 -109t-45 -109t-109 -45t-109 45t-45 109t45 109t109 45z" />
    <glyph glyph-name="quotesinglbase" unicode="&#x201a;" horiz-adv-x="512" 
d="M-49 -299l-30 34q53 74 111.5 231t70.5 264q25 2 59 11q144 39 189 53l29 -33q-85 -155 -108 -194q-83 -138 -121 -191.5t-86 -107.5z" />
    <glyph glyph-name="quotedblbase" unicode="&#x201e;" horiz-adv-x="1024" 
d="M-10 -294l-30 34q53 74 111.5 231t70.5 263q25 3 59 12q144 39 189 53l29 -33q-85 -155 -108 -194q-83 -138 -121 -191.5t-86 -107.5zM440 -294l-29 34q53 74 111.5 231t70.5 263q25 3 59 12q143 39 188 53l30 -33q-85 -155 -109 -194q-83 -138 -120.5 -191.5
t-86.5 -107.5z" />
    <glyph glyph-name="perthousand" unicode="&#x2030;" horiz-adv-x="2048" 
d="M759 252q0 191 121 337t300 146q119 0 175 -76t56 -171q0 -76 -18.5 -156t-63.5 -164t-126 -140.5t-188 -56.5q-123 0 -189.5 71.5t-66.5 209.5zM296 -125h-90l841 1395q-42 -29 -90.5 -41.5t-100.5 -12.5q-58 0 -100 11.5t-63 36.5q12 -22 18 -54t6 -62
q0 -83 -20.5 -160.5t-65 -156.5t-126 -133t-174.5 -54q-130 0 -195.5 69.5t-65.5 204.5q0 109 46.5 218.5t112.5 165.5t129.5 82t135.5 26q52 0 98 -18.5t69 -44.5t85.5 -55t119.5 -29q82 0 145.5 44t119.5 125q8 -3 17 -5.5t18 -2.5q11 0 22 2.5t21 5.5zM980 456
q-31 -76 -41.5 -144.5t-10.5 -138.5q0 -69 28.5 -109t89.5 -40q54 0 109 59.5t90 137t52.5 159t17.5 140.5q0 76 -28.5 119.5t-81.5 43.5q-70 0 -126.5 -62t-98.5 -165zM621 1182q0 83 -23.5 128t-80.5 45q-59 0 -116.5 -54.5t-92 -142.5t-51 -159.5t-16.5 -150.5
q0 -67 29 -106.5t84 -39.5q56 0 105 48t86.5 130t56.5 160.5t19 141.5zM1479 252q0 191 121 337t300 146q119 0 175 -76t56 -171q0 -76 -18.5 -156t-63.5 -164t-126 -140.5t-188 -56.5q-123 0 -189.5 71.5t-66.5 209.5zM1700 456q-31 -76 -41.5 -144.5t-10.5 -138.5
q0 -69 28.5 -109t89.5 -40q54 0 109 59.5t90 137t52.5 159t17.5 140.5q0 76 -28.5 119.5t-81.5 43.5q-70 0 -126.5 -62t-98.5 -165z" />
    <glyph glyph-name="Acircumflex" unicode="&#xc2;" horiz-adv-x="1479" 
d="M-69 0v67q106 9 115 12q14 5 25 15q14 14 118 190l411 690q229 388 248 425h195q35 -261 75 -534q69 -471 103 -673q14 -80 27 -98q8 -9 19 -14q18 -7 135 -13v-67l-315 7q-23 0 -299 -7v67q91 0 129 9q25 5 32 14t7 32q0 72 -48 423q-58 1 -83 1l-369 -1
q-114 -195 -186 -349q-30 -64 -30 -83q0 -14 10 -23q15 -13 51 -17q21 -2 116 -6l-7 -67l-230 7zM504 635q28 -2 65 -2q295 0 328 2l-78 533zM957 1846h141l176 -349h-90l-178 204l-271 -204h-101z" />
    <glyph glyph-name="Ecircumflex" unicode="&#xca;" horiz-adv-x="1251" 
d="M18 0l10 63q98 14 119 29q9 6 17 24q18 43 60 275q20 109 80 454q68 387 68 430q0 21 -9 30q-13 13 -55 19q-26 5 -132 11l13 64q302 -6 327 -6l363 4q98 2 238 2q68 0 117 -6l10 -12q-12 -53 -41 -228q-7 -46 -11 -84h-68l2 144q0 29 -4.5 38t-15.5 15q-16 10 -46.5 16
t-113.5 14q-51 5 -110 5q-111 0 -189 -12l-70 -354q-13 -65 -29 -155q255 -5 281 -5q91 0 190 5l6 -12l-25 -97q-19 1 -197 6l-174 5q-17 0 -96 -3q-20 -116 -53 -300l-35 -195q-6 -36 -8 -67q78 -12 234 -12q84 0 131 4q119 12 145 18t39.5 16t23 30t55.5 181h75
q-18 -83 -29 -136l-36 -199l-10 -12q-48 -7 -125 -7q-143 0 -305 4q-269 6 -290 6q-193 0 -327 -10zM777 1846h141l176 -349h-90l-178 204l-271 -204h-101z" />
    <glyph glyph-name="Aacute" unicode="&#xc1;" horiz-adv-x="1479" 
d="M-69 0v67q106 9 115 12q14 5 25 15q14 14 118 190l411 690q229 388 248 425h195q35 -261 75 -534q69 -471 103 -673q14 -80 27 -98q8 -9 19 -14q18 -7 135 -13v-67l-315 7q-23 0 -299 -7v67q91 0 129 9q25 5 32 14t7 32q0 72 -48 423q-58 1 -83 1l-369 -1
q-114 -195 -186 -349q-30 -64 -30 -83q0 -14 10 -23q15 -13 51 -17q21 -2 116 -6l-7 -67l-230 7zM504 635q28 -2 65 -2q295 0 328 2l-78 533zM923 1497h-87l243 253l61 63q28 26 45.5 34.5t35.5 8.5q39 0 64.5 -24.5t25.5 -59.5q0 -27 -16 -48t-67 -48q-31 -17 -39 -22z" />
    <glyph glyph-name="Edieresis" unicode="&#xcb;" horiz-adv-x="1251" 
d="M18 0l10 63q98 14 119 29q9 6 17 24q18 43 60 275q20 109 80 454q68 387 68 430q0 21 -9 30q-13 13 -55 19q-26 5 -132 11l13 64q302 -6 327 -6l363 4q98 2 238 2q68 0 117 -6l10 -12q-12 -53 -41 -228q-7 -46 -11 -84h-68l2 144q0 29 -4.5 38t-15.5 15q-16 10 -46.5 16
t-113.5 14q-51 5 -110 5q-111 0 -189 -12l-70 -354q-13 -65 -29 -155q255 -5 281 -5q91 0 190 5l6 -12l-25 -97q-19 1 -197 6l-174 5q-17 0 -96 -3q-20 -116 -53 -300l-35 -195q-6 -36 -8 -67q78 -12 234 -12q84 0 131 4q119 12 145 18t39.5 16t23 30t55.5 181h75
q-18 -83 -29 -136l-36 -199l-10 -12q-48 -7 -125 -7q-143 0 -305 4q-269 6 -290 6q-193 0 -327 -10zM612 1781q50 0 85 -35t35 -85t-35.5 -85.5t-85.5 -35.5q-49 0 -84.5 35.5t-35.5 85.5t35 85t86 35zM1031 1781q50 0 85 -35t35 -85t-35 -85.5t-85 -35.5t-85.5 35.5
t-35.5 85.5t35 85t86 35z" />
    <glyph glyph-name="Egrave" unicode="&#xc8;" horiz-adv-x="1251" 
d="M18 0l10 63q98 14 119 29q9 6 17 24q18 43 60 275q20 109 80 454q68 387 68 430q0 21 -9 30q-13 13 -55 19q-26 5 -132 11l13 64q302 -6 327 -6l363 4q98 2 238 2q68 0 117 -6l10 -12q-12 -53 -41 -228q-7 -46 -11 -84h-68l2 144q0 29 -4.5 38t-15.5 15q-16 10 -46.5 16
t-113.5 14q-51 5 -110 5q-111 0 -189 -12l-70 -354q-13 -65 -29 -155q255 -5 281 -5q91 0 190 5l6 -12l-25 -97q-19 1 -197 6l-174 5q-17 0 -96 -3q-20 -116 -53 -300l-35 -195q-6 -36 -8 -67q78 -12 234 -12q84 0 131 4q119 12 145 18t39.5 16t23 30t55.5 181h75
q-18 -83 -29 -136l-36 -199l-10 -12q-48 -7 -125 -7q-143 0 -305 4q-269 6 -290 6q-193 0 -327 -10zM954 1497h-80l-244 174q-56 40 -66 52q-21 25 -21 56q0 33 24 56t61 23q30 0 55 -15.5t76 -83.5z" />
    <glyph glyph-name="Iacute" unicode="&#xcd;" horiz-adv-x="797" 
d="M0 0l8 69q93 -2 143 11q11 3 18 9q15 14 25.5 43t50.5 252l94 530q51 293 51 357q0 24 -13.5 36.5t-50.5 15.5q-23 2 -127 6l11 70q155 -6 289 -6q90 0 366 6l-12 -70q-114 0 -139 -8q-15 -5 -26.5 -16t-18.5 -36q-18 -53 -71 -355q-68 -388 -93 -536q-34 -197 -34 -246
q0 -23 10.5 -36t39.5 -20t147 -7l-9 -69q-244 8 -317 8q-49 0 -342 -8zM530 1497h-87l243 253l61 63q28 26 45.5 34.5t35.5 8.5q39 0 64.5 -24.5t25.5 -59.5q0 -27 -16 -48t-67 -48q-31 -17 -39 -22z" />
    <glyph glyph-name="Icircumflex" unicode="&#xce;" horiz-adv-x="797" 
d="M0 0l8 69q93 -2 143 11q11 3 18 9q15 14 25.5 43t50.5 252l94 530q51 293 51 357q0 24 -13.5 36.5t-50.5 15.5q-23 2 -127 6l11 70q155 -6 289 -6q90 0 366 6l-12 -70q-114 0 -139 -8q-15 -5 -26.5 -16t-18.5 -36q-18 -53 -71 -355q-68 -388 -93 -536q-34 -197 -34 -246
q0 -23 10.5 -36t39.5 -20t147 -7l-9 -69q-244 8 -317 8q-49 0 -342 -8zM564 1846h141l176 -349h-90l-178 204l-271 -204h-101z" />
    <glyph glyph-name="Idieresis" unicode="&#xcf;" horiz-adv-x="797" 
d="M0 0l8 69q93 -2 143 11q11 3 18 9q15 14 25.5 43t50.5 252l94 530q51 293 51 357q0 24 -13.5 36.5t-50.5 15.5q-23 2 -127 6l11 70q155 -6 289 -6q90 0 366 6l-12 -70q-114 0 -139 -8q-15 -5 -26.5 -16t-18.5 -36q-18 -53 -71 -355q-68 -388 -93 -536q-34 -197 -34 -246
q0 -23 10.5 -36t39.5 -20t147 -7l-9 -69q-244 8 -317 8q-49 0 -342 -8zM387 1761q50 0 85 -35t35 -85t-35.5 -85.5t-85.5 -35.5q-49 0 -84.5 35.5t-35.5 85.5t35 85t86 35zM806 1761q50 0 85 -35t35 -85t-35 -85.5t-85 -35.5t-85.5 35.5t-35.5 85.5t35 85t86 35z" />
    <glyph glyph-name="Igrave" unicode="&#xcc;" horiz-adv-x="797" 
d="M0 0l8 69q93 -2 143 11q11 3 18 9q15 14 25.5 43t50.5 252l94 530q51 293 51 357q0 24 -13.5 36.5t-50.5 15.5q-23 2 -127 6l11 70q155 -6 289 -6q90 0 366 6l-12 -70q-114 0 -139 -8q-15 -5 -26.5 -16t-18.5 -36q-18 -53 -71 -355q-68 -388 -93 -536q-34 -197 -34 -246
q0 -23 10.5 -36t39.5 -20t147 -7l-9 -69q-244 8 -317 8q-49 0 -342 -8zM741 1497h-80l-244 174q-56 40 -66 52q-21 25 -21 56q0 33 24 56t61 23q30 0 55 -15.5t76 -83.5z" />
    <glyph glyph-name="Oacute" unicode="&#xd3;" horiz-adv-x="1706" 
d="M153 532q0 135 40 282.5t122 269.5q61 90 150.5 164.5t221 124.5t308.5 50q296 0 458 -154t162 -417q0 -206 -90 -397q-107 -225 -303 -357.5t-466 -132.5q-143 0 -258.5 40t-193.5 115.5t-114.5 177.5t-36.5 234zM433 469q0 -80 15.5 -148.5t44 -114t73.5 -78.5
t110.5 -53t132.5 -20q101 0 172.5 33t122.5 89.5t94 146.5q58 119 97 279t39 307q0 93 -19.5 170t-59.5 128.5t-115 86.5t-176 35q-109 0 -185.5 -35t-136.5 -107t-111 -196t-74.5 -271t-23.5 -252zM970 1521h-87l243 253l61 63q28 26 45.5 34.5t35.5 8.5q39 0 64.5 -24.5
t25.5 -59.5q0 -27 -16 -48t-67 -48q-31 -17 -39 -22z" />
    <glyph glyph-name="Ocircumflex" unicode="&#xd4;" horiz-adv-x="1706" 
d="M153 532q0 135 40 282.5t122 269.5q61 90 150.5 164.5t221 124.5t308.5 50q296 0 458 -154t162 -417q0 -206 -90 -397q-107 -225 -303 -357.5t-466 -132.5q-143 0 -258.5 40t-193.5 115.5t-114.5 177.5t-36.5 234zM433 469q0 -80 15.5 -148.5t44 -114t73.5 -78.5
t110.5 -53t132.5 -20q101 0 172.5 33t122.5 89.5t94 146.5q58 119 97 279t39 307q0 93 -19.5 170t-59.5 128.5t-115 86.5t-176 35q-109 0 -185.5 -35t-136.5 -107t-111 -196t-74.5 -271t-23.5 -252zM1004 1870h141l176 -349h-90l-178 204l-271 -204h-101z" />
    <glyph glyph-name="apple" unicode="&#xf8ff;" horiz-adv-x="1618" 
d="M588.5 1235q106.5 -31 141.5 -31q45 0 147 35t177 35q123 0 219 -66q54 -38 107 -103q-80 -68 -117 -121q-67 -96 -67 -212q0 -127 71 -229t162 -129q-38 -123 -126 -257q-133 -201 -264 -201q-52 0 -143.5 33t-154.5 33t-146.5 -34.5t-135.5 -34.5q-157 0 -308 266
q-151 263 -151 516q0 235 115.5 383t291.5 148q75 0 181.5 -31zM1042 1637q1 -10 1 -20q0 -64 -30 -140t-95 -141q-56 -55 -111 -74q-35 -11 -106 -17q2 152 79.5 263t256.5 152q4 -13 5 -23z" />
    <glyph glyph-name="Ograve" unicode="&#xd2;" horiz-adv-x="1706" 
d="M153 532q0 135 40 282.5t122 269.5q61 90 150.5 164.5t221 124.5t308.5 50q296 0 458 -154t162 -417q0 -206 -90 -397q-107 -225 -303 -357.5t-466 -132.5q-143 0 -258.5 40t-193.5 115.5t-114.5 177.5t-36.5 234zM433 469q0 -80 15.5 -148.5t44 -114t73.5 -78.5
t110.5 -53t132.5 -20q101 0 172.5 33t122.5 89.5t94 146.5q58 119 97 279t39 307q0 93 -19.5 170t-59.5 128.5t-115 86.5t-176 35q-109 0 -185.5 -35t-136.5 -107t-111 -196t-74.5 -271t-23.5 -252zM1181 1521h-80l-244 174q-56 40 -66 52q-21 25 -21 56q0 33 24 56t61 23
q30 0 55 -15.5t76 -83.5z" />
    <glyph glyph-name="Uacute" unicode="&#xda;" horiz-adv-x="1593" 
d="M1719 1423l-9 -74q-112 1 -141 -10q-14 -6 -23 -16q-13 -15 -24 -60q-26 -107 -77.5 -393t-76.5 -437q-42 -256 -42 -292q0 -28 9 -40t29 -18q37 -11 111 -11l43 1l-11 -73q-188 5 -197 5l-270 -5l-10 12q30 137 49 251q-166 -177 -301 -249q-92 -49 -210 -49
q-96 0 -168 29q-55 23 -99 64.5t-68 86.5q-36 70 -36 144q0 32 2 64q4 46 16 120q20 128 52 297.5t46 256.5q29 177 33 206.5t4 56.5q0 22 -6.5 31.5t-23.5 15.5q-22 9 -68 12q-78 5 -86 5l11 69q22 -1 111 -2l235 -5h12q49 0 116 7l12 -15q-43 -189 -60 -279
q-44 -230 -90 -500q-33 -189 -36.5 -224t-3.5 -68q0 -92 59 -146.5t162 -54.5q74 0 156 37t171 125q58 58 68 85q6 17 41 221q43 246 57 328q55 332 55 368q0 22 -17 32q-28 15 -172 22l9 69h19l331 -7zM928 1521h-87l243 253l61 63q28 26 45.5 34.5t35.5 8.5
q39 0 64.5 -24.5t25.5 -59.5q0 -27 -16 -48t-67 -48q-31 -17 -39 -22z" />
    <glyph glyph-name="Ucircumflex" unicode="&#xdb;" horiz-adv-x="1593" 
d="M1719 1423l-9 -74q-112 1 -141 -10q-14 -6 -23 -16q-13 -15 -24 -60q-26 -107 -77.5 -393t-76.5 -437q-42 -256 -42 -292q0 -28 9 -40t29 -18q37 -11 111 -11l43 1l-11 -73q-188 5 -197 5l-270 -5l-10 12q30 137 49 251q-166 -177 -301 -249q-92 -49 -210 -49
q-96 0 -168 29q-55 23 -99 64.5t-68 86.5q-36 70 -36 144q0 32 2 64q4 46 16 120q20 128 52 297.5t46 256.5q29 177 33 206.5t4 56.5q0 22 -6.5 31.5t-23.5 15.5q-22 9 -68 12q-78 5 -86 5l11 69q22 -1 111 -2l235 -5h12q49 0 116 7l12 -15q-43 -189 -60 -279
q-44 -230 -90 -500q-33 -189 -36.5 -224t-3.5 -68q0 -92 59 -146.5t162 -54.5q74 0 156 37t171 125q58 58 68 85q6 17 41 221q43 246 57 328q55 332 55 368q0 22 -17 32q-28 15 -172 22l9 69h19l331 -7zM962 1870h141l176 -349h-90l-178 204l-271 -204h-101z" />
    <glyph glyph-name="Ugrave" unicode="&#xd9;" horiz-adv-x="1593" 
d="M1719 1423l-9 -74q-112 1 -141 -10q-14 -6 -23 -16q-13 -15 -24 -60q-26 -107 -77.5 -393t-76.5 -437q-42 -256 -42 -292q0 -28 9 -40t29 -18q37 -11 111 -11l43 1l-11 -73q-188 5 -197 5l-270 -5l-10 12q30 137 49 251q-166 -177 -301 -249q-92 -49 -210 -49
q-96 0 -168 29q-55 23 -99 64.5t-68 86.5q-36 70 -36 144q0 32 2 64q4 46 16 120q20 128 52 297.5t46 256.5q29 177 33 206.5t4 56.5q0 22 -6.5 31.5t-23.5 15.5q-22 9 -68 12q-78 5 -86 5l11 69q22 -1 111 -2l235 -5h12q49 0 116 7l12 -15q-43 -189 -60 -279
q-44 -230 -90 -500q-33 -189 -36.5 -224t-3.5 -68q0 -92 59 -146.5t162 -54.5q74 0 156 37t171 125q58 58 68 85q6 17 41 221q43 246 57 328q55 332 55 368q0 22 -17 32q-28 15 -172 22l9 69h19l331 -7zM1139 1521h-80l-244 174q-56 40 -66 52q-21 25 -21 56q0 33 24 56
t61 23q30 0 55 -15.5t76 -83.5z" />
    <glyph glyph-name="dotlessi" unicode="&#x131;" horiz-adv-x="682" 
d="M580 231l27 -53q-79 -56 -179 -120.5t-147 -81.5q-30 -11 -58 -11q-34 0 -56 25.5t-22 78.5q0 42 9 87q11 60 52 214q84 318 84 374q0 13 -6.5 20t-16.5 7q-40 0 -183 -101l-25 53l137 101q105 74 141 94q58 32 103 46q28 8 49 8q24 0 42.5 -20t18.5 -55q0 -38 -8 -79
q-13 -64 -72 -279t-73 -281.5t-14 -87.5q0 -16 8.5 -25t18.5 -9q12 0 38 14q59 31 132 81z" />
    <glyph glyph-name="circumflex" unicode="&#x2c6;" horiz-adv-x="682" 
d="M493 1470h141l176 -349h-90l-178 204l-271 -204h-101z" />
    <glyph glyph-name="tilde" unicode="&#x2dc;" horiz-adv-x="682" 
d="M255 1187h-73q29 121 88 176.5t131 55.5q34 0 71.5 -9.5t121.5 -41.5q60 -23 84 -29t44 -6q25 0 48 18.5t47 70.5h72q-21 -114 -82.5 -173.5t-136.5 -59.5q-31 0 -58.5 6.5t-107.5 38t-104.5 38t-44.5 6.5q-30 0 -56 -20.5t-44 -70.5z" />
    <glyph glyph-name="macron" unicode="&#xaf;" horiz-adv-x="682" 
d="M226 1350h646l-31 -126h-647z" />
    <glyph glyph-name="breve" unicode="&#x2d8;" horiz-adv-x="682" 
d="M257 1452h72q8 -91 61 -141t159 -50q93 0 162 50.5t101 140.5h74q-44 -190 -143 -260.5t-214 -70.5q-84 0 -147 33t-96 94.5t-33 133.5q0 27 4 70z" />
    <glyph glyph-name="dotaccent" unicode="&#x2d9;" horiz-adv-x="682" 
d="M538 1411q50 0 85 -35t35 -85t-35.5 -85.5t-85.5 -35.5q-49 0 -84.5 35.5t-35.5 85.5t35 85t86 35z" />
    <glyph glyph-name="ring" unicode="&#x2da;" 
d="M266 1260q10 93 71.5 139t164.5 46q89 0 141 -38.5t52 -111.5q0 -13 -5 -61t-69 -100t-160 -52q-86 0 -141 41.5t-55 115.5q0 14 1 21zM375 1241v-10q0 -44 23 -73t65 -29q49 0 82 43t40 127q0 48 -23 75t-68 27q-51 0 -85 -38.5t-34 -121.5z" />
    <glyph glyph-name="cedilla" unicode="&#xb8;" horiz-adv-x="682" 
d="M253 7h83l-93 -137q24 5 48 5q60 0 99 -17.5t61 -52t22 -69.5q0 -71 -64 -126t-190 -55q-58 0 -102.5 10t-107.5 39l40 63q80 -33 144 -33q52 0 80.5 25t28.5 61q0 32 -24.5 54t-69.5 22q-28 0 -67 -9l-23 24z" />
    <glyph glyph-name="hungarumlaut" unicode="&#x2dd;" horiz-adv-x="682" 
d="M592 1121h-87l243 253l61 63q28 26 45.5 34.5t35.5 8.5q39 0 64.5 -24.5t25.5 -59.5q0 -27 -16 -48t-67 -48q-30 -17 -39 -22zM244 1121h-87l243 253l61 63q28 26 45.5 34.5t35.5 8.5q39 0 64.5 -24.5t25.5 -59.5q0 -27 -16 -48t-67 -48q-31 -17 -39 -22z" />
    <glyph glyph-name="ogonek" unicode="&#x2db;" horiz-adv-x="682" 
d="M439 -216l48 -26q-90 -89 -135 -116q-70 -42 -149 -42q-65 0 -101 35.5t-36 96.5q0 41 15 75.5t52 75.5q28 30 116 103h88q-83 -74 -103.5 -109t-20.5 -67q0 -42 26.5 -68.5t69.5 -26.5q32 0 62 15.5t68 53.5z" />
    <glyph glyph-name="caron" unicode="&#x2c7;" horiz-adv-x="682" 
d="M247 1471h90l189 -204l281 204h98l-329 -350h-141z" />
    <glyph glyph-name="Lslash" unicode="&#x141;" horiz-adv-x="1251" 
d="M288 574l-226 -95l-24 84l268 113q34 196 47 275l42 272q3 27 3 49q0 24 -11 34.5t-47 14.5l-127 9l12 69q57 0 195.5 -5.5t188.5 -5.5q53 0 111 3l163 8l-11 -75h-22q-114 1 -144 -14q-14 -7 -23 -24q-13 -26 -42 -181q-35 -190 -55 -310l288 121l22 -85l-327 -138
l-71 -415q-15 -89 -25 -164q152 -10 250 -10q169 0 262 22q37 9 51 27q19 26 82 215h72q-56 -234 -72 -360q-56 -8 -122 -8q-80 0 -238 4q-296 6 -340 6q-236 0 -367 -10l11 62l102 26q16 5 24.5 13t13.5 22q10 25 30 134q5 24 56 317z" />
    <glyph glyph-name="lslash" unicode="&#x142;" horiz-adv-x="682" 
d="M499 790l-60 -282q-48 -213 -51 -232q-8 -46 -10 -70q-2 -14 -2 -25q0 -21 8 -31t19 -10q16 0 50 17q54 27 118 76l30 -54l-188 -128q-81 -52 -130 -72q-37 -14 -67 -14q-35 0 -53 23q-26 32 -26 89q0 50 15 133q23 128 30 161l64 286l-199 -105l-19 71l239 125l69 312
l23 116q9 47 12 72q2 16 2 28q0 22 -8.5 33t-28 15t-134.5 5l10 59q219 26 415 94l25 -22l-69 -291q-14 -62 -64 -288l207 109l20 -70z" />
    <glyph glyph-name="Scaron" unicode="&#x160;" 
d="M91 75q11 42 29.5 149.5t22.5 161.5h66l-2 -114q0 -21 2 -61q32 -48 120 -90.5t188 -42.5q164 0 234 73t70 180q0 53 -11.5 89.5t-39 62t-69 41.5t-143.5 48q-178 45 -247 105q-95 83 -95 242q0 201 161 352.5t396 151.5q91 0 169.5 -23t144.5 -69q-19 -73 -30 -131.5
t-26 -169.5h-65q2 40 2 70q0 13 -2 94q-22 30 -45 47q-36 27 -93 46.5t-128 19.5q-90 0 -155.5 -35t-97.5 -93.5t-33 -145.5q1 -78 29 -119t129 -75q130 -30 207.5 -52.5t137 -51t93 -93.5t33.5 -152q0 -145 -92 -269t-217.5 -190t-281.5 -66q-103 0 -198 29t-163 81z
M474 1871h90l189 -204l281 204h98l-329 -350h-141z" />
    <glyph glyph-name="scaron" unicode="&#x161;" horiz-adv-x="909" 
d="M95 298h62l3 -96q43 -50 112.5 -83.5t143.5 -33.5q64 0 105.5 19.5t61 57t19.5 74.5t-18 68t-46.5 45.5t-108.5 29.5q-140 27 -186.5 54.5t-73.5 78t-27 108.5q0 55 23 109q18 40 50 72t116.5 84.5t133 69.5t115.5 17q66 0 128.5 -15.5t122.5 -47.5q-20 -91 -37 -239h-60
l-12 99q-48 45 -109 68t-119 23q-45 0 -84.5 -19t-59.5 -52.5t-20 -72.5q0 -55 38 -90t174 -59q88 -16 111 -24q44 -14 77.5 -42t53.5 -71.5t20 -93.5q0 -73 -32 -123t-107 -110t-134 -89q-83 -40 -204 -40q-70 0 -128 11q-42 8 -146 46q12 41 23 117q17 108 19 150z
M247 1438h90l189 -204l281 204h98l-329 -350h-141z" />
    <glyph glyph-name="Zcaron" unicode="&#x17d;" horiz-adv-x="1366" 
d="M6 0v59q34 32 116.5 130.5t226.5 277.5l660 822h-258q-151 0 -258 -7.5t-143 -17.5q-13 -12 -25 -43q-29 -74 -56 -173h-73q47 249 55 337l14 14q349 -8 640 -8q128 0 179 1l297 7v-64q-40 -43 -90 -101q-85 -100 -171 -206l-168 -211l-564 -707h288q204 0 316 8
q78 7 144 24q53 93 92 233h74q-34 -136 -46 -191.5t-33 -175.5l-10 -8q-44 -2 -66 -2l-269 8q-133 2 -567 2q-86 0 -137 -1zM588 1871h90l189 -204l281 204h98l-329 -350h-141z" />
    <glyph glyph-name="zcaron" unicode="&#x17e;" horiz-adv-x="1024" 
d="M54 61l689 716q-74 -37 -154 -37q-56 0 -160.5 13.5t-137.5 13.5q-18 0 -43 -3q-14 -26 -49 -106l-57 5l92 287q55 18 104 18q42 0 87.5 -7.5t123 -28.5t127 -29t94.5 -8q51 0 82 17.5t56 56.5l40 -16l-28 -104l-666 -685q73 31 112.5 41t76.5 10q52 0 158.5 -19
t150.5 -19q17 0 49 4l53 116l56 -5q-40 -113 -76 -289q-51 -27 -118 -27q-49 0 -92 7q-28 4 -162.5 38.5t-222.5 34.5q-101 0 -160 -67zM247 1438h90l189 -204l281 204h98l-329 -350h-141z" />
    <glyph glyph-name="brokenbar" unicode="&#xa6;" horiz-adv-x="1241" 
d="M541 906v592h157v-592h-157zM541 0v592h157v-592h-157z" />
    <glyph glyph-name="Eth" unicode="&#xd0;" horiz-adv-x="1593" 
d="M277 688h-195l21 106h192q52 301 62 378q8 58 8 96q0 20 -7.5 30t-21 14t-67.5 8q-95 7 -100 7l13 72q97 -11 230 -11q111 0 270 3q198 4 260 4q201 0 329.5 -55.5t201 -180t72.5 -295.5q0 -151 -58 -316t-174.5 -290t-265 -191t-321.5 -66q-57 0 -215 5q-92 3 -187 3
q-75 0 -121 -1l-180 -8l6 64q88 11 113 24q11 6 18 17q11 15 20 55.5t46 237.5q14 75 51 290zM530 688q-75 -415 -96 -560l202 -26q55 -6 102 -6q112 0 194 33q58 24 101 68q68 69 119 170.5t81.5 248t30.5 272.5q0 86 -25 172.5t-79.5 142t-129.5 78t-190 22.5
q-113 0 -200 -12l-91 -497h354l-21 -106h-352z" />
    <glyph glyph-name="eth" unicode="&#xf0;" 
d="M723 1165l-281 -139l-39 71l267 131q-46 53 -83 84.5t-102 74.5l82 95q76 -39 122 -75.5t114 -112.5l278 135l36 -70l-261 -131q55 -83 83 -143q40 -88 64.5 -194.5t24.5 -225.5q0 -139 -35.5 -262t-86.5 -189t-136.5 -123.5t-165 -91.5t-193.5 -34q-160 0 -236.5 78
t-76.5 236q0 129 49 273q37 109 87 173q37 47 114 104t167.5 93.5t195.5 36.5q29 0 46.5 -3.5t45.5 -13.5q-12 79 -27.5 123t-52.5 100zM336 255q0 -94 48 -143.5t133 -49.5q42 0 77.5 18.5t62.5 51.5t55 101q38 91 60 213.5t22 214.5q0 94 -42 152t-123 58q-43 0 -84 -21.5
t-64 -51.5q-38 -47 -72 -130.5t-54 -186.5t-20 -182z" />
    <glyph glyph-name="Yacute" unicode="&#xdd;" horiz-adv-x="1251" 
d="M274 0l7 71q45 -2 93.5 1t67 12.5t28.5 26.5q14 24 22 81l22 118q13 71 25 154q4 27 4 40q0 41 -33.5 163.5t-70 235.5t-74.5 182.5t-73 101.5q-20 18 -44 26q-31 10 -59 15q-36 2 -76 0l-6 47q70 46 125 85q48 37 76 55q27 4 44 4q48 0 89.5 -17.5t81.5 -63.5
q53 -60 96 -176t83 -289l54 -252q62 145 97 211q87 163 179 292t164 193q52 47 102 68q34 14 96 16q-7 -96 11 -181q-89 -11 -172 -61q-82 -58 -184 -197q-128 -173 -209 -375q-35 -85 -68 -265q-26 -143 -26 -190q0 -23 10.5 -35.5t36.5 -18.5q43 -9 157 -9l-8 -69
q-182 9 -307 9q-97 0 -361 -9zM743 1521h-87l243 253l61 63q28 26 45.5 34.5t35.5 8.5q39 0 64.5 -24.5t25.5 -59.5q0 -27 -16 -48t-67 -48q-31 -17 -39 -22z" />
    <glyph glyph-name="yacute" unicode="&#xfd;" 
d="M48 -357l126 80l30 -13q-2 -21 -2 -35q0 -55 34 -95.5t99 -40.5q39 0 77 19t77 67.5t79 153.5t90 297l66 263q-96 -133 -151 -192q-100 -106 -180 -149q-53 -29 -86 -29q-38 0 -69 43.5t-31 153.5v34q1 10 2 23l23 223q13 110 16 153q5 84 5 91q0 52 -4 68
q-3 12 -12.5 19.5t-20.5 7.5q-15 0 -47 -18q-56 -31 -113 -77l-26 57l185 140q69 48 120 69q39 15 66 15q36 0 55 -25q26 -34 26 -100q0 -25 -2 -58l-45 -405q-8 -115 -8 -145q0 -44 6 -63q3 -13 12.5 -20.5t17.5 -7.5q12 0 32 12q53 32 113 113t105.5 176.5t76.5 193.5
q46 147 63 275q149 31 229 49l23 -18q-47 -118 -140 -473q-78 -298 -121 -423q-70 -198 -169.5 -337.5t-230.5 -215.5q-94 -54 -187 -54q-101 0 -155 48.5t-54 127.5v22zM686 1088h-87l243 253l61 63q28 26 45.5 34.5t35.5 8.5q39 0 64.5 -24.5t25.5 -59.5q0 -27 -16 -48
t-67 -48q-31 -17 -39 -22z" />
    <glyph glyph-name="Thorn" unicode="&#xde;" horiz-adv-x="1366" 
d="M706 69l-10 -69l-341 8q-55 0 -330 -8l7 68q125 0 154 12q12 5 19 15q15 22 43 168q71 367 119.5 654.5t48.5 345.5q0 23 -10.5 36t-34.5 18q-31 7 -156 8l10 74q199 -11 328 -11t328 11l-9 -74q-95 -2 -113 -4q-32 -3 -45 -10.5t-17.5 -18t-23.5 -112.5l-13 -73l247 5
q169 0 253 -39t122 -111.5t38 -163.5q0 -107 -52.5 -202.5t-123.5 -161t-155 -103.5t-175 -38q-41 0 -83 8t-108 30v71q73 -24 126 -24q144 0 222 123t78 276q0 122 -66 184t-202 62q-52 0 -137 -5l-81 -455q-66 -375 -66 -432q0 -25 11.5 -36.5t57.5 -17.5q24 -4 140 -8z
" />
    <glyph glyph-name="thorn" unicode="&#xfe;" 
d="M-6 -555l-21 15q82 305 141 563q94 418 136 659q59 342 89 571q3 21 3 37q0 21 -13 32t-54 13l-106 2l12 62q191 4 408 88l26 -19q-27 -98 -39 -150q-8 -30 -80 -388l-65 -323q-2 -6 -12 -63q96 147 161 217q50 53 128 109.5t135.5 79t109.5 22.5q32 0 53.5 -17t39.5 -69
q25 -71 25 -156q0 -125 -52 -278.5t-101 -215.5t-151 -131t-170 -100t-160 -31q-59 0 -116 13q-61 -244 -89 -395q-7 -38 -10 -104q-37 -4 -89 -13q-112 -21 -139 -30zM345 127q99 -53 193 -53q56 0 97.5 30t80.5 109.5t84 246.5q34 128 34 232q0 74 -16 98q-12 18 -35 18
q-25 0 -66 -20q-56 -28 -118 -91t-114.5 -152t-78.5 -168q-18 -52 -61 -250z" />
    <glyph glyph-name="minus" unicode="&#x2212;" horiz-adv-x="1241" 
d="M70 687h1101v-172h-1101v172z" />
    <glyph glyph-name="multiply" unicode="&#xd7;" horiz-adv-x="1241" 
d="M149 246l355 355l-355 356l116 115l355 -355l356 355l116 -115l-356 -356l356 -355l-116 -116l-356 355l-355 -355z" />
    <glyph glyph-name="onesuperior" unicode="&#xb9;" horiz-adv-x="614" 
d="M84 560l13 55q113 10 127 17q34 16 44 69l104 553l-233 -95l-18 26l22 77l259 75q66 20 144 56l33 -11l-18 -89l-111 -579q-7 -38 -7 -51q0 -21 11 -30t48 -12l109 -6l-13 -55q-98 3 -205 3q-161 0 -309 -3z" />
    <glyph glyph-name="twosuperior" unicode="&#xb2;" horiz-adv-x="614" 
d="M53 560v44l175 167q128 121 186 218t58 164q0 59 -32.5 91t-95.5 32q-29 0 -49.5 -8t-40.5 -25q-10 -9 -30 -40l-39 -59l-61 19l81 173q66 38 107 50.5t92 12.5q121 0 183.5 -58t62.5 -157q0 -60 -31.5 -124t-94.5 -123l-263 -246h263q53 0 120 10l12 -16
q-15 -29 -20 -44l-23 -81q-167 3 -213 3z" />
    <glyph glyph-name="threesuperior" unicode="&#xb3;" horiz-adv-x="614" 
d="M48 591l39 197h55q-5 -33 -5 -55q0 -62 36.5 -97t100.5 -35q68 0 120 59t52 153q0 84 -30.5 117t-102.5 33q-46 0 -94 -15l-18 13l27 75q28 -4 47 -4q107 0 150.5 51.5t43.5 115.5q0 36 -28 60q-37 31 -91 31q-49 0 -86 -27.5t-71 -90.5l-58 27l84 143q52 31 94 44t96 13
q72 0 124.5 -21.5t77.5 -61t25 -83.5q0 -57 -44.5 -111.5t-164.5 -103.5q76 -11 118 -33.5t65.5 -63t23.5 -91.5q0 -67 -43.5 -137t-131 -111t-193.5 -41q-67 0 -132 17q-38 9 -86 33z" />
    <glyph glyph-name="onehalf" unicode="&#xbd;" horiz-adv-x="1536" 
d="M310 -1l898 1399h139l-896 -1399h-141zM58 560l13 55q113 10 127 17q34 16 44 69l104 553l-233 -95l-18 26l22 77l259 75q66 20 144 56l33 -11l-18 -89l-111 -579q-7 -38 -7 -51q0 -21 11 -30t48 -12l109 -6l-13 -55q-98 3 -205 3q-161 0 -309 -3zM900 1v44l175 167
q128 121 186 218t58 164q0 59 -33 91t-95 32q-29 0 -50 -8t-40 -25q-10 -9 -30 -40l-39 -59l-61 19l81 173q66 38 107 50.5t92 12.5q120 0 183 -58t63 -157q0 -60 -32 -124t-94 -123l-263 -246h263q53 0 120 10l12 -16q-15 -29 -20 -44l-23 -81q-167 3 -213 3z" />
    <glyph glyph-name="onequarter" unicode="&#xbc;" horiz-adv-x="1536" 
d="M336 -1l898 1399h139l-896 -1399h-141zM84 560l13 55q113 10 127 17q34 16 44 69l104 553l-233 -95l-18 26l22 77l259 75q66 20 144 56l33 -11l-18 -89l-111 -579q-7 -38 -7 -51q0 -21 11 -30t48 -12l109 -6l-13 -55q-98 3 -205 3q-161 0 -309 -3zM981 0l12 57
q113 1 139 18q20 12 29 62l14 79h-323v50l420 538q70 11 165 38l19 -12l-100 -512h138l4 -15l-25 -87h-137l-15 -79q-3 -15 3 -42q4 -21 18 -27q18 -10 123 -11l-9 -57l-236 4q-29 0 -239 -4zM966 318h230l78 387h-15z" />
    <glyph glyph-name="threequarters" unicode="&#xbe;" horiz-adv-x="1536" 
d="M48 591l39 197h55q-5 -33 -5 -55q0 -62 36.5 -97t100.5 -35q68 0 120 59t52 153q0 84 -30.5 117t-102.5 33q-46 0 -94 -15l-18 13l27 75q28 -4 47 -4q107 0 150.5 51.5t43.5 115.5q0 36 -28 60q-37 31 -91 31q-49 0 -86 -27.5t-71 -90.5l-58 27l84 143q52 31 94 44t96 13
q72 0 124.5 -21.5t77.5 -61t25 -83.5q0 -57 -44.5 -111.5t-164.5 -103.5q76 -11 118 -33.5t65.5 -63t23.5 -91.5q0 -67 -43.5 -137t-131 -111t-193.5 -41q-67 0 -132 17q-38 9 -86 33zM337 -1l897 1399h140l-896 -1399h-141zM981 0l12 57q113 1 139 18q20 12 29 62l14 79
h-323v50l421 538q69 11 165 38l18 -12l-100 -512h138l5 -15l-26 -87h-136l-16 -79q-3 -15 3 -42q4 -21 18 -27q19 -10 123 -11l-9 -57l-236 4q-29 0 -239 -4zM966 318h230l78 387h-15z" />
    <glyph glyph-name="franc" unicode="&#x20a3;" horiz-adv-x="1024" 
d="M-42 0l5 69q108 1 132 8q14 5 22.5 13.5t16.5 34t37 187.5l95 538q61 344 61 393q0 20 -8 29q-13 13 -53 19q-25 4 -129 11l12 62q289 -6 306 -6l351 5q79 1 182 1q94 0 143 -5l10 -12q-7 -29 -31 -174q-16 -89 -20 -131h-66l2 141q0 30 -6 40t-25.5 18t-65.5 14
q-101 13 -175 13q-82 0 -158 -11q-13 -44 -25 -111l-81 -458l60 -2q193 0 259 2.5t147 11.5l9 -12l-27 -99q-152 4 -369 4q-55 0 -98 -4q-58 -350 -62 -377q-6 -48 -6 -76q0 -30 11 -42.5t44.5 -17.5t140.5 -7l-6 -69q-172 6 -299 6q-107 0 -336 -6z" />
    <glyph glyph-name="Gbreve" unicode="&#x11e;" horiz-adv-x="1593" 
d="M1334 100l-7 -8q-56 -11 -161 -46q-138 -47 -230.5 -64t-191.5 -17q-288 0 -440 145.5t-152 401.5q0 177 62.5 319.5t150 251t195.5 178t229 116.5q132 46 277 46q121 0 235 -27t176 -65l8 -15q-56 -205 -59 -219q-11 -51 -20 -110h-72q7 107 9 196q-73 55 -140 79
q-95 33 -214 33q-121 0 -205 -31t-139 -84t-99.5 -133t-83.5 -211q-34 -158 -34 -315q0 -230 104 -342.5t287 -112.5q137 0 240 57l38 153q11 43 24 125q8 48 8 64t-10 27.5t-30 15.5q-32 5 -172 8l13 70q180 -7 287 -7q79 0 317 7l-11 -70q-64 -1 -88 -10.5t-36 -29
t-30 -101.5l-18 -86q-17 -79 -20 -102t-3 -46q0 -18 6 -41zM712 1852h72q8 -91 61 -141t159 -50q93 0 162 50.5t101 140.5h74q-44 -190 -143 -260.5t-214 -70.5q-84 0 -147 33t-96 94.5t-33 133.5q0 27 4 70z" />
    <glyph glyph-name="gbreve" unicode="&#x11f;" horiz-adv-x="1024" 
d="M291 30q-54 47 -54 99q0 17 10 44q125 73 181 116l-37 -1q-114 0 -196.5 59t-82.5 193q0 77 28 149.5t76 123.5q36 38 82 61q99 50 205 83q45 14 85 14q47 0 93 -10q25 -5 67 -22l33 -12q67 -7 143 -7q25 0 89 4q37 3 57 3l11 -16l-23 -104q-22 4 -59 6q-67 4 -84 4
q-11 0 -34 -1q23 -54 23 -114q0 -55 -16 -109.5t-44 -102.5q-21 -37 -49.5 -65t-68 -49.5t-120.5 -53.5q-59 -23 -77 -33q-37 -21 -55 -43q-11 -15 -11 -28q0 -23 23.5 -48.5t114.5 -87.5q159 -108 200.5 -165.5t41.5 -129.5q0 -133 -112 -221q-155 -122 -407 -122
q-151 0 -247.5 38t-137.5 96.5t-41 121.5q0 39 17 80t51 79.5t81.5 68.5t119.5 59zM324 543q0 -96 40.5 -140.5t110.5 -44.5q35 0 63 12t52 36t46.5 69t35 108t12.5 117q0 103 -45.5 141.5t-105.5 38.5q-101 0 -155 -105t-54 -232zM335 -7l-100 -49q-60 -35 -89.5 -63
t-47.5 -68t-18 -86q0 -85 64 -138q84 -70 220 -70q60 0 109 14.5t82 38.5t54.5 61t21.5 79q0 55 -44.5 98.5t-251.5 182.5zM427 1419h72q8 -91 61 -141t159 -50q93 0 162 50.5t101 140.5h74q-44 -190 -143 -260.5t-214 -70.5q-84 0 -147 33t-96 94.5t-33 133.5q0 27 4 70z
" />
    <glyph glyph-name="Idotaccent" horiz-adv-x="797" 
d="M0 0l8 69q93 -2 143 11q11 3 18 9q15 14 25.5 43t50.5 252l94 530q51 293 51 357q0 24 -13.5 36.5t-50.5 15.5q-23 2 -127 6l11 70q155 -6 289 -6q90 0 366 6l-12 -70q-114 0 -139 -8q-15 -5 -26.5 -16t-18.5 -36q-18 -53 -71 -355q-68 -388 -93 -536q-34 -197 -34 -246
q0 -23 10.5 -36t39.5 -20t147 -7l-9 -69q-244 8 -317 8q-49 0 -342 -8zM665 1811q50 0 85 -35t35 -85t-35.5 -85.5t-85.5 -35.5q-49 0 -84.5 35.5t-35.5 85.5t35 85t86 35z" />
    <glyph glyph-name="Scedilla" unicode="&#x15e;" 
d="M527 -30l-67 -100q23 5 47 5q60 0 99 -17.5t61 -52t22 -69.5q0 -71 -64 -126t-189 -55q-59 0 -103.5 10t-107.5 39l40 63q80 -33 144 -33q52 0 80.5 25t28.5 61q0 32 -24.5 54t-68.5 22q-29 0 -68 -9l-23 24l106 154q-108 3 -198 32.5t-153 77.5q11 42 29.5 149.5
t22.5 161.5h66l-2 -114q0 -21 2 -61q32 -48 120 -90.5t188 -42.5q164 0 235.5 90t71.5 207q0 66 -26.5 103t-76.5 59q-21 9 -152 38q-189 42 -258 102q-95 83 -95 242q0 201 161 352.5t396 151.5q91 0 169.5 -23t144.5 -69q-19 -73 -30 -131.5t-26 -169.5h-65q2 40 2 70
q0 13 -2 94q-22 30 -45 47q-36 27 -93 46.5t-128 19.5q-90 0 -156.5 -35t-99.5 -99.5t-33 -140.5q0 -73 34 -119t104 -74q43 -17 173.5 -42t192 -57.5t95 -97.5t33.5 -152q0 -179 -148 -336.5t-366 -183.5z" />
    <glyph glyph-name="scedilla" unicode="&#x15f;" horiz-adv-x="909" 
d="M422 -19l-75 -111q23 5 47 5q60 0 99 -17.5t61 -52t22 -69.5q0 -71 -64 -126t-189 -55q-59 0 -103.5 10t-107.5 39l40 63q80 -33 144 -33q52 0 80.5 25t28.5 61q0 32 -24 54t-69 22q-29 0 -68 -9l-22 24l111 163q-78 0 -127.5 9.5t-154.5 47.5q12 41 23 117
q17 108 19 150h62l3 -96q43 -50 112.5 -83.5t143.5 -33.5q64 0 105.5 19.5t61 57t19.5 74.5t-18 68t-46.5 45.5t-108.5 29.5q-140 27 -186.5 54.5t-73.5 78t-27 108.5q0 55 23 109q18 40 50 72t116.5 84.5t133 69.5t115.5 17q66 0 128.5 -15.5t122.5 -47.5q-20 -91 -37 -239
h-60l-12 99q-48 45 -109 68t-119 23q-45 0 -84.5 -19t-59.5 -52.5t-20 -72.5q0 -55 38 -90t174 -59q88 -16 111 -24q44 -14 77.5 -42t53.5 -71.5t20 -93.5q0 -64 -26.5 -114t-109 -116t-144.5 -95q-42 -20 -100 -30z" />
    <glyph glyph-name="Cacute" unicode="&#x106;" horiz-adv-x="1403" 
d="M1276 239l-23 -80q-81 -54 -178.5 -101t-171.5 -66q-99 -27 -214 -27q-149 0 -252 41.5t-168.5 108.5t-94.5 147q-39 107 -39 239q0 183 58 350q56 127 137.5 224.5t243.5 211.5q118 68 222.5 102t221.5 34q123 0 233.5 -29t159.5 -65q-63 -201 -78 -338h-71l5 171
q0 23 -8 34q-13 19 -41.5 35.5t-97.5 43.5q-80 24 -181 24q-116 0 -194 -31.5t-140.5 -93t-107 -163t-64 -218t-19.5 -278.5q0 -124 43.5 -220t133.5 -145t213 -49q85 0 165 21t141 50q19 9 143 85zM989 1521h-87l243 253l61 63q28 26 45.5 34.5t35.5 8.5q39 0 64.5 -24.5
t25.5 -59.5q0 -27 -16 -48t-67 -48q-31 -17 -39 -22z" />
    <glyph glyph-name="cacute" unicode="&#x107;" horiz-adv-x="909" 
d="M811 247l23 -64q-129 -89 -207 -133t-149 -65.5t-131 -21.5q-79 0 -142 33.5t-94 97.5t-31 146q0 128 38 262t86 197t137 118l172 104q80 40 172 40q51 0 100.5 -11.5t117.5 -40.5q-17 -42 -34 -112q-24 -96 -36 -174h-68q9 55 9 106q0 10 -1 30q-44 37 -92 55.5
t-99 18.5q-58 0 -98 -23.5t-76 -84.5q-25 -44 -47 -128q-47 -182 -47 -300q0 -97 43.5 -147.5t110.5 -50.5q73 0 169 41.5t174 106.5zM658 1088h-87l243 253l61 63q28 26 45.5 34.5t35.5 8.5q39 0 64.5 -24.5t25.5 -59.5q0 -27 -16 -48t-67 -48q-31 -17 -39 -22z" />
    <glyph glyph-name="Ccaron" unicode="&#x10c;" horiz-adv-x="1403" 
d="M1276 239l-23 -80q-81 -54 -178.5 -101t-171.5 -66q-99 -27 -214 -27q-149 0 -252 41.5t-168.5 108.5t-94.5 147q-39 107 -39 239q0 183 58 350q56 127 137.5 224.5t243.5 211.5q118 68 222.5 102t221.5 34q123 0 233.5 -29t159.5 -65q-63 -201 -78 -338h-71l5 171
q0 23 -8 34q-13 19 -41.5 35.5t-97.5 43.5q-80 24 -181 24q-116 0 -194 -31.5t-140.5 -93t-107 -163t-64 -218t-19.5 -278.5q0 -124 43.5 -220t133.5 -145t213 -49q85 0 165 21t141 50q19 9 143 85zM777 1871h90l189 -204l281 204h98l-329 -350h-141z" />
    <glyph glyph-name="ccaron" unicode="&#x10d;" horiz-adv-x="909" 
d="M811 247l23 -64q-129 -89 -207 -133t-149 -65.5t-131 -21.5q-79 0 -142 33.5t-94 97.5t-31 146q0 128 38 262t86 197t137 118l172 104q80 40 172 40q51 0 100.5 -11.5t117.5 -40.5q-17 -42 -34 -112q-24 -96 -36 -174h-68q9 55 9 106q0 10 -1 30q-44 37 -92 55.5
t-99 18.5q-58 0 -98 -23.5t-76 -84.5q-25 -44 -47 -128q-47 -182 -47 -300q0 -97 43.5 -147.5t110.5 -50.5q73 0 169 41.5t174 106.5zM446 1471h90l189 -204l281 204h98l-329 -350h-141z" />
    <glyph glyph-name="Amacron" unicode="&#x100;" horiz-adv-x="1479" 
d="M-69 0v67q106 9 115 12q14 5 25 15q14 14 118 190l411 690q229 388 248 425h195q35 -261 75 -534q69 -471 103 -673q14 -80 27 -98q8 -9 19 -14q18 -7 135 -13v-67l-315 7q-23 0 -299 -7v67q91 0 129 9q25 5 32 14t7 32q0 72 -48 423q-58 1 -83 1l-369 -1
q-114 -195 -186 -349q-30 -64 -30 -83q0 -14 10 -23q15 -13 51 -17q21 -2 116 -6l-7 -67l-230 7zM504 635q28 -2 65 -2q295 0 328 2l-78 533zM666 1627h646l-31 -126h-647z" />
    <glyph glyph-name="amacron" unicode="&#x101;" 
d="M1025 228l22 -64q-247 -202 -353 -202q-25 0 -45 25t-20 69q0 37 12 98q15 81 73 310q-113 -180 -132 -206q-83 -110 -156.5 -175t-156.5 -102q-41 -19 -72 -19q-51 0 -84 41t-33 140q0 139 53 315.5t94 231.5q30 39 140.5 123t170.5 115.5t143 31.5q47 0 106.5 -14
t107.5 -39l92 54l33 -24q-23 -58 -46 -154q-68 -284 -109 -487q-19 -98 -19 -125q0 -21 6.5 -29.5t16.5 -8.5q16 0 49 18q46 26 107 77zM760 806q-44 23 -85 34t-79 11q-70 0 -118.5 -51t-108 -268t-59.5 -327q0 -42 12 -58t28 -16q17 0 43 20q75 56 158 168.5t140 241
t69 245.5zM465 1191h646l-31 -126h-647z" />
    <glyph glyph-name="Abreve" unicode="&#x102;" horiz-adv-x="1479" 
d="M-69 0v67q106 9 115 12q14 5 25 15q14 14 118 190l411 690q229 388 248 425h195q35 -261 75 -534q69 -471 103 -673q14 -80 27 -98q8 -9 19 -14q18 -7 135 -13v-67l-315 7q-23 0 -299 -7v67q91 0 129 9q25 5 32 14t7 32q0 72 -48 423q-58 1 -83 1l-369 -1
q-114 -195 -186 -349q-30 -64 -30 -83q0 -14 10 -23q15 -13 51 -17q21 -2 116 -6l-7 -67l-230 7zM504 635q28 -2 65 -2q295 0 328 2l-78 533zM700 1832h72q8 -91 61 -141t159 -50q93 0 162 50.5t101 140.5h74q-44 -190 -143 -260.5t-214 -70.5q-84 0 -147 33t-96 94.5
t-33 133.5q0 27 4 70z" />
    <glyph glyph-name="abreve" unicode="&#x103;" 
d="M1025 228l22 -64q-247 -202 -353 -202q-25 0 -45 25t-20 69q0 37 12 98q15 81 73 310q-113 -180 -132 -206q-83 -110 -156.5 -175t-156.5 -102q-41 -19 -72 -19q-51 0 -84 41t-33 140q0 139 53 315.5t94 231.5q30 39 140.5 123t170.5 115.5t143 31.5q47 0 106.5 -14
t107.5 -39l92 54l33 -24q-23 -58 -46 -154q-68 -284 -109 -487q-19 -98 -19 -125q0 -21 6.5 -29.5t16.5 -8.5q16 0 49 18q46 26 107 77zM760 806q-44 23 -85 34t-79 11q-70 0 -118.5 -51t-108 -268t-59.5 -327q0 -42 12 -58t28 -16q17 0 43 20q75 56 158 168.5t140 241
t69 245.5zM508 1396h72q8 -91 61 -141t159 -50q93 0 162 50.5t101 140.5h74q-44 -190 -143 -260.5t-214 -70.5q-84 0 -147 33t-96 94.5t-33 133.5q0 27 4 70z" />
    <glyph glyph-name="Aogonek" unicode="&#x104;" horiz-adv-x="1479" 
d="M-69 0v67q106 9 115 12q14 5 25 15q14 14 118 190l411 690q229 388 248 425h195q35 -261 75 -534q69 -471 103 -673q14 -80 27 -98q8 -9 19 -14q18 -7 135 -13v-67l-315 7q-23 0 -299 -7v67q91 0 129 9q25 5 32 14t7 32q0 72 -48 423q-58 1 -83 1l-369 -1
q-114 -195 -186 -349q-30 -64 -30 -83q0 -14 10 -23q15 -13 51 -17q21 -2 116 -6l-7 -67l-230 7zM504 635q28 -2 65 -2q295 0 328 2l-78 533zM1308 -153l48 -26q-90 -89 -135 -116q-70 -42 -149 -42q-65 0 -101 35.5t-36 96.5q0 41 15 75.5t52 75.5q28 30 116 103h88
q-83 -74 -103.5 -109t-20.5 -67q0 -42 26.5 -68.5t69.5 -26.5q32 0 62 15.5t68 53.5z" />
    <glyph glyph-name="aogonek" unicode="&#x105;" 
d="M1025 228l22 -64q-247 -202 -353 -202q-25 0 -45 25t-20 69q0 37 12 98q15 81 73 310q-113 -180 -132 -206q-83 -110 -156.5 -175t-156.5 -102q-41 -19 -72 -19q-51 0 -84 41t-33 140q0 139 53 315.5t94 231.5q30 39 140.5 123t170.5 115.5t143 31.5q47 0 106.5 -14
t107.5 -39l92 54l33 -24q-23 -58 -46 -154q-68 -284 -109 -487q-19 -98 -19 -125q0 -21 6.5 -29.5t16.5 -8.5q16 0 49 18q46 26 107 77zM760 806q-44 23 -85 34t-79 11q-70 0 -118.5 -51t-108 -268t-59.5 -327q0 -42 12 -58t28 -16q17 0 43 20q75 56 158 168.5t140 241
t69 245.5zM892 -183l48 -26q-90 -89 -135 -116q-70 -42 -149 -42q-65 0 -101 35.5t-36 96.5q0 41 15 75.5t52 75.5q28 30 116 103h88q-83 -74 -103.5 -109t-20.5 -67q0 -42 26.5 -68.5t69.5 -26.5q32 0 62 15.5t68 53.5z" />
    <glyph glyph-name="Ccircumflex" unicode="&#x108;" horiz-adv-x="1403" 
d="M1276 239l-23 -80q-81 -54 -178.5 -101t-171.5 -66q-99 -27 -214 -27q-149 0 -252 41.5t-168.5 108.5t-94.5 147q-39 107 -39 239q0 183 58 350q56 127 137.5 224.5t243.5 211.5q118 68 222.5 102t221.5 34q123 0 233.5 -29t159.5 -65q-63 -201 -78 -338h-71l5 171
q0 23 -8 34q-13 19 -41.5 35.5t-97.5 43.5q-80 24 -181 24q-116 0 -194 -31.5t-140.5 -93t-107 -163t-64 -218t-19.5 -278.5q0 -124 43.5 -220t133.5 -145t213 -49q85 0 165 21t141 50q19 9 143 85zM1013 1874h141l176 -349h-90l-178 204l-271 -204h-101z" />
    <glyph glyph-name="ccircumflex" unicode="&#x109;" horiz-adv-x="909" 
d="M811 247l23 -64q-129 -89 -207 -133t-149 -65.5t-131 -21.5q-79 0 -142 33.5t-94 97.5t-31 146q0 128 38 262t86 197t137 118l172 104q80 40 172 40q51 0 100.5 -11.5t117.5 -40.5q-17 -42 -34 -112q-24 -96 -36 -174h-68q9 55 9 106q0 10 -1 30q-44 37 -92 55.5
t-99 18.5q-58 0 -98 -23.5t-76 -84.5q-25 -44 -47 -128q-47 -182 -47 -300q0 -97 43.5 -147.5t110.5 -50.5q73 0 169 41.5t174 106.5zM684 1414h141l176 -349h-90l-178 204l-271 -204h-101z" />
    <glyph glyph-name="Cdotaccent" unicode="&#x10a;" horiz-adv-x="1403" 
d="M1276 239l-23 -80q-81 -54 -178.5 -101t-171.5 -66q-99 -27 -214 -27q-149 0 -252 41.5t-168.5 108.5t-94.5 147q-39 107 -39 239q0 183 58 350q56 127 137.5 224.5t243.5 211.5q118 68 222.5 102t221.5 34q123 0 233.5 -29t159.5 -65q-63 -201 -78 -338h-71l5 171
q0 23 -8 34q-13 19 -41.5 35.5t-97.5 43.5q-80 24 -181 24q-116 0 -194 -31.5t-140.5 -93t-107 -163t-64 -218t-19.5 -278.5q0 -124 43.5 -220t133.5 -145t213 -49q85 0 165 21t141 50q19 9 143 85zM1037 1766q50 0 85 -35t35 -85t-35.5 -85.5t-85.5 -35.5q-49 0 -84.5 35.5
t-35.5 85.5t35 85t86 35z" />
    <glyph glyph-name="cdotaccent" unicode="&#x10b;" horiz-adv-x="909" 
d="M811 247l23 -64q-129 -89 -207 -133t-149 -65.5t-131 -21.5q-79 0 -142 33.5t-94 97.5t-31 146q0 128 38 262t86 197t137 118l172 104q80 40 172 40q51 0 100.5 -11.5t117.5 -40.5q-17 -42 -34 -112q-24 -96 -36 -174h-68q9 55 9 106q0 10 -1 30q-44 37 -92 55.5
t-99 18.5q-58 0 -98 -23.5t-76 -84.5q-25 -44 -47 -128q-47 -182 -47 -300q0 -97 43.5 -147.5t110.5 -50.5q73 0 169 41.5t174 106.5zM700 1306q50 0 85 -35t35 -85t-35.5 -85.5t-85.5 -35.5q-49 0 -84.5 35.5t-35.5 85.5t35 85t86 35z" />
    <glyph glyph-name="Dcaron" unicode="&#x10e;" horiz-adv-x="1593" 
d="M23 0l6 64q96 12 118 27q12 8 20 25q11 26 57 274t111 638q30 182 30 240q0 20 -7.5 30t-21 14t-67.5 8q-95 7 -100 7l13 72q97 -11 230 -11q111 0 270 3q198 4 260 4q201 0 329.5 -55.5t201 -180t72.5 -295.5q0 -151 -58 -316t-174.5 -290t-265 -191t-321.5 -66
q-57 0 -215 5q-92 3 -187 3q-75 0 -121 -1zM434 128l202 -26q55 -6 102 -6q112 0 194 33q58 24 101 68q68 69 119 170.5t81.5 248t30.5 272.5q0 86 -25 172.5t-79.5 142t-129.5 78t-190 22.5q-113 0 -200 -12l-102 -558q-84 -466 -104 -605zM569 1851h90l189 -204l281 204
h98l-329 -350h-141z" />
    <glyph glyph-name="dcaron" unicode="&#x10f;" 
d="M1047 228l19 -60q-157 -116 -173 -126q-68 -45 -114 -63q-29 -11 -56 -11q-30 0 -52 25.5t-22 70.5q0 35 12 93q5 24 76 317q-138 -259 -330 -412q-121 -97 -199 -97q-52 0 -89.5 48t-37.5 151q0 127 31.5 254t76.5 222q32 67 60 101q21 24 101 78q144 97 202.5 119
t119.5 22q57 0 137 -21l34 221q13 84 13 126q0 16 -8 25.5t-32 14.5q-36 6 -131 5l12 61q190 4 408 88l25 -19q-39 -152 -208 -988q-51 -252 -51 -306q0 -17 6.5 -25t15.5 -8q5 0 11 2q9 2 28 13t44 29zM784 820q-41 19 -79.5 27t-92.5 8q-76 0 -113 -26q-26 -19 -58 -89
q-43 -94 -78 -224q-48 -185 -48 -315q0 -40 10 -54t27 -14q20 0 43 11q46 24 91 71q67 68 136 176q51 77 90.5 175t53.5 167zM1185 1213l-37 30q72 102 133.5 264.5t69.5 270.5q137 25 258 70l33 -30l-92 -175q-46 -82 -110 -173.5t-148 -186.5z" />
    <glyph glyph-name="Emacron" unicode="&#x112;" horiz-adv-x="1251" 
d="M18 0l10 63q98 14 119 29q9 6 17 24q18 43 60 275q20 109 80 454q68 387 68 430q0 21 -9 30q-13 13 -55 19q-26 5 -132 11l13 64q302 -6 327 -6l363 4q98 2 238 2q68 0 117 -6l10 -12q-12 -53 -41 -228q-7 -46 -11 -84h-68l2 144q0 29 -4.5 38t-15.5 15q-16 10 -46.5 16
t-113.5 14q-51 5 -110 5q-111 0 -189 -12l-70 -354q-13 -65 -29 -155q255 -5 281 -5q91 0 190 5l6 -12l-25 -97q-19 1 -197 6l-174 5q-17 0 -96 -3q-20 -116 -53 -300l-35 -195q-6 -36 -8 -67q78 -12 234 -12q84 0 131 4q119 12 145 18t39.5 16t23 30t55.5 181h75
q-18 -83 -29 -136l-36 -199l-10 -12q-48 -7 -125 -7q-143 0 -305 4q-269 6 -290 6q-193 0 -327 -10zM490 1627h646l-31 -126h-647z" />
    <glyph glyph-name="emacron" unicode="&#x113;" horiz-adv-x="909" 
d="M775 237l22 -55q-142 -95 -191 -123q-92 -51 -161.5 -72.5t-125.5 -21.5q-73 0 -134.5 29.5t-91.5 85t-30 126.5q0 138 56 328q28 94 63.5 153t101.5 113q105 86 241 140q76 29 140 29q93 0 144.5 -46.5t51.5 -123.5q0 -95 -58 -176.5t-201.5 -140t-294.5 -82.5
q-11 -75 -11 -131q0 -95 45.5 -131t104.5 -36q61 0 149.5 35.5t179.5 99.5zM315 455q95 22 135 40q78 34 118 71t69.5 97.5t29.5 108.5q0 47 -27 73.5t-70 26.5q-50 0 -98.5 -36t-88.5 -139q-31 -79 -68 -242zM374 1199h646l-31 -126h-647z" />
    <glyph glyph-name="Ebreve" unicode="&#x114;" horiz-adv-x="1251" 
d="M18 0l10 63q98 14 119 29q9 6 17 24q18 43 60 275q20 109 80 454q68 387 68 430q0 21 -9 30q-13 13 -55 19q-26 5 -132 11l13 64q302 -6 327 -6l363 4q98 2 238 2q68 0 117 -6l10 -12q-12 -53 -41 -228q-7 -46 -11 -84h-68l2 144q0 29 -4.5 38t-15.5 15q-16 10 -46.5 16
t-113.5 14q-51 5 -110 5q-111 0 -189 -12l-70 -354q-13 -65 -29 -155q255 -5 281 -5q91 0 190 5l6 -12l-25 -97q-19 1 -197 6l-174 5q-17 0 -96 -3q-20 -116 -53 -300l-35 -195q-6 -36 -8 -67q78 -12 234 -12q84 0 131 4q119 12 145 18t39.5 16t23 30t55.5 181h75
q-18 -83 -29 -136l-36 -199l-10 -12q-48 -7 -125 -7q-143 0 -305 4q-269 6 -290 6q-193 0 -327 -10zM507 1832h72q8 -91 61 -141t159 -50q93 0 162 50.5t101 140.5h74q-44 -190 -143 -260.5t-214 -70.5q-84 0 -147 33t-96 94.5t-33 133.5q0 27 4 70z" />
    <glyph glyph-name="ebreve" unicode="&#x115;" horiz-adv-x="909" 
d="M775 237l22 -55q-142 -95 -191 -123q-92 -51 -161.5 -72.5t-125.5 -21.5q-73 0 -134.5 29.5t-91.5 85t-30 126.5q0 138 56 328q28 94 63.5 153t101.5 113q105 86 241 140q76 29 140 29q93 0 144.5 -46.5t51.5 -123.5q0 -95 -58 -176.5t-201.5 -140t-294.5 -82.5
q-11 -75 -11 -131q0 -95 45.5 -131t104.5 -36q61 0 149.5 35.5t179.5 99.5zM315 455q95 22 135 40q78 34 118 71t69.5 97.5t29.5 108.5q0 47 -27 73.5t-70 26.5q-50 0 -98.5 -36t-88.5 -139q-31 -79 -68 -242zM351 1404h72q8 -91 61 -141t159 -50q93 0 162 50.5t101 140.5
h74q-44 -190 -143 -260.5t-214 -70.5q-84 0 -147 33t-96 94.5t-33 133.5q0 27 4 70z" />
    <glyph glyph-name="Edotaccent" unicode="&#x116;" horiz-adv-x="1251" 
d="M18 0l10 63q98 14 119 29q9 6 17 24q18 43 60 275q20 109 80 454q68 387 68 430q0 21 -9 30q-13 13 -55 19q-26 5 -132 11l13 64q302 -6 327 -6l363 4q98 2 238 2q68 0 117 -6l10 -12q-12 -53 -41 -228q-7 -46 -11 -84h-68l2 144q0 29 -4.5 38t-15.5 15q-16 10 -46.5 16
t-113.5 14q-51 5 -110 5q-111 0 -189 -12l-70 -354q-13 -65 -29 -155q255 -5 281 -5q91 0 190 5l6 -12l-25 -97q-19 1 -197 6l-174 5q-17 0 -96 -3q-20 -116 -53 -300l-35 -195q-6 -36 -8 -67q78 -12 234 -12q84 0 131 4q119 12 145 18t39.5 16t23 30t55.5 181h75
q-18 -83 -29 -136l-36 -199l-10 -12q-48 -7 -125 -7q-143 0 -305 4q-269 6 -290 6q-193 0 -327 -10zM839 1742q50 0 85 -35t35 -85t-35.5 -85.5t-85.5 -35.5q-49 0 -84.5 35.5t-35.5 85.5t35 85t86 35z" />
    <glyph glyph-name="edotaccent" unicode="&#x117;" horiz-adv-x="909" 
d="M775 237l22 -55q-142 -95 -191 -123q-92 -51 -161.5 -72.5t-125.5 -21.5q-73 0 -134.5 29.5t-91.5 85t-30 126.5q0 138 56 328q28 94 63.5 153t101.5 113q105 86 241 140q76 29 140 29q93 0 144.5 -46.5t51.5 -123.5q0 -95 -58 -176.5t-201.5 -140t-294.5 -82.5
q-11 -75 -11 -131q0 -95 45.5 -131t104.5 -36q61 0 149.5 35.5t179.5 99.5zM315 455q95 22 135 40q78 34 118 71t69.5 97.5t29.5 108.5q0 47 -27 73.5t-70 26.5q-50 0 -98.5 -36t-88.5 -139q-31 -79 -68 -242zM690 1314q50 0 85 -35t35 -85t-35.5 -85.5t-85.5 -35.5
q-49 0 -84.5 35.5t-35.5 85.5t35 85t86 35z" />
    <glyph glyph-name="Eogonek" unicode="&#x118;" horiz-adv-x="1251" 
d="M18 0l10 63q98 14 119 29q9 6 17 24q18 43 60 275q20 109 80 454q68 387 68 430q0 21 -9 30q-13 13 -55 19q-26 5 -132 11l13 64q302 -6 327 -6l363 4q98 2 238 2q68 0 117 -6l10 -12q-12 -53 -41 -228q-7 -46 -11 -84h-68l2 144q0 29 -4.5 38t-15.5 15q-16 10 -46.5 16
t-113.5 14q-51 5 -110 5q-111 0 -189 -12l-70 -354q-13 -65 -29 -155q255 -5 281 -5q91 0 190 5l6 -12l-25 -97q-19 1 -197 6l-174 5q-17 0 -96 -3q-20 -116 -53 -300l-35 -195q-6 -36 -8 -67q78 -12 234 -12q84 0 131 4q119 12 145 18t39.5 16t23 30t55.5 181h75
q-18 -83 -29 -136l-36 -199l-10 -12q-48 -7 -125 -7q-143 0 -305 4q-269 6 -290 6q-193 0 -327 -10zM731 -161l48 -26q-90 -89 -135 -116q-70 -42 -149 -42q-65 0 -101 35.5t-36 96.5q0 41 15 75.5t52 75.5q28 30 116 103h88q-83 -74 -103.5 -109t-20.5 -67
q0 -42 26.5 -68.5t69.5 -26.5q32 0 62 15.5t68 53.5z" />
    <glyph glyph-name="eogonek" unicode="&#x119;" horiz-adv-x="909" 
d="M775 237l22 -55q-142 -95 -191 -123q-92 -51 -161.5 -72.5t-125.5 -21.5q-73 0 -134.5 29.5t-91.5 85t-30 126.5q0 138 56 328q28 94 63.5 153t101.5 113q105 86 241 140q76 29 140 29q93 0 144.5 -46.5t51.5 -123.5q0 -95 -58 -176.5t-201.5 -140t-294.5 -82.5
q-11 -75 -11 -131q0 -95 45.5 -131t104.5 -36q61 0 149.5 35.5t179.5 99.5zM315 455q95 22 135 40q78 34 118 71t69.5 97.5t29.5 108.5q0 47 -27 73.5t-70 26.5q-50 0 -98.5 -36t-88.5 -139q-31 -79 -68 -242zM480 -180l48 -26q-90 -89 -135 -116q-70 -42 -149 -42
q-65 0 -101 35.5t-36 96.5q0 41 15 75.5t52 75.5q28 30 116 103h88q-83 -74 -103.5 -109t-20.5 -67q0 -42 26.5 -68.5t69.5 -26.5q32 0 62 15.5t68 53.5z" />
    <glyph glyph-name="Ecaron" unicode="&#x11a;" horiz-adv-x="1251" 
d="M18 0l10 63q98 14 119 29q9 6 17 24q18 43 60 275q20 109 80 454q68 387 68 430q0 21 -9 30q-13 13 -55 19q-26 5 -132 11l13 64q302 -6 327 -6l363 4q98 2 238 2q68 0 117 -6l10 -12q-12 -53 -41 -228q-7 -46 -11 -84h-68l2 144q0 29 -4.5 38t-15.5 15q-16 10 -46.5 16
t-113.5 14q-51 5 -110 5q-111 0 -189 -12l-70 -354q-13 -65 -29 -155q255 -5 281 -5q91 0 190 5l6 -12l-25 -97q-19 1 -197 6l-174 5q-17 0 -96 -3q-20 -116 -53 -300l-35 -195q-6 -36 -8 -67q78 -12 234 -12q84 0 131 4q119 12 145 18t39.5 16t23 30t55.5 181h75
q-18 -83 -29 -136l-36 -199l-10 -12q-48 -7 -125 -7q-143 0 -305 4q-269 6 -290 6q-193 0 -327 -10zM565 1851h90l189 -204l281 204h98l-329 -350h-141z" />
    <glyph glyph-name="ecaron" unicode="&#x11b;" horiz-adv-x="909" 
d="M775 237l22 -55q-142 -95 -191 -123q-92 -51 -161.5 -72.5t-125.5 -21.5q-73 0 -134.5 29.5t-91.5 85t-30 126.5q0 138 56 328q28 94 63.5 153t101.5 113q105 86 241 140q76 29 140 29q93 0 144.5 -46.5t51.5 -123.5q0 -95 -58 -176.5t-201.5 -140t-294.5 -82.5
q-11 -75 -11 -131q0 -95 45.5 -131t104.5 -36q61 0 149.5 35.5t179.5 99.5zM315 455q95 22 135 40q78 34 118 71t69.5 97.5t29.5 108.5q0 47 -27 73.5t-70 26.5q-50 0 -98.5 -36t-88.5 -139q-31 -79 -68 -242zM400 1423h90l189 -204l281 204h98l-329 -350h-141z" />
    <glyph glyph-name="Gcircumflex" unicode="&#x11c;" horiz-adv-x="1593" 
d="M1334 100l-7 -8q-56 -11 -161 -46q-138 -47 -230.5 -64t-191.5 -17q-288 0 -440 145.5t-152 401.5q0 177 62.5 319.5t150 251t195.5 178t229 116.5q132 46 277 46q121 0 235 -27t176 -65l8 -15q-56 -205 -59 -219q-11 -51 -20 -110h-72q7 107 9 196q-73 55 -140 79
q-95 33 -214 33q-121 0 -205 -31t-139 -84t-99.5 -133t-83.5 -211q-34 -158 -34 -315q0 -230 104 -342.5t287 -112.5q137 0 240 57l38 153q11 43 24 125q8 48 8 64t-10 27.5t-30 15.5q-32 5 -172 8l13 70q180 -7 287 -7q79 0 317 7l-11 -70q-64 -1 -88 -10.5t-36 -29
t-30 -101.5l-18 -86q-17 -79 -20 -102t-3 -46q0 -18 6 -41zM1058 1874h141l176 -349h-90l-178 204l-271 -204h-101z" />
    <glyph glyph-name="gcircumflex" unicode="&#x11d;" horiz-adv-x="1024" 
d="M291 30q-54 47 -54 99q0 17 10 44q125 73 181 116l-37 -1q-114 0 -196.5 59t-82.5 193q0 77 28 149.5t76 123.5q36 38 82 61q99 50 205 83q45 14 85 14q47 0 93 -10q25 -5 67 -22l33 -12q67 -7 143 -7q25 0 89 4q37 3 57 3l11 -16l-23 -104q-22 4 -59 6q-67 4 -84 4
q-11 0 -34 -1q23 -54 23 -114q0 -55 -16 -109.5t-44 -102.5q-21 -37 -49.5 -65t-68 -49.5t-120.5 -53.5q-59 -23 -77 -33q-37 -21 -55 -43q-11 -15 -11 -28q0 -23 23.5 -48.5t114.5 -87.5q159 -108 200.5 -165.5t41.5 -129.5q0 -133 -112 -221q-155 -122 -407 -122
q-151 0 -247.5 38t-137.5 96.5t-41 121.5q0 39 17 80t51 79.5t81.5 68.5t119.5 59zM324 543q0 -96 40.5 -140.5t110.5 -44.5q35 0 63 12t52 36t46.5 69t35 108t12.5 117q0 103 -45.5 141.5t-105.5 38.5q-101 0 -155 -105t-54 -232zM335 -7l-100 -49q-60 -35 -89.5 -63
t-47.5 -68t-18 -86q0 -85 64 -138q84 -70 220 -70q60 0 109 14.5t82 38.5t54.5 61t21.5 79q0 55 -44.5 98.5t-251.5 182.5zM602 1424h141l176 -349h-90l-178 204l-271 -204h-101z" />
    <glyph glyph-name="Gdotaccent" unicode="&#x120;" horiz-adv-x="1593" 
d="M1334 100l-7 -8q-56 -11 -161 -46q-138 -47 -230.5 -64t-191.5 -17q-288 0 -440 145.5t-152 401.5q0 177 62.5 319.5t150 251t195.5 178t229 116.5q132 46 277 46q121 0 235 -27t176 -65l8 -15q-56 -205 -59 -219q-11 -51 -20 -110h-72q7 107 9 196q-73 55 -140 79
q-95 33 -214 33q-121 0 -205 -31t-139 -84t-99.5 -133t-83.5 -211q-34 -158 -34 -315q0 -230 104 -342.5t287 -112.5q137 0 240 57l38 153q11 43 24 125q8 48 8 64t-10 27.5t-30 15.5q-32 5 -172 8l13 70q180 -7 287 -7q79 0 317 7l-11 -70q-64 -1 -88 -10.5t-36 -29
t-30 -101.5l-18 -86q-17 -79 -20 -102t-3 -46q0 -18 6 -41zM1099 1766q50 0 85 -35t35 -85t-35.5 -85.5t-85.5 -35.5q-49 0 -84.5 35.5t-35.5 85.5t35 85t86 35z" />
    <glyph glyph-name="gdotaccent" unicode="&#x121;" horiz-adv-x="1024" 
d="M291 30q-54 47 -54 99q0 17 10 44q125 73 181 116l-37 -1q-114 0 -196.5 59t-82.5 193q0 77 28 149.5t76 123.5q36 38 82 61q99 50 205 83q45 14 85 14q47 0 93 -10q25 -5 67 -22l33 -12q67 -7 143 -7q25 0 89 4q37 3 57 3l11 -16l-23 -104q-22 4 -59 6q-67 4 -84 4
q-11 0 -34 -1q23 -54 23 -114q0 -55 -16 -109.5t-44 -102.5q-21 -37 -49.5 -65t-68 -49.5t-120.5 -53.5q-59 -23 -77 -33q-37 -21 -55 -43q-11 -15 -11 -28q0 -23 23.5 -48.5t114.5 -87.5q159 -108 200.5 -165.5t41.5 -129.5q0 -133 -112 -221q-155 -122 -407 -122
q-151 0 -247.5 38t-137.5 96.5t-41 121.5q0 39 17 80t51 79.5t81.5 68.5t119.5 59zM324 543q0 -96 40.5 -140.5t110.5 -44.5q35 0 63 12t52 36t46.5 69t35 108t12.5 117q0 103 -45.5 141.5t-105.5 38.5q-101 0 -155 -105t-54 -232zM335 -7l-100 -49q-60 -35 -89.5 -63
t-47.5 -68t-18 -86q0 -85 64 -138q84 -70 220 -70q60 0 109 14.5t82 38.5t54.5 61t21.5 79q0 55 -44.5 98.5t-251.5 182.5zM627 1316q50 0 85 -35t35 -85t-35.5 -85.5t-85.5 -35.5q-49 0 -84.5 35.5t-35.5 85.5t35 85t86 35z" />
    <glyph glyph-name="Gcommaaccent.cedilla" horiz-adv-x="1593" 
d="M1334 100l-7 -8q-56 -11 -161 -46q-138 -47 -230.5 -64t-191.5 -17q-288 0 -440 145.5t-152 401.5q0 177 62.5 319.5t150 251t195.5 178t229 116.5q132 46 277 46q121 0 235 -27t176 -65l8 -15q-56 -205 -59 -219q-11 -51 -20 -110h-72q7 107 9 196q-73 55 -140 79
q-95 33 -214 33q-121 0 -205 -31t-139 -84t-99.5 -133t-83.5 -211q-34 -158 -34 -315q0 -230 104 -342.5t287 -112.5q137 0 240 57l38 153q11 43 24 125q8 48 8 64t-10 27.5t-30 15.5q-32 5 -172 8l13 70q180 -7 287 -7q79 0 317 7l-11 -70q-64 -1 -88 -10.5t-36 -29
t-30 -101.5l-18 -86q-17 -79 -20 -102t-3 -46q0 -18 6 -41zM659 14h83l-93 -137q24 5 48 5q60 0 99 -17.5t61 -52t22 -69.5q0 -71 -64 -126t-190 -55q-58 0 -102.5 10t-107.5 39l40 63q80 -33 144 -33q52 0 80.5 25t28.5 61q0 32 -24.5 54t-69.5 22q-28 0 -67 -9l-23 24z
" />
    <glyph glyph-name="gcommaaccent.cedilla" horiz-adv-x="1024" 
d="M291 30q-54 47 -54 99q0 17 10 44q125 73 181 116l-37 -1q-114 0 -196.5 59t-82.5 193q0 77 28 149.5t76 123.5q36 38 82 61q99 50 205 83q45 14 85 14q47 0 93 -10q25 -5 67 -22l33 -12q67 -7 143 -7q25 0 89 4q37 3 57 3l11 -16l-23 -104q-22 4 -59 6q-67 4 -84 4
q-11 0 -34 -1q23 -54 23 -114q0 -55 -16 -109.5t-44 -102.5q-21 -37 -49.5 -65t-68 -49.5t-120.5 -53.5q-59 -23 -77 -33q-37 -21 -55 -43q-11 -15 -11 -28q0 -23 23.5 -48.5t114.5 -87.5q159 -108 200.5 -165.5t41.5 -129.5q0 -133 -112 -221q-155 -122 -407 -122
q-151 0 -247.5 38t-137.5 96.5t-41 121.5q0 39 17 80t51 79.5t81.5 68.5t119.5 59zM324 543q0 -96 40.5 -140.5t110.5 -44.5q35 0 63 12t52 36t46.5 69t35 108t12.5 117q0 103 -45.5 141.5t-105.5 38.5q-101 0 -155 -105t-54 -232zM335 -7l-100 -49q-60 -35 -89.5 -63
t-47.5 -68t-18 -86q0 -85 64 -138q84 -70 220 -70q60 0 109 14.5t82 38.5t54.5 61t21.5 79q0 55 -44.5 98.5t-251.5 182.5zM257 -520h83l-93 -137q24 5 48 5q60 0 99 -17.5t61 -52t22 -69.5q0 -71 -64 -126t-190 -55q-58 0 -102.5 10t-107.5 39l40 63q80 -33 144 -33
q52 0 80.5 25t28.5 61q0 32 -24.5 54t-69.5 22q-28 0 -67 -9l-23 24z" />
    <glyph glyph-name="gacute" horiz-adv-x="1024" 
d="M291 30q-54 47 -54 99q0 17 10 44q125 73 181 116l-37 -1q-114 0 -196.5 59t-82.5 193q0 77 28 149.5t76 123.5q36 38 82 61q99 50 205 83q45 14 85 14q47 0 93 -10q25 -5 67 -22l33 -12q67 -7 143 -7q25 0 89 4q37 3 57 3l11 -16l-23 -104q-22 4 -59 6q-67 4 -84 4
q-11 0 -34 -1q23 -54 23 -114q0 -55 -16 -109.5t-44 -102.5q-21 -37 -49.5 -65t-68 -49.5t-120.5 -53.5q-59 -23 -77 -33q-37 -21 -55 -43q-11 -15 -11 -28q0 -23 23.5 -48.5t114.5 -87.5q159 -108 200.5 -165.5t41.5 -129.5q0 -133 -112 -221q-155 -122 -407 -122
q-151 0 -247.5 38t-137.5 96.5t-41 121.5q0 39 17 80t51 79.5t81.5 68.5t119.5 59zM324 543q0 -96 40.5 -140.5t110.5 -44.5q35 0 63 12t52 36t46.5 69t35 108t12.5 117q0 103 -45.5 141.5t-105.5 38.5q-101 0 -155 -105t-54 -232zM335 -7l-100 -49q-60 -35 -89.5 -63
t-47.5 -68t-18 -86q0 -85 64 -138q84 -70 220 -70q60 0 109 14.5t82 38.5t54.5 61t21.5 79q0 55 -44.5 98.5t-251.5 182.5zM502 1075h-87l243 253l61 63q28 26 45.5 34.5t35.5 8.5q39 0 64.5 -24.5t25.5 -59.5q0 -27 -16 -48t-67 -48q-31 -17 -39 -22z" />
    <glyph glyph-name="Hcircumflex" unicode="&#x124;" horiz-adv-x="1593" 
d="M1676 1399l-11 -75h-31q-82 1 -115 -12q-11 -5 -18 -14q-11 -14 -20 -50q-19 -82 -80 -411q-53 -287 -74 -415q-44 -264 -44 -295q0 -30 31 -41t159 -16l-12 -70q-142 8 -338 8q-181 0 -307 -8l11 70q114 0 145 12q14 5 20 13q10 13 22 61q4 15 44 217q50 252 60 321
l-266 2l-328 -2q-9 -66 -27 -171t-41 -257l-17 -103q-3 -17 -3 -28q0 -19 12.5 -34.5t35 -21t134.5 -9.5l-12 -70q-142 8 -338 8q-181 0 -307 -8l11 70q143 9 162 20q12 7 21 24q15 30 52 227l86 485q68 372 68 442q0 20 -8 31t-25 16q-25 8 -81 8q-54 0 -70 1l12 75h11
l343 -8l284 8l-11 -75h-29q-69 1 -109 -6q-12 -3 -20.5 -10.5t-16.5 -29.5q-12 -31 -43 -193l-55 -294q215 -8 299 -8q96 0 293 8q3 20 32 191q5 27 26 174q8 49 9.5 71.5t1.5 41.5t-8 29t-29 14q-50 10 -141 12l12 75h12l342 -8zM935 1850h141l176 -349h-90l-178 204
l-271 -204h-101z" />
    <glyph glyph-name="hcircumflex" unicode="&#x125;" 
d="M53 -27l-20 19q51 174 84 326q21 96 94 474q55 282 74 425q7 55 7 70q0 26 -26 35q-15 5 -141 7l11 61q95 7 206.5 32.5t201.5 58.5l21 -17q-15 -58 -44 -184q-51 -223 -71 -317l-96 -450q69 105 124 168q82 94 154 151q53 43 115.5 78.5t107.5 50.5q33 10 68 10
q42 0 62.5 -21t20.5 -66q0 -37 -6 -72q-19 -97 -66 -257q-89 -304 -89 -374q0 -25 7.5 -34.5t20.5 -9.5q15 0 34 9q28 14 119 79l23 -54q-174 -129 -251 -167.5t-121 -38.5q-30 0 -50.5 25t-20.5 78q0 34 8 79q6 33 51 201q92 348 92 392q0 20 -10 31t-26 11q-27 0 -68 -23
q-69 -39 -146.5 -132t-137.5 -224q-44 -94 -84 -260q-20 -79 -21 -131q-31 -1 -80 -10q-95 -19 -131 -29zM588 1932h141l176 -349h-90l-178 204l-271 -204h-101z" />
    <glyph glyph-name="Hbar" unicode="&#x126;" horiz-adv-x="1593" 
d="M1676 1399l-11 -75h-31q-82 1 -115 -12q-11 -5 -18 -14q-11 -14 -20 -50q-19 -82 -80 -411q-53 -287 -74 -415q-44 -264 -44 -295q0 -30 31 -41t159 -16l-12 -70q-142 8 -338 8q-181 0 -307 -8l11 70q114 0 145 12q14 5 20 13q10 13 22 61q4 15 44 217q50 252 60 321
l-266 2l-328 -2q-9 -66 -27 -171t-41 -257l-17 -103q-3 -17 -3 -28q0 -19 12.5 -34.5t35 -21t134.5 -9.5l-12 -70q-142 8 -338 8q-181 0 -307 -8l11 70q143 9 162 20q12 7 21 24q15 30 52 227l86 485q68 372 68 442q0 20 -8 31t-25 16q-25 8 -81 8q-54 0 -70 1l12 75h11
l343 -8l284 8l-11 -75h-29q-69 1 -109 -6q-12 -3 -20.5 -10.5t-16.5 -29.5q-12 -31 -43 -193l-55 -294q215 -8 299 -8q96 0 293 8q3 20 32 191q5 27 26 174q8 49 9.5 71.5t1.5 41.5t-8 29t-29 14q-50 10 -141 12l12 75h12l342 -8zM357 945l38 139h1020l-38 -139h-1020z" />
    <glyph glyph-name="hbar" unicode="&#x127;" 
d="M53 -27l-20 19q51 174 84 326q21 96 94 474q55 282 74 425q7 55 7 70q0 26 -26 35q-15 5 -141 7l11 61q95 7 206.5 32.5t201.5 58.5l21 -17q-15 -58 -44 -184q-51 -223 -71 -317l-96 -450q69 105 124 168q82 94 154 151q53 43 115.5 78.5t107.5 50.5q33 10 68 10
q42 0 62.5 -21t20.5 -66q0 -37 -6 -72q-19 -97 -66 -257q-89 -304 -89 -374q0 -25 7.5 -34.5t20.5 -9.5q15 0 34 9q28 14 119 79l23 -54q-174 -129 -251 -167.5t-121 -38.5q-30 0 -50.5 25t-20.5 78q0 34 8 79q6 33 51 201q92 348 92 392q0 20 -10 31t-26 11q-27 0 -68 -23
q-69 -39 -146.5 -132t-137.5 -224q-44 -94 -84 -260q-20 -79 -21 -131q-31 -1 -80 -10q-95 -19 -131 -29zM37 1120h646l-31 -126h-647z" />
    <glyph glyph-name="Itilde" unicode="&#x128;" horiz-adv-x="797" 
d="M0 0l8 69q93 -2 143 11q11 3 18 9q15 14 25.5 43t50.5 252l94 530q51 293 51 357q0 24 -13.5 36.5t-50.5 15.5q-23 2 -127 6l11 70q155 -6 289 -6q90 0 366 6l-12 -70q-114 0 -139 -8q-15 -5 -26.5 -16t-18.5 -36q-18 -53 -71 -355q-68 -388 -93 -536q-34 -197 -34 -246
q0 -23 10.5 -36t39.5 -20t147 -7l-9 -69q-244 8 -317 8q-49 0 -342 -8zM329 1501h-73q29 121 88 176.5t131 55.5q34 0 71.5 -9.5t121.5 -41.5q60 -23 84 -29t44 -6q25 0 48 18.5t47 70.5h72q-21 -114 -82.5 -173.5t-136.5 -59.5q-31 0 -58.5 6.5t-107.5 38t-104.5 38
t-44.5 6.5q-30 0 -56 -20.5t-44 -70.5z" />
    <glyph glyph-name="itilde" unicode="&#x129;" horiz-adv-x="682" 
d="M580 231l27 -53q-79 -56 -179 -120.5t-147 -81.5q-30 -11 -58 -11q-34 0 -56 25.5t-22 78.5q0 42 9 87q11 60 52 214q84 318 84 374q0 13 -6.5 20t-16.5 7q-40 0 -183 -101l-25 53l137 101q105 74 141 94q58 32 103 46q28 8 49 8q24 0 42.5 -20t18.5 -55q0 -38 -8 -79
q-13 -64 -72 -279t-73 -281.5t-14 -87.5q0 -16 8.5 -25t18.5 -9q12 0 38 14q59 31 132 81zM172 1060h-73q29 121 88 176.5t131 55.5q34 0 71.5 -9.5t121.5 -41.5q60 -23 84 -29t44 -6q25 0 48 18.5t47 70.5h72q-21 -114 -82.5 -173.5t-136.5 -59.5q-31 0 -58.5 6.5
t-107.5 38t-104.5 38t-44.5 6.5q-30 0 -56 -20.5t-44 -70.5z" />
    <glyph glyph-name="Imacron" unicode="&#x12a;" horiz-adv-x="797" 
d="M0 0l8 69q93 -2 143 11q11 3 18 9q15 14 25.5 43t50.5 252l94 530q51 293 51 357q0 24 -13.5 36.5t-50.5 15.5q-23 2 -127 6l11 70q155 -6 289 -6q90 0 366 6l-12 -70q-114 0 -139 -8q-15 -5 -26.5 -16t-18.5 -36q-18 -53 -71 -355q-68 -388 -93 -536q-34 -197 -34 -246
q0 -23 10.5 -36t39.5 -20t147 -7l-9 -69q-244 8 -317 8q-49 0 -342 -8zM274 1627h646l-31 -126h-647z" />
    <glyph glyph-name="imacron" unicode="&#x12b;" horiz-adv-x="682" 
d="M580 231l27 -53q-79 -56 -179 -120.5t-147 -81.5q-30 -11 -58 -11q-34 0 -56 25.5t-22 78.5q0 42 9 87q11 60 52 214q84 318 84 374q0 13 -6.5 20t-16.5 7q-40 0 -183 -101l-25 53l137 101q105 74 141 94q58 32 103 46q28 8 49 8q24 0 42.5 -20t18.5 -55q0 -38 -8 -79
q-13 -64 -72 -279t-73 -281.5t-14 -87.5q0 -16 8.5 -25t18.5 -9q12 0 38 14q59 31 132 81zM117 1202h646l-31 -126h-647z" />
    <glyph glyph-name="Iogonek" unicode="&#x12e;" horiz-adv-x="797" 
d="M0 0l8 69q93 -2 143 11q11 3 18 9q15 14 25.5 43t50.5 252l94 530q51 293 51 357q0 24 -13.5 36.5t-50.5 15.5q-23 2 -127 6l11 70q155 -6 289 -6q90 0 366 6l-12 -70q-114 0 -139 -8q-15 -5 -26.5 -16t-18.5 -36q-18 -53 -71 -355q-68 -388 -93 -536q-34 -197 -34 -246
q0 -23 10.5 -36t39.5 -20t147 -7l-9 -69q-244 8 -317 8q-49 0 -342 -8zM490 -153l48 -26q-90 -89 -135 -116q-70 -42 -149 -42q-65 0 -101 35.5t-36 96.5q0 41 15 75.5t52 75.5q28 30 116 103h88q-83 -74 -103.5 -109t-20.5 -67q0 -42 26.5 -68.5t69.5 -26.5q32 0 62 15.5
t68 53.5z" />
    <glyph glyph-name="iogonek" unicode="&#x12f;" horiz-adv-x="682" 
d="M393 1274q0 66 40.5 107.5t99.5 41.5q50 0 80.5 -30.5t30.5 -80.5q0 -71 -39 -114.5t-99 -43.5q-53 0 -83 31t-30 89zM84 670l-25 53l137 101q105 74 141 94q58 32 103 46q28 8 49 8q24 0 42.5 -20t18.5 -55q0 -38 -8 -79q-13 -64 -72 -279t-73 -281.5t-14 -87.5
q0 -16 8.5 -25t18.5 -9q12 0 38 14q59 31 132 81l27 -53q-79 -56 -179 -120.5t-147 -81.5q-30 -11 -58 -11q-34 0 -56 25.5t-22 78.5q0 42 9 87q11 60 52 214q84 318 84 374q0 13 -6.5 20t-16.5 7q-40 0 -183 -101zM458 -138l48 -26q-90 -89 -135 -116q-70 -42 -149 -42
q-65 0 -101 35.5t-36 96.5q0 41 15 75.5t52 75.5q28 30 116 103h88q-83 -74 -103.5 -109t-20.5 -67q0 -42 26.5 -68.5t69.5 -26.5q32 0 62 15.5t68 53.5z" />
    <glyph glyph-name="IJ" unicode="&#x132;" horiz-adv-x="1594" 
d="M0 0l8 69q93 -2 143 11q11 3 18 9q15 14 25.5 43t50.5 252l94 530q51 293 51 357q0 24 -13.5 36.5t-50.5 15.5q-23 2 -127 6l11 70q155 -6 289 -6q90 0 366 6l-12 -70q-114 0 -139 -8q-15 -5 -26.5 -16t-18.5 -36q-18 -53 -71 -355q-68 -388 -93 -536q-34 -197 -34 -246
q0 -23 10.5 -36t39.5 -20t147 -7l-9 -69q-244 8 -317 8q-49 0 -342 -8zM771 -403l-7 64l7 6q19 -8 36.5 -12.5t34.5 -4.5q27 0 50.5 12.5t37.5 34.5q28 42 50 139t23 105l149 868q67 392 67 464q0 26 -29 35.5t-174 13.5l9 77q322 -9 370 -9q170 0 292 9l-12 -77
q-84 4 -130 -8q-18 -4 -28 -14q-12 -12 -22 -46q-17 -58 -71 -359q-67 -376 -91 -523q-39 -242 -63.5 -346.5t-74 -197t-123.5 -160.5q-56 -52 -116 -76q-45 -17 -98 -17q-28 0 -46 4.5t-41 17.5z" />
    <glyph glyph-name="ij" unicode="&#x133;" horiz-adv-x="1364" 
d="M393 1274q0 66 40.5 107.5t99.5 41.5q50 0 80.5 -30.5t30.5 -80.5q0 -71 -39 -114.5t-99 -43.5q-53 0 -83 31t-30 89zM84 670l-25 53l137 101q105 74 141 94q58 32 103 46q28 8 49 8q24 0 42.5 -20t18.5 -55q0 -38 -8 -79q-13 -64 -72 -279t-73 -281.5t-14 -87.5
q0 -16 8.5 -25t18.5 -9q12 0 38 14q59 31 132 81l27 -53q-79 -56 -179 -120.5t-147 -81.5q-30 -11 -58 -11q-34 0 -56 25.5t-22 78.5q0 42 9 87q11 60 52 214q84 318 84 374q0 13 -6.5 20t-16.5 7q-40 0 -183 -101zM1105 1274q0 66 40.5 107.5t99.5 41.5q50 0 80.5 -30.5
t30.5 -80.5q0 -71 -39 -114.5t-99 -43.5q-53 0 -83 31t-30 89zM562 -555q17 60 20 163l29 6q35 -46 54 -57t43 -11q14 0 26 6.5t25 25.5q18 28 54 185q28 121 82 386l55 279q53 266 53 313q0 17 -6 24.5t-15 7.5q-17 0 -58 -21q-63 -32 -138 -89l-26 55l169 121
q88 62 138 88t90 38q28 7 52 7t38 -17.5t14 -63.5q0 -57 -61 -320q-98 -418 -147.5 -595t-96 -261t-131.5 -174q-64 -67 -105 -87t-91 -20q-33 0 -67 11z" />
    <glyph glyph-name="Jcircumflex" unicode="&#x134;" horiz-adv-x="797" 
d="M-26 -403l-7 64l7 6q19 -8 36.5 -12.5t34.5 -4.5q27 0 50.5 12.5t37.5 34.5q28 42 50 139t23 105l149 868q67 392 67 464q0 26 -29 35.5t-174 13.5l9 77q322 -9 370 -9q170 0 292 9l-12 -77q-84 4 -130 -8q-18 -4 -28 -14q-12 -12 -22 -46q-17 -58 -71 -359
q-67 -376 -91 -523q-39 -242 -63.5 -346.5t-74 -197t-123.5 -160.5q-56 -52 -116 -76q-45 -17 -98 -17q-28 0 -46 4.5t-41 17.5zM603 1850h141l176 -349h-90l-178 204l-271 -204h-101z" />
    <glyph glyph-name="jcircumflex" unicode="&#x135;" horiz-adv-x="682" 
d="M-120 -555q17 60 20 163l29 6q35 -46 54 -57t43 -11q14 0 26 6.5t25 25.5q18 28 54 185q28 121 82 386l55 279q53 266 53 313q0 17 -6 24.5t-15 7.5q-17 0 -58 -21q-63 -32 -138 -89l-26 55l169 121q88 62 138 88t90 38q28 7 52 7t38 -17.5t14 -63.5q0 -57 -61 -320
q-98 -418 -147.5 -595t-96 -261t-131.5 -174q-64 -67 -105 -87t-91 -20q-33 0 -67 11zM478 1384h141l176 -349h-90l-178 204l-271 -204h-101z" />
    <glyph glyph-name="Kcommaaccent.cedilla" horiz-adv-x="1479" 
d="M6 0l9 73q132 -3 158 15q15 10 25 46q22 81 130 698q67 377 67 435q0 29 -15.5 42.5t-61.5 14.5q-105 3 -111 3l12 72q305 -4 335 -4q86 0 306 4l-11 -72q-130 -2 -155 -16q-11 -6 -17 -21q-13 -27 -53 -237l-66 -358q66 42 201 163q43 39 217 208q149 144 206 210
q29 33 36 51q4 12 4 38v34q53 -7 70 -7l67 2q48 2 152 3q12 0 40 2l-1 -72q-82 -2 -106.5 -9t-55.5 -28q-61 -42 -226 -188q-92 -83 -350 -326l392 -550q87 -121 114.5 -138.5t107.5 -20.5l-7 -67l-118 4q-105 4 -136 4q-47 0 -121 -8l-126 192q-55 83 -183 259
q-100 137 -177 232q-45 -231 -82 -460q-11 -68 -11 -91q0 -21 8 -32t24.5 -17t49.5 -8l102 -2l-10 -73q-293 9 -341 9q-110 0 -292 -9zM256 41h83l-93 -137q24 5 48 5q60 0 99 -17.5t61 -52t22 -69.5q0 -71 -64 -126t-190 -55q-58 0 -102.5 10t-107.5 39l40 63
q80 -33 144 -33q52 0 80.5 25t28.5 61q0 32 -24.5 54t-69.5 22q-28 0 -67 -9l-23 24z" />
    <glyph glyph-name="kcommaaccent.cedilla" 
d="M109 -23l-17 25q54 189 98 388q27 128 86 428q51 265 67 391q8 56 8 78q0 21 -7.5 30t-24.5 12q-13 2 -141 4l18 61q99 7 213.5 33t195.5 60l24 -21q-7 -34 -22 -102t-66 -301l-69 -312l-61 -292l166 197q100 114 189.5 189.5t153.5 100t128 24.5q16 0 30.5 -1.5
t27.5 -5.5l1 -10q-29 -97 -37 -151l-11 -8q-32 10 -54.5 15t-36.5 5q-51 0 -109.5 -22.5t-106.5 -58.5q-37 -28 -83 -79q8 -24 71.5 -196t99.5 -238.5t56 -80.5q11 -7 23 -7q18 0 51 15q52 24 102 60l21 -58l-162 -108q-78 -47 -132 -68q-22 -8 -42 -8q-18 0 -35 11
q-23 15 -48 59t-79 189q-80 217 -92 254q-67 -71 -93 -113q-16 -26 -27 -65q-20 -77 -40 -196q-7 -44 -7 -88q-104 -7 -227 -39zM168 47h83l-93 -137q24 5 48 5q60 0 99 -17.5t61 -52t22 -69.5q0 -71 -64 -126t-190 -55q-58 0 -102.5 10t-107.5 39l40 63q80 -33 144 -33
q52 0 80.5 25t28.5 61q0 32 -24.5 54t-69.5 22q-28 0 -67 -9l-23 24z" />
    <glyph glyph-name="Lacute" unicode="&#x139;" horiz-adv-x="1251" 
d="M51 0l11 62q111 28 119 33q11 7 18 21q13 25 46 209q88 501 103 598q50 319 50 349q0 24 -11 34.5t-47 14.5l-127 9l12 69q57 0 195.5 -5.5t188.5 -5.5q53 0 111 3l163 8l-11 -75h-22q-114 1 -144 -14q-12 -6 -20 -19q-15 -24 -43 -175q-36 -194 -69 -395l-101 -607
q152 -10 250 -10q169 0 262 22q37 9 51 27q19 26 82 215h72q-56 -234 -72 -360q-56 -8 -122 -8q-80 0 -238 4q-296 6 -340 6q-236 0 -367 -10zM484 1501h-87l243 253l61 63q28 26 45.5 34.5t35.5 8.5q39 0 64.5 -24.5t25.5 -59.5q0 -27 -16 -48t-67 -48q-31 -17 -39 -22z
" />
    <glyph glyph-name="lacute" unicode="&#x13a;" horiz-adv-x="682" 
d="M572 233l30 -54l-189 -128q-80 -52 -130 -72q-36 -14 -66 -14q-35 0 -53 23q-26 32 -26 89q0 50 15 133q23 128 30 161l154 689l23 116q9 47 12 72q2 16 2 28q0 22 -8.5 33t-28 15t-134.5 5l10 59q219 26 415 94l25 -22l-108 -462l-123 -571q-38 -164 -43 -214
q-2 -18 -2 -32q0 -21 8 -31t19 -10q16 0 49 17q55 27 119 76zM386 1584h-87l243 253l61 63q28 26 45.5 34.5t35.5 8.5q39 0 64.5 -24.5t25.5 -59.5q0 -27 -16 -48t-67 -48q-31 -17 -39 -22z" />
    <glyph glyph-name="Lcommaaccent.cedilla" horiz-adv-x="1251" 
d="M51 0l11 62q111 28 119 33q11 7 18 21q13 25 46 209q88 501 103 598q50 319 50 349q0 24 -11 34.5t-47 14.5l-127 9l12 69q57 0 195.5 -5.5t188.5 -5.5q53 0 111 3l163 8l-11 -75h-22q-114 1 -144 -14q-12 -6 -20 -19q-15 -24 -43 -175q-36 -194 -69 -395l-101 -607
q152 -10 250 -10q169 0 262 22q37 9 51 27q19 26 82 215h72q-56 -234 -72 -360q-56 -8 -122 -8q-80 0 -238 4q-296 6 -340 6q-236 0 -367 -10zM588 49h83l-93 -137q24 5 48 5q60 0 99 -17.5t61 -52t22 -69.5q0 -71 -64 -126t-190 -55q-58 0 -102.5 10t-107.5 39l40 63
q80 -33 144 -33q52 0 80.5 25t28.5 61q0 32 -24.5 54t-69.5 22q-28 0 -67 -9l-23 24z" />
    <glyph glyph-name="lcommaaccent.cedilla" horiz-adv-x="682" 
d="M572 233l30 -54l-189 -128q-80 -52 -130 -72q-36 -14 -66 -14q-35 0 -53 23q-26 32 -26 89q0 50 15 133q23 128 30 161l154 689l23 116q9 47 12 72q2 16 2 28q0 22 -8.5 33t-28 15t-134.5 5l10 59q219 26 415 94l25 -22l-108 -462l-123 -571q-38 -164 -43 -214
q-2 -18 -2 -32q0 -21 8 -31t19 -10q16 0 49 17q55 27 119 76zM206 64h83l-93 -137q24 5 48 5q60 0 99 -17.5t61 -52t22 -69.5q0 -71 -64 -126t-190 -55q-58 0 -102.5 10t-107.5 39l40 63q80 -33 144 -33q52 0 80.5 25t28.5 61q0 32 -24.5 54t-69.5 22q-28 0 -67 -9l-23 24z
" />
    <glyph glyph-name="Lcaron" unicode="&#x13d;" horiz-adv-x="1251" 
d="M51 0l11 62q111 28 119 33q11 7 18 21q13 25 46 209q88 501 103 598q50 319 50 349q0 24 -11 34.5t-47 14.5l-127 9l12 69q57 0 195.5 -5.5t188.5 -5.5q53 0 111 3l163 8l-11 -75h-22q-114 1 -144 -14q-12 -6 -20 -19q-15 -24 -43 -175q-36 -194 -69 -395l-101 -607
q152 -10 250 -10q169 0 262 22q37 9 51 27q19 26 82 215h72q-56 -234 -72 -360q-56 -8 -122 -8q-80 0 -238 4q-296 6 -340 6q-236 0 -367 -10zM939 764l-37 30q72 102 133.5 264.5t69.5 270.5q137 25 258 70l33 -30l-92 -175q-46 -82 -110 -173.5t-148 -186.5z" />
    <glyph glyph-name="lcaron" unicode="&#x13e;" horiz-adv-x="682" 
d="M572 233l30 -54l-189 -128q-80 -52 -130 -72q-36 -14 -66 -14q-35 0 -53 23q-26 32 -26 89q0 50 15 133q23 128 30 161l154 689l23 116q9 47 12 72q2 16 2 28q0 22 -8.5 33t-28 15t-134.5 5l10 59q219 26 415 94l25 -22l-108 -462l-123 -571q-38 -164 -43 -214
q-2 -18 -2 -32q0 -21 8 -31t19 -10q16 0 49 17q55 27 119 76zM674 847l-37 30q72 102 133.5 264.5t69.5 270.5q137 25 258 70l33 -30l-92 -175q-46 -82 -110 -173.5t-148 -186.5z" />
    <glyph glyph-name="Nacute" unicode="&#x143;" horiz-adv-x="1593" 
d="M-4 0l8 73q110 6 120 10q19 7 32 24t31 102q50 227 76 361q97 502 121 647q-41 62 -65 82q-17 13 -42.5 18.5t-141.5 15.5l7 66q146 -6 161 -6l278 6q27 -45 65 -112l101 -180q169 -288 281.5 -482.5t195.5 -329.5q164 882 164 980q0 32 -30.5 42.5t-150.5 15.5l10 66
q77 -4 181 -4q163 0 301 4l-10 -71q-23 -1 -33 -1l-54 1q-26 0 -48 -13q-11 -6 -19 -19q-19 -34 -82 -329.5t-127 -647.5q-23 -128 -52 -328h-176l-636 1108q-63 -332 -77 -414q-68 -408 -75.5 -467.5t-7.5 -80.5q0 -28 9.5 -40t38 -19t133.5 -5l-11 -73l-280 7zM811 1501
h-87l243 253l61 63q28 26 45.5 34.5t35.5 8.5q39 0 64.5 -24.5t25.5 -59.5q0 -27 -16 -48t-67 -48q-31 -17 -39 -22z" />
    <glyph glyph-name="nacute" unicode="&#x144;" 
d="M89 -28l-26 24q25 65 47 141q47 166 72.5 273t44.5 234q10 67 10 92q0 17 -7 25t-17 8q-34 0 -149 -87l-27 54q194 156 282 204q58 32 98 32q28 0 42 -14.5t14 -49.5q0 -43 -12 -102q-18 -94 -81 -333q94 174 240 313q107 101 206 151q66 34 116 34q42 0 64 -24t22 -70
q0 -36 -12 -95q-20 -93 -86 -330q-33 -119 -48 -204q-10 -57 -10 -76t7 -29q6 -7 17 -7q18 0 51 18q52 28 103 69l25 -56q-165 -126 -264 -174q-59 -28 -110 -28q-38 0 -54 28.5t-16 70.5q0 79 73 335.5t73 330.5q0 19 -10.5 29.5t-27.5 10.5q-22 0 -50 -16
q-61 -35 -142 -134t-128.5 -204t-71.5 -198q-35 -135 -43 -209q-127 -10 -215 -37zM583 1076h-87l243 253l61 63q28 26 45.5 34.5t35.5 8.5q39 0 64.5 -24.5t25.5 -59.5q0 -27 -16 -48t-67 -48q-31 -17 -39 -22z" />
    <glyph glyph-name="Ncommaaccent.cedilla" horiz-adv-x="1593" 
d="M-4 0l8 73q110 6 120 10q19 7 32 24t31 102q50 227 76 361q97 502 121 647q-41 62 -65 82q-17 13 -42.5 18.5t-141.5 15.5l7 66q146 -6 161 -6l278 6q27 -45 65 -112l101 -180q169 -288 281.5 -482.5t195.5 -329.5q164 882 164 980q0 32 -30.5 42.5t-150.5 15.5l10 66
q77 -4 181 -4q163 0 301 4l-10 -71q-23 -1 -33 -1l-54 1q-26 0 -48 -13q-11 -6 -19 -19q-19 -34 -82 -329.5t-127 -647.5q-23 -128 -52 -328h-176l-636 1108q-63 -332 -77 -414q-68 -408 -75.5 -467.5t-7.5 -80.5q0 -28 9.5 -40t38 -19t133.5 -5l-11 -73l-280 7zM188 57h83
l-93 -137q24 5 48 5q60 0 99 -17.5t61 -52t22 -69.5q0 -71 -64 -126t-190 -55q-58 0 -102.5 10t-107.5 39l40 63q80 -33 144 -33q52 0 80.5 25t28.5 61q0 32 -24.5 54t-69.5 22q-28 0 -67 -9l-23 24z" />
    <glyph glyph-name="ncommaaccent.cedilla" 
d="M89 -28l-26 24q25 65 47 141q47 166 72.5 273t44.5 234q10 67 10 92q0 17 -7 25t-17 8q-34 0 -149 -87l-27 54q194 156 282 204q58 32 98 32q28 0 42 -14.5t14 -49.5q0 -43 -12 -102q-18 -94 -81 -333q94 174 240 313q107 101 206 151q66 34 116 34q42 0 64 -24t22 -70
q0 -36 -12 -95q-20 -93 -86 -330q-33 -119 -48 -204q-10 -57 -10 -76t7 -29q6 -7 17 -7q18 0 51 18q52 28 103 69l25 -56q-165 -126 -264 -174q-59 -28 -110 -28q-38 0 -54 28.5t-16 70.5q0 79 73 335.5t73 330.5q0 19 -10.5 29.5t-27.5 10.5q-22 0 -50 -16
q-61 -35 -142 -134t-128.5 -204t-71.5 -198q-35 -135 -43 -209q-127 -10 -215 -37zM205 79h83l-93 -137q24 5 48 5q60 0 99 -17.5t61 -52t22 -69.5q0 -71 -64 -126t-190 -55q-58 0 -102.5 10t-107.5 39l40 63q80 -33 144 -33q52 0 80.5 25t28.5 61q0 32 -24.5 54t-69.5 22
q-28 0 -67 -9l-23 24z" />
    <glyph glyph-name="Ncaron" unicode="&#x147;" horiz-adv-x="1593" 
d="M-4 0l8 73q110 6 120 10q19 7 32 24t31 102q50 227 76 361q97 502 121 647q-41 62 -65 82q-17 13 -42.5 18.5t-141.5 15.5l7 66q146 -6 161 -6l278 6q27 -45 65 -112l101 -180q169 -288 281.5 -482.5t195.5 -329.5q164 882 164 980q0 32 -30.5 42.5t-150.5 15.5l10 66
q77 -4 181 -4q163 0 301 4l-10 -71q-23 -1 -33 -1l-54 1q-26 0 -48 -13q-11 -6 -19 -19q-19 -34 -82 -329.5t-127 -647.5q-23 -128 -52 -328h-176l-636 1108q-63 -332 -77 -414q-68 -408 -75.5 -467.5t-7.5 -80.5q0 -28 9.5 -40t38 -19t133.5 -5l-11 -73l-280 7zM632 1851
h90l189 -204l281 204h98l-329 -350h-141z" />
    <glyph glyph-name="ncaron" unicode="&#x148;" 
d="M89 -28l-26 24q25 65 47 141q47 166 72.5 273t44.5 234q10 67 10 92q0 17 -7 25t-17 8q-34 0 -149 -87l-27 54q194 156 282 204q58 32 98 32q28 0 42 -14.5t14 -49.5q0 -43 -12 -102q-18 -94 -81 -333q94 174 240 313q107 101 206 151q66 34 116 34q42 0 64 -24t22 -70
q0 -36 -12 -95q-20 -93 -86 -330q-33 -119 -48 -204q-10 -57 -10 -76t7 -29q6 -7 17 -7q18 0 51 18q52 28 103 69l25 -56q-165 -126 -264 -174q-59 -28 -110 -28q-38 0 -54 28.5t-16 70.5q0 79 73 335.5t73 330.5q0 19 -10.5 29.5t-27.5 10.5q-22 0 -50 -16
q-61 -35 -142 -134t-128.5 -204t-71.5 -198q-35 -135 -43 -209q-127 -10 -215 -37zM354 1426h90l189 -204l281 204h98l-329 -350h-141z" />
    <glyph glyph-name="napostrophe" unicode="&#x149;" 
d="M89 -28l-26 24q25 65 47 141q47 166 72.5 273t44.5 234q10 67 10 92q0 17 -7 25t-17 8q-34 0 -149 -87l-27 54q194 156 282 204q58 32 98 32q28 0 42 -14.5t14 -49.5q0 -43 -12 -102q-18 -94 -81 -333q94 174 240 313q107 101 206 151q66 34 116 34q42 0 64 -24t22 -70
q0 -36 -12 -95q-20 -93 -86 -330q-33 -119 -48 -204q-10 -57 -10 -76t7 -29q6 -7 17 -7q18 0 51 18q52 28 103 69l25 -56q-165 -126 -264 -174q-59 -28 -110 -28q-38 0 -54 28.5t-16 70.5q0 79 73 335.5t73 330.5q0 19 -10.5 29.5t-27.5 10.5q-22 0 -50 -16
q-61 -35 -142 -134t-128.5 -204t-71.5 -198q-35 -135 -43 -209q-127 -10 -215 -37zM498 1074l-37 30q72 102 133.5 264.5t69.5 270.5q137 25 258 70l33 -30l-92 -175q-46 -82 -110 -173.5t-148 -186.5z" />
    <glyph glyph-name="Omacron" unicode="&#x14c;" horiz-adv-x="1706" 
d="M153 532q0 135 40 282.5t122 269.5q61 90 150.5 164.5t221 124.5t308.5 50q296 0 458 -154t162 -417q0 -206 -90 -397q-107 -225 -303 -357.5t-466 -132.5q-143 0 -258.5 40t-193.5 115.5t-114.5 177.5t-36.5 234zM433 469q0 -80 15.5 -148.5t44 -114t73.5 -78.5
t110.5 -53t132.5 -20q101 0 172.5 33t122.5 89.5t94 146.5q58 119 97 279t39 307q0 93 -19.5 170t-59.5 128.5t-115 86.5t-176 35q-109 0 -185.5 -35t-136.5 -107t-111 -196t-74.5 -271t-23.5 -252zM757 1651h646l-31 -126h-647z" />
    <glyph glyph-name="omacron" unicode="&#x14d;" 
d="M101 284q0 124 41.5 258t89.5 193q30 37 106.5 97.5t168 100t194.5 39.5q86 0 157 -26t107 -67.5t53 -99.5t17 -127q0 -131 -43.5 -261.5t-100.5 -199.5q-41 -48 -128.5 -106.5t-168 -89t-181.5 -30.5q-119 0 -188.5 42t-96.5 115.5t-27 161.5zM337 292q0 -123 46.5 -176
t131.5 -53q57 0 98.5 27.5t76 89t63.5 169.5q42 158 42 302q0 122 -48.5 176.5t-126.5 54.5q-80 0 -137 -59.5t-101.5 -226.5t-44.5 -304zM423 1202h646l-31 -126h-647z" />
    <glyph glyph-name="Obreve" unicode="&#x14e;" horiz-adv-x="1706" 
d="M153 532q0 135 40 282.5t122 269.5q61 90 150.5 164.5t221 124.5t308.5 50q296 0 458 -154t162 -417q0 -206 -90 -397q-107 -225 -303 -357.5t-466 -132.5q-143 0 -258.5 40t-193.5 115.5t-114.5 177.5t-36.5 234zM433 469q0 -80 15.5 -148.5t44 -114t73.5 -78.5
t110.5 -53t132.5 -20q101 0 172.5 33t122.5 89.5t94 146.5q58 119 97 279t39 307q0 93 -19.5 170t-59.5 128.5t-115 86.5t-176 35q-109 0 -185.5 -35t-136.5 -107t-111 -196t-74.5 -271t-23.5 -252zM759 1856h72q8 -91 61 -141t159 -50q93 0 162 50.5t101 140.5h74
q-44 -190 -143 -260.5t-214 -70.5q-84 0 -147 33t-96 94.5t-33 133.5q0 27 4 70z" />
    <glyph glyph-name="obreve" unicode="&#x14f;" 
d="M101 284q0 124 41.5 258t89.5 193q30 37 106.5 97.5t168 100t194.5 39.5q86 0 157 -26t107 -67.5t53 -99.5t17 -127q0 -131 -43.5 -261.5t-100.5 -199.5q-41 -48 -128.5 -106.5t-168 -89t-181.5 -30.5q-119 0 -188.5 42t-96.5 115.5t-27 161.5zM337 292q0 -123 46.5 -176
t131.5 -53q57 0 98.5 27.5t76 89t63.5 169.5q42 158 42 302q0 122 -48.5 176.5t-126.5 54.5q-80 0 -137 -59.5t-101.5 -226.5t-44.5 -304zM458 1407h72q8 -91 61 -141t159 -50q93 0 162 50.5t101 140.5h74q-44 -190 -143 -260.5t-214 -70.5q-84 0 -147 33t-96 94.5
t-33 133.5q0 27 4 70z" />
    <glyph glyph-name="Ohungarumlaut" unicode="&#x150;" horiz-adv-x="1706" 
d="M153 532q0 135 40 282.5t122 269.5q61 90 150.5 164.5t221 124.5t308.5 50q296 0 458 -154t162 -417q0 -206 -90 -397q-107 -225 -303 -357.5t-466 -132.5q-143 0 -258.5 40t-193.5 115.5t-114.5 177.5t-36.5 234zM433 469q0 -80 15.5 -148.5t44 -114t73.5 -78.5
t110.5 -53t132.5 -20q101 0 172.5 33t122.5 89.5t94 146.5q58 119 97 279t39 307q0 93 -19.5 170t-59.5 128.5t-115 86.5t-176 35q-109 0 -185.5 -35t-136.5 -107t-111 -196t-74.5 -271t-23.5 -252zM1188 1525h-87l243 253l61 63q28 26 45.5 34.5t35.5 8.5q39 0 64.5 -24.5
t25.5 -59.5q0 -27 -16 -48t-67 -48q-30 -17 -39 -22zM840 1525h-87l243 253l61 63q28 26 45.5 34.5t35.5 8.5q39 0 64.5 -24.5t25.5 -59.5q0 -27 -16 -48t-67 -48q-31 -17 -39 -22z" />
    <glyph glyph-name="ohungarumlaut" unicode="&#x151;" 
d="M101 284q0 124 41.5 258t89.5 193q30 37 106.5 97.5t168 100t194.5 39.5q86 0 157 -26t107 -67.5t53 -99.5t17 -127q0 -131 -43.5 -261.5t-100.5 -199.5q-41 -48 -128.5 -106.5t-168 -89t-181.5 -30.5q-119 0 -188.5 42t-96.5 115.5t-27 161.5zM337 292q0 -123 46.5 -176
t131.5 -53q57 0 98.5 27.5t76 89t63.5 169.5q42 158 42 302q0 122 -48.5 176.5t-126.5 54.5q-80 0 -137 -59.5t-101.5 -226.5t-44.5 -304zM862 1076h-87l243 253l61 63q28 26 45.5 34.5t35.5 8.5q39 0 64.5 -24.5t25.5 -59.5q0 -27 -16 -48t-67 -48q-30 -17 -39 -22z
M514 1076h-87l243 253l61 63q28 26 45.5 34.5t35.5 8.5q39 0 64.5 -24.5t25.5 -59.5q0 -27 -16 -48t-67 -48q-31 -17 -39 -22z" />
    <glyph glyph-name="Racute" unicode="&#x154;" horiz-adv-x="1479" 
d="M17 0l6 70h17q94 -1 122 10q12 4 20 13q14 16 24 56.5t69 379.5l63 361q58 321 58 377q0 21 -10.5 33.5t-35.5 18t-140 7.5l11 73l205 -9q78 -3 121 -3q23 0 227 7q91 2 180 2q144 0 221 -29t124.5 -99t47.5 -161q0 -125 -92.5 -232t-326.5 -148q53 -87 233 -391
q115 -194 142 -226q19 -22 40 -31t87 -9l-6 -70l-215 6l-119 -5q-12 -1 -36 -1l-129 239q-115 202 -169 294q-22 38 -37 61q-23 38 -85 133l8 32q41 -3 63 -3q109 0 195.5 38t131.5 116t45 181q0 106 -59.5 160t-189.5 54q-97 0 -159 -14q-22 -110 -101 -554
q-40 -221 -74 -434q-21 -131 -22.5 -145.5t-1.5 -26.5q0 -22 10 -35t34 -18q35 -8 143 -8l-6 -70l-354 10q-49 0 -280 -10zM778 1501h-87l243 253l61 63q28 26 45.5 34.5t35.5 8.5q39 0 64.5 -24.5t25.5 -59.5q0 -27 -16 -48t-67 -48q-31 -17 -39 -22z" />
    <glyph glyph-name="racute" unicode="&#x155;" horiz-adv-x="797" 
d="M120 -30l-21 26l46 159q39 151 61 259.5t36 219.5q6 55 6 91q0 29 -6.5 38.5t-16.5 9.5q-32 0 -150 -92l-25 55q136 110 202 156.5t125 70.5q28 11 47 11q24 0 41 -19.5t17 -56.5q0 -29 -10 -80q-5 -28 -73 -317h14q74 175 150 289t135 152q39 24 88 24q29 0 61 -10
q-17 -59 -29 -137.5t-14 -137.5l-23 -14q-49 42 -105 42q-53 0 -97 -37q-61 -50 -125 -199q-80 -186 -115 -460l-154 -24q-29 -6 -65 -19zM396 1078h-87l243 253l61 63q28 26 45.5 34.5t35.5 8.5q39 0 64.5 -24.5t25.5 -59.5q0 -27 -16 -48t-67 -48q-31 -17 -39 -22z" />
    <glyph glyph-name="Rcommaaccent.cedilla" horiz-adv-x="1479" 
d="M17 0l6 70h17q94 -1 122 10q12 4 20 13q14 16 24 56.5t69 379.5l63 361q58 321 58 377q0 21 -10.5 33.5t-35.5 18t-140 7.5l11 73l205 -9q78 -3 121 -3q23 0 227 7q91 2 180 2q144 0 221 -29t124.5 -99t47.5 -161q0 -125 -92.5 -232t-326.5 -148q53 -87 233 -391
q115 -194 142 -226q19 -22 40 -31t87 -9l-6 -70l-215 6l-119 -5q-12 -1 -36 -1l-129 239q-115 202 -169 294q-22 38 -37 61q-23 38 -85 133l8 32q41 -3 63 -3q109 0 195.5 38t131.5 116t45 181q0 106 -59.5 160t-189.5 54q-97 0 -159 -14q-22 -110 -101 -554
q-40 -221 -74 -434q-21 -131 -22.5 -145.5t-1.5 -26.5q0 -22 10 -35t34 -18q35 -8 143 -8l-6 -70l-354 10q-49 0 -280 -10zM283 66h83l-93 -137q24 5 48 5q60 0 99 -17.5t61 -52t22 -69.5q0 -71 -64 -126t-190 -55q-58 0 -102.5 10t-107.5 39l40 63q80 -33 144 -33
q52 0 80.5 25t28.5 61q0 32 -24.5 54t-69.5 22q-28 0 -67 -9l-23 24z" />
    <glyph glyph-name="rcommaaccent.cedilla" horiz-adv-x="797" 
d="M120 -30l-21 26l46 159q39 151 61 259.5t36 219.5q6 55 6 91q0 29 -6.5 38.5t-16.5 9.5q-32 0 -150 -92l-25 55q136 110 202 156.5t125 70.5q28 11 47 11q24 0 41 -19.5t17 -56.5q0 -29 -10 -80q-5 -28 -73 -317h14q74 175 150 289t135 152q39 24 88 24q29 0 61 -10
q-17 -59 -29 -137.5t-14 -137.5l-23 -14q-49 42 -105 42q-53 0 -97 -37q-61 -50 -125 -199q-80 -186 -115 -460l-154 -24q-29 -6 -65 -19zM203 52h83l-93 -137q24 5 48 5q60 0 99 -17.5t61 -52t22 -69.5q0 -71 -64 -126t-190 -55q-58 0 -102.5 10t-107.5 39l40 63
q80 -33 144 -33q52 0 80.5 25t28.5 61q0 32 -24.5 54t-69.5 22q-28 0 -67 -9l-23 24z" />
    <glyph glyph-name="Rcaron" unicode="&#x158;" horiz-adv-x="1479" 
d="M17 0l6 70h17q94 -1 122 10q12 4 20 13q14 16 24 56.5t69 379.5l63 361q58 321 58 377q0 21 -10.5 33.5t-35.5 18t-140 7.5l11 73l205 -9q78 -3 121 -3q23 0 227 7q91 2 180 2q144 0 221 -29t124.5 -99t47.5 -161q0 -125 -92.5 -232t-326.5 -148q53 -87 233 -391
q115 -194 142 -226q19 -22 40 -31t87 -9l-6 -70l-215 6l-119 -5q-12 -1 -36 -1l-129 239q-115 202 -169 294q-22 38 -37 61q-23 38 -85 133l8 32q41 -3 63 -3q109 0 195.5 38t131.5 116t45 181q0 106 -59.5 160t-189.5 54q-97 0 -159 -14q-22 -110 -101 -554
q-40 -221 -74 -434q-21 -131 -22.5 -145.5t-1.5 -26.5q0 -22 10 -35t34 -18q35 -8 143 -8l-6 -70l-354 10q-49 0 -280 -10zM502 1851h90l189 -204l281 204h98l-329 -350h-141z" />
    <glyph glyph-name="rcaron" unicode="&#x159;" horiz-adv-x="797" 
d="M120 -30l-21 26l46 159q39 151 61 259.5t36 219.5q6 55 6 91q0 29 -6.5 38.5t-16.5 9.5q-32 0 -150 -92l-25 55q136 110 202 156.5t125 70.5q28 11 47 11q24 0 41 -19.5t17 -56.5q0 -29 -10 -80q-5 -28 -73 -317h14q74 175 150 289t135 152q39 24 88 24q29 0 61 -10
q-17 -59 -29 -137.5t-14 -137.5l-23 -14q-49 42 -105 42q-53 0 -97 -37q-61 -50 -125 -199q-80 -186 -115 -460l-154 -24q-29 -6 -65 -19zM233 1428h90l189 -204l281 204h98l-329 -350h-141z" />
    <glyph glyph-name="Sacute" unicode="&#x15a;" 
d="M91 75q11 42 29.5 149.5t22.5 161.5h66l-2 -114q0 -21 2 -61q32 -48 120 -90.5t188 -42.5q164 0 234 73t70 180q0 53 -11.5 89.5t-39 62t-69 41.5t-143.5 48q-178 45 -247 105q-95 83 -95 242q0 201 161 352.5t396 151.5q91 0 169.5 -23t144.5 -69q-19 -73 -30 -131.5
t-26 -169.5h-65q2 40 2 70q0 13 -2 94q-22 30 -45 47q-36 27 -93 46.5t-128 19.5q-90 0 -155.5 -35t-97.5 -93.5t-33 -145.5q1 -78 29 -119t129 -75q130 -30 207.5 -52.5t137 -51t93 -93.5t33.5 -152q0 -145 -92 -269t-217.5 -190t-281.5 -66q-103 0 -198 29t-163 81z
M717 1525h-87l243 253l61 63q28 26 45.5 34.5t35.5 8.5q39 0 64.5 -24.5t25.5 -59.5q0 -27 -16 -48t-67 -48q-31 -17 -39 -22z" />
    <glyph glyph-name="sacute" unicode="&#x15b;" horiz-adv-x="909" 
d="M95 298h62l3 -96q43 -50 112.5 -83.5t143.5 -33.5q64 0 105.5 19.5t61 57t19.5 74.5t-18 68t-46.5 45.5t-108.5 29.5q-140 27 -186.5 54.5t-73.5 78t-27 108.5q0 55 23 109q18 40 50 72t116.5 84.5t133 69.5t115.5 17q66 0 128.5 -15.5t122.5 -47.5q-20 -91 -37 -239h-60
l-12 99q-48 45 -109 68t-119 23q-45 0 -84.5 -19t-59.5 -52.5t-20 -72.5q0 -55 38 -90t174 -59q88 -16 111 -24q44 -14 77.5 -42t53.5 -71.5t20 -93.5q0 -73 -32 -123t-107 -110t-134 -89q-83 -40 -204 -40q-70 0 -128 11q-42 8 -146 46q12 41 23 117q17 108 19 150z
M477 1076h-87l243 253l61 63q28 26 45.5 34.5t35.5 8.5q39 0 64.5 -24.5t25.5 -59.5q0 -27 -16 -48t-67 -48q-31 -17 -39 -22z" />
    <glyph glyph-name="Scircumflex" unicode="&#x15c;" 
d="M91 75q11 42 29.5 149.5t22.5 161.5h66l-2 -114q0 -21 2 -61q32 -48 120 -90.5t188 -42.5q164 0 234 73t70 180q0 53 -11.5 89.5t-39 62t-69 41.5t-143.5 48q-178 45 -247 105q-95 83 -95 242q0 201 161 352.5t396 151.5q91 0 169.5 -23t144.5 -69q-19 -73 -30 -131.5
t-26 -169.5h-65q2 40 2 70q0 13 -2 94q-22 30 -45 47q-36 27 -93 46.5t-128 19.5q-90 0 -155.5 -35t-97.5 -93.5t-33 -145.5q1 -78 29 -119t129 -75q130 -30 207.5 -52.5t137 -51t93 -93.5t33.5 -152q0 -145 -92 -269t-217.5 -190t-281.5 -66q-103 0 -198 29t-163 81z
M713 1874h141l176 -349h-90l-178 204l-271 -204h-101z" />
    <glyph glyph-name="scircumflex" unicode="&#x15d;" horiz-adv-x="909" 
d="M95 298h62l3 -96q43 -50 112.5 -83.5t143.5 -33.5q64 0 105.5 19.5t61 57t19.5 74.5t-18 68t-46.5 45.5t-108.5 29.5q-140 27 -186.5 54.5t-73.5 78t-27 108.5q0 55 23 109q18 40 50 72t116.5 84.5t133 69.5t115.5 17q66 0 128.5 -15.5t122.5 -47.5q-20 -91 -37 -239h-60
l-12 99q-48 45 -109 68t-119 23q-45 0 -84.5 -19t-59.5 -52.5t-20 -72.5q0 -55 38 -90t174 -59q88 -16 111 -24q44 -14 77.5 -42t53.5 -71.5t20 -93.5q0 -73 -32 -123t-107 -110t-134 -89q-83 -40 -204 -40q-70 0 -128 11q-42 8 -146 46q12 41 23 117q17 108 19 150z
M572 1425h141l176 -349h-90l-178 204l-271 -204h-101z" />
    <glyph glyph-name="Tcedilla" unicode="&#x162;" horiz-adv-x="1251" 
d="M211 0l8 71q126 -2 156 9q15 5 25 17q14 18 26 76q33 160 95.5 516.5t102.5 596.5l-60 1q-257 0 -293.5 -26.5t-78.5 -219.5h-74q27 145 51 341l11 12l255 -10q115 -4 264 -4q208 0 454 6q129 4 209 13l14 -17q-43 -218 -50.5 -261.5t-10.5 -79.5h-75q10 85 10 155
q0 51 -9.5 63t-35.5 18q-46 10 -202 10q-73 0 -111 -1l-88 -461q-39 -206 -79 -450q-27 -163 -31 -209q-2 -20 -2 -38q0 -23 9 -34t33 -16q35 -7 152 -7l-8 -71q-260 8 -345 8q-106 0 -322 -8zM532 74h83l-93 -137q24 5 48 5q60 0 99 -17.5t61 -52t22 -69.5q0 -71 -64 -126
t-190 -55q-58 0 -102.5 10t-107.5 39l40 63q80 -33 144 -33q52 0 80.5 25t28.5 61q0 32 -24.5 54t-69.5 22q-28 0 -67 -9l-23 24z" />
    <glyph glyph-name="tcedilla" unicode="&#x163;" horiz-adv-x="797" 
d="M682 260l25 -56q-52 -41 -164 -118t-179 -104q-45 -17 -78 -17q-59 0 -88 36.5t-29 92.5q0 35 10 89q7 41 78 361q47 215 57 276h-220l13 54q87 18 234 69q2 24 14 95q19 112 19 183q50 11 98 27l152 53l23 -25q-33 -97 -91 -350h103q102 0 174 8l8 -8q-22 -83 -27 -114
q-88 8 -174 8h-106q-6 -29 -41 -178q-1 -5 -63 -307q-19 -95 -23 -125q-2 -17 -2 -30q0 -24 13 -37t35 -13q31 0 76 25q82 46 153 105zM266 39h83l-93 -137q24 5 48 5q60 0 99 -17.5t61 -52t22 -69.5q0 -71 -64 -126t-190 -55q-58 0 -102.5 10t-107.5 39l40 63
q80 -33 144 -33q52 0 80.5 25t28.5 61q0 32 -24.5 54t-69.5 22q-28 0 -67 -9l-23 24z" />
    <glyph glyph-name="Tcaron" unicode="&#x164;" horiz-adv-x="1251" 
d="M211 0l8 71q126 -2 156 9q15 5 25 17q14 18 26 76q33 160 95.5 516.5t102.5 596.5l-60 1q-257 0 -293.5 -26.5t-78.5 -219.5h-74q27 145 51 341l11 12l255 -10q115 -4 264 -4q208 0 454 6q129 4 209 13l14 -17q-43 -218 -50.5 -261.5t-10.5 -79.5h-75q10 85 10 155
q0 51 -9.5 63t-35.5 18q-46 10 -202 10q-73 0 -111 -1l-88 -461q-39 -206 -79 -450q-27 -163 -31 -209q-2 -20 -2 -38q0 -23 9 -34t33 -16q35 -7 152 -7l-8 -71q-260 8 -345 8q-106 0 -322 -8zM532 1851h90l189 -204l281 204h98l-329 -350h-141z" />
    <glyph glyph-name="tcaron" unicode="&#x165;" horiz-adv-x="797" 
d="M682 260l25 -56q-52 -41 -164 -118t-179 -104q-45 -17 -78 -17q-59 0 -88 36.5t-29 92.5q0 35 10 89q7 41 78 361q47 215 57 276h-220l13 54q87 18 234 69q2 24 14 95q19 112 19 183q50 11 98 27l152 53l23 -25q-33 -97 -91 -350h103q102 0 174 8l8 -8q-22 -83 -27 -114
q-88 8 -174 8h-106q-6 -29 -41 -178q-1 -5 -63 -307q-19 -95 -23 -125q-2 -17 -2 -30q0 -24 13 -37t35 -13q31 0 76 25q82 46 153 105zM750 983l-37 30q72 102 133.5 264.5t69.5 270.5q137 25 258 70l33 -30l-92 -175q-46 -82 -110 -173.5t-148 -186.5z" />
    <glyph glyph-name="Tbar" unicode="&#x166;" horiz-adv-x="1251" 
d="M211 0l8 71q126 -2 156 9q15 5 25 17q14 18 26 76q33 160 95.5 516.5t102.5 596.5l-60 1q-257 0 -293.5 -26.5t-78.5 -219.5h-74q27 145 51 341l11 12l255 -10q115 -4 264 -4q208 0 454 6q129 4 209 13l14 -17q-43 -218 -50.5 -261.5t-10.5 -79.5h-75q10 85 10 155
q0 51 -9.5 63t-35.5 18q-46 10 -202 10q-73 0 -111 -1l-88 -461q-39 -206 -79 -450q-27 -163 -31 -209q-2 -20 -2 -38q0 -23 9 -34t33 -16q35 -7 152 -7l-8 -71q-260 8 -345 8q-106 0 -322 -8zM347 764h646l-31 -126h-647z" />
    <glyph glyph-name="tbar" unicode="&#x167;" horiz-adv-x="797" 
d="M682 260l25 -56q-52 -41 -164 -118t-179 -104q-45 -17 -78 -17q-59 0 -88 36.5t-29 92.5q0 35 10 89q7 41 78 361q47 215 57 276h-220l13 54q87 18 234 69q2 24 14 95q19 112 19 183q50 11 98 27l152 53l23 -25q-33 -97 -91 -350h103q102 0 174 8l8 -8q-22 -83 -27 -114
q-88 8 -174 8h-106q-6 -29 -41 -178q-1 -5 -63 -307q-19 -95 -23 -125q-2 -17 -2 -30q0 -24 13 -37t35 -13q31 0 76 25q82 46 153 105zM125 698h646l-31 -126h-647z" />
    <glyph glyph-name="Utilde" unicode="&#x168;" horiz-adv-x="1593" 
d="M1719 1423l-9 -74q-112 1 -141 -10q-14 -6 -23 -16q-13 -15 -24 -60q-26 -107 -77.5 -393t-76.5 -437q-42 -256 -42 -292q0 -28 9 -40t29 -18q37 -11 111 -11l43 1l-11 -73q-188 5 -197 5l-270 -5l-10 12q30 137 49 251q-166 -177 -301 -249q-92 -49 -210 -49
q-96 0 -168 29q-55 23 -99 64.5t-68 86.5q-36 70 -36 144q0 32 2 64q4 46 16 120q20 128 52 297.5t46 256.5q29 177 33 206.5t4 56.5q0 22 -6.5 31.5t-23.5 15.5q-22 9 -68 12q-78 5 -86 5l11 69q22 -1 111 -2l235 -5h12q49 0 116 7l12 -15q-43 -189 -60 -279
q-44 -230 -90 -500q-33 -189 -36.5 -224t-3.5 -68q0 -92 59 -146.5t162 -54.5q74 0 156 37t171 125q58 58 68 85q6 17 41 221q43 246 57 328q55 332 55 368q0 22 -17 32q-28 15 -172 22l9 69h19l331 -7zM704 1525h-73q29 121 88 176.5t131 55.5q34 0 71.5 -9.5t121.5 -41.5
q60 -23 84 -29t44 -6q25 0 48 18.5t47 70.5h72q-21 -114 -82.5 -173.5t-136.5 -59.5q-31 0 -58.5 6.5t-107.5 38t-104.5 38t-44.5 6.5q-30 0 -56 -20.5t-44 -70.5z" />
    <glyph glyph-name="utilde" unicode="&#x169;" 
d="M73 705l-24 56q185 135 280 180q67 31 109 31q30 0 47.5 -18.5t17.5 -58.5q0 -33 -7 -72q-12 -64 -49 -203q-72 -275 -88 -353q-11 -51 -11 -76q0 -21 10 -31t25 -10q20 0 47 17q43 26 109 101t111 152q77 130 119 268.5t50 236.5q113 7 218 39l17 -17q-39 -124 -98 -345
t-77 -322q-11 -66 -11 -96q0 -19 8 -28t21 -9q15 0 32 9q24 13 116 80l19 -56l-111 -85q-65 -48 -115 -78.5t-84 -40.5q-24 -7 -46 -7q-29 0 -47.5 20.5t-18.5 61.5q0 21 4 44q8 52 29 139l57 219q-46 -85 -92 -147q-76 -104 -173 -195t-179 -129q-44 -20 -80 -20
q-44 0 -71 29.5t-27 86.5q0 37 9 84q6 35 44 175q50 185 71 295q15 80 15 109q0 23 -8 33t-21 10q-29 0 -147 -79zM441 1076h-73q29 121 88 176.5t131 55.5q34 0 71.5 -9.5t121.5 -41.5q60 -23 84 -29t44 -6q25 0 48 18.5t47 70.5h72q-21 -114 -82.5 -173.5t-136.5 -59.5
q-31 0 -58.5 6.5t-107.5 38t-104.5 38t-44.5 6.5q-30 0 -56 -20.5t-44 -70.5z" />
    <glyph glyph-name="Umacron" unicode="&#x16a;" horiz-adv-x="1593" 
d="M1719 1423l-9 -74q-112 1 -141 -10q-14 -6 -23 -16q-13 -15 -24 -60q-26 -107 -77.5 -393t-76.5 -437q-42 -256 -42 -292q0 -28 9 -40t29 -18q37 -11 111 -11l43 1l-11 -73q-188 5 -197 5l-270 -5l-10 12q30 137 49 251q-166 -177 -301 -249q-92 -49 -210 -49
q-96 0 -168 29q-55 23 -99 64.5t-68 86.5q-36 70 -36 144q0 32 2 64q4 46 16 120q20 128 52 297.5t46 256.5q29 177 33 206.5t4 56.5q0 22 -6.5 31.5t-23.5 15.5q-22 9 -68 12q-78 5 -86 5l11 69q22 -1 111 -2l235 -5h12q49 0 116 7l12 -15q-43 -189 -60 -279
q-44 -230 -90 -500q-33 -189 -36.5 -224t-3.5 -68q0 -92 59 -146.5t162 -54.5q74 0 156 37t171 125q58 58 68 85q6 17 41 221q43 246 57 328q55 332 55 368q0 22 -17 32q-28 15 -172 22l9 69h19l331 -7zM691 1651h646l-31 -126h-647z" />
    <glyph glyph-name="umacron" unicode="&#x16b;" 
d="M73 705l-24 56q185 135 280 180q67 31 109 31q30 0 47.5 -18.5t17.5 -58.5q0 -33 -7 -72q-12 -64 -49 -203q-72 -275 -88 -353q-11 -51 -11 -76q0 -21 10 -31t25 -10q20 0 47 17q43 26 109 101t111 152q77 130 119 268.5t50 236.5q113 7 218 39l17 -17q-39 -124 -98 -345
t-77 -322q-11 -66 -11 -96q0 -19 8 -28t21 -9q15 0 32 9q24 13 116 80l19 -56l-111 -85q-65 -48 -115 -78.5t-84 -40.5q-24 -7 -46 -7q-29 0 -47.5 20.5t-18.5 61.5q0 21 4 44q8 52 29 139l57 219q-46 -85 -92 -147q-76 -104 -173 -195t-179 -129q-44 -20 -80 -20
q-44 0 -71 29.5t-27 86.5q0 37 9 84q6 35 44 175q50 185 71 295q15 80 15 109q0 23 -8 33t-21 10q-29 0 -147 -79zM411 1202h646l-31 -126h-647z" />
    <glyph glyph-name="Ubreve" unicode="&#x16c;" horiz-adv-x="1593" 
d="M1719 1423l-9 -74q-112 1 -141 -10q-14 -6 -23 -16q-13 -15 -24 -60q-26 -107 -77.5 -393t-76.5 -437q-42 -256 -42 -292q0 -28 9 -40t29 -18q37 -11 111 -11l43 1l-11 -73q-188 5 -197 5l-270 -5l-10 12q30 137 49 251q-166 -177 -301 -249q-92 -49 -210 -49
q-96 0 -168 29q-55 23 -99 64.5t-68 86.5q-36 70 -36 144q0 32 2 64q4 46 16 120q20 128 52 297.5t46 256.5q29 177 33 206.5t4 56.5q0 22 -6.5 31.5t-23.5 15.5q-22 9 -68 12q-78 5 -86 5l11 69q22 -1 111 -2l235 -5h12q49 0 116 7l12 -15q-43 -189 -60 -279
q-44 -230 -90 -500q-33 -189 -36.5 -224t-3.5 -68q0 -92 59 -146.5t162 -54.5q74 0 156 37t171 125q58 58 68 85q6 17 41 221q43 246 57 328q55 332 55 368q0 22 -17 32q-28 15 -172 22l9 69h19l331 -7zM751 1856h72q8 -91 61 -141t159 -50q93 0 162 50.5t101 140.5h74
q-44 -190 -143 -260.5t-214 -70.5q-84 0 -147 33t-96 94.5t-33 133.5q0 27 4 70z" />
    <glyph glyph-name="ubreve" unicode="&#x16d;" 
d="M73 705l-24 56q185 135 280 180q67 31 109 31q30 0 47.5 -18.5t17.5 -58.5q0 -33 -7 -72q-12 -64 -49 -203q-72 -275 -88 -353q-11 -51 -11 -76q0 -21 10 -31t25 -10q20 0 47 17q43 26 109 101t111 152q77 130 119 268.5t50 236.5q113 7 218 39l17 -17q-39 -124 -98 -345
t-77 -322q-11 -66 -11 -96q0 -19 8 -28t21 -9q15 0 32 9q24 13 116 80l19 -56l-111 -85q-65 -48 -115 -78.5t-84 -40.5q-24 -7 -46 -7q-29 0 -47.5 20.5t-18.5 61.5q0 21 4 44q8 52 29 139l57 219q-46 -85 -92 -147q-76 -104 -173 -195t-179 -129q-44 -20 -80 -20
q-44 0 -71 29.5t-27 86.5q0 37 9 84q6 35 44 175q50 185 71 295q15 80 15 109q0 23 -8 33t-21 10q-29 0 -147 -79zM396 1407h72q8 -91 61 -141t159 -50q93 0 162 50.5t101 140.5h74q-44 -190 -143 -260.5t-214 -70.5q-84 0 -147 33t-96 94.5t-33 133.5q0 27 4 70z" />
    <glyph glyph-name="Uring" unicode="&#x16e;" horiz-adv-x="1593" 
d="M1719 1423l-9 -74q-112 1 -141 -10q-14 -6 -23 -16q-13 -15 -24 -60q-26 -107 -77.5 -393t-76.5 -437q-42 -256 -42 -292q0 -28 9 -40t29 -18q37 -11 111 -11l43 1l-11 -73q-188 5 -197 5l-270 -5l-10 12q30 137 49 251q-166 -177 -301 -249q-92 -49 -210 -49
q-96 0 -168 29q-55 23 -99 64.5t-68 86.5q-36 70 -36 144q0 32 2 64q4 46 16 120q20 128 52 297.5t46 256.5q29 177 33 206.5t4 56.5q0 22 -6.5 31.5t-23.5 15.5q-22 9 -68 12q-78 5 -86 5l11 69q22 -1 111 -2l235 -5h12q49 0 116 7l12 -15q-43 -189 -60 -279
q-44 -230 -90 -500q-33 -189 -36.5 -224t-3.5 -68q0 -92 59 -146.5t162 -54.5q74 0 156 37t171 125q58 58 68 85q6 17 41 221q43 246 57 328q55 332 55 368q0 22 -17 32q-28 15 -172 22l9 69h19l331 -7zM506 1703q10 93 71.5 139t164.5 46q89 0 141 -38.5t52 -111.5
q0 -13 -5 -61t-69 -100t-160 -52q-86 0 -141 41.5t-55 115.5q0 14 1 21zM615 1684v-10q0 -44 23 -73t65 -29q49 0 82 43t40 127q0 48 -23 75t-68 27q-51 0 -85 -38.5t-34 -121.5z" />
    <glyph glyph-name="uring" unicode="&#x16f;" 
d="M73 705l-24 56q185 135 280 180q67 31 109 31q30 0 47.5 -18.5t17.5 -58.5q0 -33 -7 -72q-12 -64 -49 -203q-72 -275 -88 -353q-11 -51 -11 -76q0 -21 10 -31t25 -10q20 0 47 17q43 26 109 101t111 152q77 130 119 268.5t50 236.5q113 7 218 39l17 -17q-39 -124 -98 -345
t-77 -322q-11 -66 -11 -96q0 -19 8 -28t21 -9q15 0 32 9q24 13 116 80l19 -56l-111 -85q-65 -48 -115 -78.5t-84 -40.5q-24 -7 -46 -7q-29 0 -47.5 20.5t-18.5 61.5q0 21 4 44q8 52 29 139l57 219q-46 -85 -92 -147q-76 -104 -173 -195t-179 -129q-44 -20 -80 -20
q-44 0 -71 29.5t-27 86.5q0 37 9 84q6 35 44 175q50 185 71 295q15 80 15 109q0 23 -8 33t-21 10q-29 0 -147 -79zM228 1254q10 93 71.5 139t164.5 46q89 0 141 -38.5t52 -111.5q0 -13 -5 -61t-69 -100t-160 -52q-86 0 -141 41.5t-55 115.5q0 14 1 21zM337 1235v-10
q0 -44 23 -73t65 -29q49 0 82 43t40 127q0 48 -23 75t-68 27q-51 0 -85 -38.5t-34 -121.5z" />
    <glyph glyph-name="Uhungarumlaut" unicode="&#x170;" horiz-adv-x="1593" 
d="M1719 1423l-9 -74q-112 1 -141 -10q-14 -6 -23 -16q-13 -15 -24 -60q-26 -107 -77.5 -393t-76.5 -437q-42 -256 -42 -292q0 -28 9 -40t29 -18q37 -11 111 -11l43 1l-11 -73q-188 5 -197 5l-270 -5l-10 12q30 137 49 251q-166 -177 -301 -249q-92 -49 -210 -49
q-96 0 -168 29q-55 23 -99 64.5t-68 86.5q-36 70 -36 144q0 32 2 64q4 46 16 120q20 128 52 297.5t46 256.5q29 177 33 206.5t4 56.5q0 22 -6.5 31.5t-23.5 15.5q-22 9 -68 12q-78 5 -86 5l11 69q22 -1 111 -2l235 -5h12q49 0 116 7l12 -15q-43 -189 -60 -279
q-44 -230 -90 -500q-33 -189 -36.5 -224t-3.5 -68q0 -92 59 -146.5t162 -54.5q74 0 156 37t171 125q58 58 68 85q6 17 41 221q43 246 57 328q55 332 55 368q0 22 -17 32q-28 15 -172 22l9 69h19l331 -7zM1152 1525h-87l243 253l61 63q28 26 45.5 34.5t35.5 8.5
q39 0 64.5 -24.5t25.5 -59.5q0 -27 -16 -48t-67 -48q-30 -17 -39 -22zM804 1525h-87l243 253l61 63q28 26 45.5 34.5t35.5 8.5q39 0 64.5 -24.5t25.5 -59.5q0 -27 -16 -48t-67 -48q-31 -17 -39 -22z" />
    <glyph glyph-name="uhungarumlaut" unicode="&#x171;" 
d="M73 705l-24 56q185 135 280 180q67 31 109 31q30 0 47.5 -18.5t17.5 -58.5q0 -33 -7 -72q-12 -64 -49 -203q-72 -275 -88 -353q-11 -51 -11 -76q0 -21 10 -31t25 -10q20 0 47 17q43 26 109 101t111 152q77 130 119 268.5t50 236.5q113 7 218 39l17 -17q-39 -124 -98 -345
t-77 -322q-11 -66 -11 -96q0 -19 8 -28t21 -9q15 0 32 9q24 13 116 80l19 -56l-111 -85q-65 -48 -115 -78.5t-84 -40.5q-24 -7 -46 -7q-29 0 -47.5 20.5t-18.5 61.5q0 21 4 44q8 52 29 139l57 219q-46 -85 -92 -147q-76 -104 -173 -195t-179 -129q-44 -20 -80 -20
q-44 0 -71 29.5t-27 86.5q0 37 9 84q6 35 44 175q50 185 71 295q15 80 15 109q0 23 -8 33t-21 10q-29 0 -147 -79zM887 1076h-87l243 253l61 63q28 26 45.5 34.5t35.5 8.5q39 0 64.5 -24.5t25.5 -59.5q0 -27 -16 -48t-67 -48q-30 -17 -39 -22zM539 1076h-87l243 253l61 63
q28 26 45.5 34.5t35.5 8.5q39 0 64.5 -24.5t25.5 -59.5q0 -27 -16 -48t-67 -48q-31 -17 -39 -22z" />
    <glyph glyph-name="Uogonek" unicode="&#x172;" horiz-adv-x="1593" 
d="M1719 1423l-9 -74q-112 1 -141 -10q-14 -6 -23 -16q-13 -15 -24 -60q-26 -107 -77.5 -393t-76.5 -437q-42 -256 -42 -292q0 -28 9 -40t29 -18q37 -11 111 -11l43 1l-11 -73q-188 5 -197 5l-270 -5l-10 12q30 137 49 251q-166 -177 -301 -249q-92 -49 -210 -49
q-96 0 -168 29q-55 23 -99 64.5t-68 86.5q-36 70 -36 144q0 32 2 64q4 46 16 120q20 128 52 297.5t46 256.5q29 177 33 206.5t4 56.5q0 22 -6.5 31.5t-23.5 15.5q-22 9 -68 12q-78 5 -86 5l11 69q22 -1 111 -2l235 -5h12q49 0 116 7l12 -15q-43 -189 -60 -279
q-44 -230 -90 -500q-33 -189 -36.5 -224t-3.5 -68q0 -92 59 -146.5t162 -54.5q74 0 156 37t171 125q58 58 68 85q6 17 41 221q43 246 57 328q55 332 55 368q0 22 -17 32q-28 15 -172 22l9 69h19l331 -7zM1330 -147l48 -26q-90 -89 -135 -116q-70 -42 -149 -42
q-65 0 -101 35.5t-36 96.5q0 41 15 75.5t52 75.5q28 30 116 103h88q-83 -74 -103.5 -109t-20.5 -67q0 -42 26.5 -68.5t69.5 -26.5q32 0 62 15.5t68 53.5z" />
    <glyph glyph-name="uogonek" unicode="&#x173;" 
d="M73 705l-24 56q185 135 280 180q67 31 109 31q30 0 47.5 -18.5t17.5 -58.5q0 -33 -7 -72q-12 -64 -49 -203q-72 -275 -88 -353q-11 -51 -11 -76q0 -21 10 -31t25 -10q20 0 47 17q43 26 109 101t111 152q77 130 119 268.5t50 236.5q113 7 218 39l17 -17q-39 -124 -98 -345
t-77 -322q-11 -66 -11 -96q0 -19 8 -28t21 -9q15 0 32 9q24 13 116 80l19 -56l-111 -85q-65 -48 -115 -78.5t-84 -40.5q-24 -7 -46 -7q-29 0 -47.5 20.5t-18.5 61.5q0 21 4 44q8 52 29 139l57 219q-46 -85 -92 -147q-76 -104 -173 -195t-179 -129q-44 -20 -80 -20
q-44 0 -71 29.5t-27 86.5q0 37 9 84q6 35 44 175q50 185 71 295q15 80 15 109q0 23 -8 33t-21 10q-29 0 -147 -79zM925 -166l48 -26q-90 -89 -135 -116q-70 -42 -149 -42q-65 0 -101 35.5t-36 96.5q0 41 15 75.5t52 75.5q28 30 116 103h88q-83 -74 -103.5 -109t-20.5 -67
q0 -42 26.5 -68.5t69.5 -26.5q32 0 62 15.5t68 53.5z" />
    <glyph glyph-name="Wcircumflex" unicode="&#x174;" horiz-adv-x="2048" 
d="M428 -17q-12 124 -38 432q-23 273 -60 612q-25 229 -43 261q-5 9 -16 15q-27 14 -127 12l5 70q147 -4 315 -4q154 0 280 4v-70h-18q-86 1 -117 -8q-17 -6 -24 -17q-11 -17 -11 -56q0 -30 4 -95l13 -177l59 -664l190 390l92 181l256 530h65l301 -1130l206 526l40 109
q47 122 64 171q37 110 48 161q3 15 3 29q0 17 -5 25t-19 14q-19 7 -50 9q-60 3 -101 2l9 70q179 -6 253 -6q94 0 191 6l-6 -70h-9q-43 1 -71 -5q-9 -2 -16 -8q-11 -8 -20.5 -26.5t-73.5 -170.5q-96 -228 -99 -236q-5 -14 -12 -31l-226 -551l-23 -52q-26 -66 -97 -252h-172
q-22 100 -79 313l-30 115l-159 584l-502 -1012h-170zM1243 1850h141l176 -349h-90l-178 204l-271 -204h-101z" />
    <glyph glyph-name="wcircumflex" unicode="&#x175;" horiz-adv-x="1706" 
d="M50 680q47 133 60.5 181t19.5 91q58 12 100 12q46 0 107 -6q115 -10 171 -10q89 0 146 23l29 -33q-93 -103 -159.5 -226.5t-97.5 -246.5q-19 -75 -19 -161q0 -123 38 -169q28 -35 67 -35q25 0 55 15q39 20 82 70q66 76 108 163t68 176t60 248q22 106 21 145
q126 22 218 53l26 -18q-26 -79 -63 -233t-45 -193q-11 -58 -20.5 -135t-9.5 -131q0 -85 33.5 -124t83.5 -39q50 1 123 56q106 107 161 256t55 282q0 62 -22 87.5t-61 25.5q-29 0 -62 -13l-28 47q83 57 142 120q33 7 56 7q35 0 60 -17q40 -26 60.5 -70t20.5 -114
q0 -151 -80 -318q-64 -132 -165 -249t-203.5 -174.5t-184.5 -57.5q-71 0 -131 54t-60 177q0 55 19 158l-64 -110q-26 -43 -66 -89q-63 -74 -120.5 -117t-106.5 -60q-36 -13 -78 -13q-89 0 -150.5 72t-61.5 211q0 94 32.5 184t107.5 186q54 71 204 222q-35 -11 -56 -14
t-40 -4l-97 -3l-76 2q-29 0 -55.5 -3t-37.5 -25t-24 -52q-20 -45 -28 -61h-62zM1071 1424h141l176 -349h-90l-178 204l-271 -204h-101z" />
    <glyph glyph-name="Ycircumflex" unicode="&#x176;" horiz-adv-x="1251" 
d="M274 0l7 71q45 -2 93.5 1t67 12.5t28.5 26.5q14 24 22 81l22 118q13 71 25 154q4 27 4 40q0 41 -33.5 163.5t-70 235.5t-74.5 182.5t-73 101.5q-20 18 -44 26q-31 10 -59 15q-36 2 -76 0l-6 47q70 46 125 85q48 37 76 55q27 4 44 4q48 0 89.5 -17.5t81.5 -63.5
q53 -60 96 -176t83 -289l54 -252q62 145 97 211q87 163 179 292t164 193q52 47 102 68q34 14 96 16q-7 -96 11 -181q-89 -11 -172 -61q-82 -58 -184 -197q-128 -173 -209 -375q-35 -85 -68 -265q-26 -143 -26 -190q0 -23 10.5 -35.5t36.5 -18.5q43 -9 157 -9l-8 -69
q-182 9 -307 9q-97 0 -361 -9zM882 1870h141l176 -349h-90l-178 204l-271 -204h-101z" />
    <glyph glyph-name="ycircumflex" unicode="&#x177;" 
d="M48 -357l126 80l30 -13q-2 -21 -2 -35q0 -55 34 -95.5t99 -40.5q39 0 77 19t77 67.5t79 153.5t90 297l66 263q-96 -133 -151 -192q-100 -106 -180 -149q-53 -29 -86 -29q-38 0 -69 43.5t-31 153.5v34q1 10 2 23l23 223q13 110 16 153q5 84 5 91q0 52 -4 68
q-3 12 -12.5 19.5t-20.5 7.5q-15 0 -47 -18q-56 -31 -113 -77l-26 57l185 140q69 48 120 69q39 15 66 15q36 0 55 -25q26 -34 26 -100q0 -25 -2 -58l-45 -405q-8 -115 -8 -145q0 -44 6 -63q3 -13 12.5 -20.5t17.5 -7.5q12 0 32 12q53 32 113 113t105.5 176.5t76.5 193.5
q46 147 63 275q149 31 229 49l23 -18q-47 -118 -140 -473q-78 -298 -121 -423q-70 -198 -169.5 -337.5t-230.5 -215.5q-94 -54 -187 -54q-101 0 -155 48.5t-54 127.5v22zM688 1424h141l176 -349h-90l-178 204l-271 -204h-101z" />
    <glyph glyph-name="Zacute" unicode="&#x179;" horiz-adv-x="1366" 
d="M6 0v59q34 32 116.5 130.5t226.5 277.5l660 822h-258q-151 0 -258 -7.5t-143 -17.5q-13 -12 -25 -43q-29 -74 -56 -173h-73q47 249 55 337l14 14q349 -8 640 -8q128 0 179 1l297 7v-64q-40 -43 -90 -101q-85 -100 -171 -206l-168 -211l-564 -707h288q204 0 316 8
q78 7 144 24q53 93 92 233h74q-34 -136 -46 -191.5t-33 -175.5l-10 -8q-44 -2 -66 -2l-269 8q-133 2 -567 2q-86 0 -137 -1zM657 1501h-87l243 253l61 63q28 26 45.5 34.5t35.5 8.5q39 0 64.5 -24.5t25.5 -59.5q0 -27 -16 -48t-67 -48q-31 -17 -39 -22z" />
    <glyph glyph-name="zacute" unicode="&#x17a;" horiz-adv-x="1024" 
d="M54 61l689 716q-74 -37 -154 -37q-56 0 -160.5 13.5t-137.5 13.5q-18 0 -43 -3q-14 -26 -49 -106l-57 5l92 287q55 18 104 18q42 0 87.5 -7.5t123 -28.5t127 -29t94.5 -8q51 0 82 17.5t56 56.5l40 -16l-28 -104l-666 -685q73 31 112.5 41t76.5 10q52 0 158.5 -19
t150.5 -19q17 0 49 4l53 116l56 -5q-40 -113 -76 -289q-51 -27 -118 -27q-49 0 -92 7q-28 4 -162.5 38.5t-222.5 34.5q-101 0 -160 -67zM510 1073h-87l243 253l61 63q28 26 45.5 34.5t35.5 8.5q39 0 64.5 -24.5t25.5 -59.5q0 -27 -16 -48t-67 -48q-31 -17 -39 -22z" />
    <glyph glyph-name="Zdotaccent" unicode="&#x17b;" horiz-adv-x="1366" 
d="M6 0v59q34 32 116.5 130.5t226.5 277.5l660 822h-258q-151 0 -258 -7.5t-143 -17.5q-13 -12 -25 -43q-29 -74 -56 -173h-73q47 249 55 337l14 14q349 -8 640 -8q128 0 179 1l297 7v-64q-40 -43 -90 -101q-85 -100 -171 -206l-168 -211l-564 -707h288q204 0 316 8
q78 7 144 24q53 93 92 233h74q-34 -136 -46 -191.5t-33 -175.5l-10 -8q-44 -2 -66 -2l-269 8q-133 2 -567 2q-86 0 -137 -1zM793 1742q50 0 85 -35t35 -85t-35.5 -85.5t-85.5 -35.5q-49 0 -84.5 35.5t-35.5 85.5t35 85t86 35z" />
    <glyph glyph-name="zdotaccent" unicode="&#x17c;" horiz-adv-x="1024" 
d="M54 61l689 716q-74 -37 -154 -37q-56 0 -160.5 13.5t-137.5 13.5q-18 0 -43 -3q-14 -26 -49 -106l-57 5l92 287q55 18 104 18q42 0 87.5 -7.5t123 -28.5t127 -29t94.5 -8q51 0 82 17.5t56 56.5l40 -16l-28 -104l-666 -685q73 31 112.5 41t76.5 10q52 0 158.5 -19
t150.5 -19q17 0 49 4l53 116l56 -5q-40 -113 -76 -289q-51 -27 -118 -27q-49 0 -92 7q-28 4 -162.5 38.5t-222.5 34.5q-101 0 -160 -67zM663 1314q50 0 85 -35t35 -85t-35.5 -85.5t-85.5 -35.5q-49 0 -84.5 35.5t-35.5 85.5t35 85t86 35z" />
    <glyph glyph-name="Scommaaccent" unicode="&#x218;" 
d="M91 75q11 42 29.5 149.5t22.5 161.5h66l-2 -114q0 -21 2 -61q32 -48 120 -90.5t188 -42.5q164 0 234 73t70 180q0 53 -11.5 89.5t-39 62t-69 41.5t-143.5 48q-178 45 -247 105q-95 83 -95 242q0 201 161 352.5t396 151.5q91 0 169.5 -23t144.5 -69q-19 -73 -30 -131.5
t-26 -169.5h-65q2 40 2 70q0 13 -2 94q-22 30 -45 47q-36 27 -93 46.5t-128 19.5q-90 0 -155.5 -35t-97.5 -93.5t-33 -145.5q1 -78 29 -119t129 -75q130 -30 207.5 -52.5t137 -51t93 -93.5t33.5 -152q0 -145 -92 -269t-217.5 -190t-281.5 -66q-103 0 -198 29t-163 81z
M208 -770l-37 30q72 102 133.5 264.5t69.5 270.5q137 25 258 70l33 -30l-92 -175q-46 -82 -110 -173.5t-148 -186.5z" />
    <glyph glyph-name="scommaaccent" unicode="&#x219;" horiz-adv-x="909" 
d="M95 298h62l3 -96q43 -50 112.5 -83.5t143.5 -33.5q64 0 105.5 19.5t61 57t19.5 74.5t-18 68t-46.5 45.5t-108.5 29.5q-140 27 -186.5 54.5t-73.5 78t-27 108.5q0 55 23 109q18 40 50 72t116.5 84.5t133 69.5t115.5 17q66 0 128.5 -15.5t122.5 -47.5q-20 -91 -37 -239h-60
l-12 99q-48 45 -109 68t-119 23q-45 0 -84.5 -19t-59.5 -52.5t-20 -72.5q0 -55 38 -90t174 -59q88 -16 111 -24q44 -14 77.5 -42t53.5 -71.5t20 -93.5q0 -73 -32 -123t-107 -110t-134 -89q-83 -40 -204 -40q-70 0 -128 11q-42 8 -146 46q12 41 23 117q17 108 19 150zM6 -761
l-37 30q72 102 133.5 264.5t69.5 270.5q137 25 258 70l33 -30l-92 -175q-46 -82 -110 -173.5t-148 -186.5z" />
    <glyph glyph-name="Tcommaaccent" unicode="&#x21a;" horiz-adv-x="1251" 
d="M211 0l8 71q126 -2 156 9q15 5 25 17q14 18 26 76q33 160 95.5 516.5t102.5 596.5l-60 1q-257 0 -293.5 -26.5t-78.5 -219.5h-74q27 145 51 341l11 12l255 -10q115 -4 264 -4q208 0 454 6q129 4 209 13l14 -17q-43 -218 -50.5 -261.5t-10.5 -79.5h-75q10 85 10 155
q0 51 -9.5 63t-35.5 18q-46 10 -202 10q-73 0 -111 -1l-88 -461q-39 -206 -79 -450q-27 -163 -31 -209q-2 -20 -2 -38q0 -23 9 -34t33 -16q35 -7 152 -7l-8 -71q-260 8 -345 8q-106 0 -322 -8zM251 -735l-37 30q72 102 133.5 264.5t69.5 270.5q137 25 258 70l33 -30
l-92 -175q-46 -82 -110 -173.5t-148 -186.5z" />
    </font>
</defs>
</svg>
