<?xml version="1.0" standalone="no"?>
<!DOCTYPE svg PUBLIC "-//W3C//DTD SVG 1.1//EN" "http://www.w3.org/Graphics/SVG/1.1/DTD/svg11.dtd" >
<svg xmlns="http://www.w3.org/2000/svg" xmlns:xlink="http://www.w3.org/1999/xlink" version="1.1">
<metadata>
Created by FontForge 20161116 at Fri Oct  4 15:45:27 2013
 By Jimmy Warting
Sharp Sans is a trademark of Lucas Sharp.
</metadata>
<defs>
<font id="SharpSansNo1-Ultrathin" horiz-adv-x="588" >
  <font-face 
    font-family="Sharp Sans No1 Ultrathin"
    font-weight="600"
    font-stretch="normal"
    units-per-em="1000"
    panose-1="0 0 0 0 0 0 0 0 0 0"
    ascent="750"
    descent="-250"
    x-height="500"
    cap-height="730"
    bbox="-91 -288 1329 1062"
    underline-thickness="50"
    underline-position="-100"
    unicode-range="U+0020-F60B"
  />
<missing-glyph horiz-adv-x="900" 
d="M85 0v730h730v-730h-730zM450 331l-283 -283h566zM167 682l283 -283l283 283h-566zM484 365l283 -283v566zM416 365l-283 283v-566z" />
    <glyph glyph-name="interrobang" unicode="&#x21;&#x3f;" horiz-adv-x="522" 
d="M253 192c0 34 -1 354 -1 421v118c-92 -3 -151 -44 -184 -109l-8 5c33 67 98 113 200 113c110 0 196 -64 196 -159c0 -185 -193 -124 -193 -382v-7h-10zM446 581c0 88 -82 149 -184 150v-118c0 -51 -2 -233 -2 -337c33 176 186 147 186 305zM253 0v137h10v-137h-10z" />
    <glyph glyph-name="interrobangdown" unicode="&#xa1;&#xbf;" horiz-adv-x="522" 
d="M258 -240c-111 0 -196 64 -196 159c0 186 192 125 192 382v7h11c0 -34 1 -354 1 -421v-118c91 3 151 44 183 109l9 -5c-33 -67 -99 -113 -200 -113zM72 -81c0 -88 80 -149 183 -150v118c0 51 1 235 2 339c-33 -179 -185 -149 -185 -307zM265 500v-137h-11v137h11z" />
    <glyph glyph-name=".notdef" horiz-adv-x="900" 
d="M85 0v730h730v-730h-730zM450 331l-283 -283h566zM167 682l283 -283l283 283h-566zM484 365l283 -283v566zM416 365l-283 283v-566z" />
    <glyph glyph-name="B" unicode="B" horiz-adv-x="657" 
d="M83 0v730h310c103 0 189 -81 189 -179c0 -88 -60 -157 -142 -174c90 -16 155 -92 155 -186c0 -105 -83 -191 -190 -191h-322zM405 373h-312v-363h310c102 0 182 81 182 181c0 101 -80 182 -180 182zM392 721h-299v-339h311c92 0 168 75 168 169c0 93 -79 170 -180 170z
" />
    <glyph glyph-name="C" unicode="C" horiz-adv-x="817" 
d="M434 -10c-207 0 -375 168 -375 375s168 375 375 375c134 0 249 -70 315 -174l-8 -5c-64 101 -175 170 -307 170c-201 0 -364 -164 -364 -366c0 -201 163 -366 364 -366c133 0 254 72 318 180l9 -4c-66 -111 -190 -185 -327 -185z" />
    <glyph glyph-name="D" unicode="D" horiz-adv-x="722" 
d="M83 0v730h207c204 0 373 -160 373 -366s-169 -364 -374 -364h-206zM290 721h-197v-711h196c199 0 363 154 363 354s-164 357 -362 357z" />
    <glyph glyph-name="E" unicode="E" horiz-adv-x="603" 
d="M83 0v730h454v-9h-444v-351h444v-9h-444v-351h444v-10h-454z" />
    <glyph glyph-name="F" unicode="F" horiz-adv-x="551" 
d="M83 0v730h413v-9h-403v-351h403v-9h-403v-361h-10z" />
    <glyph glyph-name="G" unicode="G" horiz-adv-x="861" 
d="M437 -10c-219 0 -378 168 -378 375s171 375 380 375c139 0 251 -65 316 -170l-8 -5c-62 104 -173 166 -309 166c-203 0 -368 -164 -368 -366c0 -201 154 -366 367 -366c209 0 357 156 361 356h-367v9h376v-2c0 -207 -150 -372 -370 -372z" />
    <glyph glyph-name="H" unicode="H" horiz-adv-x="695" 
d="M602 0v361h-509v-361h-10v730h10v-360h509v360h10v-730h-10z" />
    <glyph glyph-name="I" unicode="I" horiz-adv-x="196" 
d="M93 0v730h10v-730h-10z" />
    <glyph glyph-name="J" unicode="J" horiz-adv-x="494" 
d="M227 -10c-90 0 -150 40 -177 107l9 4c24 -62 82 -102 168 -102c118 0 176 80 176 184v547h10v-547c0 -110 -62 -193 -186 -193z" />
    <glyph glyph-name="K" unicode="K" horiz-adv-x="657" 
d="M606 0l-305 426l-207 -228v-198h-10v730h10v-518l469 518h14l-269 -296l311 -434h-13z" />
    <glyph glyph-name="L" unicode="L" horiz-adv-x="532" 
d="M83 0v730h10v-720h395v-10h-405z" />
    <glyph glyph-name="M" unicode="M" horiz-adv-x="881" 
d="M83 0v730h10l342 -471l354 471h9v-730l-10 -1v713l-353 -470l-342 470v-712h-10z" />
    <glyph glyph-name="N" unicode="N" horiz-adv-x="749" 
d="M83 0v730h10l563 -714v714h10v-730h-10l-563 714v-714h-10z" />
    <glyph glyph-name="O" unicode="O" horiz-adv-x="868" 
d="M434 -10c-207 0 -375 168 -375 375s168 375 375 375s375 -168 375 -375s-168 -375 -375 -375zM434 -1c202 0 365 165 365 366c0 202 -163 366 -365 366c-201 0 -364 -164 -364 -366c0 -201 163 -366 364 -366z" />
    <glyph glyph-name="P" unicode="P" horiz-adv-x="614" 
d="M83 0v730h204c167 0 269 -101 269 -240c0 -138 -102 -242 -269 -242h-194v-248h-10zM287 721h-194v-463h194c160 0 259 99 259 232c0 134 -99 231 -259 231z" />
    <glyph glyph-name="Q" unicode="Q" horiz-adv-x="868" 
d="M756 0l-244 266h14l155 -170c72 67 118 164 118 269c0 202 -163 366 -365 366c-201 0 -364 -164 -364 -366c0 -201 163 -366 364 -366c74 0 140 23 197 60l7 -8c-58 -38 -128 -61 -204 -61c-207 0 -375 168 -375 375s168 375 375 375s375 -168 375 -375
c0 -109 -47 -207 -121 -276l82 -89h-14z" />
    <glyph glyph-name="R" unicode="R" horiz-adv-x="583" 
d="M83 0v730h221c119 0 220 -98 220 -218s-97 -215 -214 -217l216 -295h-13l-221 303h11c114 0 211 93 211 209c0 114 -97 209 -210 209h-211v-721h-10z" />
    <glyph glyph-name="S" unicode="S" horiz-adv-x="544" 
d="M256 -10c-85 0 -168 39 -211 87l8 6c41 -45 122 -84 203 -84c116 0 219 69 219 194c0 120 -100 156 -202 187c-105 32 -208 62 -208 186c0 109 91 174 201 174c87 0 150 -33 189 -78l-8 -6c-37 43 -97 75 -181 75c-104 0 -191 -62 -191 -165c0 -118 100 -146 203 -177
c103 -32 207 -71 207 -196c0 -129 -104 -203 -229 -203z" />
    <glyph glyph-name="T" unicode="T" horiz-adv-x="611" 
d="M300 0v721h-247v9h506v-9h-249v-721h-10z" />
    <glyph glyph-name="U" unicode="U" horiz-adv-x="660" 
d="M330 -10c-140 0 -248 112 -248 247v493h10v-491c0 -133 105 -240 238 -240c132 0 239 107 239 241v490h10v-492c0 -136 -110 -248 -249 -248z" />
    <glyph glyph-name="V" unicode="V" horiz-adv-x="682" 
d="M336 0l-292 730h11l285 -715l287 715h11l-292 -730h-10z" />
    <glyph glyph-name="W" unicode="W" horiz-adv-x="1078" 
d="M275 0l-220 730h11l214 -713l255 713h9l255 -714l213 714h11l-218 -730h-10l-256 714l-254 -714h-10z" />
    <glyph glyph-name="X" unicode="X" horiz-adv-x="646" 
d="M592 0l-269 373l-267 -373h-12l274 381l-250 349h12l244 -341l242 341h12l-249 -349l275 -381h-12z" />
    <glyph glyph-name="Y" unicode="Y" horiz-adv-x="597" 
d="M295 0v350l-252 380h13l243 -369l243 369h13l-250 -380v-350h-10z" />
    <glyph glyph-name="Z" unicode="Z" horiz-adv-x="594" 
d="M52 0v10l474 711h-447v9h459v-9l-475 -711h480v-10h-491z" />
    <glyph glyph-name="a" unicode="a" horiz-adv-x="650" 
d="M314 -10c-144 0 -260 116 -260 260s116 260 260 260c118 0 220 -79 248 -195v185h9v-500h-9v186c-28 -117 -130 -196 -248 -196zM314 -1c138 0 249 113 249 251c0 139 -111 251 -249 251c-139 0 -250 -112 -250 -251c0 -138 111 -251 250 -251z" />
    <glyph glyph-name="b" unicode="b" horiz-adv-x="653" 
d="M340 -10c-118 0 -219 78 -248 192v-182h-10v730h10v-412c29 115 130 192 248 192c144 0 260 -116 260 -260s-116 -260 -260 -260zM340 -1c138 0 249 113 249 251c0 139 -111 251 -249 251c-139 0 -250 -112 -250 -251c0 -138 111 -251 250 -251z" />
    <glyph glyph-name="c" unicode="c" horiz-adv-x="608" 
d="M314 -10c-144 0 -260 117 -260 260c0 144 116 260 260 260c108 0 200 -64 239 -158l-10 -4c-38 90 -125 153 -229 153c-139 0 -250 -113 -250 -251s111 -251 250 -251c103 0 191 63 229 153l10 -4c-39 -93 -131 -158 -239 -158z" />
    <glyph glyph-name="d" unicode="d" horiz-adv-x="653" 
d="M314 -10c-144 0 -260 116 -260 260s116 260 260 260c118 0 220 -79 248 -195v415h9v-730h-9v186c-28 -117 -130 -196 -248 -196zM314 -1c138 0 249 113 249 251c0 139 -111 251 -249 251c-139 0 -250 -112 -250 -251c0 -138 111 -251 250 -251z" />
    <glyph glyph-name="e" unicode="e" horiz-adv-x="623" 
d="M315 -10c-160 0 -261 112 -261 260c0 145 114 260 260 260c150 0 255 -116 255 -259v-6h-506c2 -140 100 -246 252 -246c118 0 201 67 236 175l9 -4c-37 -111 -121 -180 -245 -180zM314 501c-139 0 -249 -109 -251 -247h496c-2 136 -102 247 -245 247z" />
    <glyph glyph-name="f" unicode="f" horiz-adv-x="322" 
d="M36 492v8h84v69c0 134 35 161 158 161h1v-10c-117 0 -149 -20 -149 -151v-69h149v-8h-149v-492h-10v492h-84z" />
    <glyph glyph-name="g" unicode="g" horiz-adv-x="648" 
d="M314 -10c-144 0 -260 116 -260 260s116 260 260 260c117 0 218 -77 247 -192v182h10v-489c0 -156 -104 -251 -249 -251c-123 0 -196 51 -231 138l9 4c34 -84 105 -132 222 -132c139 0 239 90 239 242v170c-29 -114 -130 -192 -247 -192zM314 -1c138 0 249 113 249 251
c0 139 -111 251 -249 251c-139 0 -250 -112 -250 -251c0 -138 111 -251 250 -251z" />
    <glyph glyph-name="h" unicode="h" horiz-adv-x="618" 
d="M83 0v730h9v-390c19 94 109 170 222 170c135 0 229 -89 229 -231v-279h-9v280c0 134 -88 221 -220 221c-122 0 -222 -91 -222 -216v-285h-9z" />
    <glyph glyph-name="i" unicode="i" horiz-adv-x="168" 
d="M79 0v500h10v-500h-10zM79 579v151h10v-151h-10z" />
    <glyph glyph-name="j" unicode="j" horiz-adv-x="169" 
d="M-70 -231v10c119 0 150 25 150 155v566h10v-567c0 -133 -34 -164 -159 -164h-1zM80 579v151h10v-151h-10z" />
    <glyph glyph-name="k" unicode="k" horiz-adv-x="497" 
d="M451 0l-220 290l-139 -147v-143h-9v730h9v-575l325 345h13l-192 -203l225 -297h-12z" />
    <glyph glyph-name="l" unicode="l" horiz-adv-x="175" 
d="M83 0v730h9v-730h-9z" />
    <glyph glyph-name="m" unicode="m" horiz-adv-x="1031" 
d="M79 0v500h9v-162c16 96 102 172 213 172c121 0 199 -70 214 -180c13 102 104 180 220 180c131 0 221 -92 221 -231v-279h-9v280c0 131 -84 221 -213 221c-119 0 -214 -82 -214 -212v-289h-10v289c0 131 -80 212 -209 212c-119 0 -212 -91 -212 -216v-285h-10z" />
    <glyph glyph-name="n" unicode="n" horiz-adv-x="616" 
d="M79 0v500h9v-163c18 95 109 173 223 173c135 0 229 -89 229 -231v-279h-10v280c0 134 -87 221 -219 221c-122 0 -222 -91 -222 -216v-285h-10z" />
    <glyph glyph-name="o" unicode="o" horiz-adv-x="627" 
d="M314 -10c-144 0 -260 117 -260 260c0 144 116 260 260 260s260 -116 260 -260c0 -143 -116 -260 -260 -260zM314 -1c138 0 249 113 249 251s-111 251 -249 251c-139 0 -250 -113 -250 -251s111 -251 250 -251z" />
    <glyph glyph-name="p" unicode="p" horiz-adv-x="650" 
d="M337 -10c-118 0 -219 78 -248 192v-412h-10v730h10v-182c29 115 130 192 248 192c144 0 260 -116 260 -260s-116 -260 -260 -260zM337 -1c138 0 249 113 249 251c0 139 -111 251 -249 251c-139 0 -250 -112 -250 -251c0 -138 111 -251 250 -251z" />
    <glyph glyph-name="q" unicode="q" horiz-adv-x="650" 
d="M314 -10c-144 0 -260 116 -260 260s116 260 260 260c118 0 220 -79 248 -195v185h9v-730h-9v416c-28 -117 -130 -196 -248 -196zM314 -1c138 0 249 113 249 251c0 139 -111 251 -249 251c-139 0 -250 -112 -250 -251c0 -138 111 -251 250 -251z" />
    <glyph glyph-name="r" unicode="r" horiz-adv-x="368" 
d="M79 0v500h9v-179c19 101 104 179 220 179h12v-9h-12c-126 0 -219 -97 -219 -226v-265h-10z" />
    <glyph glyph-name="s" unicode="s" horiz-adv-x="449" 
d="M219 -10c-83 0 -151 43 -181 90l8 5c29 -47 96 -86 173 -86c111 0 167 62 167 133c0 81 -81 103 -162 126c-82 22 -160 48 -160 128c0 73 61 124 157 124c68 0 118 -25 154 -65l-8 -6c-34 40 -82 62 -146 62c-90 0 -148 -46 -148 -114c0 -77 76 -99 156 -121
c83 -24 166 -47 166 -134c0 -78 -63 -142 -176 -142z" />
    <glyph glyph-name="t" unicode="t" horiz-adv-x="317" 
d="M26 492v8h89v118l9 10v-128h149v-8h-149v-330c0 -129 31 -153 149 -153v-9h-2c-123 0 -156 29 -156 161v331h-89z" />
    <glyph glyph-name="u" unicode="u" horiz-adv-x="617" 
d="M307 -10c-132 0 -230 85 -230 227v283h10v-284c0 -134 91 -217 220 -217c122 0 222 91 222 216v285h9v-500h-9v162c-20 -98 -109 -172 -222 -172z" />
    <glyph glyph-name="v" unicode="v" horiz-adv-x="496" 
d="M243 0l-198 500h11l192 -486l193 486h11l-198 -500h-11z" />
    <glyph glyph-name="w" unicode="w" horiz-adv-x="808" 
d="M201 0l-155 500h11l148 -479l202 479h8l182 -481l156 481h11l-162 -500h-8l-184 484l-202 -484h-7z" />
    <glyph glyph-name="x" unicode="x" horiz-adv-x="520" 
d="M42 0l212 257l-199 243h12l192 -236l193 236h11l-198 -244l210 -256h-12l-204 250l-204 -250h-13z" />
    <glyph glyph-name="y" unicode="y" horiz-adv-x="558" 
d="M159 -231l122 259l-235 472h11l230 -461l216 461h11l-343 -731h-12z" />
    <glyph glyph-name="z" unicode="z" horiz-adv-x="541" 
d="M48 0v9l427 482h-409v9h423v-8l-427 -483h431v-9h-445z" />
    <glyph glyph-name="exclam" unicode="!" horiz-adv-x="248" 
d="M122 210c0 34 -2 336 -2 403v117h11v-117c0 -67 -1 -369 -1 -403h-8zM120 0v137h11v-137h-11z" />
    <glyph glyph-name="exclamdown" unicode="&#xa1;" horiz-adv-x="248" 
d="M120 -230v117c0 67 1 369 1 403h8c0 -34 1 -336 1 -403v-117h-10zM120 363v137h10v-137h-10z" />
    <glyph glyph-name="question" unicode="?" horiz-adv-x="522" 
d="M243 192v7c0 259 203 205 203 384c0 88 -84 148 -187 148c-96 0 -157 -42 -191 -109l-8 5c33 67 97 113 199 113c110 0 197 -63 197 -157c0 -188 -202 -128 -202 -384v-7h-11zM244 0v137h10v-137h-10z" />
    <glyph glyph-name="questiondown" unicode="&#xbf;" horiz-adv-x="522" 
d="M257 -240c-111 0 -197 63 -197 157c0 188 202 129 202 384v7h10v-7c0 -259 -202 -205 -202 -384c0 -88 83 -148 187 -148c96 0 157 42 190 109l9 -5c-33 -67 -98 -113 -199 -113z" />
    <glyph glyph-name="period" unicode="." horiz-adv-x="165" 
d="M78 0v137h10v-137h-10z" />
    <glyph glyph-name="ellipsis" unicode="&#x2026;" horiz-adv-x="372" 
d="M78 0v137h10v-137h-10zM181 0v137h10v-137h-10zM284 0v137h11v-137h-11z" />
    <glyph glyph-name="comma" unicode="," horiz-adv-x="165" 
d="M39 -117l51 204h12l-54 -204h-9z" />
    <glyph glyph-name="colon" unicode=":" horiz-adv-x="165" 
d="M77 0v137h11v-137h-11zM77 363v137h11v-137h-11z" />
    <glyph glyph-name="semicolon" unicode=";" horiz-adv-x="165" 
d="M77 363v137h11v-137h-11zM39 -117l51 204h12l-54 -204h-9z" />
    <glyph glyph-name="underscore" unicode="_" horiz-adv-x="470" 
d="M56 -20v10h359v-10h-359z" />
    <glyph glyph-name="quotesingle" unicode="'" horiz-adv-x="165" 
d="M86 500h-6c-1 36 -2 116 -2 146v84h10v-84c0 -16 -1 -133 -2 -146z" />
    <glyph glyph-name="quotedbl" unicode="&#x22;" horiz-adv-x="249" 
d="M80 500c-1 36 -2 116 -2 146v84h10v-84c0 -16 -1 -133 -2 -146h-6zM164 500c-1 36 -2 116 -2 146v84h10v-84c0 -16 -1 -133 -2 -146h-6z" />
    <glyph glyph-name="quoteleft" unicode="&#x2018;" horiz-adv-x="163" 
d="M62 730l50 -204h-9l-53 204h12z" />
    <glyph glyph-name="quoteright" unicode="&#x2019;" horiz-adv-x="163" 
d="M59 526h-9l50 204h13z" />
    <glyph glyph-name="quotesinglbase" unicode="&#x201a;" horiz-adv-x="165" 
d="M48 -117h-9l51 204h12z" />
    <glyph glyph-name="quotedblleft" unicode="&#x201c;" horiz-adv-x="234" 
d="M63 730l49 -204h-9l-53 204h13zM139 730l49 -204h-9l-53 204h13z" />
    <glyph glyph-name="quotedblright" unicode="&#x201d;" horiz-adv-x="234" 
d="M59 526h-9l50 204h13zM132 526h-9l51 204h12z" />
    <glyph glyph-name="quotedblbase" unicode="&#x201e;" horiz-adv-x="236" 
d="M48 -117h-9l51 204h12zM120 -117h-9l51 204h12z" />
    <glyph glyph-name="guillemotleft.cap" unicode="&#xe453;" horiz-adv-x="420" 
d="M211 236l-138 119v8l138 119v-12l-129 -112l129 -110v-12zM347 236l-137 119v8l137 119v-12l-128 -112l128 -110v-12z" />
    <glyph glyph-name="guillemotright.cap" unicode="&#xe454;" horiz-adv-x="420" 
d="M73 236v12l129 110l-129 112v12l138 -119v-8zM210 236v12l128 110l-128 112v12l137 -119v-8z" />
    <glyph glyph-name="guilsinglleft.cap" unicode="&#xe451;" horiz-adv-x="283" 
d="M211 236l-138 119v8l138 119v-12l-129 -112l129 -110v-12z" />
    <glyph glyph-name="guilsinglright.cap" unicode="&#xe452;" horiz-adv-x="283" 
d="M77 236v12l129 110l-129 112v12l138 -119v-8z" />
    <glyph glyph-name="ampersand" unicode="&#x26;" horiz-adv-x="768" 
d="M682 0l-99 97c-63 -64 -145 -107 -242 -107c-195 0 -280 129 -280 235c0 110 64 191 161 234c-37 44 -57 81 -57 129c0 80 59 152 166 152c61 0 121 -29 149 -70l-8 -6c-27 41 -85 68 -141 68c-99 0 -157 -67 -157 -144c0 -67 43 -114 120 -189l290 -289
c80 86 125 207 128 311h-203v9h212v-2c0 -108 -48 -235 -131 -324l105 -104h-13zM341 -2c95 0 175 42 236 105l-289 288c-23 23 -43 42 -60 61c-95 -42 -157 -119 -157 -227c0 -100 81 -227 270 -227z" />
    <glyph glyph-name="at" unicode="@" horiz-adv-x="881" 
d="M439 -125c-207 0 -373 167 -373 375c0 207 177 375 384 375s363 -156 363 -337c0 -97 -53 -212 -144 -212c-73 0 -105 52 -102 127c-13 -56 -58 -128 -148 -128c-83 0 -156 70 -142 185c15 115 92 176 177 175c82 0 121 -64 122 -134c7 63 15 128 15 128h8l-21 -194
c-11 -101 23 -151 91 -151c77 0 133 97 133 204c0 175 -151 328 -352 328c-202 0 -373 -164 -373 -366s160 -366 362 -366c105 0 199 44 265 115l9 -6c-69 -74 -167 -118 -274 -118zM420 85c94 0 141 81 149 171c10 93 -25 170 -115 170c-81 0 -153 -62 -167 -166
c-13 -97 44 -175 133 -175z" />
    <glyph glyph-name="section" unicode="&#xa7;" horiz-adv-x="610" 
d="M311 -10c-151 0 -210 70 -210 161h10c0 -88 58 -152 200 -152c106 0 193 55 193 139c0 92 -98 102 -204 119c-116 18 -225 42 -225 134c0 47 33 93 90 115c-34 19 -56 48 -56 94c0 84 74 140 189 140c143 0 202 -67 202 -150h-10c0 81 -57 141 -192 141
c-104 0 -179 -49 -179 -131c0 -90 90 -110 192 -127c107 -17 218 -34 218 -129c0 -44 -28 -89 -84 -111c41 -18 69 -45 69 -95c0 -85 -84 -148 -203 -148zM306 265c46 -8 92 -14 128 -27c55 21 85 64 85 106c-2 90 -112 105 -214 122c-48 8 -94 17 -129 34
c-56 -19 -92 -63 -91 -109c1 -87 109 -109 221 -126z" />
    <glyph glyph-name="paragraph" unicode="&#xb6;" horiz-adv-x="510" 
d="M319 0v302h-61c-124 0 -217 94 -217 214c0 119 93 214 216 214h177v-730h-11v722h-94v-722h-10z" />
    <glyph glyph-name="bullet.cap" unicode="&#xe466;" horiz-adv-x="237" 
d="M118 335c-15 0 -28 13 -28 28c0 16 13 29 28 29c16 0 29 -13 29 -29c0 -15 -13 -28 -29 -28z" />
    <glyph glyph-name="circleright" unicode="&#xa9;" horiz-adv-x="875" 
d="M438 -10c-207 0 -375 168 -375 375s168 375 375 375s375 -168 375 -375s-168 -375 -375 -375zM438 -1c201 0 364 165 364 366c0 202 -163 366 -364 366c-202 0 -365 -164 -365 -366c0 -201 163 -366 365 -366zM444 170c-107 0 -196 88 -196 196c0 107 88 195 195 195
c69 0 130 -34 166 -86l-9 -7c-33 50 -91 83 -157 83c-101 0 -185 -83 -185 -185c0 -103 85 -186 186 -186c71 0 131 38 162 95l10 -6c-34 -59 -98 -99 -172 -99z" />
    <glyph glyph-name="registered" unicode="&#xae;" horiz-adv-x="436" 
d="M217 430c-85 0 -154 69 -154 154c0 87 69 156 154 156c87 0 156 -69 156 -156c0 -85 -69 -154 -156 -154zM217 439c81 0 146 66 146 145c0 82 -65 147 -146 147c-80 0 -144 -65 -144 -147c0 -79 64 -145 144 -145zM165 508v155h72c29 0 49 -19 49 -45s-19 -49 -52 -49
l46 -61h-11l-51 69h14c26 0 45 16 45 41c0 24 -17 37 -43 37h-60v-147h-9z" />
    <glyph glyph-name="trademark" unicode="&#x2122;" horiz-adv-x="677" 
d="M297 440v290h7l151 -202l154 202h7v-290h-10v271l-151 -199l-149 199v-271h-9zM132 440v282h-104v8h217v-8h-104v-282h-9z" />
    <glyph glyph-name="asterisk" unicode="*" horiz-adv-x="443" 
d="M370 461l-146 88l3 -172h-12l4 173l-148 -89l-6 10l151 83l-151 84l6 10l148 -90l-4 171h12l-3 -171l146 89l6 -10l-151 -83l151 -82z" />
    <glyph glyph-name="dagger" unicode="&#x2020;" horiz-adv-x="606" 
d="M77 491v9h219v230h10v-230h224v-9h-224v-491h-10v491h-219z" />
    <glyph glyph-name="daggerdbl" unicode="&#x2021;" horiz-adv-x="606" 
d="M77 488v9h219v233h10v-233h224v-9h-224v-240h224v-9h-224v-239h-10v239h-219v9h219v240h-219z" />
    <glyph glyph-name="asciicircum" unicode="^" horiz-adv-x="513" 
d="M123 479l130 164h2l132 -164h-12l-121 151l-118 -151h-13z" />
    <glyph glyph-name="asciitilde" unicode="~" horiz-adv-x="452" 
d="M66 554c4 45 36 73 76 73c36 0 63 -16 91 -32c28 -15 57 -33 90 -33c38 0 64 22 68 65h9c-3 -47 -33 -74 -77 -74c-38 0 -67 19 -97 35c-26 14 -52 30 -84 30c-35 0 -60 -22 -64 -64h-12z" />
    <glyph glyph-name="ordfeminine" unicode="&#xaa;" horiz-adv-x="454" 
d="M227 435c-82 0 -149 67 -149 150c0 84 67 151 149 151c70 0 123 -47 139 -104v98h9v-289h-9v98c-18 -64 -74 -104 -139 -104zM228 445c79 0 139 63 139 140c0 79 -60 142 -139 142c-78 0 -140 -64 -140 -142c0 -77 62 -140 140 -140z" />
    <glyph glyph-name="ordmasculine" unicode="&#xba;" horiz-adv-x="456" 
d="M153 510c-42 42 -42 109 0 151c41 42 109 41 150 0c42 -42 42 -109 0 -151c-41 -41 -108 -41 -150 0zM154 518c38 -40 99 -43 140 -6s45 100 8 141c-37 40 -100 44 -141 6c-41 -37 -44 -100 -7 -141z" />
    <glyph glyph-name="bar.cap" unicode="&#xe463;" horiz-adv-x="164" 
d="M77 -120v960h10v-960h-10z" />
    <glyph glyph-name="brokenbar.cap" unicode="&#xe465;" horiz-adv-x="157" 
d="M73 420v420h10v-420h-10zM73 -120v420h10v-420h-10z" />
    <glyph glyph-name="parenleft.cap" unicode="&#xe491;" horiz-adv-x="391" 
d="M333 -140c-154 105 -266 265 -266 500c0 228 105 395 256 497l8 -8c-153 -101 -254 -268 -254 -489c0 -227 110 -388 262 -492z" />
    <glyph glyph-name="parenright.cap" unicode="&#xe492;" horiz-adv-x="391" 
d="M59 -140l-7 8c153 104 262 264 262 492c0 221 -101 388 -253 489l7 8c152 -102 257 -269 257 -497c0 -235 -112 -395 -266 -500z" />
    <glyph glyph-name="bracketleft.cap" unicode="&#xe493;" horiz-adv-x="344" 
d="M56 -120v960h246v-9h-236v-942h236v-9h-246z" />
    <glyph glyph-name="bracketright.cap" unicode="&#xe494;" horiz-adv-x="344" 
d="M42 -120v8h237v943h-237v9h247v-960h-247z" />
    <glyph glyph-name="braceleft.cap" unicode="&#xe495;" horiz-adv-x="411" 
d="M366 -120h-11c-167 0 -220 54 -220 217v147c0 78 -10 110 -94 110v11c84 0 94 39 94 117v141c0 163 51 217 220 217h11l-6 -9c-169 0 -215 -50 -215 -209v-141c0 -70 -12 -111 -69 -121c59 -9 69 -46 69 -115v-147c0 -159 47 -209 215 -209z" />
    <glyph glyph-name="braceright.cap" unicode="&#xe496;" horiz-adv-x="411" 
d="M46 -120l5 9c168 0 216 50 216 209v147c0 68 10 106 68 115c-57 10 -68 51 -68 121v141c0 159 -46 209 -216 209l-5 9h11c168 0 220 -54 220 -217v-141c0 -78 10 -117 94 -117v-11c-84 0 -94 -32 -94 -110v-147c0 -163 -53 -217 -220 -217h-11z" />
    <glyph glyph-name="numbersign" unicode="#" horiz-adv-x="841" 
d="M548 0v233h-264v-233h-10v233h-218v9h218v260h-218v9h218v219h10v-219h264v219h10v-219h227v-9h-227v-260h227v-9h-227v-233h-10zM284 502v-260h264v260h-264z" />
    <glyph glyph-name="percent" unicode="%" horiz-adv-x="864" 
d="M110 581c0 -81 68 -149 150 -149c81 0 149 68 149 149c0 82 -68 150 -149 150c-82 0 -150 -68 -150 -150zM470 148c0 89 70 159 159 159c87 0 159 -70 159 -159c0 -87 -72 -159 -159 -159c-89 0 -159 72 -159 159zM125 0l627 730h13l-627 -730h-13zM479 148
c0 -81 68 -150 150 -150c81 0 149 69 149 150c0 82 -68 150 -149 150c-82 0 -150 -68 -150 -150zM101 581c0 89 70 159 159 159c87 0 159 -70 159 -159c0 -87 -72 -159 -159 -159c-89 0 -159 72 -159 159z" />
    <glyph glyph-name="perthousand" unicode="&#x2030;" horiz-adv-x="1299" 
d="M125 0l627 730h13l-627 -730h-13zM629 -11c-89 0 -159 72 -159 159c0 89 70 159 159 159c87 0 159 -70 159 -159c0 -87 -72 -159 -159 -159zM629 -2c81 0 149 69 149 150c0 82 -68 150 -149 150c-82 0 -150 -68 -150 -150c0 -81 68 -150 150 -150zM260 422
c-89 0 -159 72 -159 159c0 89 70 159 159 159c87 0 159 -70 159 -159c0 -87 -72 -159 -159 -159zM260 432c81 0 149 68 149 149c0 82 -68 150 -149 150c-82 0 -150 -68 -150 -150c0 -81 68 -149 150 -149zM1040 -11c-89 0 -159 72 -159 159c0 89 70 159 159 159
c87 0 159 -70 159 -159c0 -87 -72 -159 -159 -159zM1040 -2c81 0 149 69 149 150c0 82 -68 150 -149 150c-82 0 -150 -68 -150 -150c0 -81 68 -150 150 -150z" />
    <glyph glyph-name="less" unicode="&#x3c;" horiz-adv-x="481" 
d="M426 212l-370 152v10l370 146v-11l-358 -141l358 -145v-11z" />
    <glyph glyph-name="greater" unicode="&#x3e;" horiz-adv-x="481" 
d="M56 212v11l357 145l-357 141v11l370 -146v-10z" />
    <glyph glyph-name="plus" unicode="+" horiz-adv-x="481" 
d="M56 360v10h180v179h9v-179h181v-10h-181v-181h-9v181h-180z" />
    <glyph glyph-name="minus" unicode="&#x2212;" horiz-adv-x="481" 
d="M56 361v9h370v-9h-370z" />
    <glyph glyph-name="equal" unicode="=" horiz-adv-x="481" 
d="M56 438v9h370v-9h-370zM56 279v10h370v-10h-370z" />
    <glyph glyph-name="multiply" unicode="&#xd7;" horiz-adv-x="481" 
d="M100 217l-7 7l142 141l-142 143l7 6l141 -142l142 141l7 -6l-142 -142l141 -141l-6 -7l-142 141z" />
    <glyph glyph-name="divide" unicode="&#xf7;" horiz-adv-x="481" 
d="M56 360v10h370v-10h-370zM236 434v124h9v-124h-9zM236 170v125h9v-125h-9z" />
    <glyph glyph-name="plusminus" unicode="&#xb1;" horiz-adv-x="481" 
d="M56 450v10h180v179h9v-179h181v-10h-181v-181h-9v181h-180zM56 140v9h370v-9h-370z" />
    <glyph glyph-name="notequal" unicode="&#x2260;" horiz-adv-x="481" 
d="M316 514l-32 -67h142v-9h-146l-70 -149h216v-10h-221l-33 -70h-11l33 70h-138v10h142l71 149h-213v9h217l32 67h11z" />
    <glyph glyph-name="lessequal" unicode="&#x2264;" horiz-adv-x="481" 
d="M426 281l-370 152v10l370 146v-11l-358 -141l358 -145v-11zM56 201v10h370v-10h-370z" />
    <glyph glyph-name="greaterequal" unicode="&#x2265;" horiz-adv-x="481" 
d="M56 281v11l357 145l-357 141v11l370 -146v-10zM56 201v10h370v-10h-370z" />
    <glyph glyph-name="degree" unicode="&#xb0;" horiz-adv-x="439" 
d="M220 594c-41 0 -74 33 -74 74s33 74 74 74s74 -33 74 -74s-33 -74 -74 -74zM220 602c35 0 65 30 65 65c0 36 -30 65 -65 65c-36 0 -65 -29 -65 -65c0 -35 29 -65 65 -65z" />
    <glyph glyph-name="fraction" unicode="&#x2044;" horiz-adv-x="601" 
d="M32 0l527 730h12l-527 -730h-12z" />
    <glyph glyph-name="acute" unicode="&#xb4;" horiz-adv-x="513" 
d="M184 583l123 137h15l-127 -137h-11z" />
    <glyph glyph-name="grave" unicode="`" horiz-adv-x="513" 
d="M310 583l-128 137h15l125 -137h-12z" />
    <glyph glyph-name="circumflex" unicode="&#x2c6;" horiz-adv-x="513" 
d="M132 583l119 137h9l119 -137h-13l-111 128l-111 -128h-12z" />
    <glyph glyph-name="dieresis" unicode="&#xa8;" horiz-adv-x="512" 
d="M285 582v140h9v-140h-9zM196 582v140h9v-140h-9z" />
    <glyph glyph-name="tilde" unicode="&#x2dc;" horiz-adv-x="513" 
d="M80 583c0 50 34 80 78 80c35 0 66 -18 98 -36c32 -17 63 -35 97 -35c42 0 71 23 71 73h10c0 -54 -33 -82 -81 -82c-37 0 -70 18 -102 36c-31 18 -61 35 -93 35c-37 0 -68 -24 -68 -71h-10z" />
    <glyph glyph-name="caron" unicode="&#x2c7;" horiz-adv-x="513" 
d="M251 583l-119 137h12l111 -129l111 129h13l-119 -137h-9z" />
    <glyph glyph-name="ring" unicode="&#x2da;" horiz-adv-x="513" 
d="M250 577c-45 0 -81 36 -81 80c0 46 36 82 81 82c46 0 82 -36 82 -82c0 -44 -36 -80 -82 -80zM250 586c40 0 72 32 72 71c0 40 -32 73 -72 73c-39 0 -71 -33 -71 -73c0 -39 32 -71 71 -71z" />
    <glyph glyph-name="breve" unicode="&#x2d8;" horiz-adv-x="513" 
d="M256 572c-110 0 -162 75 -162 143h9c0 -62 50 -134 153 -134c95 0 151 72 151 134h10c0 -68 -60 -143 -161 -143z" />
    <glyph glyph-name="macron" unicode="&#xaf;" horiz-adv-x="513" 
d="M125 583v9h264v-9h-264z" />
    <glyph glyph-name="dotaccent" unicode="&#x2d9;" horiz-adv-x="512" 
d="M241 582v140h10v-140h-10z" />
    <glyph glyph-name="hungarumlaut" unicode="&#x2dd;" horiz-adv-x="513" 
d="M143 583l126 137h15l-129 -137h-12zM244 583l126 137h15l-129 -137h-12z" />
    <glyph glyph-name="cedilla" unicode="&#xb8;" horiz-adv-x="513" 
d="M263 -214c-58 0 -94 19 -123 47l9 6c29 -28 59 -44 114 -44c67 0 112 33 112 75c0 39 -42 64 -115 64h-8v66h9v-58c77 0 125 -26 125 -72c0 -48 -48 -84 -123 -84z" />
    <glyph glyph-name="ogonek" unicode="&#x2db;" horiz-adv-x="513" 
d="M247 -192c-69 0 -114 34 -114 84c0 41 36 81 117 114l7 -7c-79 -31 -114 -69 -114 -108c0 -44 42 -74 104 -74c47 0 84 22 114 52l8 -6c-28 -28 -68 -55 -122 -55z" />
    <glyph glyph-name="commaaccent" unicode="&#xe414;" horiz-adv-x="512" 
d="M220 -249h-9l51 204h13z" />
    <glyph glyph-name="commaaccent" unicode="&#xf6c3;" horiz-adv-x="512" 
d="M220 -249h-9l51 204h13z" />
    <glyph glyph-name="a.alt" unicode="&#xe4c0;" horiz-adv-x="542" 
d="M229 -10c-125 0 -167 57 -167 130c-1 99 91 131 198 150c100 18 193 29 193 105c0 74 -58 126 -180 126c-116 0 -193 -65 -193 -162v-3h-9v2c0 102 81 172 202 172c127 0 190 -55 190 -137v-373h-9v118c-22 -46 -99 -128 -225 -128zM228 -2c130 0 205 88 226 137v207
c-20 -47 -74 -59 -194 -81c-103 -18 -188 -46 -188 -141c0 -67 37 -122 156 -122z" />
    <glyph glyph-name="g.alt" unicode="&#xe4c6;" horiz-adv-x="580" 
d="M273 -264c-172 0 -231 48 -231 118c0 66 59 101 126 112c-77 3 -115 22 -115 74c0 48 53 82 153 79l18 -1c-94 11 -162 95 -162 193c0 111 88 199 198 199c96 0 173 -70 191 -154c4 109 33 145 97 145h13v-8h-13c-62 0 -91 -33 -91 -182c0 -110 -87 -199 -198 -199h-54
c-100 0 -143 -30 -143 -72c0 -51 41 -68 136 -68h129c117 0 188 -36 188 -109c0 -70 -78 -127 -242 -127zM259 120c105 0 189 85 189 191s-84 191 -189 191c-103 0 -188 -85 -188 -191c0 -105 85 -191 188 -191zM328 -37h-119c-81 0 -157 -37 -157 -109
c0 -65 58 -110 219 -110h3c155 0 231 52 231 118c0 70 -64 101 -177 101z" />
    <glyph glyph-name="Aacute" unicode="&#xc1;" horiz-adv-x="682" 
d="M45 0l291 730h11l290 -730h-11l-99 249h-372l-99 -249h-11zM341 717l-183 -459h365zM339 813l123 137h15l-127 -137h-11z" />
    <glyph glyph-name="Agrave" unicode="&#xc0;" horiz-adv-x="682" 
d="M45 0l291 730h11l290 -730h-11l-99 249h-372l-99 -249h-11zM341 717l-183 -459h365zM334 813l-128 137h15l125 -137h-12z" />
    <glyph glyph-name="Acircumflex" unicode="&#xc2;" horiz-adv-x="682" 
d="M45 0l291 730h11l290 -730h-11l-99 249h-372l-99 -249h-11zM341 717l-183 -459h365zM217 813l119 137h9l119 -137h-13l-111 128l-111 -128h-12z" />
    <glyph glyph-name="Adieresis" unicode="&#xc4;" horiz-adv-x="682" 
d="M45 0l291 730h11l290 -730h-11l-99 249h-372l-99 -249h-11zM341 717l-183 -459h365zM381 812v140h9v-140h-9zM292 812v140h9v-140h-9z" />
    <glyph glyph-name="Atilde" unicode="&#xc3;" horiz-adv-x="682" 
d="M45 0l291 730h11l290 -730h-11l-99 249h-372l-99 -249h-11zM341 717l-183 -459h365zM166 813c0 50 34 80 78 80c35 0 66 -18 98 -36c32 -17 63 -35 97 -35c42 0 71 23 71 73h10c0 -54 -33 -82 -81 -82c-37 0 -70 18 -102 36c-31 18 -61 35 -93 35c-37 0 -68 -24 -68 -71
h-10z" />
    <glyph glyph-name="Aring" unicode="&#xc5;" horiz-adv-x="682" 
d="M45 0l287 719c-40 5 -71 39 -71 80c0 46 36 82 81 82c46 0 82 -36 82 -82c0 -41 -31 -75 -73 -80l286 -719h-11l-99 249h-372l-99 -249h-11zM341 717l-183 -459h365zM336 730h11l1 -2c37 3 66 34 66 71c0 40 -32 73 -72 73c-39 0 -71 -33 -71 -73c0 -37 28 -68 64 -71z
" />
    <glyph glyph-name="Amacron" unicode="&#x100;" horiz-adv-x="682" 
d="M45 0l291 730h11l290 -730h-11l-99 249h-372l-99 -249h-11zM341 717l-183 -459h365zM213 813v9h264v-9h-264z" />
    <glyph glyph-name="Abreve" unicode="&#x102;" horiz-adv-x="682" 
d="M45 0l291 730h11l290 -730h-11l-99 249h-372l-99 -249h-11zM341 717l-183 -459h365zM344 807c-110 0 -162 75 -162 143h9c0 -62 50 -134 153 -134c95 0 151 72 151 134h10c0 -68 -60 -143 -161 -143z" />
    <glyph glyph-name="Aogonek" unicode="&#x104;" horiz-adv-x="682" 
d="M627 -190c-69 0 -114 34 -114 84c0 40 34 79 111 111l-97 244h-372l-99 -249h-11l291 730h11l289 -729l1 -1h-3c-77 -31 -111 -68 -111 -107c0 -44 42 -74 104 -74c47 0 84 22 114 52l8 -6c-28 -28 -68 -55 -122 -55zM341 717l-183 -459h365z" />
    <glyph glyph-name="Aringacute" unicode="&#x1fa;" horiz-adv-x="682" 
d="M45 0l287 721c-40 5 -71 39 -71 80c0 46 36 82 81 82c46 0 82 -36 82 -82c0 -41 -32 -76 -74 -80l287 -721h-11l-99 249h-372l-99 -249h-11zM341 717l-183 -459h365zM342 730c40 0 72 32 72 71c0 40 -32 73 -72 73c-39 0 -71 -33 -71 -73c0 -39 32 -71 71 -71zM339 925
l123 137h15l-127 -137h-11z" />
    <glyph glyph-name="AE" unicode="&#xc6;" horiz-adv-x="1064" 
d="M39 0l425 730h527v-9h-513l71 -351h442v-9h-440l72 -352h368v-9h-376l-49 241h-375l-140 -241h-12zM468 719l-272 -469h368z" />
    <glyph glyph-name="AEacute" unicode="&#x1fc;" horiz-adv-x="1058" 
d="M34 0l425 730h527v-9h-513l71 -351h442v-9h-440l72 -352h368v-9h-376l-49 241h-375l-140 -241h-12zM463 719l-272 -469h368zM584 813l123 137h15l-127 -137h-11z" />
    <glyph glyph-name="Cacute" unicode="&#x106;" horiz-adv-x="817" 
d="M428 813l123 137h15l-127 -137h-11zM434 -10c-207 0 -375 168 -375 375s168 375 375 375c134 0 249 -70 315 -174l-8 -5c-64 101 -175 170 -307 170c-201 0 -364 -164 -364 -366c0 -201 163 -366 364 -366c133 0 254 72 318 180l9 -4c-66 -111 -190 -185 -327 -185z" />
    <glyph glyph-name="Ccircumflex" unicode="&#x108;" horiz-adv-x="817" 
d="M434 -10c-207 0 -375 168 -375 375s168 375 375 375c134 0 249 -70 315 -174l-8 -5c-64 101 -175 170 -307 170c-201 0 -364 -164 -364 -366c0 -201 163 -366 364 -366c133 0 254 72 318 180l9 -4c-66 -111 -190 -185 -327 -185zM309 813l119 137h9l119 -137h-13
l-111 128l-111 -128h-12z" />
    <glyph glyph-name="Ccaron" unicode="&#x10c;" horiz-adv-x="817" 
d="M434 -10c-207 0 -375 168 -375 375s168 375 375 375c134 0 249 -70 315 -174l-8 -5c-64 101 -175 170 -307 170c-201 0 -364 -164 -364 -366c0 -201 163 -366 364 -366c133 0 254 72 318 180l9 -4c-66 -111 -190 -185 -327 -185zM421 813l-119 137h12l111 -129l111 129
h13l-119 -137h-9z" />
    <glyph glyph-name="Ccedilla" unicode="&#xc7;" horiz-adv-x="817" 
d="M444 -214c-58 0 -94 19 -123 47l9 6c29 -28 59 -44 114 -44c67 0 112 33 112 75c0 39 -42 64 -115 64h-8v56c-207 1 -374 168 -374 375s168 375 375 375c134 0 249 -70 315 -174l-8 -5c-64 101 -175 170 -307 170c-201 0 -364 -164 -364 -366c0 -201 162 -365 363 -366v1
h9v-1c130 3 247 74 310 180l9 -4c-65 -109 -186 -182 -319 -185v-48c77 0 125 -26 125 -72c0 -48 -48 -84 -123 -84z" />
    <glyph glyph-name="Cdotaccent" unicode="&#x10a;" horiz-adv-x="817" 
d="M434 -10c-207 0 -375 168 -375 375s168 375 375 375c134 0 249 -70 315 -174l-8 -5c-64 101 -175 170 -307 170c-201 0 -364 -164 -364 -366c0 -201 163 -366 364 -366c133 0 254 72 318 180l9 -4c-66 -111 -190 -185 -327 -185zM435 812v140h10v-140h-10z" />
    <glyph glyph-name="Dcaron" unicode="&#x10e;" horiz-adv-x="722" 
d="M83 0v730h207c204 0 373 -160 373 -366s-169 -364 -374 -364h-206zM290 721h-197v-711h196c199 0 363 154 363 354s-164 357 -362 357zM303 813l-119 137h12l111 -129l111 129h13l-119 -137h-9z" />
    <glyph glyph-name="Eth" unicode="&#xd0;" horiz-adv-x="730" 
d="M21 372v9h70v349h206c205 0 374 -159 374 -366s-168 -364 -375 -364h-205v372h-70zM298 720h-196v-339h270v-9h-270v-362h195c199 0 363 154 363 354s-164 356 -362 356z" />
    <glyph glyph-name="Dcroat" unicode="&#x110;" horiz-adv-x="730" 
d="M21 372v9h70v349h206c205 0 374 -159 374 -366s-168 -364 -375 -364h-205v372h-70zM298 720h-196v-339h270v-9h-270v-362h195c199 0 363 154 363 354s-164 356 -362 356z" />
    <glyph glyph-name="Eacute" unicode="&#xc9;" horiz-adv-x="614" 
d="M83 0v730h454v-9h-444v-351h444v-9h-444v-351h444v-10h-454zM294 813l123 137h15l-127 -137h-11z" />
    <glyph glyph-name="Egrave" unicode="&#xc8;" horiz-adv-x="614" 
d="M83 0v730h454v-9h-444v-351h444v-9h-444v-351h444v-10h-454zM316 813l-128 137h15l125 -137h-12z" />
    <glyph glyph-name="Ecircumflex" unicode="&#xca;" horiz-adv-x="614" 
d="M83 0v730h454v-9h-444v-351h444v-9h-444v-351h444v-10h-454zM186 813l119 137h9l119 -137h-13l-111 128l-111 -128h-12z" />
    <glyph glyph-name="Edieresis" unicode="&#xcb;" horiz-adv-x="614" 
d="M83 0v730h454v-9h-444v-351h444v-9h-444v-351h444v-10h-454zM261 812v140h9v-140h-9zM350 812v140h9v-140h-9z" />
    <glyph glyph-name="Ecaron" unicode="&#x11a;" horiz-adv-x="614" 
d="M83 0v730h454v-9h-444v-351h444v-9h-444v-351h444v-10h-454zM305 813l-119 137h12l111 -129l111 129h13l-119 -137h-9z" />
    <glyph glyph-name="Emacron" unicode="&#x112;" horiz-adv-x="614" 
d="M83 0v730h454v-9h-444v-351h444v-9h-444v-351h444v-10h-454zM179 813v9h264v-9h-264z" />
    <glyph glyph-name="Ebreve" unicode="&#x114;" horiz-adv-x="614" 
d="M83 0v730h454v-9h-444v-351h444v-9h-444v-351h444v-10h-454zM315 807c-110 0 -162 75 -162 143h9c0 -62 50 -134 153 -134c95 0 151 72 151 134h10c0 -68 -60 -143 -161 -143z" />
    <glyph glyph-name="Eogonek" unicode="&#x118;" horiz-adv-x="614" 
d="M83 0v730h454v-9h-444v-351h444v-9h-444v-351h444v-10h-3c-77 -31 -111 -68 -111 -107c0 -44 42 -74 104 -74c47 0 84 22 114 52l8 -6c-28 -28 -68 -55 -122 -55c-69 0 -114 34 -114 84c0 38 30 75 98 106h-428z" />
    <glyph glyph-name="Edotaccent" unicode="&#x116;" horiz-adv-x="614" 
d="M83 0v730h454v-9h-444v-351h444v-9h-444v-351h444v-10h-454zM312 812v140h10v-140h-10z" />
    <glyph glyph-name="Gcircumflex" unicode="&#x11c;" horiz-adv-x="861" 
d="M437 -10c-219 0 -378 168 -378 375s171 375 380 375c139 0 251 -65 316 -170l-8 -5c-62 104 -173 166 -309 166c-203 0 -368 -164 -368 -366c0 -201 154 -366 367 -366c209 0 357 156 361 356h-367v9h376v-2c0 -207 -150 -372 -370 -372zM309 813l119 137h9l119 -137h-13
l-111 128l-111 -128h-12z" />
    <glyph glyph-name="Gbreve" unicode="&#x11e;" horiz-adv-x="861" 
d="M437 -10c-219 0 -378 168 -378 375s171 375 380 375c139 0 251 -65 316 -170l-8 -5c-62 104 -173 166 -309 166c-203 0 -368 -164 -368 -366c0 -201 154 -366 367 -366c209 0 357 156 361 356h-367v9h376v-2c0 -207 -150 -372 -370 -372zM433 807
c-110 0 -162 75 -162 143h9c0 -62 50 -134 153 -134c95 0 151 72 151 134h10c0 -68 -60 -143 -161 -143z" />
    <glyph glyph-name="Gdotaccent" unicode="&#x120;" horiz-adv-x="861" 
d="M437 -10c-219 0 -378 168 -378 375s171 375 380 375c139 0 251 -65 316 -170l-8 -5c-62 104 -173 166 -309 166c-203 0 -368 -164 -368 -366c0 -201 154 -366 367 -366c209 0 357 156 361 356h-367v9h376v-2c0 -207 -150 -372 -370 -372zM424 812v140h10v-140h-10z" />
    <glyph glyph-name="Gcommaaccent" unicode="&#x122;" horiz-adv-x="861" 
d="M437 -10c-219 0 -378 168 -378 375s171 375 380 375c139 0 251 -65 316 -170l-8 -5c-62 104 -173 166 -309 166c-203 0 -368 -164 -368 -366c0 -201 154 -366 367 -366c209 0 357 156 361 356h-367v9h376v-2c0 -207 -150 -372 -370 -372zM390 -281h-9l51 204h13z" />
    <glyph glyph-name="Hcircumflex" unicode="&#x124;" horiz-adv-x="695" 
d="M598 0v361h-509v-361h-10v730h10v-360h509v360h10v-730h-10zM223 813l119 137h9l119 -137h-13l-111 128l-111 -128h-12z" />
    <glyph glyph-name="Hbar" unicode="&#x126;" horiz-adv-x="713" 
d="M14 547v9h78v174h10v-174h509v174h10v-174h66v-9h-66v-547h-10v361h-509v-361h-10v547h-78zM102 547v-177h509v177h-509z" />
    <glyph glyph-name="Iacute" unicode="&#xcd;" horiz-adv-x="197" 
d="M93 0v730h10v-730h-10zM96 813l123 137h15l-127 -137h-11z" />
    <glyph glyph-name="Igrave" unicode="&#xcc;" horiz-adv-x="197" 
d="M93 0v730h10v-730h-10zM94 813l-128 137h15l125 -137h-12z" />
    <glyph glyph-name="Icircumflex" unicode="&#xce;" horiz-adv-x="197" 
d="M93 0v730h10v-730h-10zM-25 813l119 137h9l119 -137h-13l-111 128l-111 -128h-12z" />
    <glyph glyph-name="Idieresis" unicode="&#xcf;" horiz-adv-x="197" 
d="M192 812v140h9v-140h-9zM-5 812v140h9v-140h-9zM93 0v730h10v-730h-10z" />
    <glyph glyph-name="Itilde" unicode="&#x128;" horiz-adv-x="186" 
d="M88 0v730h10v-730h-10zM-72 813c0 50 34 80 78 80c35 0 66 -18 98 -36c32 -17 63 -35 97 -35c42 0 71 23 71 73h10c0 -54 -33 -82 -81 -82c-37 0 -70 18 -102 36c-31 18 -61 35 -93 35c-37 0 -68 -24 -68 -71h-10z" />
    <glyph glyph-name="Imacron" unicode="&#x12a;" horiz-adv-x="197" 
d="M93 0v730h10v-730h-10zM-32 813v9h264v-9h-264z" />
    <glyph glyph-name="Ibreve" unicode="&#x12c;" horiz-adv-x="197" 
d="M93 0v730h10v-730h-10zM99 807c-110 0 -162 75 -162 143h9c0 -62 50 -134 153 -134c95 0 151 72 151 134h10c0 -68 -60 -143 -161 -143z" />
    <glyph glyph-name="Idotaccent" unicode="&#x130;" horiz-adv-x="197" 
d="M93 0v730h10v-730h-10zM94 812v140h10v-140h-10z" />
    <glyph glyph-name="Iogonek" unicode="&#x12e;" horiz-adv-x="197" 
d="M96 -221c-56 0 -91 36 -91 83c0 49 37 97 88 143v725h10v-729l1 -1c-52 -42 -90 -94 -90 -137c0 -44 32 -75 82 -75c43 0 70 22 95 48l7 -7c-25 -25 -54 -50 -102 -50z" />
    <glyph glyph-name="uni0328" unicode="&#x328;" horiz-adv-x="513" 
d="M250 -222c-56 0 -91 36 -91 83c0 49 38 98 90 145l9 -7c-52 -42 -90 -94 -90 -137c0 -44 32 -75 82 -75c43 0 70 22 95 48l7 -7c-25 -25 -54 -50 -102 -50z" />
    <glyph glyph-name="Jcircumflex" unicode="&#x134;" horiz-adv-x="493" 
d="M225 -10c-90 0 -150 40 -177 107l9 4c24 -62 82 -102 168 -102c118 0 176 80 176 184v547h10v-547c0 -110 -62 -193 -186 -193zM284 813l119 137h9l119 -137h-13l-111 128l-111 -128h-12z" />
    <glyph glyph-name="Kcommaaccent" unicode="&#x136;" horiz-adv-x="657" 
d="M606 0l-305 426l-207 -228v-198h-10v730h10v-518l469 518h14l-269 -296l311 -434h-13zM285 -281h-9l51 204h13z" />
    <glyph glyph-name="Lacute" unicode="&#x139;" horiz-adv-x="532" 
d="M83 0v730h10v-720h395v-10h-405zM85 813l123 137h15l-127 -137h-11z" />
    <glyph glyph-name="Lcommaaccent" unicode="&#x13b;" horiz-adv-x="532" 
d="M83 0v730h10v-720h395v-10h-405zM233 -281h-9l51 204h13z" />
    <glyph glyph-name="Ldot" unicode="&#x13f;" horiz-adv-x="554" 
d="M83 0v730h10v-720h395v-10h-405zM478 287v140h10v-140h-10z" />
    <glyph glyph-name="Lslash" unicode="&#x141;" horiz-adv-x="562" 
d="M9 327v9l104 31v363h10v-360l259 77v-9l-259 -77v-351h395v-10h-405v358z" />
    <glyph glyph-name="Nacute" unicode="&#x143;" horiz-adv-x="749" 
d="M83 0v730h10l563 -714v714h10v-730h-10l-563 714v-714h-10zM379 813l123 137h15l-127 -137h-11z" />
    <glyph glyph-name="Ntilde" unicode="&#xd1;" horiz-adv-x="749" 
d="M83 0v730h10l563 -714v714h10v-730h-10l-563 714v-714h-10zM203 813c0 50 34 80 78 80c35 0 66 -18 98 -36c32 -17 63 -35 97 -35c42 0 71 23 71 73h10c0 -54 -33 -82 -81 -82c-37 0 -70 18 -102 36c-31 18 -61 35 -93 35c-37 0 -68 -24 -68 -71h-10z" />
    <glyph glyph-name="Ncaron" unicode="&#x147;" horiz-adv-x="749" 
d="M83 0v730h10l563 -714v714h10v-730h-10l-563 714v-714h-10zM374 813l-119 137h12l111 -129l111 129h13l-119 -137h-9z" />
    <glyph glyph-name="Ncommaaccent" unicode="&#x145;" horiz-adv-x="749" 
d="M83 0v730h10l563 -714v714h10v-730h-10l-563 714v-714h-10zM322 -281h-9l51 204h13z" />
    <glyph glyph-name="Oacute" unicode="&#xd3;" horiz-adv-x="868" 
d="M416 813l123 137h15l-127 -137h-11zM434 -10c-207 0 -375 168 -375 375s168 375 375 375s375 -168 375 -375s-168 -375 -375 -375zM434 -1c202 0 365 165 365 366c0 202 -163 366 -365 366c-201 0 -364 -164 -364 -366c0 -201 163 -366 364 -366z" />
    <glyph glyph-name="Ograve" unicode="&#xd2;" horiz-adv-x="868" 
d="M434 -10c-207 0 -375 168 -375 375s168 375 375 375s375 -168 375 -375s-168 -375 -375 -375zM434 -1c202 0 365 165 365 366c0 202 -163 366 -365 366c-201 0 -364 -164 -364 -366c0 -201 163 -366 364 -366zM427 813l-128 137h15l125 -137h-12z" />
    <glyph glyph-name="Ocircumflex" unicode="&#xd4;" horiz-adv-x="868" 
d="M434 -10c-207 0 -375 168 -375 375s168 375 375 375s375 -168 375 -375s-168 -375 -375 -375zM434 -1c202 0 365 165 365 366c0 202 -163 366 -365 366c-201 0 -364 -164 -364 -366c0 -201 163 -366 364 -366zM306 813l119 137h9l119 -137h-13l-111 128l-111 -128h-12z
" />
    <glyph glyph-name="Odieresis" unicode="&#xd6;" horiz-adv-x="868" 
d="M471 812v140h9v-140h-9zM382 812v140h9v-140h-9zM434 -10c-207 0 -375 168 -375 375s168 375 375 375s375 -168 375 -375s-168 -375 -375 -375zM434 -1c202 0 365 165 365 366c0 202 -163 366 -365 366c-201 0 -364 -164 -364 -366c0 -201 163 -366 364 -366z" />
    <glyph glyph-name="Otilde" unicode="&#xd5;" horiz-adv-x="868" 
d="M434 -10c-207 0 -375 168 -375 375s168 375 375 375s375 -168 375 -375s-168 -375 -375 -375zM434 -1c202 0 365 165 365 366c0 202 -163 366 -365 366c-201 0 -364 -164 -364 -366c0 -201 163 -366 364 -366zM255 813c0 50 34 80 78 80c35 0 66 -18 98 -36
c32 -17 63 -35 97 -35c42 0 71 23 71 73h10c0 -54 -33 -82 -81 -82c-37 0 -70 18 -102 36c-31 18 -61 35 -93 35c-37 0 -68 -24 -68 -71h-10z" />
    <glyph glyph-name="Obreve" unicode="&#x14e;" horiz-adv-x="868" 
d="M434 -10c-207 0 -375 168 -375 375s168 375 375 375s375 -168 375 -375s-168 -375 -375 -375zM434 -1c202 0 365 165 365 366c0 202 -163 366 -365 366c-201 0 -364 -164 -364 -366c0 -201 163 -366 364 -366zM431 808c-110 0 -162 75 -162 143h9c0 -62 50 -134 153 -134
c95 0 151 72 151 134h10c0 -68 -60 -143 -161 -143z" />
    <glyph glyph-name="Omacron" unicode="&#x14c;" horiz-adv-x="868" 
d="M299 813v9h264v-9h-264zM434 -10c-207 0 -375 168 -375 375s168 375 375 375s375 -168 375 -375s-168 -375 -375 -375zM434 -1c202 0 365 165 365 366c0 202 -163 366 -365 366c-201 0 -364 -164 -364 -366c0 -201 163 -366 364 -366z" />
    <glyph glyph-name="Ohungarumlaut" unicode="&#x150;" horiz-adv-x="868" 
d="M378 813l126 137h15l-129 -137h-12zM479 813l126 137h15l-129 -137h-12zM434 -10c-207 0 -375 168 -375 375s168 375 375 375s375 -168 375 -375s-168 -375 -375 -375zM434 -1c202 0 365 165 365 366c0 202 -163 366 -365 366c-201 0 -364 -164 -364 -366
c0 -201 163 -366 364 -366z" />
    <glyph glyph-name="Oslash" unicode="&#xd8;" horiz-adv-x="868" 
d="M166 0l45 63c-92 69 -152 178 -152 302c0 207 168 375 375 375c79 0 153 -25 214 -67l41 57h13l-45 -64c92 -68 152 -178 152 -301c0 -207 -168 -375 -375 -375c-80 0 -154 24 -214 67l-41 -57h-13zM434 -1c202 0 365 165 365 366c0 120 -58 227 -148 294l-425 -594
c59 -42 130 -66 208 -66zM70 365c0 -120 58 -227 147 -294l425 594c-59 42 -131 66 -208 66c-201 0 -364 -164 -364 -366z" />
    <glyph glyph-name="Oslashacute" unicode="&#x1fe;" horiz-adv-x="868" 
d="M166 0l45 63c-92 69 -152 178 -152 302c0 207 168 375 375 375c79 0 153 -25 214 -67l41 57h13l-45 -64c92 -68 152 -178 152 -301c0 -207 -168 -375 -375 -375c-80 0 -154 24 -214 67l-41 -57h-13zM434 -1c202 0 365 165 365 366c0 120 -58 227 -148 294l-425 -594
c59 -42 130 -66 208 -66zM70 365c0 -120 58 -227 147 -294l425 594c-59 42 -131 66 -208 66c-201 0 -364 -164 -364 -366zM427 813l123 137h15l-127 -137h-11z" />
    <glyph glyph-name="OE" unicode="&#x152;" horiz-adv-x="1323" 
d="M799 0v282c-37 -167 -184 -292 -365 -292c-207 0 -375 168 -375 375s168 375 375 375c181 0 328 -125 365 -293v283h454v-9h-444v-351h444v-9h-444v-351h444v-10h-454zM434 -1c202 0 365 165 365 366c0 202 -163 366 -365 366c-201 0 -364 -164 -364 -366
c0 -201 163 -366 364 -366z" />
    <glyph glyph-name="Thorn" unicode="&#xde;" horiz-adv-x="580" 
d="M80 0v730h10v-154h182c145 0 233 -87 233 -207c0 -121 -85 -210 -233 -210h-182v-159h-10zM272 567h-182v-399h182c140 0 223 86 223 201c0 114 -85 198 -223 198z" />
    <glyph glyph-name="Racute" unicode="&#x154;" horiz-adv-x="581" 
d="M83 0v730h221c119 0 220 -98 220 -218s-97 -215 -214 -217l216 -295h-13l-221 303h11c114 0 211 93 211 209c0 114 -97 209 -210 209h-211v-721h-10zM243 813l123 137h15l-127 -137h-11z" />
    <glyph glyph-name="Rcaron" unicode="&#x158;" horiz-adv-x="581" 
d="M83 0v730h221c119 0 220 -98 220 -218s-97 -215 -214 -217l216 -295h-13l-221 303h11c114 0 211 93 211 209c0 114 -97 209 -210 209h-211v-721h-10zM267 813l-119 137h12l111 -129l111 129h13l-119 -137h-9z" />
    <glyph glyph-name="Rcommaaccent" unicode="&#x156;" horiz-adv-x="581" 
d="M83 0v730h221c119 0 220 -98 220 -218s-97 -215 -214 -217l216 -295h-13l-221 303h11c114 0 211 93 211 209c0 114 -97 209 -210 209h-211v-721h-10zM245 -281h-9l51 204h13z" />
    <glyph glyph-name="Sacute" unicode="&#x15a;" horiz-adv-x="544" 
d="M262 812l123 137h15l-127 -137h-11zM256 -10c-85 0 -168 39 -211 87l8 6c41 -45 122 -84 203 -84c116 0 219 69 219 194c0 120 -100 156 -202 187c-105 32 -208 62 -208 186c0 109 91 174 201 174c87 0 150 -33 189 -78l-8 -6c-37 43 -97 75 -181 75
c-104 0 -191 -62 -191 -165c0 -118 100 -146 203 -177c103 -32 207 -71 207 -196c0 -129 -104 -203 -229 -203z" />
    <glyph glyph-name="Scircumflex" unicode="&#x15c;" horiz-adv-x="544" 
d="M256 -10c-85 0 -168 39 -211 87l8 6c41 -45 122 -84 203 -84c116 0 219 69 219 194c0 120 -100 156 -202 187c-105 32 -208 62 -208 186c0 109 91 174 201 174c87 0 150 -33 189 -78l-8 -6c-37 43 -97 75 -181 75c-104 0 -191 -62 -191 -165c0 -118 100 -146 203 -177
c103 -32 207 -71 207 -196c0 -129 -104 -203 -229 -203zM138 813l119 137h9l119 -137h-13l-111 128l-111 -128h-12z" />
    <glyph glyph-name="Scaron" unicode="&#x160;" horiz-adv-x="544" 
d="M256 -10c-85 0 -168 39 -211 87l8 6c41 -45 122 -84 203 -84c116 0 219 69 219 194c0 120 -100 156 -202 187c-105 32 -208 62 -208 186c0 109 91 174 201 174c87 0 150 -33 189 -78l-8 -6c-37 43 -97 75 -181 75c-104 0 -191 -62 -191 -165c0 -118 100 -146 203 -177
c103 -32 207 -71 207 -196c0 -129 -104 -203 -229 -203zM255 813l-119 137h12l111 -129l111 129h13l-119 -137h-9z" />
    <glyph glyph-name="Scedilla" unicode="&#x15e;" horiz-adv-x="544" 
d="M267 -214c-58 0 -94 19 -123 47l9 6c29 -28 59 -44 114 -44c67 0 112 33 112 75c0 39 -42 64 -115 64h-8v56c-85 0 -168 39 -211 87l8 6c41 -45 122 -84 203 -84v1h9v-1c112 3 210 72 210 194c0 120 -100 156 -202 187c-105 32 -208 62 -208 186c0 109 91 174 201 174
c87 0 150 -33 189 -78l-8 -6c-37 43 -97 75 -181 75c-104 0 -191 -62 -191 -165c0 -118 100 -146 203 -177c103 -32 207 -71 207 -196c0 -126 -99 -199 -220 -203v-48c77 0 125 -26 125 -72c0 -48 -48 -84 -123 -84z" />
    <glyph glyph-name="Scommaaccent" unicode="&#x218;" horiz-adv-x="544" 
d="M219 -260h-9l51 204h13zM256 -10c-85 0 -168 39 -211 87l8 6c41 -45 122 -84 203 -84c116 0 219 69 219 194c0 120 -100 156 -202 187c-105 32 -208 62 -208 186c0 109 91 174 201 174c87 0 150 -33 189 -78l-8 -6c-37 43 -97 75 -181 75c-104 0 -191 -62 -191 -165
c0 -118 100 -146 203 -177c103 -32 207 -71 207 -196c0 -129 -104 -203 -229 -203z" />
    <glyph glyph-name="Tcaron" unicode="&#x164;" horiz-adv-x="611" 
d="M300 0v721h-247v9h506v-9h-249v-721h-10zM300 813l-119 137h12l111 -129l111 129h13l-119 -137h-9z" />
    <glyph glyph-name="Tcommaaccent" unicode="&#x162;" horiz-adv-x="611" 
d="M271 -281h-9l51 204h13zM300 0v721h-247v9h506v-9h-249v-721h-10z" />
    <glyph glyph-name="Uacute" unicode="&#xda;" horiz-adv-x="660" 
d="M314 813l123 137h15l-127 -137h-11zM330 -10c-140 0 -248 112 -248 247v493h10v-491c0 -133 105 -240 238 -240c132 0 239 107 239 241v490h10v-492c0 -136 -110 -248 -249 -248z" />
    <glyph glyph-name="Ugrave" unicode="&#xd9;" horiz-adv-x="660" 
d="M330 -10c-140 0 -248 112 -248 247v493h10v-491c0 -133 105 -240 238 -240c132 0 239 107 239 241v490h10v-492c0 -136 -110 -248 -249 -248zM330 813l-128 137h15l125 -137h-12z" />
    <glyph glyph-name="Ucircumflex" unicode="&#xdb;" horiz-adv-x="660" 
d="M330 -10c-140 0 -248 112 -248 247v493h10v-491c0 -133 105 -240 238 -240c132 0 239 107 239 241v490h10v-492c0 -136 -110 -248 -249 -248zM206 813l119 137h9l119 -137h-13l-111 128l-111 -128h-12z" />
    <glyph glyph-name="Udieresis" unicode="&#xdc;" horiz-adv-x="660" 
d="M369 812v140h9v-140h-9zM280 812v140h9v-140h-9zM330 -10c-140 0 -248 112 -248 247v493h10v-491c0 -133 105 -240 238 -240c132 0 239 107 239 241v490h10v-492c0 -136 -110 -248 -249 -248z" />
    <glyph glyph-name="Utilde" unicode="&#x168;" horiz-adv-x="660" 
d="M330 -10c-140 0 -248 112 -248 247v493h10v-491c0 -133 105 -240 238 -240c132 0 239 107 239 241v490h10v-492c0 -136 -110 -248 -249 -248zM160 813c0 50 34 80 78 80c35 0 66 -18 98 -36c32 -17 63 -35 97 -35c42 0 71 23 71 73h10c0 -54 -33 -82 -81 -82
c-37 0 -70 18 -102 36c-31 18 -61 35 -93 35c-37 0 -68 -24 -68 -71h-10z" />
    <glyph glyph-name="Uring" unicode="&#x16e;" horiz-adv-x="660" 
d="M326 808c-45 0 -81 36 -81 80c0 46 36 82 81 82c46 0 82 -36 82 -82c0 -44 -36 -80 -82 -80zM326 817c40 0 72 32 72 71c0 40 -32 73 -72 73c-39 0 -71 -33 -71 -73c0 -39 32 -71 71 -71zM330 -10c-140 0 -248 112 -248 247v493h10v-491c0 -133 105 -240 238 -240
c132 0 239 107 239 241v490h10v-492c0 -136 -110 -248 -249 -248z" />
    <glyph glyph-name="Ubreve" unicode="&#x16c;" horiz-adv-x="660" 
d="M330 -10c-140 0 -248 112 -248 247v493h10v-491c0 -133 105 -240 238 -240c132 0 239 107 239 241v490h10v-492c0 -136 -110 -248 -249 -248zM330 807c-110 0 -162 75 -162 143h9c0 -62 50 -134 153 -134c95 0 151 72 151 134h10c0 -68 -60 -143 -161 -143z" />
    <glyph glyph-name="Umacron" unicode="&#x16a;" horiz-adv-x="660" 
d="M330 -10c-140 0 -248 112 -248 247v493h10v-491c0 -133 105 -240 238 -240c132 0 239 107 239 241v490h10v-492c0 -136 -110 -248 -249 -248zM199 813v9h264v-9h-264z" />
    <glyph glyph-name="Uhungarumlaut" unicode="&#x170;" horiz-adv-x="660" 
d="M330 -10c-140 0 -248 112 -248 247v493h10v-491c0 -133 105 -240 238 -240c132 0 239 107 239 241v490h10v-492c0 -136 -110 -248 -249 -248zM274 813l126 137h15l-129 -137h-12zM375 813l126 137h15l-129 -137h-12z" />
    <glyph glyph-name="Uogonek" unicode="&#x172;" horiz-adv-x="660" 
d="M331 -200c-69 0 -114 34 -114 84c0 38 30 75 99 107c-133 7 -234 115 -234 246v493h10v-491c0 -133 105 -240 238 -240c132 0 239 107 239 241v490h10v-492c0 -133 -106 -243 -241 -248c-77 -31 -111 -68 -111 -107c0 -44 42 -74 104 -74c47 0 84 22 114 52l8 -6
c-28 -28 -68 -55 -122 -55z" />
    <glyph glyph-name="Wacute" unicode="&#x1e82;" horiz-adv-x="1078" 
d="M275 0l-220 730h11l214 -713l255 713h9l255 -714l213 714h11l-218 -730h-10l-256 714l-254 -714h-10zM536 813l123 137h15l-127 -137h-11z" />
    <glyph glyph-name="Wgrave" unicode="&#x1e80;" horiz-adv-x="1078" 
d="M275 0l-220 730h11l214 -713l255 713h9l255 -714l213 714h11l-218 -730h-10l-256 714l-254 -714h-10zM532 813l-128 137h15l125 -137h-12z" />
    <glyph glyph-name="Wcircumflex" unicode="&#x174;" horiz-adv-x="1078" 
d="M275 0l-220 730h11l214 -713l255 713h9l255 -714l213 714h11l-218 -730h-10l-256 714l-254 -714h-10zM415 813l119 137h9l119 -137h-13l-111 128l-111 -128h-12z" />
    <glyph glyph-name="Wdieresis" unicode="&#x1e84;" horiz-adv-x="1078" 
d="M275 0l-220 730h11l214 -713l255 713h9l255 -714l213 714h11l-218 -730h-10l-256 714l-254 -714h-10zM490 812v140h9v-140h-9zM579 812v140h9v-140h-9z" />
    <glyph glyph-name="Yacute" unicode="&#xdd;" horiz-adv-x="597" 
d="M295 0v350l-252 380h13l243 -369l243 369h13l-250 -380v-350h-10zM294 813l123 137h15l-127 -137h-11z" />
    <glyph glyph-name="Ygrave" unicode="&#x1ef2;" horiz-adv-x="597" 
d="M295 0v350l-252 380h13l243 -369l243 369h13l-250 -380v-350h-10zM294 813l-128 137h15l125 -137h-12z" />
    <glyph glyph-name="Ycircumflex" unicode="&#x176;" horiz-adv-x="597" 
d="M295 0v350l-252 380h13l243 -369l243 369h13l-250 -380v-350h-10zM174 813l119 137h9l119 -137h-13l-111 128l-111 -128h-12z" />
    <glyph glyph-name="Ydieresis" unicode="&#x178;" horiz-adv-x="597" 
d="M295 0v350l-252 380h13l243 -369l243 369h13l-250 -380v-350h-10zM249 812v140h9v-140h-9zM338 812v140h9v-140h-9z" />
    <glyph glyph-name="Zacute" unicode="&#x179;" horiz-adv-x="594" 
d="M52 0v10l474 711h-447v9h459v-9l-475 -711h480v-10h-491zM300 813l123 137h15l-127 -137h-11z" />
    <glyph glyph-name="Zcaron" unicode="&#x17d;" horiz-adv-x="594" 
d="M52 0v10l474 711h-447v9h459v-9l-475 -711h480v-10h-491zM300 813l-119 137h12l111 -129l111 129h13l-119 -137h-9z" />
    <glyph glyph-name="Zdotaccent" unicode="&#x17b;" horiz-adv-x="594" 
d="M52 0v10l474 711h-447v9h459v-9l-475 -711h480v-10h-491zM301 812v140h10v-140h-10z" />
    <glyph glyph-name="aacute" unicode="&#xe1;" horiz-adv-x="648" 
d="M315 -10c-144 0 -260 116 -260 260s116 260 260 260c118 0 220 -79 248 -195v185h9v-500h-9v186c-28 -117 -130 -196 -248 -196zM315 -1c138 0 249 113 249 251c0 139 -111 251 -249 251c-139 0 -250 -112 -250 -251c0 -138 111 -251 250 -251zM307 583l123 137h15
l-127 -137h-11z" />
    <glyph glyph-name="agrave" unicode="&#xe0;" horiz-adv-x="648" 
d="M315 -10c-144 0 -260 116 -260 260s116 260 260 260c118 0 220 -79 248 -195v185h9v-500h-9v186c-28 -117 -130 -196 -248 -196zM315 -1c138 0 249 113 249 251c0 139 -111 251 -249 251c-139 0 -250 -112 -250 -251c0 -138 111 -251 250 -251zM309 583l-128 137h15
l125 -137h-12z" />
    <glyph glyph-name="acircumflex" unicode="&#xe2;" horiz-adv-x="648" 
d="M315 -10c-144 0 -260 116 -260 260s116 260 260 260c118 0 220 -79 248 -195v185h9v-500h-9v186c-28 -117 -130 -196 -248 -196zM315 -1c138 0 249 113 249 251c0 139 -111 251 -249 251c-139 0 -250 -112 -250 -251c0 -138 111 -251 250 -251zM190 583l119 137h9
l119 -137h-13l-111 128l-111 -128h-12z" />
    <glyph glyph-name="adieresis" unicode="&#xe4;" horiz-adv-x="648" 
d="M315 -10c-144 0 -260 116 -260 260s116 260 260 260c118 0 220 -79 248 -195v185h9v-500h-9v186c-28 -117 -130 -196 -248 -196zM315 -1c138 0 249 113 249 251c0 139 -111 251 -249 251c-139 0 -250 -112 -250 -251c0 -138 111 -251 250 -251zM353 582v140h9v-140h-9z
M264 582v140h9v-140h-9z" />
    <glyph glyph-name="atilde" unicode="&#xe3;" horiz-adv-x="648" 
d="M315 -10c-144 0 -260 116 -260 260s116 260 260 260c118 0 220 -79 248 -195v185h9v-500h-9v186c-28 -117 -130 -196 -248 -196zM315 -1c138 0 249 113 249 251c0 139 -111 251 -249 251c-139 0 -250 -112 -250 -251c0 -138 111 -251 250 -251zM153 583c0 50 34 80 78 80
c35 0 66 -18 98 -36c32 -17 63 -35 97 -35c42 0 71 23 71 73h10c0 -54 -33 -82 -81 -82c-37 0 -70 18 -102 36c-31 18 -61 35 -93 35c-37 0 -68 -24 -68 -71h-10z" />
    <glyph glyph-name="aring" unicode="&#xe5;" horiz-adv-x="648" 
d="M315 -10c-144 0 -260 116 -260 260s116 260 260 260c118 0 220 -79 248 -195v185h9v-500h-9v186c-28 -117 -130 -196 -248 -196zM315 -1c138 0 249 113 249 251c0 139 -111 251 -249 251c-139 0 -250 -112 -250 -251c0 -138 111 -251 250 -251zM315 573
c-45 0 -81 36 -81 80c0 46 36 82 81 82c46 0 82 -36 82 -82c0 -44 -36 -80 -82 -80zM315 582c40 0 72 32 72 71c0 40 -32 73 -72 73c-39 0 -71 -33 -71 -73c0 -39 32 -71 71 -71z" />
    <glyph glyph-name="amacron" unicode="&#x101;" horiz-adv-x="648" 
d="M315 -10c-144 0 -260 116 -260 260s116 260 260 260c118 0 220 -79 248 -195v185h9v-500h-9v186c-28 -117 -130 -196 -248 -196zM315 -1c138 0 249 113 249 251c0 139 -111 251 -249 251c-139 0 -250 -112 -250 -251c0 -138 111 -251 250 -251zM196 583v9h264v-9h-264z
" />
    <glyph glyph-name="abreve" unicode="&#x103;" horiz-adv-x="648" 
d="M315 -10c-144 0 -260 116 -260 260s116 260 260 260c118 0 220 -79 248 -195v185h9v-500h-9v186c-28 -117 -130 -196 -248 -196zM315 -1c138 0 249 113 249 251c0 139 -111 251 -249 251c-139 0 -250 -112 -250 -251c0 -138 111 -251 250 -251zM316 572
c-110 0 -162 75 -162 143h9c0 -62 50 -134 153 -134c95 0 151 72 151 134h10c0 -68 -60 -143 -161 -143z" />
    <glyph glyph-name="aogonek" unicode="&#x105;" horiz-adv-x="648" 
d="M315 -10c-144 0 -260 116 -260 260s116 260 260 260c118 0 220 -79 248 -195v185h9v-499l2 -1c-52 -42 -90 -94 -90 -137c0 -44 32 -75 82 -75c43 0 70 22 95 48l7 -7c-25 -25 -54 -50 -102 -50c-56 0 -91 36 -91 83c0 49 37 97 88 143v181c-28 -117 -130 -196 -248 -196
zM315 -1c138 0 249 113 249 251c0 139 -111 251 -249 251c-139 0 -250 -112 -250 -251c0 -138 111 -251 250 -251z" />
    <glyph glyph-name="aringacute" unicode="&#x1fb;" horiz-adv-x="648" 
d="M315 -10c-144 0 -260 116 -260 260s116 260 260 260c118 0 220 -79 248 -195v185h9v-500h-9v186c-28 -117 -130 -196 -248 -196zM315 -1c138 0 249 113 249 251c0 139 -111 251 -249 251c-139 0 -250 -112 -250 -251c0 -138 111 -251 250 -251zM318 574
c-45 0 -81 36 -81 80c0 46 36 82 81 82c46 0 82 -36 82 -82c0 -44 -36 -80 -82 -80zM318 583c40 0 72 32 72 71c0 40 -32 73 -72 73c-39 0 -71 -33 -71 -73c0 -39 32 -71 71 -71zM315 790l123 137h15l-127 -137h-11z" />
    <glyph glyph-name="ae" unicode="&#xe6;" horiz-adv-x="1008" 
d="M697 -10c-108 0 -195 57 -235 144c-31 -58 -109 -144 -235 -144c-124 0 -165 64 -165 129c-1 101 92 132 201 151c96 18 193 28 193 103c0 76 -57 128 -181 128c-116 0 -193 -64 -193 -160v-3h-10v2c0 101 82 170 203 170c130 0 190 -57 190 -138l-3 -9
c41 87 130 147 235 147c149 0 257 -116 257 -259v-2h-507c0 -142 104 -250 250 -250c123 0 213 77 240 186l11 -2c-27 -112 -124 -193 -251 -193zM697 501c-138 0 -246 -107 -250 -243h496c-4 134 -106 243 -246 243zM227 -1c124 0 199 83 230 145c-13 32 -20 68 -20 106
c0 26 3 51 10 75c-27 -38 -91 -48 -183 -64c-105 -18 -192 -45 -192 -142c0 -61 39 -120 155 -120z" />
    <glyph glyph-name="aeacute" unicode="&#x1fd;" horiz-adv-x="1008" 
d="M697 -10c-108 0 -195 57 -235 144c-31 -58 -109 -144 -235 -144c-124 0 -165 64 -165 129c-1 101 92 132 201 151c96 18 193 28 193 103c0 76 -57 128 -181 128c-116 0 -193 -64 -193 -160v-3h-10v2c0 101 82 170 203 170c130 0 190 -57 190 -138l-3 -9
c41 87 130 147 235 147c149 0 257 -116 257 -259v-2h-507c0 -142 104 -250 250 -250c123 0 213 77 240 186l11 -2c-27 -112 -124 -193 -251 -193zM697 501c-138 0 -246 -107 -250 -243h496c-4 134 -106 243 -246 243zM227 -1c124 0 199 83 230 145c-13 32 -20 68 -20 106
c0 26 3 51 10 75c-27 -38 -91 -48 -183 -64c-105 -18 -192 -45 -192 -142c0 -61 39 -120 155 -120zM487 583l123 137h15l-127 -137h-11z" />
    <glyph glyph-name="cacute" unicode="&#x107;" horiz-adv-x="608" 
d="M304 583l123 137h15l-127 -137h-11zM314 -10c-144 0 -260 117 -260 260c0 144 116 260 260 260c108 0 200 -64 239 -158l-10 -4c-38 90 -125 153 -229 153c-139 0 -250 -113 -250 -251s111 -251 250 -251c103 0 191 63 229 153l10 -4c-39 -93 -131 -158 -239 -158z" />
    <glyph glyph-name="ccircumflex" unicode="&#x109;" horiz-adv-x="608" 
d="M314 -10c-144 0 -260 117 -260 260c0 144 116 260 260 260c108 0 200 -64 239 -158l-10 -4c-38 90 -125 153 -229 153c-139 0 -250 -113 -250 -251s111 -251 250 -251c103 0 191 63 229 153l10 -4c-39 -93 -131 -158 -239 -158zM192 583l119 137h9l119 -137h-13l-111 128
l-111 -128h-12z" />
    <glyph glyph-name="ccaron" unicode="&#x10d;" horiz-adv-x="608" 
d="M314 -10c-144 0 -260 117 -260 260c0 144 116 260 260 260c108 0 200 -64 239 -158l-10 -4c-38 90 -125 153 -229 153c-139 0 -250 -113 -250 -251s111 -251 250 -251c103 0 191 63 229 153l10 -4c-39 -93 -131 -158 -239 -158zM305 583l-119 137h12l111 -129l111 129h13
l-119 -137h-9z" />
    <glyph glyph-name="ccedilla" unicode="&#xe7;" horiz-adv-x="608" 
d="M316 -214c-58 0 -94 19 -123 47l9 6c29 -28 59 -44 114 -44c67 0 112 33 112 75c0 39 -42 64 -115 64h-8v56c-140 5 -251 120 -251 260c0 144 116 260 260 260c108 0 200 -64 239 -158l-10 -4c-38 90 -125 153 -229 153c-139 0 -250 -113 -250 -251
c0 -135 106 -247 241 -251v1h9v-1c103 0 191 63 229 153l10 -4c-39 -93 -131 -158 -239 -158v-48c77 0 125 -26 125 -72c0 -48 -48 -84 -123 -84z" />
    <glyph glyph-name="cdotaccent" unicode="&#x10b;" horiz-adv-x="608" 
d="M314 -10c-144 0 -260 117 -260 260c0 144 116 260 260 260c108 0 200 -64 239 -158l-10 -4c-38 90 -125 153 -229 153c-139 0 -250 -113 -250 -251s111 -251 250 -251c103 0 191 63 229 153l10 -4c-39 -93 -131 -158 -239 -158zM308 582v140h10v-140h-10z" />
    <glyph glyph-name="dcroat" unicode="&#x111;" horiz-adv-x="649" 
d="M356 596v9h206v125h9v-125h56v-9h-56v-596h-9v186c-28 -117 -130 -196 -248 -196c-144 0 -260 116 -260 260s116 260 260 260c118 0 220 -79 248 -195v281h-206zM314 -1c138 0 249 113 249 251c0 139 -111 251 -249 251c-139 0 -250 -112 -250 -251
c0 -138 111 -251 250 -251z" />
    <glyph glyph-name="eth" unicode="&#xf0;" horiz-adv-x="628" 
d="M153 590l163 75c-27 22 -58 43 -90 65h15c30 -20 58 -41 84 -61l134 61h19l-146 -67c163 -132 242 -274 242 -413c0 -143 -116 -260 -260 -260s-260 117 -260 260c0 144 116 260 260 260c108 0 198 -65 236 -158c-29 102 -102 207 -227 307l-151 -69h-19zM314 -1
c138 0 249 113 249 251s-111 251 -249 251c-139 0 -250 -113 -250 -251s111 -251 250 -251z" />
    <glyph glyph-name="eacute" unicode="&#xe9;" horiz-adv-x="623" 
d="M315 -10c-160 0 -261 112 -261 260c0 145 114 260 260 260c150 0 255 -116 255 -259v-6h-506c2 -140 100 -246 252 -246c118 0 201 67 236 175l9 -4c-37 -111 -121 -180 -245 -180zM314 501c-139 0 -249 -109 -251 -247h496c-2 136 -102 247 -245 247zM303 583l123 137
h15l-127 -137h-11z" />
    <glyph glyph-name="egrave" unicode="&#xe8;" horiz-adv-x="623" 
d="M315 -10c-160 0 -261 112 -261 260c0 145 114 260 260 260c150 0 255 -116 255 -259v-6h-506c2 -140 100 -246 252 -246c118 0 201 67 236 175l9 -4c-37 -111 -121 -180 -245 -180zM314 501c-139 0 -249 -109 -251 -247h496c-2 136 -102 247 -245 247zM303 583l-128 137
h15l125 -137h-12z" />
    <glyph glyph-name="ecircumflex" unicode="&#xea;" horiz-adv-x="623" 
d="M315 -10c-160 0 -261 112 -261 260c0 145 114 260 260 260c150 0 255 -116 255 -259v-6h-506c2 -140 100 -246 252 -246c118 0 201 67 236 175l9 -4c-37 -111 -121 -180 -245 -180zM314 501c-139 0 -249 -109 -251 -247h496c-2 136 -102 247 -245 247zM190 583l119 137h9
l119 -137h-13l-111 128l-111 -128h-12z" />
    <glyph glyph-name="edieresis" unicode="&#xeb;" horiz-adv-x="623" 
d="M315 -10c-160 0 -261 112 -261 260c0 145 114 260 260 260c150 0 255 -116 255 -259v-6h-506c2 -140 100 -246 252 -246c118 0 201 67 236 175l9 -4c-37 -111 -121 -180 -245 -180zM314 501c-139 0 -249 -109 -251 -247h496c-2 136 -102 247 -245 247zM264 582v140h9
v-140h-9zM353 582v140h9v-140h-9z" />
    <glyph glyph-name="ecaron" unicode="&#x11b;" horiz-adv-x="623" 
d="M315 -10c-160 0 -261 112 -261 260c0 145 114 260 260 260c150 0 255 -116 255 -259v-6h-506c2 -140 100 -246 252 -246c118 0 201 67 236 175l9 -4c-37 -111 -121 -180 -245 -180zM314 501c-139 0 -249 -109 -251 -247h496c-2 136 -102 247 -245 247zM312 583l-119 137
h12l111 -129l111 129h13l-119 -137h-9z" />
    <glyph glyph-name="emacron" unicode="&#x113;" horiz-adv-x="623" 
d="M315 -10c-160 0 -261 112 -261 260c0 145 114 260 260 260c150 0 255 -116 255 -259v-6h-506c2 -140 100 -246 252 -246c118 0 201 67 236 175l9 -4c-37 -111 -121 -180 -245 -180zM314 501c-139 0 -249 -109 -251 -247h496c-2 136 -102 247 -245 247zM186 583v9h264v-9
h-264z" />
    <glyph glyph-name="ebreve" unicode="&#x115;" horiz-adv-x="623" 
d="M315 -10c-160 0 -261 112 -261 260c0 145 114 260 260 260c150 0 255 -116 255 -259v-6h-506c2 -140 100 -246 252 -246c118 0 201 67 236 175l9 -4c-37 -111 -121 -180 -245 -180zM314 501c-139 0 -249 -109 -251 -247h496c-2 136 -102 247 -245 247zM317 572
c-110 0 -162 75 -162 143h9c0 -62 50 -134 153 -134c95 0 151 72 151 134h10c0 -68 -60 -143 -161 -143z" />
    <glyph glyph-name="eogonek" unicode="&#x119;" horiz-adv-x="623" 
d="M315 -10c-160 0 -261 112 -261 260c0 145 114 260 260 260c150 0 255 -116 255 -259v-6h-506c2 -140 100 -246 252 -246c118 0 201 67 236 175l9 -4c-25 -76 -72 -132 -139 -160h1c-79 -31 -114 -69 -114 -108c0 -44 42 -74 104 -74c47 0 84 22 114 52l8 -6
c-28 -28 -68 -55 -122 -55c-69 0 -114 34 -114 84c0 32 22 64 70 92c-17 -3 -35 -5 -53 -5zM314 501c-139 0 -249 -109 -251 -247h496c-2 136 -102 247 -245 247z" />
    <glyph glyph-name="edotaccent" unicode="&#x117;" horiz-adv-x="623" 
d="M315 -10c-160 0 -261 112 -261 260c0 145 114 260 260 260c150 0 255 -116 255 -259v-6h-506c2 -140 100 -246 252 -246c118 0 201 67 236 175l9 -4c-37 -111 -121 -180 -245 -180zM314 501c-139 0 -249 -109 -251 -247h496c-2 136 -102 247 -245 247zM310 582v140h10
v-140h-10z" />
    <glyph glyph-name="gcircumflex" unicode="&#x11d;" horiz-adv-x="648" 
d="M314 -10c-144 0 -260 116 -260 260s116 260 260 260c117 0 218 -77 247 -192v182h10v-489c0 -156 -104 -251 -249 -251c-123 0 -196 51 -231 138l9 4c34 -84 105 -132 222 -132c139 0 239 90 239 242v170c-29 -114 -130 -192 -247 -192zM314 -1c138 0 249 113 249 251
c0 139 -111 251 -249 251c-139 0 -250 -112 -250 -251c0 -138 111 -251 250 -251zM190 583l119 137h9l119 -137h-13l-111 128l-111 -128h-12z" />
    <glyph glyph-name="gbreve" unicode="&#x11f;" horiz-adv-x="648" 
d="M314 -10c-144 0 -260 116 -260 260s116 260 260 260c117 0 218 -77 247 -192v182h10v-489c0 -156 -104 -251 -249 -251c-123 0 -196 51 -231 138l9 4c34 -84 105 -132 222 -132c139 0 239 90 239 242v170c-29 -114 -130 -192 -247 -192zM314 -1c138 0 249 113 249 251
c0 139 -111 251 -249 251c-139 0 -250 -112 -250 -251c0 -138 111 -251 250 -251zM315 572c-110 0 -162 75 -162 143h9c0 -62 50 -134 153 -134c95 0 151 72 151 134h10c0 -68 -60 -143 -161 -143z" />
    <glyph glyph-name="gdotaccent" unicode="&#x121;" horiz-adv-x="648" 
d="M314 -10c-144 0 -260 116 -260 260s116 260 260 260c117 0 218 -77 247 -192v182h10v-489c0 -156 -104 -251 -249 -251c-123 0 -196 51 -231 138l9 4c34 -84 105 -132 222 -132c139 0 239 90 239 242v170c-29 -114 -130 -192 -247 -192zM314 -1c138 0 249 113 249 251
c0 139 -111 251 -249 251c-139 0 -250 -112 -250 -251c0 -138 111 -251 250 -251zM295 582v140h10v-140h-10z" />
    <glyph glyph-name="gcommaaccent" unicode="&#x123;" horiz-adv-x="648" 
d="M314 -10c-144 0 -260 116 -260 260s116 260 260 260c117 0 218 -77 247 -192v182h10v-489c0 -156 -104 -251 -249 -251c-123 0 -196 51 -231 138l9 4c34 -84 105 -132 222 -132c139 0 239 90 239 242v170c-29 -114 -130 -192 -247 -192zM314 -1c138 0 249 113 249 251
c0 139 -111 251 -249 251c-139 0 -250 -112 -250 -251c0 -138 111 -251 250 -251zM306 550h-9l51 204h13z" />
    <glyph glyph-name="hcircumflex" unicode="&#x125;" horiz-adv-x="618" 
d="M83 0v730h9v-390c19 94 109 170 222 170c135 0 229 -89 229 -231v-279h-9v280c0 134 -88 221 -220 221c-122 0 -222 -91 -222 -216v-285h-9zM-36 792l119 137h9l119 -137h-13l-111 128l-111 -128h-12z" />
    <glyph glyph-name="hbar" unicode="&#x127;" horiz-adv-x="616" 
d="M-5 614v9h86v107h9v-107h176v-9h-176v-274c19 94 109 170 222 170c135 0 229 -89 229 -231v-279h-9v280c0 134 -88 221 -220 221c-122 0 -222 -91 -222 -216v-285h-9v614h-86z" />
    <glyph glyph-name="dotlessi" unicode="&#x131;" horiz-adv-x="168" 
d="M79 0v500h10v-500h-10z" />
    <glyph glyph-name="iacute" unicode="&#xed;" horiz-adv-x="168" 
d="M80 583l123 137h15l-127 -137h-11zM79 0v500h10v-500h-10z" />
    <glyph glyph-name="igrave" unicode="&#xec;" horiz-adv-x="168" 
d="M79 0v500h10v-500h-10zM79 583l-128 137h15l125 -137h-12z" />
    <glyph glyph-name="icircumflex" unicode="&#xee;" horiz-adv-x="168" 
d="M79 0v500h10v-500h-10zM-39 583l119 137h9l119 -137h-13l-111 128l-111 -128h-12z" />
    <glyph glyph-name="idieresis" unicode="&#xef;" horiz-adv-x="168" 
d="M163 582v140h9v-140h-9zM-5 582v140h9v-140h-9zM79 0v500h10v-500h-10z" />
    <glyph glyph-name="itilde" unicode="&#x129;" horiz-adv-x="168" 
d="M79 0v500h10v-500h-10zM-91 583c0 50 34 80 78 80c35 0 66 -18 98 -36c32 -17 63 -35 97 -35c42 0 71 23 71 73h10c0 -54 -33 -82 -81 -82c-37 0 -70 18 -102 36c-31 18 -61 35 -93 35c-37 0 -68 -24 -68 -71h-10z" />
    <glyph glyph-name="imacron" unicode="&#x12b;" horiz-adv-x="168" 
d="M79 0v500h10v-500h-10zM-47 583v9h264v-9h-264z" />
    <glyph glyph-name="ibreve" unicode="&#x12d;" horiz-adv-x="168" 
d="M79 0v500h10v-500h-10zM85 572c-110 0 -162 75 -162 143h9c0 -62 50 -134 153 -134c95 0 151 72 151 134h10c0 -68 -60 -143 -161 -143z" />
    <glyph glyph-name="iogonek" unicode="&#x12f;" horiz-adv-x="168" 
d="M82 -220c-56 0 -91 36 -91 83c0 49 37 97 88 143v494h10v-498l1 -1c-1 0 -1 -1 -1 -1h-1c-51 -42 -88 -93 -88 -136c0 -44 32 -75 82 -75c43 0 70 22 95 48l7 -7c-25 -25 -54 -50 -102 -50zM79 579v151h10v-151h-10z" />
    <glyph glyph-name="dotlessj" unicode="&#x237;" horiz-adv-x="169" 
d="M-70 -231v10c119 0 150 25 150 155v566h10v-567c0 -133 -34 -164 -159 -164h-1z" />
    <glyph glyph-name="jcircumflex" unicode="&#x135;" horiz-adv-x="169" 
d="M-70 -231v10c119 0 150 25 150 155v566h10v-567c0 -133 -34 -164 -159 -164h-1zM-38 583l119 137h9l119 -137h-13l-111 128l-111 -128h-12z" />
    <glyph glyph-name="kcommaaccent" unicode="&#x137;" horiz-adv-x="497" 
d="M451 0l-220 290l-139 -147v-143h-9v730h9v-575l325 345h13l-192 -203l225 -297h-12zM208 -260h-9l51 204h13z" />
    <glyph glyph-name="lacute" unicode="&#x13a;" horiz-adv-x="174" 
d="M85 792l123 137h15l-127 -137h-11zM83 0v730h9v-730h-9z" />
    <glyph glyph-name="lcommaaccent" unicode="&#x13c;" horiz-adv-x="174" 
d="M53 -260h-9l51 204h13zM83 0v730h9v-730h-9z" />
    <glyph glyph-name="ldot" unicode="&#x140;" horiz-adv-x="279" 
d="M83 0v730h9v-730h-9zM219 219v140h10v-140h-10z" />
    <glyph glyph-name="lslash" unicode="&#x142;" horiz-adv-x="253" 
d="M15 325v11l107 63v331h10v-325l107 63v-10l-107 -64v-394h-10v388z" />
    <glyph glyph-name="nacute" unicode="&#x144;" horiz-adv-x="617" 
d="M79 0v500h9v-163c18 95 109 173 223 173c135 0 229 -89 229 -231v-279h-10v280c0 134 -87 221 -219 221c-122 0 -222 -91 -222 -216v-285h-10zM310 583l123 137h15l-127 -137h-11z" />
    <glyph glyph-name="ntilde" unicode="&#xf1;" horiz-adv-x="617" 
d="M79 0v500h9v-163c18 95 109 173 223 173c135 0 229 -89 229 -231v-279h-10v280c0 134 -87 221 -219 221c-122 0 -222 -91 -222 -216v-285h-10zM138 583c0 50 34 80 78 80c35 0 66 -18 98 -36c32 -17 63 -35 97 -35c42 0 71 23 71 73h10c0 -54 -33 -82 -81 -82
c-37 0 -70 18 -102 36c-31 18 -61 35 -93 35c-37 0 -68 -24 -68 -71h-10z" />
    <glyph glyph-name="ncaron" unicode="&#x148;" horiz-adv-x="617" 
d="M79 0v500h9v-163c18 95 109 173 223 173c135 0 229 -89 229 -231v-279h-10v280c0 134 -87 221 -219 221c-122 0 -222 -91 -222 -216v-285h-10zM310 583l-119 137h12l111 -129l111 129h13l-119 -137h-9z" />
    <glyph glyph-name="ncommaaccent" unicode="&#x146;" horiz-adv-x="617" 
d="M79 0v500h9v-163c18 95 109 173 223 173c135 0 229 -89 229 -231v-279h-10v280c0 134 -87 221 -219 221c-122 0 -222 -91 -222 -216v-285h-10zM281 -260h-9l51 204h13z" />
    <glyph glyph-name="oacute" unicode="&#xf3;" horiz-adv-x="627" 
d="M308 583l123 137h15l-127 -137h-11zM314 -10c-144 0 -260 117 -260 260c0 144 116 260 260 260s260 -116 260 -260c0 -143 -116 -260 -260 -260zM314 -1c138 0 249 113 249 251s-111 251 -249 251c-139 0 -250 -113 -250 -251s111 -251 250 -251z" />
    <glyph glyph-name="ograve" unicode="&#xf2;" horiz-adv-x="627" 
d="M314 -10c-144 0 -260 117 -260 260c0 144 116 260 260 260s260 -116 260 -260c0 -143 -116 -260 -260 -260zM314 -1c138 0 249 113 249 251s-111 251 -249 251c-139 0 -250 -113 -250 -251s111 -251 250 -251zM305 583l-128 137h15l125 -137h-12z" />
    <glyph glyph-name="ocircumflex" unicode="&#xf4;" horiz-adv-x="627" 
d="M314 -10c-144 0 -260 117 -260 260c0 144 116 260 260 260s260 -116 260 -260c0 -143 -116 -260 -260 -260zM314 -1c138 0 249 113 249 251s-111 251 -249 251c-139 0 -250 -113 -250 -251s111 -251 250 -251zM186 583l119 137h9l119 -137h-13l-111 128l-111 -128h-12z
" />
    <glyph glyph-name="odieresis" unicode="&#xf6;" horiz-adv-x="627" 
d="M351 582v140h9v-140h-9zM262 582v140h9v-140h-9zM314 -10c-144 0 -260 117 -260 260c0 144 116 260 260 260s260 -116 260 -260c0 -143 -116 -260 -260 -260zM314 -1c138 0 249 113 249 251s-111 251 -249 251c-139 0 -250 -113 -250 -251s111 -251 250 -251z" />
    <glyph glyph-name="otilde" unicode="&#xf5;" horiz-adv-x="627" 
d="M314 -10c-144 0 -260 117 -260 260c0 144 116 260 260 260s260 -116 260 -260c0 -143 -116 -260 -260 -260zM314 -1c138 0 249 113 249 251s-111 251 -249 251c-139 0 -250 -113 -250 -251s111 -251 250 -251zM136 583c0 50 34 80 78 80c35 0 66 -18 98 -36
c32 -17 63 -35 97 -35c42 0 71 23 71 73h10c0 -54 -33 -82 -81 -82c-37 0 -70 18 -102 36c-31 18 -61 35 -93 35c-37 0 -68 -24 -68 -71h-10z" />
    <glyph glyph-name="obreve" unicode="&#x14f;" horiz-adv-x="627" 
d="M314 -10c-144 0 -260 117 -260 260c0 144 116 260 260 260s260 -116 260 -260c0 -143 -116 -260 -260 -260zM314 -1c138 0 249 113 249 251s-111 251 -249 251c-139 0 -250 -113 -250 -251s111 -251 250 -251zM312 572c-110 0 -162 75 -162 143h9c0 -62 50 -134 153 -134
c95 0 151 72 151 134h10c0 -68 -60 -143 -161 -143z" />
    <glyph glyph-name="omacron" unicode="&#x14d;" horiz-adv-x="627" 
d="M180 583v9h264v-9h-264zM314 -10c-144 0 -260 117 -260 260c0 144 116 260 260 260s260 -116 260 -260c0 -143 -116 -260 -260 -260zM314 -1c138 0 249 113 249 251s-111 251 -249 251c-139 0 -250 -113 -250 -251s111 -251 250 -251z" />
    <glyph glyph-name="ohungarumlaut" unicode="&#x151;" horiz-adv-x="627" 
d="M268 583l126 137h15l-129 -137h-12zM369 583l126 137h15l-129 -137h-12zM314 -10c-144 0 -260 117 -260 260c0 144 116 260 260 260s260 -116 260 -260c0 -143 -116 -260 -260 -260zM314 -1c138 0 249 113 249 251s-111 251 -249 251c-139 0 -250 -113 -250 -251
s111 -251 250 -251z" />
    <glyph glyph-name="oslash" unicode="&#xf8;" horiz-adv-x="627" 
d="M314 -10c-57 0 -108 18 -151 48l-28 -38h-13l33 44c-62 48 -101 122 -101 206c0 144 116 260 260 260c55 0 107 -17 149 -47l27 37h13l-32 -43c62 -48 103 -123 103 -207c0 -143 -116 -260 -260 -260zM314 -1c138 0 249 113 249 251c0 81 -38 153 -98 199l-297 -404
c41 -29 91 -46 146 -46zM64 250c0 -80 38 -152 96 -198l297 403c-41 29 -90 46 -143 46c-139 0 -250 -113 -250 -251z" />
    <glyph glyph-name="oslashacute" unicode="&#x1ff;" horiz-adv-x="627" 
d="M314 -10c-57 0 -108 18 -151 48l-28 -38h-13l33 44c-62 48 -101 122 -101 206c0 144 116 260 260 260c55 0 107 -17 149 -47l27 37h13l-32 -43c62 -48 103 -123 103 -207c0 -143 -116 -260 -260 -260zM314 -1c138 0 249 113 249 251c0 81 -38 153 -98 199l-297 -404
c41 -29 91 -46 146 -46zM64 250c0 -80 38 -152 96 -198l297 403c-41 29 -90 46 -143 46c-139 0 -250 -113 -250 -251zM303 583l123 137h15l-127 -137h-11z" />
    <glyph glyph-name="oe" unicode="&#x153;" horiz-adv-x="1134" 
d="M314 -10c-144 0 -260 117 -260 260c0 144 116 260 260 260c130 0 232 -92 253 -214c21 123 124 214 256 214c148 0 256 -116 256 -259v-2h-507c0 -142 105 -250 251 -250c122 0 213 77 240 186l10 -2c-27 -112 -123 -193 -250 -193c-137 0 -236 89 -256 212
c-21 -120 -123 -212 -253 -212zM314 -1c138 0 249 113 249 251s-111 251 -249 251c-139 0 -250 -113 -250 -251s111 -251 250 -251zM823 501c-138 0 -247 -107 -251 -243h497c-4 134 -106 243 -246 243z" />
    <glyph glyph-name="thorn" unicode="&#xfe;" horiz-adv-x="652" 
d="M340 -10c-117 0 -218 78 -247 192v-412h-10v960h10v-412c29 115 130 192 247 192c144 0 260 -116 260 -260s-116 -260 -260 -260zM340 0c139 0 250 112 250 250c0 139 -111 250 -250 250c-138 0 -249 -111 -249 -250c0 -138 111 -250 249 -250z" />
    <glyph glyph-name="racute" unicode="&#x155;" horiz-adv-x="368" 
d="M79 0v500h9v-179c19 101 104 179 220 179h12v-9h-12c-126 0 -219 -97 -219 -226v-265h-10zM211 583l123 137h15l-127 -137h-11z" />
    <glyph glyph-name="rcaron" unicode="&#x159;" horiz-adv-x="368" 
d="M79 0v500h9v-179c19 101 104 179 220 179h12v-9h-12c-126 0 -219 -97 -219 -226v-265h-10zM194 583l-119 137h12l111 -129l111 129h13l-119 -137h-9z" />
    <glyph glyph-name="rcommaaccent" unicode="&#x157;" horiz-adv-x="368" 
d="M79 0v500h9v-179c19 101 104 179 220 179h12v-9h-12c-126 0 -219 -97 -219 -226v-265h-10zM36 -260h-9l51 204h13z" />
    <glyph glyph-name="sacute" unicode="&#x15b;" horiz-adv-x="449" 
d="M211 583l123 137h15l-127 -137h-11zM219 -10c-83 0 -151 43 -181 90l8 5c29 -47 96 -86 173 -86c111 0 167 62 167 133c0 81 -81 103 -162 126c-82 22 -160 48 -160 128c0 73 61 124 157 124c68 0 118 -25 154 -65l-8 -6c-34 40 -82 62 -146 62c-90 0 -148 -46 -148 -114
c0 -77 76 -99 156 -121c83 -24 166 -47 166 -134c0 -78 -63 -142 -176 -142z" />
    <glyph glyph-name="scircumflex" unicode="&#x15d;" horiz-adv-x="449" 
d="M219 -10c-83 0 -151 43 -181 90l8 5c29 -47 96 -86 173 -86c111 0 167 62 167 133c0 81 -81 103 -162 126c-82 22 -160 48 -160 128c0 73 61 124 157 124c68 0 118 -25 154 -65l-8 -6c-34 40 -82 62 -146 62c-90 0 -148 -46 -148 -114c0 -77 76 -99 156 -121
c83 -24 166 -47 166 -134c0 -78 -63 -142 -176 -142zM91 583l119 137h9l119 -137h-13l-111 128l-111 -128h-12z" />
    <glyph glyph-name="scaron" unicode="&#x161;" horiz-adv-x="449" 
d="M219 -10c-83 0 -151 43 -181 90l8 5c29 -47 96 -86 173 -86c111 0 167 62 167 133c0 81 -81 103 -162 126c-82 22 -160 48 -160 128c0 73 61 124 157 124c68 0 118 -25 154 -65l-8 -6c-34 40 -82 62 -146 62c-90 0 -148 -46 -148 -114c0 -77 76 -99 156 -121
c83 -24 166 -47 166 -134c0 -78 -63 -142 -176 -142zM210 583l-119 137h12l111 -129l111 129h13l-119 -137h-9z" />
    <glyph glyph-name="scedilla" unicode="&#x15f;" horiz-adv-x="449" 
d="M223 -214c-58 0 -94 19 -123 47l9 6c29 -28 59 -44 114 -44c67 0 112 33 112 75c0 39 -42 64 -115 64h-8v56c-80 3 -145 44 -174 90l8 5c28 -46 92 -84 166 -86v1h9v-1c109 1 165 62 165 133c0 81 -81 103 -162 126c-82 22 -160 48 -160 128c0 73 61 124 157 124
c68 0 118 -25 154 -65l-8 -6c-34 40 -82 62 -146 62c-90 0 -148 -46 -148 -114c0 -77 76 -99 156 -121c83 -24 166 -47 166 -134c0 -78 -62 -141 -174 -142v-48c77 0 125 -26 125 -72c0 -48 -48 -84 -123 -84z" />
    <glyph glyph-name="scommaaccent" unicode="&#x219;" horiz-adv-x="449" 
d="M172 -260h-9l51 204h13zM219 -10c-83 0 -151 43 -181 90l8 5c29 -47 96 -86 173 -86c111 0 167 62 167 133c0 81 -81 103 -162 126c-82 22 -160 48 -160 128c0 73 61 124 157 124c68 0 118 -25 154 -65l-8 -6c-34 40 -82 62 -146 62c-90 0 -148 -46 -148 -114
c0 -77 76 -99 156 -121c83 -24 166 -47 166 -134c0 -78 -63 -142 -176 -142z" />
    <glyph glyph-name="germandbls" unicode="&#xdf;" horiz-adv-x="546" 
d="M-57 -230v9c97 0 138 61 138 160v623c0 105 80 180 178 180c104 0 181 -79 181 -180c0 -89 -60 -154 -127 -172c108 -15 177 -94 177 -195c0 -114 -86 -201 -197 -201c-45 0 -83 12 -112 29l6 8c28 -17 64 -28 106 -28c104 0 187 87 187 192s-81 190 -200 190h-14v9h14
c71 0 150 69 150 169c0 93 -73 171 -171 171c-90 0 -169 -72 -169 -170v-624c0 -109 -47 -170 -144 -170h-3z" />
    <glyph glyph-name="tcommaaccent" unicode="&#x163;" horiz-adv-x="317" 
d="M26 492v8h89v118l9 10v-128h149v-8h-149v-330c0 -129 31 -153 149 -153v-9h-2c-123 0 -156 29 -156 161v331h-89zM142 -285h-9l51 204h13z" />
    <glyph glyph-name="uacute" unicode="&#xfa;" horiz-adv-x="617" 
d="M307 -10c-132 0 -230 85 -230 227v283h10v-284c0 -134 91 -217 220 -217c122 0 222 91 222 216v285h9v-500h-9v162c-20 -98 -109 -172 -222 -172zM295 583l123 137h15l-127 -137h-11z" />
    <glyph glyph-name="ugrave" unicode="&#xf9;" horiz-adv-x="617" 
d="M307 -10c-132 0 -230 85 -230 227v283h10v-284c0 -134 91 -217 220 -217c122 0 222 91 222 216v285h9v-500h-9v162c-20 -98 -109 -172 -222 -172zM312 583l-128 137h15l125 -137h-12z" />
    <glyph glyph-name="ucircumflex" unicode="&#xfb;" horiz-adv-x="617" 
d="M307 -10c-132 0 -230 85 -230 227v283h10v-284c0 -134 91 -217 220 -217c122 0 222 91 222 216v285h9v-500h-9v162c-20 -98 -109 -172 -222 -172zM184 583l119 137h9l119 -137h-13l-111 128l-111 -128h-12z" />
    <glyph glyph-name="udieresis" unicode="&#xfc;" horiz-adv-x="617" 
d="M307 -10c-132 0 -230 85 -230 227v283h10v-284c0 -134 91 -217 220 -217c122 0 222 91 222 216v285h9v-500h-9v162c-20 -98 -109 -172 -222 -172zM262 582v140h9v-140h-9zM351 582v140h9v-140h-9z" />
    <glyph glyph-name="utilde" unicode="&#x169;" horiz-adv-x="617" 
d="M307 -10c-132 0 -230 85 -230 227v283h10v-284c0 -134 91 -217 220 -217c122 0 222 91 222 216v285h9v-500h-9v162c-20 -98 -109 -172 -222 -172zM132 583c0 50 34 80 78 80c35 0 66 -18 98 -36c32 -17 63 -35 97 -35c42 0 71 23 71 73h10c0 -54 -33 -82 -81 -82
c-37 0 -70 18 -102 36c-31 18 -61 35 -93 35c-37 0 -68 -24 -68 -71h-10z" />
    <glyph glyph-name="uring" unicode="&#x16f;" horiz-adv-x="617" 
d="M306 577c-45 0 -81 36 -81 80c0 46 36 82 81 82c46 0 82 -36 82 -82c0 -44 -36 -80 -82 -80zM306 586c40 0 72 32 72 71c0 40 -32 73 -72 73c-39 0 -71 -33 -71 -73c0 -39 32 -71 71 -71zM307 -10c-132 0 -230 85 -230 227v283h10v-284c0 -134 91 -217 220 -217
c122 0 222 91 222 216v285h9v-500h-9v162c-20 -98 -109 -172 -222 -172z" />
    <glyph glyph-name="ubreve" unicode="&#x16d;" horiz-adv-x="617" 
d="M307 -10c-132 0 -230 85 -230 227v283h10v-284c0 -134 91 -217 220 -217c122 0 222 91 222 216v285h9v-500h-9v162c-20 -98 -109 -172 -222 -172zM308 572c-110 0 -162 75 -162 143h9c0 -62 50 -134 153 -134c95 0 151 72 151 134h10c0 -68 -60 -143 -161 -143z" />
    <glyph glyph-name="umacron" unicode="&#x16b;" horiz-adv-x="617" 
d="M307 -10c-132 0 -230 85 -230 227v283h10v-284c0 -134 91 -217 220 -217c122 0 222 91 222 216v285h9v-500h-9v162c-20 -98 -109 -172 -222 -172zM177 583v9h264v-9h-264z" />
    <glyph glyph-name="uhungarumlaut" unicode="&#x171;" horiz-adv-x="617" 
d="M307 -10c-132 0 -230 85 -230 227v283h10v-284c0 -134 91 -217 220 -217c122 0 222 91 222 216v285h9v-500h-9v162c-20 -98 -109 -172 -222 -172zM358 583l126 137h15l-129 -137h-12zM257 583l126 137h15l-129 -137h-12z" />
    <glyph glyph-name="uogonek" unicode="&#x173;" horiz-adv-x="617" 
d="M530 -222c-56 0 -91 36 -91 83c0 49 38 98 90 145v156c-20 -98 -109 -172 -222 -172c-132 0 -230 85 -230 227v283h10v-284c0 -134 91 -217 220 -217c122 0 222 91 222 216v285h9v-500h-2l2 -1c-52 -42 -90 -94 -90 -137c0 -44 32 -75 82 -75c43 0 70 22 95 48l7 -7
c-25 -25 -54 -50 -102 -50z" />
    <glyph glyph-name="wacute" unicode="&#x1e83;" horiz-adv-x="800" 
d="M201 0l-155 500h11l148 -479l202 479h8l182 -481l156 481h11l-162 -500h-8l-184 484l-202 -484h-7zM400 583l123 137h15l-127 -137h-11z" />
    <glyph glyph-name="wgrave" unicode="&#x1e81;" horiz-adv-x="800" 
d="M201 0l-155 500h11l148 -479l202 479h8l182 -481l156 481h11l-162 -500h-8l-184 484l-202 -484h-7zM392 583l-128 137h15l125 -137h-12z" />
    <glyph glyph-name="wcircumflex" unicode="&#x175;" horiz-adv-x="800" 
d="M201 0l-155 500h11l148 -479l202 479h8l182 -481l156 481h11l-162 -500h-8l-184 484l-202 -484h-7zM279 583l119 137h9l119 -137h-13l-111 128l-111 -128h-12z" />
    <glyph glyph-name="wdieresis" unicode="&#x1e85;" horiz-adv-x="800" 
d="M201 0l-155 500h11l148 -479l202 479h8l182 -481l156 481h11l-162 -500h-8l-184 484l-202 -484h-7zM355 582v140h9v-140h-9zM444 582v140h9v-140h-9z" />
    <glyph glyph-name="yacute" unicode="&#xfd;" horiz-adv-x="558" 
d="M159 -231l122 259l-235 472h11l230 -461l216 461h11l-343 -731h-12zM275 583l123 137h15l-127 -137h-11z" />
    <glyph glyph-name="ygrave" unicode="&#x1ef3;" horiz-adv-x="558" 
d="M159 -231l122 259l-235 472h11l230 -461l216 461h11l-343 -731h-12zM283 583l-128 137h15l125 -137h-12z" />
    <glyph glyph-name="ycircumflex" unicode="&#x177;" horiz-adv-x="558" 
d="M159 -231l122 259l-235 472h11l230 -461l216 461h11l-343 -731h-12zM156 583l119 137h9l119 -137h-13l-111 128l-111 -128h-12z" />
    <glyph glyph-name="ydieresis" unicode="&#xff;" horiz-adv-x="558" 
d="M159 -231l122 259l-235 472h11l230 -461l216 461h11l-343 -731h-12zM232 582v140h9v-140h-9zM321 582v140h9v-140h-9z" />
    <glyph glyph-name="zacute" unicode="&#x17a;" horiz-adv-x="541" 
d="M48 0v9l427 482h-409v9h423v-8l-427 -483h431v-9h-445zM263 583l123 137h15l-127 -137h-11z" />
    <glyph glyph-name="zcaron" unicode="&#x17e;" horiz-adv-x="541" 
d="M48 0v9l427 482h-409v9h423v-8l-427 -483h431v-9h-445zM269 583l-119 137h12l111 -129l111 129h13l-119 -137h-9z" />
    <glyph glyph-name="zdotaccent" unicode="&#x17c;" horiz-adv-x="541" 
d="M48 0v9l427 482h-409v9h423v-8l-427 -483h431v-9h-445zM266 582v140h10v-140h-10z" />
    <glyph glyph-name="aacute.alt" unicode="&#xe891;" horiz-adv-x="542" 
d="M229 -10c-125 0 -167 57 -167 130c-1 99 91 131 198 150c100 18 193 29 193 105c0 74 -58 126 -180 126c-116 0 -193 -65 -193 -162v-3h-9v2c0 102 81 172 202 172c127 0 190 -55 190 -137v-373h-9v118c-22 -46 -99 -128 -225 -128zM228 -2c130 0 205 88 226 137v207
c-20 -47 -74 -59 -194 -81c-103 -18 -188 -46 -188 -141c0 -67 37 -122 156 -122zM247 583l123 137h15l-127 -137h-11z" />
    <glyph glyph-name="agrave.alt" unicode="&#xe892;" horiz-adv-x="542" 
d="M229 -10c-125 0 -167 57 -167 130c-1 99 91 131 198 150c100 18 193 29 193 105c0 74 -58 126 -180 126c-116 0 -193 -65 -193 -162v-3h-9v2c0 102 81 172 202 172c127 0 190 -55 190 -137v-373h-9v118c-22 -46 -99 -128 -225 -128zM228 -2c130 0 205 88 226 137v207
c-20 -47 -74 -59 -194 -81c-103 -18 -188 -46 -188 -141c0 -67 37 -122 156 -122zM274 583l-128 137h15l125 -137h-12z" />
    <glyph glyph-name="acircumflex.alt" unicode="&#xe893;" horiz-adv-x="542" 
d="M229 -10c-125 0 -167 57 -167 130c-1 99 91 131 198 150c100 18 193 29 193 105c0 74 -58 126 -180 126c-116 0 -193 -65 -193 -162v-3h-9v2c0 102 81 172 202 172c127 0 190 -55 190 -137v-373h-9v118c-22 -46 -99 -128 -225 -128zM228 -2c130 0 205 88 226 137v207
c-20 -47 -74 -59 -194 -81c-103 -18 -188 -46 -188 -141c0 -67 37 -122 156 -122zM144 583l119 137h9l119 -137h-13l-111 128l-111 -128h-12z" />
    <glyph glyph-name="adieresis.alt" unicode="&#xe894;" horiz-adv-x="542" 
d="M229 -10c-125 0 -167 57 -167 130c-1 99 91 131 198 150c100 18 193 29 193 105c0 74 -58 126 -180 126c-116 0 -193 -65 -193 -162v-3h-9v2c0 102 81 172 202 172c127 0 190 -55 190 -137v-373h-9v118c-22 -46 -99 -128 -225 -128zM228 -2c130 0 205 88 226 137v207
c-20 -47 -74 -59 -194 -81c-103 -18 -188 -46 -188 -141c0 -67 37 -122 156 -122zM213 582v140h9v-140h-9zM302 582v140h9v-140h-9z" />
    <glyph glyph-name="atilde.alt" unicode="&#xe898;" horiz-adv-x="542" 
d="M229 -10c-125 0 -167 57 -167 130c-1 99 91 131 198 150c100 18 193 29 193 105c0 74 -58 126 -180 126c-116 0 -193 -65 -193 -162v-3h-9v2c0 102 81 172 202 172c127 0 190 -55 190 -137v-373h-9v118c-22 -46 -99 -128 -225 -128zM228 -2c130 0 205 88 226 137v207
c-20 -47 -74 -59 -194 -81c-103 -18 -188 -46 -188 -141c0 -67 37 -122 156 -122zM105 583c0 50 34 80 78 80c35 0 66 -18 98 -36c32 -17 63 -35 97 -35c42 0 71 23 71 73h10c0 -54 -33 -82 -81 -82c-37 0 -70 18 -102 36c-31 18 -61 35 -93 35c-37 0 -68 -24 -68 -71h-10z
" />
    <glyph glyph-name="aring.alt" unicode="&#xe897;" horiz-adv-x="542" 
d="M229 -10c-125 0 -167 57 -167 130c-1 99 91 131 198 150c100 18 193 29 193 105c0 74 -58 126 -180 126c-116 0 -193 -65 -193 -162v-3h-9v2c0 102 81 172 202 172c127 0 190 -55 190 -137v-373h-9v118c-22 -46 -99 -128 -225 -128zM228 -2c130 0 205 88 226 137v207
c-20 -47 -74 -59 -194 -81c-103 -18 -188 -46 -188 -141c0 -67 37 -122 156 -122zM263 573c-45 0 -81 36 -81 80c0 46 36 82 81 82c46 0 82 -36 82 -82c0 -44 -36 -80 -82 -80zM263 582c40 0 72 32 72 71c0 40 -32 73 -72 73c-39 0 -71 -33 -71 -73c0 -39 32 -71 71 -71z
" />
    <glyph glyph-name="amacron.alt" unicode="&#xe895;" horiz-adv-x="542" 
d="M229 -10c-125 0 -167 57 -167 130c-1 99 91 131 198 150c100 18 193 29 193 105c0 74 -58 126 -180 126c-116 0 -193 -65 -193 -162v-3h-9v2c0 102 81 172 202 172c127 0 190 -55 190 -137v-373h-9v118c-22 -46 -99 -128 -225 -128zM228 -2c130 0 205 88 226 137v207
c-20 -47 -74 -59 -194 -81c-103 -18 -188 -46 -188 -141c0 -67 37 -122 156 -122zM142 583v9h264v-9h-264z" />
    <glyph glyph-name="abreve.alt" unicode="&#xe896;" horiz-adv-x="542" 
d="M229 -10c-125 0 -167 57 -167 130c-1 99 91 131 198 150c100 18 193 29 193 105c0 74 -58 126 -180 126c-116 0 -193 -65 -193 -162v-3h-9v2c0 102 81 172 202 172c127 0 190 -55 190 -137v-373h-9v118c-22 -46 -99 -128 -225 -128zM228 -2c130 0 205 88 226 137v207
c-20 -47 -74 -59 -194 -81c-103 -18 -188 -46 -188 -141c0 -67 37 -122 156 -122zM273 572c-110 0 -162 75 -162 143h9c0 -62 50 -134 153 -134c95 0 151 72 151 134h10c0 -68 -60 -143 -161 -143z" />
    <glyph glyph-name="aogonek.alt" unicode="&#xe899;" horiz-adv-x="542" 
d="M457 -220c-56 0 -91 36 -91 83c0 49 37 97 88 143v112c-22 -46 -99 -128 -225 -128c-125 0 -167 57 -167 130c-1 99 91 131 198 150c100 18 193 29 193 105c0 74 -58 126 -180 126c-116 0 -193 -65 -193 -162v-3h-9v2c0 102 81 172 202 172c127 0 190 -55 190 -137v-371
l2 -1c-52 -42 -90 -94 -90 -137c0 -44 32 -75 82 -75c43 0 70 22 95 48l7 -7c-25 -25 -54 -50 -102 -50zM228 -2c130 0 205 88 226 137v207c-20 -47 -74 -59 -194 -81c-103 -18 -188 -46 -188 -141c0 -67 37 -122 156 -122z" />
    <glyph glyph-name="aringacute.alt" unicode="&#xf458;" horiz-adv-x="542" 
d="M229 -10c-125 0 -167 57 -167 130c-1 99 91 131 198 150c100 18 193 29 193 105c0 74 -58 126 -180 126c-116 0 -193 -65 -193 -162v-3h-9v2c0 102 81 172 202 172c127 0 190 -55 190 -137v-373h-9v118c-22 -46 -99 -128 -225 -128zM228 -2c130 0 205 88 226 137v207
c-20 -47 -74 -59 -194 -81c-103 -18 -188 -46 -188 -141c0 -67 37 -122 156 -122zM271 577c-45 0 -81 36 -81 80c0 46 36 82 81 82c46 0 82 -36 82 -82c0 -44 -36 -80 -82 -80zM271 586c40 0 72 32 72 71c0 40 -32 73 -72 73c-39 0 -71 -33 -71 -73c0 -39 32 -71 71 -71z
M270 789l123 137h15l-127 -137h-11z" />
    <glyph glyph-name="gcircumflex.alt" unicode="&#xe90e;" horiz-adv-x="580" 
d="M273 -264c-172 0 -231 48 -231 118c0 66 59 101 126 112c-77 3 -115 22 -115 74c0 48 53 82 153 79l18 -1c-94 11 -162 95 -162 193c0 111 88 199 198 199c96 0 173 -70 191 -154c4 109 33 145 97 145h13v-8h-13c-62 0 -91 -33 -91 -182c0 -110 -87 -199 -198 -199h-54
c-100 0 -143 -30 -143 -72c0 -51 41 -68 136 -68h129c117 0 188 -36 188 -109c0 -70 -78 -127 -242 -127zM259 120c105 0 189 85 189 191s-84 191 -189 191c-103 0 -188 -85 -188 -191c0 -105 85 -191 188 -191zM328 -37h-124c-79 -1 -152 -38 -152 -109
c0 -65 58 -110 219 -110h3c155 0 231 52 231 118c0 70 -64 101 -177 101zM122 583l119 137h9l119 -137h-13l-111 128l-111 -128h-12z" />
    <glyph glyph-name="gbreve.alt" unicode="&#xe910;" horiz-adv-x="580" 
d="M273 -264c-172 0 -231 48 -231 118c0 66 59 101 126 112c-77 3 -115 22 -115 74c0 48 53 82 153 79l18 -1c-94 11 -162 95 -162 193c0 111 88 199 198 199c96 0 173 -70 191 -154c4 109 33 145 97 145h13v-8h-13c-62 0 -91 -33 -91 -182c0 -110 -87 -199 -198 -199h-54
c-100 0 -143 -30 -143 -72c0 -51 41 -68 136 -68h129c117 0 188 -36 188 -109c0 -70 -78 -127 -242 -127zM259 120c105 0 189 85 189 191s-84 191 -189 191c-103 0 -188 -85 -188 -191c0 -105 85 -191 188 -191zM328 -37h-124c-79 -1 -152 -38 -152 -109
c0 -65 58 -110 219 -110h3c155 0 231 52 231 118c0 70 -64 101 -177 101zM263 572c-110 0 -162 75 -162 143h9c0 -62 50 -134 153 -134c95 0 151 72 151 134h10c0 -68 -60 -143 -161 -143z" />
    <glyph glyph-name="gdotaccent.alt" unicode="&#xe90f;" horiz-adv-x="580" 
d="M273 -264c-172 0 -231 48 -231 118c0 66 59 101 126 112c-77 3 -115 22 -115 74c0 48 53 82 153 79l18 -1c-94 11 -162 95 -162 193c0 111 88 199 198 199c96 0 173 -70 191 -154c4 109 33 145 97 145h13v-8h-13c-62 0 -91 -33 -91 -182c0 -110 -87 -199 -198 -199h-54
c-100 0 -143 -30 -143 -72c0 -51 41 -68 136 -68h129c117 0 188 -36 188 -109c0 -70 -78 -127 -242 -127zM259 120c105 0 189 85 189 191s-84 191 -189 191c-103 0 -188 -85 -188 -191c0 -105 85 -191 188 -191zM328 -37h-124c-79 -1 -152 -38 -152 -109
c0 -65 58 -110 219 -110h3c155 0 231 52 231 118c0 70 -64 101 -177 101zM254 582v140h10v-140h-10z" />
    <glyph glyph-name="gcommaaccent.alt" unicode="&#xe911;" horiz-adv-x="580" 
d="M273 -264c-172 0 -231 48 -231 118c0 66 59 101 126 112c-77 3 -115 22 -115 74c0 48 53 82 153 79l18 -1c-94 11 -162 95 -162 193c0 111 88 199 198 199c96 0 173 -70 191 -154c4 109 33 145 97 145h13v-8h-13c-62 0 -91 -33 -91 -182c0 -110 -87 -199 -198 -199h-54
c-100 0 -143 -30 -143 -72c0 -51 41 -68 136 -68h129c117 0 188 -36 188 -109c0 -70 -78 -127 -242 -127zM259 120c105 0 189 85 189 191s-84 191 -189 191c-103 0 -188 -85 -188 -191c0 -105 85 -191 188 -191zM328 -37h-124c-79 -1 -152 -38 -152 -109
c0 -65 58 -110 219 -110h3c155 0 231 52 231 118c0 70 -64 101 -177 101zM258 581h-9l51 204h13z" />
    <glyph glyph-name="space" unicode=" " horiz-adv-x="260" 
 />
    <glyph glyph-name="bar" unicode="|" horiz-adv-x="164" 
d="M77 -230v960h10v-960h-10z" />
    <glyph glyph-name="brokenbar" unicode="&#xa6;" horiz-adv-x="164" 
d="M77 310v420h10v-420h-10zM77 -230v420h10v-420h-10z" />
    <glyph glyph-name="parenleft" unicode="(" horiz-adv-x="391" 
d="M333 -250c-154 105 -266 264 -266 499c0 228 105 396 256 497l8 -7c-153 -101 -254 -268 -254 -490c0 -227 110 -388 262 -491z" />
    <glyph glyph-name="parenright" unicode=")" horiz-adv-x="391" 
d="M314 250c0 221 -101 388 -253 489l7 8c152 -102 257 -269 257 -497c0 -234 -112 -395 -266 -500l-7 9c153 103 262 263 262 491z" />
    <glyph glyph-name="bracketleft" unicode="[" horiz-adv-x="344" 
d="M56 -230v960h246v-9h-236v-942h236v-9h-246z" />
    <glyph glyph-name="bracketright" unicode="]" horiz-adv-x="344" 
d="M42 -230v8h237v943h-237v9h247v-960h-247z" />
    <glyph glyph-name="braceleft" unicode="{" horiz-adv-x="411" 
d="M366 -230h-11c-167 0 -220 54 -220 217v147c0 78 -10 110 -94 110v11c84 0 94 39 94 117v141c0 163 51 217 220 217h11l-6 -9c-169 0 -215 -50 -215 -209v-141c0 -70 -12 -111 -69 -121c59 -9 69 -46 69 -115v-147c0 -159 47 -209 215 -209z" />
    <glyph glyph-name="braceright" unicode="}" horiz-adv-x="411" 
d="M46 -230l5 9c168 0 216 50 216 209v147c0 68 10 106 68 115c-57 10 -68 51 -68 121v141c0 159 -46 209 -216 209l-5 9h11c168 0 220 -54 220 -217v-141c0 -78 10 -117 94 -117v-11c-84 0 -94 -32 -94 -110v-147c0 -163 -53 -217 -220 -217h-11z" />
    <glyph glyph-name="hyphen" unicode="-" horiz-adv-x="481" 
d="M56 251v9h370v-9h-370z" />
    <glyph glyph-name="endash" unicode="&#x2013;" horiz-adv-x="532" 
d="M56 251v10h421v-10h-421z" />
    <glyph glyph-name="periodcentered" unicode="&#xb7;" horiz-adv-x="165" 
d="M77 181v137h11v-137h-11z" />
    <glyph glyph-name="guillemotleft" unicode="&#xab;" horiz-adv-x="420" 
d="M211 128l-138 119v9l138 119v-13l-129 -111l129 -111v-12zM343 128l-137 119v9l137 119v-13l-128 -111l128 -111v-12z" />
    <glyph glyph-name="guillemotright" unicode="&#xbb;" horiz-adv-x="420" 
d="M73 128v12l129 111l-129 111v13l138 -119v-9zM206 128v12l128 111l-128 111v13l137 -119v-9z" />
    <glyph glyph-name="guilsinglleft" unicode="&#x2039;" horiz-adv-x="283" 
d="M207 125l-138 119v9l138 119v-13l-129 -111l129 -111v-12z" />
    <glyph glyph-name="guilsinglright" unicode="&#x203a;" horiz-adv-x="283" 
d="M78 125v12l129 111l-129 111v13l138 -119v-9z" />
    <glyph glyph-name="bullet" unicode="&#x2022;" horiz-adv-x="237" 
d="M118 225c-15 0 -28 13 -28 28c0 16 13 29 28 29c16 0 29 -13 29 -29c0 -15 -13 -28 -29 -28z" />
    <glyph glyph-name="a.smcp" unicode="&#xe201;" horiz-adv-x="565" 
d="M40 0l238 596h9l237 -596h-10l-76 191h-311l-76 -191h-11zM282 582l-152 -382h304z" />
    <glyph glyph-name="a.smcp" unicode="&#xf761;" horiz-adv-x="565" 
d="M40 0l238 596h9l237 -596h-10l-76 191h-311l-76 -191h-11zM282 582l-152 -382h304z" />
    <glyph glyph-name="b.smcp" unicode="&#xe202;" horiz-adv-x="544" 
d="M78 0v596h252c84 0 154 -66 154 -148c0 -70 -48 -128 -116 -141c73 -12 126 -75 126 -150c0 -87 -67 -157 -155 -157h-261zM339 303h-251v-294h250c83 0 147 66 147 148c0 81 -66 146 -146 146zM328 587h-240v-275h251c76 0 135 61 135 136c0 78 -68 139 -146 139z" />
    <glyph glyph-name="b.smcp" unicode="&#xf762;" horiz-adv-x="544" 
d="M78 0v596h252c84 0 154 -66 154 -148c0 -70 -48 -128 -116 -141c73 -12 126 -75 126 -150c0 -87 -67 -157 -155 -157h-261zM339 303h-251v-294h250c83 0 147 66 147 148c0 81 -66 146 -146 146zM328 587h-240v-275h251c76 0 135 61 135 136c0 78 -68 139 -146 139z" />
    <glyph glyph-name="c.smcp" unicode="&#xe203;" horiz-adv-x="662" 
d="M361 -10c-169 0 -306 136 -306 308s137 307 306 307c111 0 205 -55 259 -140l-8 -5c-53 83 -143 136 -251 136c-163 0 -296 -133 -296 -298s132 -299 296 -299c115 0 210 57 262 146l8 -4c-53 -91 -151 -151 -270 -151z" />
    <glyph glyph-name="c.smcp" unicode="&#xf763;" horiz-adv-x="662" 
d="M361 -10c-169 0 -306 136 -306 308s137 307 306 307c111 0 205 -55 259 -140l-8 -5c-53 83 -143 136 -251 136c-163 0 -296 -133 -296 -298s132 -299 296 -299c115 0 210 57 262 146l8 -4c-53 -91 -151 -151 -270 -151z" />
    <glyph glyph-name="d.smcp" unicode="&#xe204;" horiz-adv-x="605" 
d="M78 0v596h168c167 0 305 -129 305 -298s-138 -298 -305 -298h-168zM246 587h-158v-578h158c162 0 295 126 295 289c0 164 -133 289 -295 289z" />
    <glyph glyph-name="d.smcp" unicode="&#xf764;" horiz-adv-x="605" 
d="M78 0v596h168c167 0 305 -129 305 -298s-138 -298 -305 -298h-168zM246 587h-158v-578h158c162 0 295 126 295 289c0 164 -133 289 -295 289z" />
    <glyph glyph-name="e.smcp" unicode="&#xe205;" horiz-adv-x="509" 
d="M79 0v596h371v-9h-361v-284h361v-9h-361v-285h361v-9h-371z" />
    <glyph glyph-name="e.smcp" unicode="&#xf765;" horiz-adv-x="509" 
d="M79 0v596h371v-9h-361v-284h361v-9h-361v-285h361v-9h-371z" />
    <glyph glyph-name="f.smcp" unicode="&#xe206;" horiz-adv-x="468" 
d="M78 0v596h337v-8h-327v-286h327v-9h-327v-293h-10z" />
    <glyph glyph-name="f.smcp" unicode="&#xf766;" horiz-adv-x="468" 
d="M78 0v596h337v-8h-327v-286h327v-9h-327v-293h-10z" />
    <glyph glyph-name="g.smcp" unicode="&#xe207;" horiz-adv-x="716" 
d="M365 -10c-177 0 -310 142 -310 308c0 169 135 307 306 307c114 0 211 -53 265 -140l-9 -4c-51 84 -145 135 -256 135c-164 0 -296 -134 -296 -298c0 -159 127 -299 300 -299c177 0 289 134 292 290h-298v9h307v-3c0 -163 -117 -305 -301 -305z" />
    <glyph glyph-name="g.smcp" unicode="&#xf767;" horiz-adv-x="716" 
d="M365 -10c-177 0 -310 142 -310 308c0 169 135 307 306 307c114 0 211 -53 265 -140l-9 -4c-51 84 -145 135 -256 135c-164 0 -296 -134 -296 -298c0 -159 127 -299 300 -299c177 0 289 134 292 290h-298v9h307v-3c0 -163 -117 -305 -301 -305z" />
    <glyph glyph-name="h.smcp" unicode="&#xe208;" horiz-adv-x="589" 
d="M501 0v293h-413v-293h-10v596h10v-294h413v294h10v-596h-10z" />
    <glyph glyph-name="h.smcp" unicode="&#xf768;" horiz-adv-x="589" 
d="M501 0v293h-413v-293h-10v596h10v-294h413v294h10v-596h-10z" />
    <glyph glyph-name="i.smcp" unicode="&#xe209;" horiz-adv-x="176" 
d="M83 0v596h10v-596h-10z" />
    <glyph glyph-name="i.smcp" unicode="&#xf769;" horiz-adv-x="176" 
d="M83 0v596h10v-596h-10z" />
    <glyph glyph-name="j.smcp" unicode="&#xe20a;" horiz-adv-x="422" 
d="M194 -10c-72 0 -119 29 -145 86l8 4c28 -53 67 -81 137 -81c88 0 140 67 140 145v452h10v-453c0 -82 -56 -153 -150 -153z" />
    <glyph glyph-name="j.smcp" unicode="&#xf76a;" horiz-adv-x="422" 
d="M194 -10c-72 0 -119 29 -145 86l8 4c28 -53 67 -81 137 -81c88 0 140 67 140 145v452h10v-453c0 -82 -56 -153 -150 -153z" />
    <glyph glyph-name="k.smcp" unicode="&#xe20b;" horiz-adv-x="562" 
d="M505 0l-251 347l-165 -185v-162h-10v596h10v-421l378 421h13l-219 -243l256 -353h-12z" />
    <glyph glyph-name="k.smcp" unicode="&#xf76b;" horiz-adv-x="562" 
d="M505 0l-251 347l-165 -185v-162h-10v596h10v-421l378 421h13l-219 -243l256 -353h-12z" />
    <glyph glyph-name="l.smcp" unicode="&#xe20c;" horiz-adv-x="461" 
d="M78 0v596h10v-587h322v-9h-332z" />
    <glyph glyph-name="l.smcp" unicode="&#xf76c;" horiz-adv-x="461" 
d="M78 0v596h10v-587h322v-9h-332z" />
    <glyph glyph-name="m.smcp" unicode="&#xe20d;" horiz-adv-x="740" 
d="M78 0v596h9l278 -386l290 386h7v-596h-9v578l-288 -383l-277 383v-578h-10z" />
    <glyph glyph-name="m.smcp" unicode="&#xf76d;" horiz-adv-x="740" 
d="M78 0v596h9l278 -386l290 386h7v-596h-9v578l-288 -383l-277 383v-578h-10z" />
    <glyph glyph-name="n.smcp" unicode="&#xe20e;" horiz-adv-x="633" 
d="M78 0v596h9l458 -581v581h10v-596h-10l-457 579v-579h-10z" />
    <glyph glyph-name="n.smcp" unicode="&#xf76e;" horiz-adv-x="633" 
d="M78 0v596h9l458 -581v581h10v-596h-10l-457 579v-579h-10z" />
    <glyph glyph-name="o.smcp" unicode="&#xe20f;" horiz-adv-x="721" 
d="M360 -10c-172 0 -305 139 -305 308s133 307 305 307s306 -138 306 -307s-133 -308 -306 -308zM360 -1c168 0 296 137 296 299s-128 298 -296 298c-167 0 -295 -136 -295 -298s128 -299 295 -299z" />
    <glyph glyph-name="o.smcp" unicode="&#xf76f;" horiz-adv-x="721" 
d="M360 -10c-172 0 -305 139 -305 308s133 307 305 307s306 -138 306 -307s-133 -308 -306 -308zM360 -1c168 0 296 137 296 299s-128 298 -296 298c-167 0 -295 -136 -295 -298s128 -299 295 -299z" />
    <glyph glyph-name="p.smcp" unicode="&#xe200;" horiz-adv-x="514" 
d="M76 0v596h166c137 0 221 -82 221 -196c0 -113 -84 -197 -220 -197h-158v-203h-9zM242 587h-157v-375h158c130 0 210 80 210 188c0 109 -80 187 -211 187z" />
    <glyph glyph-name="p.smcp" unicode="&#xf770;" horiz-adv-x="514" 
d="M76 0v596h166c137 0 221 -82 221 -196c0 -113 -84 -197 -220 -197h-158v-203h-9zM242 587h-157v-375h158c130 0 210 80 210 188c0 109 -80 187 -211 187z" />
    <glyph glyph-name="q.smcp" unicode="&#xe211;" horiz-adv-x="722" 
d="M360 -10c-172 0 -305 139 -305 308s133 307 305 307s306 -138 306 -307c0 -88 -37 -168 -96 -224l68 -74h-14l-199 218h13l125 -137c57 55 93 132 93 217c0 162 -128 298 -296 298c-167 0 -295 -136 -295 -298s128 -299 295 -299c60 0 116 19 162 50l7 -8
c-48 -32 -106 -51 -169 -51z" />
    <glyph glyph-name="q.smcp" unicode="&#xf771;" horiz-adv-x="722" 
d="M360 -10c-172 0 -305 139 -305 308s133 307 305 307s306 -138 306 -307c0 -88 -37 -168 -96 -224l68 -74h-14l-199 218h13l125 -137c57 55 93 132 93 217c0 162 -128 298 -296 298c-167 0 -295 -136 -295 -298s128 -299 295 -299c60 0 116 19 162 50l7 -8
c-48 -32 -106 -51 -169 -51z" />
    <glyph glyph-name="r.smcp" unicode="&#xe212;" horiz-adv-x="490" 
d="M78 0v596h181c98 0 179 -80 179 -178c0 -96 -77 -175 -173 -179l176 -239h-12l-182 248h10c93 0 171 76 171 170c0 93 -77 169 -170 169h-170v-587h-10z" />
    <glyph glyph-name="r.smcp" unicode="&#xf772;" horiz-adv-x="490" 
d="M78 0v596h181c98 0 179 -80 179 -178c0 -96 -77 -175 -173 -179l176 -239h-12l-182 248h10c93 0 171 76 171 170c0 93 -77 169 -170 169h-170v-587h-10z" />
    <glyph glyph-name="s.smcp" unicode="&#xe213;" horiz-adv-x="455" 
d="M215 -10c-70 0 -130 32 -166 71l7 6c36 -37 92 -68 159 -68c99 0 177 64 177 155c0 99 -85 130 -170 159c-84 29 -166 57 -166 149c0 89 75 143 165 143c71 0 124 -28 156 -65l-8 -6c-30 36 -81 62 -148 62c-84 0 -155 -51 -155 -134c0 -86 79 -112 160 -140
c86 -30 175 -62 175 -169c0 -95 -79 -163 -186 -163z" />
    <glyph glyph-name="s.smcp" unicode="&#xf773;" horiz-adv-x="455" 
d="M215 -10c-70 0 -130 32 -166 71l7 6c36 -37 92 -68 159 -68c99 0 177 64 177 155c0 99 -85 130 -170 159c-84 29 -166 57 -166 149c0 89 75 143 165 143c71 0 124 -28 156 -65l-8 -6c-30 36 -81 62 -148 62c-84 0 -155 -51 -155 -134c0 -86 79 -112 160 -140
c86 -30 175 -62 175 -169c0 -95 -79 -163 -186 -163z" />
    <glyph glyph-name="t.smcp" unicode="&#xe214;" horiz-adv-x="515" 
d="M254 0v587h-203v9h413v-9h-201v-587h-9z" />
    <glyph glyph-name="t.smcp" unicode="&#xf774;" horiz-adv-x="515" 
d="M254 0v587h-203v9h413v-9h-201v-587h-9z" />
    <glyph glyph-name="u.smcp" unicode="&#xe215;" horiz-adv-x="563" 
d="M282 -10c-115 0 -203 89 -203 199v407h9v-406c0 -106 86 -191 194 -191c107 0 193 85 193 192v405h9v-406c0 -111 -88 -200 -202 -200z" />
    <glyph glyph-name="u.smcp" unicode="&#xf775;" horiz-adv-x="563" 
d="M282 -10c-115 0 -203 89 -203 199v407h9v-406c0 -106 86 -191 194 -191c107 0 193 85 193 192v405h9v-406c0 -111 -88 -200 -202 -200z" />
    <glyph glyph-name="v.smcp" unicode="&#xe216;" horiz-adv-x="568" 
d="M280 0l-238 596h10l232 -580l233 580h10l-239 -596h-8z" />
    <glyph glyph-name="v.smcp" unicode="&#xf776;" horiz-adv-x="568" 
d="M280 0l-238 596h10l232 -580l233 580h10l-239 -596h-8z" />
    <glyph glyph-name="w.smcp" unicode="&#xe217;" horiz-adv-x="880" 
d="M224 0l-179 596h10l174 -580l208 580h8l206 -580l174 580h10l-179 -596h-9l-207 579l-206 -579h-10z" />
    <glyph glyph-name="w.smcp" unicode="&#xf777;" horiz-adv-x="880" 
d="M224 0l-179 596h10l174 -580l208 580h8l206 -580l174 580h10l-179 -596h-9l-207 579l-206 -579h-10z" />
    <glyph glyph-name="x.smcp" unicode="&#xe218;" horiz-adv-x="527" 
d="M481 0l-218 304l-217 -304h-12l224 312l-204 284h12l197 -277l196 277h12l-202 -284l224 -312h-12z" />
    <glyph glyph-name="x.smcp" unicode="&#xf778;" horiz-adv-x="527" 
d="M481 0l-218 304l-217 -304h-12l224 312l-204 284h12l197 -277l196 277h12l-202 -284l224 -312h-12z" />
    <glyph glyph-name="y.smcp" unicode="&#xe219;" horiz-adv-x="520" 
d="M256 0v284l-205 312h11l198 -302l199 302h12l-206 -312v-284h-9z" />
    <glyph glyph-name="y.smcp" unicode="&#xf779;" horiz-adv-x="520" 
d="M256 0v284l-205 312h11l198 -302l199 302h12l-206 -312v-284h-9z" />
    <glyph glyph-name="z.smcp" unicode="&#xe21a;" horiz-adv-x="507" 
d="M53 0v9l387 578h-373v9h385v-9l-389 -578h388v-9h-398z" />
    <glyph glyph-name="z.smcp" unicode="&#xf77a;" horiz-adv-x="507" 
d="M53 0v9l387 578h-373v9h385v-9l-389 -578h388v-9h-398z" />
    <glyph glyph-name="ampersand.smcp" unicode="&#xe401;" horiz-adv-x="664" 
d="M570 0l-78 78c-51 -53 -118 -88 -198 -88c-162 0 -230 108 -230 194c0 90 57 155 132 189c-32 37 -49 69 -49 109c0 62 47 123 137 123c55 0 102 -25 124 -58l-7 -5c-22 32 -65 54 -117 54c-85 0 -128 -57 -128 -114c0 -54 36 -95 100 -158l235 -234
c64 69 101 166 103 250h-184v9h194v-1c0 -88 -39 -192 -107 -265l86 -83h-13zM294 -1c76 0 141 34 190 84l-235 235c-18 18 -34 34 -48 49c-73 -35 -127 -96 -127 -183c0 -80 64 -185 220 -185z" />
    <glyph glyph-name="ampersand.smcp" unicode="&#xf726;" horiz-adv-x="664" 
d="M570 0l-78 78c-51 -53 -118 -88 -198 -88c-162 0 -230 108 -230 194c0 90 57 155 132 189c-32 37 -49 69 -49 109c0 62 47 123 137 123c55 0 102 -25 124 -58l-7 -5c-22 32 -65 54 -117 54c-85 0 -128 -57 -128 -114c0 -54 36 -95 100 -158l235 -234
c64 69 101 166 103 250h-184v9h194v-1c0 -88 -39 -192 -107 -265l86 -83h-13zM294 -1c76 0 141 34 190 84l-235 235c-18 18 -34 34 -48 49c-73 -35 -127 -96 -127 -183c0 -80 64 -185 220 -185z" />
    <glyph glyph-name="slash.smcp" unicode="&#xe467;" horiz-adv-x="372" 
d="M41 0l284 596h11l-284 -596h-11z" />
    <glyph glyph-name="backslash.smcp" unicode="&#xe468;" horiz-adv-x="372" 
d="M323 0l-284 596h11l284 -596h-11z" />
    <glyph glyph-name="bar.smcp" unicode="&#xe469;" horiz-adv-x="163" 
d="M77 -98v784h10v-784h-10z" />
    <glyph glyph-name="parenleft.smcp" unicode="&#xe499;" horiz-adv-x="323" 
d="M281 -127c-126 86 -219 224 -219 421c0 194 90 334 216 419l6 -8c-126 -84 -212 -225 -212 -411c0 -187 89 -328 214 -412z" />
    <glyph glyph-name="parenleft.smcp" unicode="&#xf618;" horiz-adv-x="323" 
d="M281 -127c-126 86 -219 224 -219 421c0 194 90 334 216 419l6 -8c-126 -84 -212 -225 -212 -411c0 -187 89 -328 214 -412z" />
    <glyph glyph-name="parenright.smcp" unicode="&#xe49a;" horiz-adv-x="322" 
d="M42 -127l-5 9c126 84 215 225 215 412c0 186 -86 327 -212 411l6 8c126 -85 216 -225 216 -419c0 -197 -93 -335 -220 -421z" />
    <glyph glyph-name="parenright.smcp" unicode="&#xf619;" horiz-adv-x="322" 
d="M42 -127l-5 9c126 84 215 225 215 412c0 186 -86 327 -212 411l6 8c126 -85 216 -225 216 -419c0 -197 -93 -335 -220 -421z" />
    <glyph glyph-name="bracketleft.smcp" unicode="&#xe49b;" horiz-adv-x="360" 
d="M77 -98v784h223v-9h-214v-766h214v-9h-223z" />
    <glyph glyph-name="bracketleft.smcp" unicode="&#xf60e;" horiz-adv-x="360" 
d="M77 -98v784h223v-9h-214v-766h214v-9h-223z" />
    <glyph glyph-name="bracketright.smcp" unicode="&#xe49c;" horiz-adv-x="361" 
d="M61 -98v8h213v767h-213v9h223v-784h-223z" />
    <glyph glyph-name="bracketright.smcp" unicode="&#xf60f;" horiz-adv-x="361" 
d="M61 -98v8h213v767h-213v9h223v-784h-223z" />
    <glyph glyph-name="braceleft.smcp" unicode="&#xe49d;" horiz-adv-x="388" 
d="M318 -98c-137 0 -180 44 -180 177v119c0 64 -8 91 -77 91v10c69 0 77 27 77 91v119c0 133 43 177 180 177h9l-4 -8c-138 0 -176 -40 -176 -170v-119c0 -57 -9 -87 -54 -95c47 -8 54 -39 54 -95v-119c0 -130 38 -170 176 -170l4 -8h-9z" />
    <glyph glyph-name="braceleft.smcp" unicode="&#xf60c;" horiz-adv-x="388" 
d="M318 -98c-137 0 -180 44 -180 177v119c0 64 -8 91 -77 91v10c69 0 77 27 77 91v119c0 133 43 177 180 177h9l-4 -8c-138 0 -176 -40 -176 -170v-119c0 -57 -9 -87 -54 -95c47 -8 54 -39 54 -95v-119c0 -130 38 -170 176 -170l4 -8h-9z" />
    <glyph glyph-name="braceright.smcp" unicode="&#xe49e;" horiz-adv-x="388" 
d="M61 -98l5 8c137 0 175 40 175 170v119c0 56 8 87 55 95c-46 8 -55 38 -55 95v119c0 130 -38 170 -175 170l-5 8h9c138 0 181 -44 181 -177v-119c0 -64 7 -91 76 -91v-10c-69 0 -76 -27 -76 -91v-119c0 -133 -43 -177 -181 -177h-9z" />
    <glyph glyph-name="braceright.smcp" unicode="&#xf60d;" horiz-adv-x="388" 
d="M61 -98l5 8c137 0 175 40 175 170v119c0 56 8 87 55 95c-46 8 -55 38 -55 95v119c0 130 -38 170 -175 170l-5 8h9c138 0 181 -44 181 -177v-119c0 -64 7 -91 76 -91v-10c-69 0 -76 -27 -76 -91v-119c0 -133 -43 -177 -181 -177h-9z" />
    <glyph glyph-name="aacute.smcp" unicode="&#xe221;" horiz-adv-x="565" 
d="M40 0l238 596h9l237 -596h-10l-76 191h-311l-76 -191h-11zM282 582l-152 -382h304zM280 679l123 137h15l-127 -137h-11z" />
    <glyph glyph-name="aacute.smcp" unicode="&#xf7e1;" horiz-adv-x="565" 
d="M40 0l238 596h9l237 -596h-10l-76 191h-311l-76 -191h-11zM282 582l-152 -382h304zM280 679l123 137h15l-127 -137h-11z" />
    <glyph glyph-name="agrave.smcp" unicode="&#xe222;" horiz-adv-x="565" 
d="M40 0l238 596h9l237 -596h-10l-76 191h-311l-76 -191h-11zM282 582l-152 -382h304zM278 679l-128 137h15l125 -137h-12z" />
    <glyph glyph-name="agrave.smcp" unicode="&#xf7e0;" horiz-adv-x="565" 
d="M40 0l238 596h9l237 -596h-10l-76 191h-311l-76 -191h-11zM282 582l-152 -382h304zM278 679l-128 137h15l125 -137h-12z" />
    <glyph glyph-name="acircumflex.smcp" unicode="&#xe223;" horiz-adv-x="565" 
d="M40 0l238 596h9l237 -596h-10l-76 191h-311l-76 -191h-11zM282 582l-152 -382h304zM159 671l119 137h9l119 -137h-13l-111 128l-111 -128h-12z" />
    <glyph glyph-name="acircumflex.smcp" unicode="&#xf7e2;" horiz-adv-x="565" 
d="M40 0l238 596h9l237 -596h-10l-76 191h-311l-76 -191h-11zM282 582l-152 -382h304zM159 671l119 137h9l119 -137h-13l-111 128l-111 -128h-12z" />
    <glyph glyph-name="adieresis.smcp" unicode="&#xe224;" horiz-adv-x="565" 
d="M40 0l238 596h9l237 -596h-10l-76 191h-311l-76 -191h-11zM282 582l-152 -382h304zM233 678v140h9v-140h-9zM322 678v140h9v-140h-9z" />
    <glyph glyph-name="adieresis.smcp" unicode="&#xf7e4;" horiz-adv-x="565" 
d="M40 0l238 596h9l237 -596h-10l-76 191h-311l-76 -191h-11zM282 582l-152 -382h304zM233 678v140h9v-140h-9zM322 678v140h9v-140h-9z" />
    <glyph glyph-name="atilde.smcp" unicode="&#xe225;" horiz-adv-x="565" 
d="M40 0l238 596h9l237 -596h-10l-76 191h-311l-76 -191h-11zM282 582l-152 -382h304zM112 679c0 50 34 80 78 80c35 0 66 -18 98 -36c32 -17 63 -35 97 -35c42 0 71 23 71 73h10c0 -54 -33 -82 -81 -82c-37 0 -70 18 -102 36c-31 18 -61 35 -93 35c-37 0 -68 -24 -68 -71
h-10z" />
    <glyph glyph-name="atilde.smcp" unicode="&#xf7e3;" horiz-adv-x="565" 
d="M40 0l238 596h9l237 -596h-10l-76 191h-311l-76 -191h-11zM282 582l-152 -382h304zM112 679c0 50 34 80 78 80c35 0 66 -18 98 -36c32 -17 63 -35 97 -35c42 0 71 23 71 73h10c0 -54 -33 -82 -81 -82c-37 0 -70 18 -102 36c-31 18 -61 35 -93 35c-37 0 -68 -24 -68 -71
h-10z" />
    <glyph glyph-name="aring.smcp" unicode="&#xe226;" horiz-adv-x="565" 
d="M40 0l235 588c-42 4 -74 38 -74 80c0 46 36 82 81 82c46 0 82 -36 82 -82c0 -42 -32 -76 -74 -80l234 -588h-10l-76 191h-311l-76 -191h-11zM282 582l-152 -382h304zM282 597c40 0 72 32 72 71c0 40 -32 73 -72 73c-39 0 -71 -33 -71 -73c0 -39 32 -71 71 -71z" />
    <glyph glyph-name="aring.smcp" unicode="&#xf7e5;" horiz-adv-x="565" 
d="M40 0l235 588c-42 4 -74 38 -74 80c0 46 36 82 81 82c46 0 82 -36 82 -82c0 -42 -32 -76 -74 -80l234 -588h-10l-76 191h-311l-76 -191h-11zM282 582l-152 -382h304zM282 597c40 0 72 32 72 71c0 40 -32 73 -72 73c-39 0 -71 -33 -71 -73c0 -39 32 -71 71 -71z" />
    <glyph glyph-name="amacron.smcp" unicode="&#xe228;" horiz-adv-x="565" 
d="M40 0l238 596h9l237 -596h-10l-76 191h-311l-76 -191h-11zM282 582l-152 -382h304zM151 679v9h264v-9h-264z" />
    <glyph glyph-name="amacron.smcp" unicode="&#xf641;" horiz-adv-x="565" 
d="M40 0l238 596h9l237 -596h-10l-76 191h-311l-76 -191h-11zM282 582l-152 -382h304zM151 679v9h264v-9h-264z" />
    <glyph glyph-name="abreve.smcp" unicode="&#xe229;" horiz-adv-x="565" 
d="M40 0l238 596h9l237 -596h-10l-76 191h-311l-76 -191h-11zM282 582l-152 -382h304zM284 670c-110 0 -162 75 -162 143h9c0 -62 50 -134 153 -134c95 0 151 72 151 134h10c0 -68 -60 -143 -161 -143z" />
    <glyph glyph-name="abreve.smcp" unicode="&#xf640;" horiz-adv-x="565" 
d="M40 0l238 596h9l237 -596h-10l-76 191h-311l-76 -191h-11zM282 582l-152 -382h304zM284 670c-110 0 -162 75 -162 143h9c0 -62 50 -134 153 -134c95 0 151 72 151 134h10c0 -68 -60 -143 -161 -143z" />
    <glyph glyph-name="aogonek.smcp" unicode="&#xe22f;" horiz-adv-x="565" 
d="M40 0l238 596h9l236 -595l1 -1h-3c-77 -31 -111 -68 -111 -107c0 -44 42 -74 104 -74c47 0 84 22 114 52l8 -6c-28 -28 -68 -55 -122 -55c-69 0 -114 34 -114 84c0 40 34 80 111 112l-73 185h-311l-76 -191h-11zM282 582l-152 -382h304z" />
    <glyph glyph-name="aogonek.smcp" unicode="&#xf642;" horiz-adv-x="565" 
d="M40 0l238 596h9l236 -595l1 -1h-3c-77 -31 -111 -68 -111 -107c0 -44 42 -74 104 -74c47 0 84 22 114 52l8 -6c-28 -28 -68 -55 -122 -55c-69 0 -114 34 -114 84c0 40 34 80 111 112l-73 185h-311l-76 -191h-11zM282 582l-152 -382h304z" />
    <glyph glyph-name="aringacute.smcp" unicode="&#xe22d;" horiz-adv-x="565" 
d="M40 0l235 589c-42 3 -74 38 -74 80c0 46 36 82 81 82c46 0 82 -36 82 -82c0 -42 -32 -76 -75 -80l235 -589h-10l-76 191h-311l-76 -191h-11zM282 582l-152 -382h304zM282 598c40 0 72 32 72 71c0 40 -32 73 -72 73c-39 0 -71 -33 -71 -73c0 -39 32 -71 71 -71zM281 803
l123 137h15l-127 -137h-11z" />
    <glyph glyph-name="aringacute.smcp" unicode="&#xf625;" horiz-adv-x="565" 
d="M40 0l235 589c-42 3 -74 38 -74 80c0 46 36 82 81 82c46 0 82 -36 82 -82c0 -42 -32 -76 -75 -80l235 -589h-10l-76 191h-311l-76 -191h-11zM282 582l-152 -382h304zM282 598c40 0 72 32 72 71c0 40 -32 73 -72 73c-39 0 -71 -33 -71 -73c0 -39 32 -71 71 -71zM281 803
l123 137h15l-127 -137h-11z" />
    <glyph glyph-name="ae.smcp" unicode="&#xe231;" horiz-adv-x="912" 
d="M45 0l350 596h458v-9h-446l57 -284h389v-9h-387l57 -285h330v-9h-338l-38 187h-311l-110 -187h-11zM399 583l-229 -388h306z" />
    <glyph glyph-name="ae.smcp" unicode="&#xf7e6;" horiz-adv-x="912" 
d="M45 0l350 596h458v-9h-446l57 -284h389v-9h-387l57 -285h330v-9h-338l-38 187h-311l-110 -187h-11zM399 583l-229 -388h306z" />
    <glyph glyph-name="aeacute.smcp" unicode="&#xe232;" horiz-adv-x="911" 
d="M45 0l350 596h458v-9h-446l57 -284h389v-9h-387l57 -285h330v-9h-338l-38 187h-311l-110 -187h-11zM399 583l-229 -388h306zM561 679l123 137h15l-127 -137h-11z" />
    <glyph glyph-name="aeacute.smcp" unicode="&#xf624;" horiz-adv-x="911" 
d="M45 0l350 596h458v-9h-446l57 -284h389v-9h-387l57 -285h330v-9h-338l-38 187h-311l-110 -187h-11zM399 583l-229 -388h306zM561 679l123 137h15l-127 -137h-11z" />
    <glyph glyph-name="cacute.smcp" unicode="&#xe234;" horiz-adv-x="662" 
d="M364 679l123 137h15l-127 -137h-11zM361 -10c-169 0 -306 136 -306 308s137 307 306 307c111 0 205 -55 259 -140l-8 -5c-53 83 -143 136 -251 136c-163 0 -296 -133 -296 -298s132 -299 296 -299c115 0 210 57 262 146l8 -4c-53 -91 -151 -151 -270 -151z" />
    <glyph glyph-name="cacute.smcp" unicode="&#xf643;" horiz-adv-x="662" 
d="M364 679l123 137h15l-127 -137h-11zM361 -10c-169 0 -306 136 -306 308s137 307 306 307c111 0 205 -55 259 -140l-8 -5c-53 83 -143 136 -251 136c-163 0 -296 -133 -296 -298s132 -299 296 -299c115 0 210 57 262 146l8 -4c-53 -91 -151 -151 -270 -151z" />
    <glyph glyph-name="ccircumflex.smcp" unicode="&#xe235;" horiz-adv-x="662" 
d="M361 -10c-169 0 -306 136 -306 308s137 307 306 307c111 0 205 -55 259 -140l-8 -5c-53 83 -143 136 -251 136c-163 0 -296 -133 -296 -298s132 -299 296 -299c115 0 210 57 262 146l8 -4c-53 -91 -151 -151 -270 -151zM241 678l119 137h9l119 -137h-13l-111 128
l-111 -128h-12z" />
    <glyph glyph-name="ccircumflex.smcp" unicode="&#xf628;" horiz-adv-x="662" 
d="M361 -10c-169 0 -306 136 -306 308s137 307 306 307c111 0 205 -55 259 -140l-8 -5c-53 83 -143 136 -251 136c-163 0 -296 -133 -296 -298s132 -299 296 -299c115 0 210 57 262 146l8 -4c-53 -91 -151 -151 -270 -151zM241 678l119 137h9l119 -137h-13l-111 128
l-111 -128h-12z" />
    <glyph glyph-name="ccaron.smcp" unicode="&#xe236;" horiz-adv-x="662" 
d="M361 -10c-169 0 -306 136 -306 308s137 307 306 307c111 0 205 -55 259 -140l-8 -5c-53 83 -143 136 -251 136c-163 0 -296 -133 -296 -298s132 -299 296 -299c115 0 210 57 262 146l8 -4c-53 -91 -151 -151 -270 -151zM361 679l-119 137h12l111 -129l111 129h13
l-119 -137h-9z" />
    <glyph glyph-name="ccaron.smcp" unicode="&#xf644;" horiz-adv-x="662" 
d="M361 -10c-169 0 -306 136 -306 308s137 307 306 307c111 0 205 -55 259 -140l-8 -5c-53 83 -143 136 -251 136c-163 0 -296 -133 -296 -298s132 -299 296 -299c115 0 210 57 262 146l8 -4c-53 -91 -151 -151 -270 -151zM361 679l-119 137h12l111 -129l111 129h13
l-119 -137h-9z" />
    <glyph glyph-name="ccedilla.smcp" unicode="&#xe238;" horiz-adv-x="662" 
d="M363 -222c-58 0 -94 19 -123 47l9 6c29 -28 59 -44 114 -44c67 0 112 33 112 75c0 39 -42 64 -115 64h-8v65c-165 5 -297 138 -297 307c0 172 137 307 306 307c111 0 205 -55 259 -140l-8 -5c-53 83 -143 136 -251 136c-163 0 -296 -133 -296 -298s132 -299 296 -299
c115 0 210 57 262 146l8 -4c-53 -91 -151 -151 -270 -151v-56c77 0 125 -26 125 -72c0 -48 -48 -84 -123 -84z" />
    <glyph glyph-name="ccedilla.smcp" unicode="&#xf7e7;" horiz-adv-x="662" 
d="M363 -222c-58 0 -94 19 -123 47l9 6c29 -28 59 -44 114 -44c67 0 112 33 112 75c0 39 -42 64 -115 64h-8v65c-165 5 -297 138 -297 307c0 172 137 307 306 307c111 0 205 -55 259 -140l-8 -5c-53 83 -143 136 -251 136c-163 0 -296 -133 -296 -298s132 -299 296 -299
c115 0 210 57 262 146l8 -4c-53 -91 -151 -151 -270 -151v-56c77 0 125 -26 125 -72c0 -48 -48 -84 -123 -84z" />
    <glyph glyph-name="cdotaccent.smcp" unicode="&#xe237;" horiz-adv-x="662" 
d="M361 -10c-169 0 -306 136 -306 308s137 307 306 307c111 0 205 -55 259 -140l-8 -5c-53 83 -143 136 -251 136c-163 0 -296 -133 -296 -298s132 -299 296 -299c115 0 210 57 262 146l8 -4c-53 -91 -151 -151 -270 -151zM360 678v140h10v-140h-10z" />
    <glyph glyph-name="cdotaccent.smcp" unicode="&#xf629;" horiz-adv-x="662" 
d="M361 -10c-169 0 -306 136 -306 308s137 307 306 307c111 0 205 -55 259 -140l-8 -5c-53 83 -143 136 -251 136c-163 0 -296 -133 -296 -298s132 -299 296 -299c115 0 210 57 262 146l8 -4c-53 -91 -151 -151 -270 -151zM360 678v140h10v-140h-10z" />
    <glyph glyph-name="dcroat.smcp" unicode="&#xe23c;" horiz-adv-x="612" 
d="M27 292v8h58v296h168c166 0 304 -129 304 -298s-137 -298 -305 -298h-167v292h-58zM268 292h-174v-283h158c162 0 296 126 296 289c0 164 -134 289 -295 289h-159v-287h174v-8z" />
    <glyph glyph-name="dcroat.smcp" unicode="&#xf646;" horiz-adv-x="612" 
d="M27 292v8h58v296h168c166 0 304 -129 304 -298s-137 -298 -305 -298h-167v292h-58zM268 292h-174v-283h158c162 0 296 126 296 289c0 164 -134 289 -295 289h-159v-287h174v-8z" />
    <glyph glyph-name="eth.smcp" unicode="&#xe32c;" horiz-adv-x="612" 
d="M27 292v8h58v296h168c166 0 304 -129 304 -298s-137 -298 -305 -298h-167v292h-58zM268 292h-174v-283h158c162 0 296 126 296 289c0 164 -134 289 -295 289h-159v-287h174v-8z" />
    <glyph glyph-name="eth.smcp" unicode="&#xf7f0;" horiz-adv-x="612" 
d="M27 292v8h58v296h168c166 0 304 -129 304 -298s-137 -298 -305 -298h-167v292h-58zM268 292h-174v-283h158c162 0 296 126 296 289c0 164 -134 289 -295 289h-159v-287h174v-8z" />
    <glyph glyph-name="eacute.smcp" unicode="&#xe23d;" horiz-adv-x="507" 
d="M78 0v596h371v-9h-361v-284h361v-9h-361v-285h361v-9h-371zM253 679l123 137h15l-127 -137h-11z" />
    <glyph glyph-name="eacute.smcp" unicode="&#xf7e9;" horiz-adv-x="507" 
d="M78 0v596h371v-9h-361v-284h361v-9h-361v-285h361v-9h-371zM253 679l123 137h15l-127 -137h-11z" />
    <glyph glyph-name="egrave.smcp" unicode="&#xe23e;" horiz-adv-x="507" 
d="M78 0v596h371v-9h-361v-284h361v-9h-361v-285h361v-9h-371zM295 679l-128 137h15l125 -137h-12z" />
    <glyph glyph-name="egrave.smcp" unicode="&#xf7e8;" horiz-adv-x="507" 
d="M78 0v596h371v-9h-361v-284h361v-9h-361v-285h361v-9h-371zM295 679l-128 137h15l125 -137h-12z" />
    <glyph glyph-name="ecircumflex.smcp" unicode="&#xe23f;" horiz-adv-x="507" 
d="M78 0v596h371v-9h-361v-284h361v-9h-361v-285h361v-9h-371zM148 679l119 137h9l119 -137h-13l-111 128l-111 -128h-12z" />
    <glyph glyph-name="ecircumflex.smcp" unicode="&#xf7ea;" horiz-adv-x="507" 
d="M78 0v596h371v-9h-361v-284h361v-9h-361v-285h361v-9h-371zM148 679l119 137h9l119 -137h-13l-111 128l-111 -128h-12z" />
    <glyph glyph-name="edieresis.smcp" unicode="&#xe230;" horiz-adv-x="507" 
d="M78 0v596h371v-9h-361v-284h361v-9h-361v-285h361v-9h-371zM226 678v140h9v-140h-9zM315 678v140h9v-140h-9z" />
    <glyph glyph-name="edieresis.smcp" unicode="&#xf7eb;" horiz-adv-x="507" 
d="M78 0v596h371v-9h-361v-284h361v-9h-361v-285h361v-9h-371zM226 678v140h9v-140h-9zM315 678v140h9v-140h-9z" />
    <glyph glyph-name="ecaron.smcp" unicode="&#xe241;" horiz-adv-x="507" 
d="M78 0v596h371v-9h-361v-284h361v-9h-361v-285h361v-9h-371zM267 679l-119 137h12l111 -129l111 129h13l-119 -137h-9z" />
    <glyph glyph-name="ecaron.smcp" unicode="&#xf647;" horiz-adv-x="507" 
d="M78 0v596h371v-9h-361v-284h361v-9h-361v-285h361v-9h-371zM267 679l-119 137h12l111 -129l111 129h13l-119 -137h-9z" />
    <glyph glyph-name="emacron.smcp" unicode="&#xe242;" horiz-adv-x="507" 
d="M78 0v596h371v-9h-361v-284h361v-9h-361v-285h361v-9h-371zM135 688v9h264v-9h-264z" />
    <glyph glyph-name="emacron.smcp" unicode="&#xf649;" horiz-adv-x="507" 
d="M78 0v596h371v-9h-361v-284h361v-9h-361v-285h361v-9h-371zM135 688v9h264v-9h-264z" />
    <glyph glyph-name="ebreve.smcp" unicode="&#xe243;" horiz-adv-x="507" 
d="M78 0v596h371v-9h-361v-284h361v-9h-361v-285h361v-9h-371zM268 677c-110 0 -162 75 -162 143h9c0 -62 50 -134 153 -134c95 0 151 72 151 134h10c0 -68 -60 -143 -161 -143z" />
    <glyph glyph-name="ebreve.smcp" unicode="&#xf62a;" horiz-adv-x="507" 
d="M78 0v596h371v-9h-361v-284h361v-9h-361v-285h361v-9h-371zM268 677c-110 0 -162 75 -162 143h9c0 -62 50 -134 153 -134c95 0 151 72 151 134h10c0 -68 -60 -143 -161 -143z" />
    <glyph glyph-name="eogonek.smcp" unicode="&#xe249;" horiz-adv-x="507" 
d="M78 0v596h371v-9h-361v-284h361v-9h-361v-285h361v-9h-3c-77 -31 -111 -68 -111 -107c0 -44 42 -74 104 -74c47 0 84 22 114 52l8 -6c-28 -28 -68 -55 -122 -55c-69 0 -114 34 -114 84c0 38 30 75 98 106h-345z" />
    <glyph glyph-name="eogonek.smcp" unicode="&#xf64a;" horiz-adv-x="507" 
d="M78 0v596h371v-9h-361v-284h361v-9h-361v-285h361v-9h-3c-77 -31 -111 -68 -111 -107c0 -44 42 -74 104 -74c47 0 84 22 114 52l8 -6c-28 -28 -68 -55 -122 -55c-69 0 -114 34 -114 84c0 38 30 75 98 106h-345z" />
    <glyph glyph-name="edotaccent.smcp" unicode="&#xe246;" horiz-adv-x="507" 
d="M78 0v596h371v-9h-361v-284h361v-9h-361v-285h361v-9h-371zM268 678v140h10v-140h-10z" />
    <glyph glyph-name="edotaccent.smcp" unicode="&#xf648;" horiz-adv-x="507" 
d="M78 0v596h371v-9h-361v-284h361v-9h-361v-285h361v-9h-371zM268 678v140h10v-140h-10z" />
    <glyph glyph-name="gcircumflex.smcp" unicode="&#xe24b;" horiz-adv-x="716" 
d="M365 -10c-177 0 -310 142 -310 308c0 169 135 307 306 307c114 0 211 -53 265 -140l-9 -4c-51 84 -145 135 -256 135c-164 0 -296 -134 -296 -298c0 -159 127 -299 300 -299c177 0 289 134 292 290h-298v9h307v-3c0 -163 -117 -305 -301 -305zM241 678l119 137h9
l119 -137h-13l-111 128l-111 -128h-12z" />
    <glyph glyph-name="gcircumflex.smcp" unicode="&#xf62c;" horiz-adv-x="716" 
d="M365 -10c-177 0 -310 142 -310 308c0 169 135 307 306 307c114 0 211 -53 265 -140l-9 -4c-51 84 -145 135 -256 135c-164 0 -296 -134 -296 -298c0 -159 127 -299 300 -299c177 0 289 134 292 290h-298v9h307v-3c0 -163 -117 -305 -301 -305zM241 678l119 137h9
l119 -137h-13l-111 128l-111 -128h-12z" />
    <glyph glyph-name="gbreve.smcp" unicode="&#xe24e;" horiz-adv-x="716" 
d="M365 -10c-177 0 -310 142 -310 308c0 169 135 307 306 307c114 0 211 -53 265 -140l-9 -4c-51 84 -145 135 -256 135c-164 0 -296 -134 -296 -298c0 -159 127 -299 300 -299c177 0 289 134 292 290h-298v9h307v-3c0 -163 -117 -305 -301 -305zM366 678
c-110 0 -162 75 -162 143h9c0 -62 50 -134 153 -134c95 0 151 72 151 134h10c0 -68 -60 -143 -161 -143z" />
    <glyph glyph-name="gbreve.smcp" unicode="&#xf64b;" horiz-adv-x="716" 
d="M365 -10c-177 0 -310 142 -310 308c0 169 135 307 306 307c114 0 211 -53 265 -140l-9 -4c-51 84 -145 135 -256 135c-164 0 -296 -134 -296 -298c0 -159 127 -299 300 -299c177 0 289 134 292 290h-298v9h307v-3c0 -163 -117 -305 -301 -305zM366 678
c-110 0 -162 75 -162 143h9c0 -62 50 -134 153 -134c95 0 151 72 151 134h10c0 -68 -60 -143 -161 -143z" />
    <glyph glyph-name="gdotaccent.smcp" unicode="&#xe24f;" horiz-adv-x="716" 
d="M365 -10c-177 0 -310 142 -310 308c0 169 135 307 306 307c114 0 211 -53 265 -140l-9 -4c-51 84 -145 135 -256 135c-164 0 -296 -134 -296 -298c0 -159 127 -299 300 -299c177 0 289 134 292 290h-298v9h307v-3c0 -163 -117 -305 -301 -305zM361 678v140h10v-140h-10z
" />
    <glyph glyph-name="gdotaccent.smcp" unicode="&#xf62d;" horiz-adv-x="716" 
d="M365 -10c-177 0 -310 142 -310 308c0 169 135 307 306 307c114 0 211 -53 265 -140l-9 -4c-51 84 -145 135 -256 135c-164 0 -296 -134 -296 -298c0 -159 127 -299 300 -299c177 0 289 134 292 290h-298v9h307v-3c0 -163 -117 -305 -301 -305zM361 678v140h10v-140h-10z
" />
    <glyph glyph-name="gcommaaccent.smcp" unicode="&#xe240;" horiz-adv-x="716" 
d="M365 -10c-177 0 -310 142 -310 308c0 169 135 307 306 307c114 0 211 -53 265 -140l-9 -4c-51 84 -145 135 -256 135c-164 0 -296 -134 -296 -298c0 -159 127 -299 300 -299c177 0 289 134 292 290h-298v9h307v-3c0 -163 -117 -305 -301 -305zM316 -286h-9l51 204h13z
" />
    <glyph glyph-name="gcommaaccent.smcp" unicode="&#xf64c;" horiz-adv-x="716" 
d="M365 -10c-177 0 -310 142 -310 308c0 169 135 307 306 307c114 0 211 -53 265 -140l-9 -4c-51 84 -145 135 -256 135c-164 0 -296 -134 -296 -298c0 -159 127 -299 300 -299c177 0 289 134 292 290h-298v9h307v-3c0 -163 -117 -305 -301 -305zM316 -286h-9l51 204h13z
" />
    <glyph glyph-name="hbar.smcp" unicode="&#xe257;" horiz-adv-x="597" 
d="M505 0v293h-413v-293h-10v474h-57v8h57v114h10v-114h413v114h10v-114h61v-8h-61v-475zM92 474v-173h413v173h-413z" />
    <glyph glyph-name="hbar.smcp" unicode="&#xf62e;" horiz-adv-x="597" 
d="M505 0v293h-413v-293h-10v474h-57v8h57v114h10v-114h413v114h10v-114h61v-8h-61v-475zM92 474v-173h413v173h-413z" />
    <glyph glyph-name="hcircumflex.smcp" unicode="&#xe253;" horiz-adv-x="589" 
d="M501 0v293h-413v-293h-10v596h10v-294h413v294h10v-596h-10zM173 678l119 137h9l119 -137h-13l-111 128l-111 -128h-12z" />
    <glyph glyph-name="hcircumflex.smcp" unicode="&#xf62f;" horiz-adv-x="589" 
d="M501 0v293h-413v-293h-10v596h10v-294h413v294h10v-596h-10zM173 678l119 137h9l119 -137h-13l-111 128l-111 -128h-12z" />
    <glyph glyph-name="iacute.smcp" unicode="&#xe258;" horiz-adv-x="175" 
d="M84 679l123 137h15l-127 -137h-11zM83 0v596h10v-596h-10z" />
    <glyph glyph-name="iacute.smcp" unicode="&#xf7ed;" horiz-adv-x="175" 
d="M84 679l123 137h15l-127 -137h-11zM83 0v596h10v-596h-10z" />
    <glyph glyph-name="igrave.smcp" unicode="&#xe259;" horiz-adv-x="175" 
d="M81 679l-128 137h15l125 -137h-12zM83 0v596h10v-596h-10z" />
    <glyph glyph-name="igrave.smcp" unicode="&#xf7ec;" horiz-adv-x="175" 
d="M81 679l-128 137h15l125 -137h-12zM83 0v596h10v-596h-10z" />
    <glyph glyph-name="icircumflex.smcp" unicode="&#xe25a;" horiz-adv-x="175" 
d="M83 0v596h10v-596h-10zM-36 669l119 137h9l119 -137h-13l-111 128l-111 -128h-12z" />
    <glyph glyph-name="icircumflex.smcp" unicode="&#xf7ee;" horiz-adv-x="175" 
d="M83 0v596h10v-596h-10zM-36 669l119 137h9l119 -137h-13l-111 128l-111 -128h-12z" />
    <glyph glyph-name="idieresis.smcp" unicode="&#xe25b;" horiz-adv-x="175" 
d="M171 677v140h9v-140h-9zM-4 677v140h9v-140h-9zM83 0v596h10v-596h-10z" />
    <glyph glyph-name="idieresis.smcp" unicode="&#xf7ef;" horiz-adv-x="175" 
d="M171 677v140h9v-140h-9zM-4 677v140h9v-140h-9zM83 0v596h10v-596h-10z" />
    <glyph glyph-name="itilde.smcp" unicode="&#xe25c;" horiz-adv-x="175" 
d="M83 0v596h10v-596h-10zM-87 678c0 50 34 80 78 80c35 0 66 -18 98 -36c32 -17 63 -35 97 -35c42 0 71 23 71 73h10c0 -54 -33 -82 -81 -82c-37 0 -70 18 -102 36c-31 18 -61 35 -93 35c-37 0 -68 -24 -68 -71h-10z" />
    <glyph glyph-name="itilde.smcp" unicode="&#xf632;" horiz-adv-x="175" 
d="M83 0v596h10v-596h-10zM-87 678c0 50 34 80 78 80c35 0 66 -18 98 -36c32 -17 63 -35 97 -35c42 0 71 23 71 73h10c0 -54 -33 -82 -81 -82c-37 0 -70 18 -102 36c-31 18 -61 35 -93 35c-37 0 -68 -24 -68 -71h-10z" />
    <glyph glyph-name="imacron.smcp" unicode="&#xe25e;" horiz-adv-x="175" 
d="M-44 679v9h264v-9h-264zM83 0v596h10v-596h-10z" />
    <glyph glyph-name="imacron.smcp" unicode="&#xf64d;" horiz-adv-x="175" 
d="M-44 679v9h264v-9h-264zM83 0v596h10v-596h-10z" />
    <glyph glyph-name="ibreve.smcp" unicode="&#xe25f;" horiz-adv-x="175" 
d="M83 0v596h10v-596h-10zM89 678c-110 0 -162 75 -162 143h9c0 -62 50 -134 153 -134c95 0 151 72 151 134h10c0 -68 -60 -143 -161 -143z" />
    <glyph glyph-name="ibreve.smcp" unicode="&#xf630;" horiz-adv-x="175" 
d="M83 0v596h10v-596h-10zM89 678c-110 0 -162 75 -162 143h9c0 -62 50 -134 153 -134c95 0 151 72 151 134h10c0 -68 -60 -143 -161 -143z" />
    <glyph glyph-name="iogonek.smcp" unicode="&#xe264;" horiz-adv-x="175" 
d="M85 -221c-56 0 -91 36 -91 83c0 49 37 98 89 144v590h10v-596c-52 -42 -90 -94 -90 -137c0 -44 32 -75 82 -75c43 0 70 22 95 48l7 -7c-25 -25 -54 -50 -102 -50z" />
    <glyph glyph-name="iogonek.smcp" unicode="&#xf64e;" horiz-adv-x="175" 
d="M85 -221c-56 0 -91 36 -91 83c0 49 37 98 89 144v590h10v-596c-52 -42 -90 -94 -90 -137c0 -44 32 -75 82 -75c43 0 70 22 95 48l7 -7c-25 -25 -54 -50 -102 -50z" />
    <glyph glyph-name="jcircumflex.smcp" unicode="&#xe265;" horiz-adv-x="422" 
d="M194 -10c-72 0 -119 29 -145 86l8 4c28 -53 67 -81 137 -81c88 0 140 67 140 145v452h10v-453c0 -82 -56 -153 -150 -153zM209 672l119 137h9l119 -137h-13l-111 128l-111 -128h-12z" />
    <glyph glyph-name="jcircumflex.smcp" unicode="&#xf633;" horiz-adv-x="422" 
d="M194 -10c-72 0 -119 29 -145 86l8 4c28 -53 67 -81 137 -81c88 0 140 67 140 145v452h10v-453c0 -82 -56 -153 -150 -153zM209 672l119 137h9l119 -137h-13l-111 128l-111 -128h-12z" />
    <glyph glyph-name="kcommaaccent.smcp" unicode="&#xe268;" horiz-adv-x="562" 
d="M505 0l-251 347l-165 -185v-162h-10v596h10v-421l378 421h13l-219 -243l256 -353h-12zM240 -278h-9l51 204h13z" />
    <glyph glyph-name="kcommaaccent.smcp" unicode="&#xf64f;" horiz-adv-x="562" 
d="M505 0l-251 347l-165 -185v-162h-10v596h10v-421l378 421h13l-219 -243l256 -353h-12zM240 -278h-9l51 204h13z" />
    <glyph glyph-name="lacute.smcp" unicode="&#xe26b;" horiz-adv-x="461" 
d="M78 0v596h10v-587h322v-9h-332zM84 679l123 137h15l-127 -137h-11z" />
    <glyph glyph-name="lacute.smcp" unicode="&#xf650;" horiz-adv-x="461" 
d="M78 0v596h10v-587h322v-9h-332zM84 679l123 137h15l-127 -137h-11z" />
    <glyph glyph-name="lcommaaccent.smcp" unicode="&#xe26d;" horiz-adv-x="461" 
d="M78 0v596h10v-587h322v-9h-332zM199 -288h-9l51 204h13z" />
    <glyph glyph-name="lcommaaccent.smcp" unicode="&#xf652;" horiz-adv-x="461" 
d="M78 0v596h10v-587h322v-9h-332zM199 -288h-9l51 204h13z" />
    <glyph glyph-name="ldot.smcp" unicode="&#xe271;" horiz-adv-x="487" 
d="M78 0v596h10v-587h322v-9h-332zM399 215v140h10v-140h-10z" />
    <glyph glyph-name="ldot.smcp" unicode="&#xf634;" horiz-adv-x="487" 
d="M78 0v596h10v-587h322v-9h-332zM399 215v140h10v-140h-10z" />
    <glyph glyph-name="lslash.smcp" unicode="&#xe272;" horiz-adv-x="467" 
d="M26 318v9l58 18v251h10v-248l186 58v-9l-186 -58v-330h322v-9h-332v336z" />
    <glyph glyph-name="lslash.smcp" unicode="&#xf6f9;" horiz-adv-x="467" 
d="M26 318v9l58 18v251h10v-248l186 58v-9l-186 -58v-330h322v-9h-332v336z" />
    <glyph glyph-name="nacute.smcp" unicode="&#xe276;" horiz-adv-x="633" 
d="M78 0v596h9l458 -581v581h10v-596h-10l-457 579v-579h-10zM316 657l123 137h15l-127 -137h-11z" />
    <glyph glyph-name="nacute.smcp" unicode="&#xf653;" horiz-adv-x="633" 
d="M78 0v596h9l458 -581v581h10v-596h-10l-457 579v-579h-10zM316 657l123 137h15l-127 -137h-11z" />
    <glyph glyph-name="ntilde.smcp" unicode="&#xe279;" horiz-adv-x="633" 
d="M78 0v596h9l458 -581v581h10v-596h-10l-457 579v-579h-10zM144 678c0 50 34 80 78 80c35 0 66 -18 98 -36c32 -17 63 -35 97 -35c42 0 71 23 71 73h10c0 -54 -33 -82 -81 -82c-37 0 -70 18 -102 36c-31 18 -61 35 -93 35c-37 0 -68 -24 -68 -71h-10z" />
    <glyph glyph-name="ncaron.smcp" unicode="&#xe27a;" horiz-adv-x="633" 
d="M78 0v596h9l458 -581v581h10v-596h-10l-457 579v-579h-10zM314 667l-119 137h12l111 -129l111 129h13l-119 -137h-9z" />
    <glyph glyph-name="ncaron.smcp" unicode="&#xf654;" horiz-adv-x="633" 
d="M78 0v596h9l458 -581v581h10v-596h-10l-457 579v-579h-10zM314 667l-119 137h12l111 -129l111 129h13l-119 -137h-9z" />
    <glyph glyph-name="ncommaaccent.smcp" unicode="&#xe27d;" horiz-adv-x="633" 
d="M78 0v596h9l458 -581v581h10v-596h-10l-457 579v-579h-10zM279 -273h-9l51 204h13z" />
    <glyph glyph-name="ncommaaccent.smcp" unicode="&#xf655;" horiz-adv-x="633" 
d="M78 0v596h9l458 -581v581h10v-596h-10l-457 579v-579h-10zM279 -273h-9l51 204h13z" />
    <glyph glyph-name="oacute.smcp" unicode="&#xe281;" horiz-adv-x="721" 
d="M360 -10c-172 0 -305 139 -305 308s133 307 305 307s306 -138 306 -307s-133 -308 -306 -308zM360 -1c168 0 296 137 296 299s-128 298 -296 298c-167 0 -295 -136 -295 -298s128 -299 295 -299zM351 679l123 137h15l-127 -137h-11z" />
    <glyph glyph-name="oacute.smcp" unicode="&#xf7f3;" horiz-adv-x="721" 
d="M360 -10c-172 0 -305 139 -305 308s133 307 305 307s306 -138 306 -307s-133 -308 -306 -308zM360 -1c168 0 296 137 296 299s-128 298 -296 298c-167 0 -295 -136 -295 -298s128 -299 295 -299zM351 679l123 137h15l-127 -137h-11z" />
    <glyph glyph-name="ograve.smcp" unicode="&#xe282;" horiz-adv-x="721" 
d="M360 -10c-172 0 -305 139 -305 308s133 307 305 307s306 -138 306 -307s-133 -308 -306 -308zM360 -1c168 0 296 137 296 299s-128 298 -296 298c-167 0 -295 -136 -295 -298s128 -299 295 -299zM363 679l-128 137h15l125 -137h-12z" />
    <glyph glyph-name="ograve.smcp" unicode="&#xf7f2;" horiz-adv-x="721" 
d="M360 -10c-172 0 -305 139 -305 308s133 307 305 307s306 -138 306 -307s-133 -308 -306 -308zM360 -1c168 0 296 137 296 299s-128 298 -296 298c-167 0 -295 -136 -295 -298s128 -299 295 -299zM363 679l-128 137h15l125 -137h-12z" />
    <glyph glyph-name="ocircumflex.smcp" unicode="&#xe283;" horiz-adv-x="721" 
d="M360 -10c-172 0 -305 139 -305 308s133 307 305 307s306 -138 306 -307s-133 -308 -306 -308zM360 -1c168 0 296 137 296 299s-128 298 -296 298c-167 0 -295 -136 -295 -298s128 -299 295 -299zM236 677l119 137h9l119 -137h-13l-111 128l-111 -128h-12z" />
    <glyph glyph-name="ocircumflex.smcp" unicode="&#xf7f4;" horiz-adv-x="721" 
d="M360 -10c-172 0 -305 139 -305 308s133 307 305 307s306 -138 306 -307s-133 -308 -306 -308zM360 -1c168 0 296 137 296 299s-128 298 -296 298c-167 0 -295 -136 -295 -298s128 -299 295 -299zM236 677l119 137h9l119 -137h-13l-111 128l-111 -128h-12z" />
    <glyph glyph-name="odieresis.smcp" unicode="&#xe284;" horiz-adv-x="721" 
d="M360 -10c-172 0 -305 139 -305 308s133 307 305 307s306 -138 306 -307s-133 -308 -306 -308zM360 -1c168 0 296 137 296 299s-128 298 -296 298c-167 0 -295 -136 -295 -298s128 -299 295 -299zM399 678v140h9v-140h-9zM310 678v140h9v-140h-9z" />
    <glyph glyph-name="odieresis.smcp" unicode="&#xf7f6;" horiz-adv-x="721" 
d="M360 -10c-172 0 -305 139 -305 308s133 307 305 307s306 -138 306 -307s-133 -308 -306 -308zM360 -1c168 0 296 137 296 299s-128 298 -296 298c-167 0 -295 -136 -295 -298s128 -299 295 -299zM399 678v140h9v-140h-9zM310 678v140h9v-140h-9z" />
    <glyph glyph-name="otilde.smcp" unicode="&#xe285;" horiz-adv-x="721" 
d="M360 -10c-172 0 -305 139 -305 308s133 307 305 307s306 -138 306 -307s-133 -308 -306 -308zM360 -1c168 0 296 137 296 299s-128 298 -296 298c-167 0 -295 -136 -295 -298s128 -299 295 -299zM186 679c0 50 34 80 78 80c35 0 66 -18 98 -36c32 -17 63 -35 97 -35
c42 0 71 23 71 73h10c0 -54 -33 -82 -81 -82c-37 0 -70 18 -102 36c-31 18 -61 35 -93 35c-37 0 -68 -24 -68 -71h-10z" />
    <glyph glyph-name="otilde.smcp" unicode="&#xf7f5;" horiz-adv-x="721" 
d="M360 -10c-172 0 -305 139 -305 308s133 307 305 307s306 -138 306 -307s-133 -308 -306 -308zM360 -1c168 0 296 137 296 299s-128 298 -296 298c-167 0 -295 -136 -295 -298s128 -299 295 -299zM186 679c0 50 34 80 78 80c35 0 66 -18 98 -36c32 -17 63 -35 97 -35
c42 0 71 23 71 73h10c0 -54 -33 -82 -81 -82c-37 0 -70 18 -102 36c-31 18 -61 35 -93 35c-37 0 -68 -24 -68 -71h-10z" />
    <glyph glyph-name="obreve.smcp" unicode="&#xe288;" horiz-adv-x="721" 
d="M360 -10c-172 0 -305 139 -305 308s133 307 305 307s306 -138 306 -307s-133 -308 -306 -308zM360 -1c168 0 296 137 296 299s-128 298 -296 298c-167 0 -295 -136 -295 -298s128 -299 295 -299zM361 676c-110 0 -162 75 -162 143h9c0 -62 50 -134 153 -134
c95 0 151 72 151 134h10c0 -68 -60 -143 -161 -143z" />
    <glyph glyph-name="obreve.smcp" unicode="&#xf635;" horiz-adv-x="721" 
d="M360 -10c-172 0 -305 139 -305 308s133 307 305 307s306 -138 306 -307s-133 -308 -306 -308zM360 -1c168 0 296 137 296 299s-128 298 -296 298c-167 0 -295 -136 -295 -298s128 -299 295 -299zM361 676c-110 0 -162 75 -162 143h9c0 -62 50 -134 153 -134
c95 0 151 72 151 134h10c0 -68 -60 -143 -161 -143z" />
    <glyph glyph-name="omacron.smcp" unicode="&#xe287;" horiz-adv-x="721" 
d="M360 -10c-172 0 -305 139 -305 308s133 307 305 307s306 -138 306 -307s-133 -308 -306 -308zM360 -1c168 0 296 137 296 299s-128 298 -296 298c-167 0 -295 -136 -295 -298s128 -299 295 -299zM228 679v9h264v-9h-264z" />
    <glyph glyph-name="omacron.smcp" unicode="&#xf657;" horiz-adv-x="721" 
d="M360 -10c-172 0 -305 139 -305 308s133 307 305 307s306 -138 306 -307s-133 -308 -306 -308zM360 -1c168 0 296 137 296 299s-128 298 -296 298c-167 0 -295 -136 -295 -298s128 -299 295 -299zM228 679v9h264v-9h-264z" />
    <glyph glyph-name="ohungarumlaut.smcp" unicode="&#xe28a;" horiz-adv-x="721" 
d="M360 -10c-172 0 -305 139 -305 308s133 307 305 307s306 -138 306 -307s-133 -308 -306 -308zM360 -1c168 0 296 137 296 299s-128 298 -296 298c-167 0 -295 -136 -295 -298s128 -299 295 -299zM314 679l126 137h15l-129 -137h-12zM415 679l126 137h15l-129 -137h-12z
" />
    <glyph glyph-name="ohungarumlaut.smcp" unicode="&#xf656;" horiz-adv-x="721" 
d="M360 -10c-172 0 -305 139 -305 308s133 307 305 307s306 -138 306 -307s-133 -308 -306 -308zM360 -1c168 0 296 137 296 299s-128 298 -296 298c-167 0 -295 -136 -295 -298s128 -299 295 -299zM314 679l126 137h15l-129 -137h-12zM415 679l126 137h15l-129 -137h-12z
" />
    <glyph glyph-name="oslash.smcp" unicode="&#xe295;" horiz-adv-x="721" 
d="M360 -10c-63 0 -121 19 -169 51l-29 -41h-13l33 46c-78 56 -127 149 -127 252c0 169 133 307 305 307c68 0 131 -22 181 -59l37 50h11l-40 -56c72 -56 117 -144 117 -242c0 -169 -133 -308 -306 -308zM65 298c0 -99 48 -189 123 -244l348 484c-48 36 -109 58 -176 58
c-167 0 -295 -136 -295 -298zM360 -1c168 0 296 137 296 299c0 94 -44 179 -113 234l-346 -484c46 -31 102 -49 163 -49z" />
    <glyph glyph-name="oslash.smcp" unicode="&#xf7f8;" horiz-adv-x="721" 
d="M360 -10c-63 0 -121 19 -169 51l-29 -41h-13l33 46c-78 56 -127 149 -127 252c0 169 133 307 305 307c68 0 131 -22 181 -59l37 50h11l-40 -56c72 -56 117 -144 117 -242c0 -169 -133 -308 -306 -308zM65 298c0 -99 48 -189 123 -244l348 484c-48 36 -109 58 -176 58
c-167 0 -295 -136 -295 -298zM360 -1c168 0 296 137 296 299c0 94 -44 179 -113 234l-346 -484c46 -31 102 -49 163 -49z" />
    <glyph glyph-name="oslashacute.smcp" unicode="&#xe296;" horiz-adv-x="720" 
d="M360 -10c-63 0 -121 19 -169 51l-29 -41h-13l33 46c-78 56 -127 149 -127 252c0 169 133 307 305 307c68 0 131 -22 181 -59l37 50h11l-40 -56c72 -56 117 -144 117 -242c0 -169 -133 -308 -306 -308zM65 298c0 -99 48 -189 123 -244l348 484c-48 36 -109 58 -176 58
c-167 0 -295 -136 -295 -298zM360 -1c168 0 296 137 296 299c0 94 -44 179 -113 234l-346 -484c46 -31 102 -49 163 -49zM358 679l123 137h15l-127 -137h-11z" />
    <glyph glyph-name="oslashacute.smcp" unicode="&#xf627;" horiz-adv-x="720" 
d="M360 -10c-63 0 -121 19 -169 51l-29 -41h-13l33 46c-78 56 -127 149 -127 252c0 169 133 307 305 307c68 0 131 -22 181 -59l37 50h11l-40 -56c72 -56 117 -144 117 -242c0 -169 -133 -308 -306 -308zM65 298c0 -99 48 -189 123 -244l348 484c-48 36 -109 58 -176 58
c-167 0 -295 -136 -295 -298zM360 -1c168 0 296 137 296 299c0 94 -44 179 -113 234l-346 -484c46 -31 102 -49 163 -49zM358 679l123 137h15l-127 -137h-11z" />
    <glyph glyph-name="oe.smcp" unicode="&#xe298;" horiz-adv-x="1085" 
d="M656 0v222c-33 -133 -150 -232 -296 -232c-172 0 -305 139 -305 308s133 307 305 307c145 0 263 -99 296 -232v223h371v-9h-362v-284h362v-9h-362v-285h362v-9h-371zM360 -1c168 0 296 137 296 299v12c-6 156 -132 286 -296 286c-167 0 -295 -136 -295 -298
s128 -299 295 -299z" />
    <glyph glyph-name="oe.smcp" unicode="&#xf6fa;" horiz-adv-x="1085" 
d="M656 0v222c-33 -133 -150 -232 -296 -232c-172 0 -305 139 -305 308s133 307 305 307c145 0 263 -99 296 -232v223h371v-9h-362v-284h362v-9h-362v-285h362v-9h-371zM360 -1c168 0 296 137 296 299v12c-6 156 -132 286 -296 286c-167 0 -295 -136 -295 -298
s128 -299 295 -299z" />
    <glyph glyph-name="thorn.smcp" unicode="&#xe32d;" horiz-adv-x="493" 
d="M77 0v596h10v-117h153c119 0 191 -72 191 -171s-73 -171 -191 -171h-153v-137h-10zM240 470h-153v-324h153c112 0 181 69 181 162c0 94 -69 162 -181 162z" />
    <glyph glyph-name="thorn.smcp" unicode="&#xf7fe;" horiz-adv-x="493" 
d="M77 0v596h10v-117h153c119 0 191 -72 191 -171s-73 -171 -191 -171h-153v-137h-10zM240 470h-153v-324h153c112 0 181 69 181 162c0 94 -69 162 -181 162z" />
    <glyph glyph-name="racute.smcp" unicode="&#xe29a;" horiz-adv-x="490" 
d="M78 0v596h181c98 0 179 -80 179 -178c0 -96 -77 -175 -173 -179l176 -239h-12l-182 248h10c93 0 171 76 171 170c0 93 -77 169 -170 169h-170v-587h-10zM238 679l123 137h15l-127 -137h-11z" />
    <glyph glyph-name="racute.smcp" unicode="&#xf658;" horiz-adv-x="490" 
d="M78 0v596h181c98 0 179 -80 179 -178c0 -96 -77 -175 -173 -179l176 -239h-12l-182 248h10c93 0 171 76 171 170c0 93 -77 169 -170 169h-170v-587h-10zM238 679l123 137h15l-127 -137h-11z" />
    <glyph glyph-name="rcaron.smcp" unicode="&#xe29b;" horiz-adv-x="490" 
d="M78 0v596h181c98 0 179 -80 179 -178c0 -96 -77 -175 -173 -179l176 -239h-12l-182 248h10c93 0 171 76 171 170c0 93 -77 169 -170 169h-170v-587h-10zM246 679l-119 137h12l111 -129l111 129h13l-119 -137h-9z" />
    <glyph glyph-name="rcaron.smcp" unicode="&#xf659;" horiz-adv-x="490" 
d="M78 0v596h181c98 0 179 -80 179 -178c0 -96 -77 -175 -173 -179l176 -239h-12l-182 248h10c93 0 171 76 171 170c0 93 -77 169 -170 169h-170v-587h-10zM246 679l-119 137h12l111 -129l111 129h13l-119 -137h-9z" />
    <glyph glyph-name="rcommaaccent.smcp" unicode="&#xe29e;" horiz-adv-x="490" 
d="M78 0v596h181c98 0 179 -80 179 -178c0 -96 -77 -175 -173 -179l176 -239h-12l-182 248h10c93 0 171 76 171 170c0 93 -77 169 -170 169h-170v-587h-10zM214 -274h-9l51 204h13z" />
    <glyph glyph-name="rcommaaccent.smcp" unicode="&#xf65a;" horiz-adv-x="490" 
d="M78 0v596h181c98 0 179 -80 179 -178c0 -96 -77 -175 -173 -179l176 -239h-12l-182 248h10c93 0 171 76 171 170c0 93 -77 169 -170 169h-170v-587h-10zM214 -274h-9l51 204h13z" />
    <glyph glyph-name="sacute.smcp" unicode="&#xe302;" horiz-adv-x="455" 
d="M220 679l123 137h15l-127 -137h-11zM215 -10c-70 0 -130 32 -166 71l7 6c36 -37 92 -68 159 -68c99 0 177 64 177 155c0 99 -85 130 -170 159c-84 29 -166 57 -166 149c0 89 75 143 165 143c71 0 124 -28 156 -65l-8 -6c-30 36 -81 62 -148 62c-84 0 -155 -51 -155 -134
c0 -86 79 -112 160 -140c86 -30 175 -62 175 -169c0 -95 -79 -163 -186 -163z" />
    <glyph glyph-name="sacute.smcp" unicode="&#xf65b;" horiz-adv-x="455" 
d="M220 679l123 137h15l-127 -137h-11zM215 -10c-70 0 -130 32 -166 71l7 6c36 -37 92 -68 159 -68c99 0 177 64 177 155c0 99 -85 130 -170 159c-84 29 -166 57 -166 149c0 89 75 143 165 143c71 0 124 -28 156 -65l-8 -6c-30 36 -81 62 -148 62c-84 0 -155 -51 -155 -134
c0 -86 79 -112 160 -140c86 -30 175 -62 175 -169c0 -95 -79 -163 -186 -163z" />
    <glyph glyph-name="scircumflex.smcp" unicode="&#xe303;" horiz-adv-x="455" 
d="M215 -10c-70 0 -130 32 -166 71l7 6c36 -37 92 -68 159 -68c99 0 177 64 177 155c0 99 -85 130 -170 159c-84 29 -166 57 -166 149c0 89 75 143 165 143c71 0 124 -28 156 -65l-8 -6c-30 36 -81 62 -148 62c-84 0 -155 -51 -155 -134c0 -86 79 -112 160 -140
c86 -30 175 -62 175 -169c0 -95 -79 -163 -186 -163zM102 676l119 137h9l119 -137h-13l-111 128l-111 -128h-12z" />
    <glyph glyph-name="scircumflex.smcp" unicode="&#xf636;" horiz-adv-x="455" 
d="M215 -10c-70 0 -130 32 -166 71l7 6c36 -37 92 -68 159 -68c99 0 177 64 177 155c0 99 -85 130 -170 159c-84 29 -166 57 -166 149c0 89 75 143 165 143c71 0 124 -28 156 -65l-8 -6c-30 36 -81 62 -148 62c-84 0 -155 -51 -155 -134c0 -86 79 -112 160 -140
c86 -30 175 -62 175 -169c0 -95 -79 -163 -186 -163zM102 676l119 137h9l119 -137h-13l-111 128l-111 -128h-12z" />
    <glyph glyph-name="scaron.smcp" unicode="&#xe304;" horiz-adv-x="455" 
d="M215 -10c-70 0 -130 32 -166 71l7 6c36 -37 92 -68 159 -68c99 0 177 64 177 155c0 99 -85 130 -170 159c-84 29 -166 57 -166 149c0 89 75 143 165 143c71 0 124 -28 156 -65l-8 -6c-30 36 -81 62 -148 62c-84 0 -155 -51 -155 -134c0 -86 79 -112 160 -140
c86 -30 175 -62 175 -169c0 -95 -79 -163 -186 -163zM218 679l-119 137h12l111 -129l111 129h13l-119 -137h-9z" />
    <glyph glyph-name="scaron.smcp" unicode="&#xf6fd;" horiz-adv-x="455" 
d="M215 -10c-70 0 -130 32 -166 71l7 6c36 -37 92 -68 159 -68c99 0 177 64 177 155c0 99 -85 130 -170 159c-84 29 -166 57 -166 149c0 89 75 143 165 143c71 0 124 -28 156 -65l-8 -6c-30 36 -81 62 -148 62c-84 0 -155 -51 -155 -134c0 -86 79 -112 160 -140
c86 -30 175 -62 175 -169c0 -95 -79 -163 -186 -163zM218 679l-119 137h12l111 -129l111 129h13l-119 -137h-9z" />
    <glyph glyph-name="scedilla.smcp" unicode="&#xe306;" horiz-adv-x="455" 
d="M226 -219c-58 0 -94 19 -123 47l9 6c29 -28 59 -44 114 -44c67 0 112 33 112 75c0 39 -42 64 -115 64h-8v61c-70 0 -130 32 -166 71l7 6c36 -37 92 -68 159 -68c99 0 177 64 177 155c0 99 -85 130 -170 159c-84 29 -166 57 -166 149c0 89 75 143 165 143
c71 0 124 -28 156 -65l-8 -6c-30 36 -81 62 -148 62c-84 0 -155 -51 -155 -134c0 -86 79 -112 160 -140c86 -30 175 -62 175 -169c0 -93 -75 -159 -177 -163v-53c77 0 125 -26 125 -72c0 -48 -48 -84 -123 -84z" />
    <glyph glyph-name="scedilla.smcp" unicode="&#xf65c;" horiz-adv-x="455" 
d="M226 -219c-58 0 -94 19 -123 47l9 6c29 -28 59 -44 114 -44c67 0 112 33 112 75c0 39 -42 64 -115 64h-8v61c-70 0 -130 32 -166 71l7 6c36 -37 92 -68 159 -68c99 0 177 64 177 155c0 99 -85 130 -170 159c-84 29 -166 57 -166 149c0 89 75 143 165 143
c71 0 124 -28 156 -65l-8 -6c-30 36 -81 62 -148 62c-84 0 -155 -51 -155 -134c0 -86 79 -112 160 -140c86 -30 175 -62 175 -169c0 -93 -75 -159 -177 -163v-53c77 0 125 -26 125 -72c0 -48 -48 -84 -123 -84z" />
    <glyph glyph-name="scommaaccent.smcp" unicode="&#xe305;" horiz-adv-x="455" 
d="M178 -288h-9l51 204h13zM215 -10c-70 0 -130 32 -166 71l7 6c36 -37 92 -68 159 -68c99 0 177 64 177 155c0 99 -85 130 -170 159c-84 29 -166 57 -166 149c0 89 75 143 165 143c71 0 124 -28 156 -65l-8 -6c-30 36 -81 62 -148 62c-84 0 -155 -51 -155 -134
c0 -86 79 -112 160 -140c86 -30 175 -62 175 -169c0 -95 -79 -163 -186 -163z" />
    <glyph glyph-name="scommaaccent.smcp" unicode="&#xf65d;" horiz-adv-x="455" 
d="M178 -288h-9l51 204h13zM215 -10c-70 0 -130 32 -166 71l7 6c36 -37 92 -68 159 -68c99 0 177 64 177 155c0 99 -85 130 -170 159c-84 29 -166 57 -166 149c0 89 75 143 165 143c71 0 124 -28 156 -65l-8 -6c-30 36 -81 62 -148 62c-84 0 -155 -51 -155 -134
c0 -86 79 -112 160 -140c86 -30 175 -62 175 -169c0 -95 -79 -163 -186 -163z" />
    <glyph glyph-name="tcommaaccent.smcp" unicode="&#xe30a;" horiz-adv-x="513" 
d="M226 -288h-9l51 204h13zM253 0v587h-203v9h413v-9h-201v-587h-9z" />
    <glyph glyph-name="tcommaaccent.smcp" unicode="&#xf65f;" horiz-adv-x="513" 
d="M226 -288h-9l51 204h13zM253 0v587h-203v9h413v-9h-201v-587h-9z" />
    <glyph glyph-name="uacute.smcp" unicode="&#xe30e;" horiz-adv-x="563" 
d="M270 671l123 137h15l-127 -137h-11zM282 -10c-115 0 -203 89 -203 199v407h9v-406c0 -106 86 -191 194 -191c107 0 193 85 193 192v405h9v-406c0 -111 -88 -200 -202 -200z" />
    <glyph glyph-name="uacute.smcp" unicode="&#xf7fa;" horiz-adv-x="563" 
d="M270 671l123 137h15l-127 -137h-11zM282 -10c-115 0 -203 89 -203 199v407h9v-406c0 -106 86 -191 194 -191c107 0 193 85 193 192v405h9v-406c0 -111 -88 -200 -202 -200z" />
    <glyph glyph-name="ugrave.smcp" unicode="&#xe30f;" horiz-adv-x="563" 
d="M282 -10c-115 0 -203 89 -203 199v407h9v-406c0 -106 86 -191 194 -191c107 0 193 85 193 192v405h9v-406c0 -111 -88 -200 -202 -200zM286 671l-128 137h15l125 -137h-12z" />
    <glyph glyph-name="ugrave.smcp" unicode="&#xf7f9;" horiz-adv-x="563" 
d="M282 -10c-115 0 -203 89 -203 199v407h9v-406c0 -106 86 -191 194 -191c107 0 193 85 193 192v405h9v-406c0 -111 -88 -200 -202 -200zM286 671l-128 137h15l125 -137h-12z" />
    <glyph glyph-name="ucircumflex.smcp" unicode="&#xe300;" horiz-adv-x="563" 
d="M282 -10c-115 0 -203 89 -203 199v407h9v-406c0 -106 86 -191 194 -191c107 0 193 85 193 192v405h9v-406c0 -111 -88 -200 -202 -200zM157 679l119 137h9l119 -137h-13l-111 128l-111 -128h-12z" />
    <glyph glyph-name="ucircumflex.smcp" unicode="&#xf7fb;" horiz-adv-x="563" 
d="M282 -10c-115 0 -203 89 -203 199v407h9v-406c0 -106 86 -191 194 -191c107 0 193 85 193 192v405h9v-406c0 -111 -88 -200 -202 -200zM157 679l119 137h9l119 -137h-13l-111 128l-111 -128h-12z" />
    <glyph glyph-name="udieresis.smcp" unicode="&#xe311;" horiz-adv-x="563" 
d="M320 678v140h9v-140h-9zM231 678v140h9v-140h-9zM282 -10c-115 0 -203 89 -203 199v407h9v-406c0 -106 86 -191 194 -191c107 0 193 85 193 192v405h9v-406c0 -111 -88 -200 -202 -200z" />
    <glyph glyph-name="udieresis.smcp" unicode="&#xf7fc;" horiz-adv-x="563" 
d="M320 678v140h9v-140h-9zM231 678v140h9v-140h-9zM282 -10c-115 0 -203 89 -203 199v407h9v-406c0 -106 86 -191 194 -191c107 0 193 85 193 192v405h9v-406c0 -111 -88 -200 -202 -200z" />
    <glyph glyph-name="utilde.smcp" unicode="&#xe312;" horiz-adv-x="563" 
d="M282 -10c-115 0 -203 89 -203 199v407h9v-406c0 -106 86 -191 194 -191c107 0 193 85 193 192v405h9v-406c0 -111 -88 -200 -202 -200zM114 679c0 50 34 80 78 80c35 0 66 -18 98 -36c32 -17 63 -35 97 -35c42 0 71 23 71 73h10c0 -54 -33 -82 -81 -82
c-37 0 -70 18 -102 36c-31 18 -61 35 -93 35c-37 0 -68 -24 -68 -71h-10z" />
    <glyph glyph-name="utilde.smcp" unicode="&#xf639;" horiz-adv-x="563" 
d="M282 -10c-115 0 -203 89 -203 199v407h9v-406c0 -106 86 -191 194 -191c107 0 193 85 193 192v405h9v-406c0 -111 -88 -200 -202 -200zM114 679c0 50 34 80 78 80c35 0 66 -18 98 -36c32 -17 63 -35 97 -35c42 0 71 23 71 73h10c0 -54 -33 -82 -81 -82
c-37 0 -70 18 -102 36c-31 18 -61 35 -93 35c-37 0 -68 -24 -68 -71h-10z" />
    <glyph glyph-name="uring.smcp" unicode="&#xe313;" horiz-adv-x="563" 
d="M282 -10c-115 0 -203 89 -203 199v407h9v-406c0 -106 86 -191 194 -191c107 0 193 85 193 192v405h9v-406c0 -111 -88 -200 -202 -200zM286 672c-45 0 -81 36 -81 80c0 46 36 82 81 82c46 0 82 -36 82 -82c0 -44 -36 -80 -82 -80zM286 681c40 0 72 32 72 71
c0 40 -32 73 -72 73c-39 0 -71 -33 -71 -73c0 -39 32 -71 71 -71z" />
    <glyph glyph-name="uring.smcp" unicode="&#xf663;" horiz-adv-x="563" 
d="M282 -10c-115 0 -203 89 -203 199v407h9v-406c0 -106 86 -191 194 -191c107 0 193 85 193 192v405h9v-406c0 -111 -88 -200 -202 -200zM286 672c-45 0 -81 36 -81 80c0 46 36 82 81 82c46 0 82 -36 82 -82c0 -44 -36 -80 -82 -80zM286 681c40 0 72 32 72 71
c0 40 -32 73 -72 73c-39 0 -71 -33 -71 -73c0 -39 32 -71 71 -71z" />
    <glyph glyph-name="ubreve.smcp" unicode="&#xe316;" horiz-adv-x="563" 
d="M282 -10c-115 0 -203 89 -203 199v407h9v-406c0 -106 86 -191 194 -191c107 0 193 85 193 192v405h9v-406c0 -111 -88 -200 -202 -200zM283 679c-110 0 -162 75 -162 143h9c0 -62 50 -134 153 -134c95 0 151 72 151 134h10c0 -68 -60 -143 -161 -143z" />
    <glyph glyph-name="ubreve.smcp" unicode="&#xf638;" horiz-adv-x="563" 
d="M282 -10c-115 0 -203 89 -203 199v407h9v-406c0 -106 86 -191 194 -191c107 0 193 85 193 192v405h9v-406c0 -111 -88 -200 -202 -200zM283 679c-110 0 -162 75 -162 143h9c0 -62 50 -134 153 -134c95 0 151 72 151 134h10c0 -68 -60 -143 -161 -143z" />
    <glyph glyph-name="umacron.smcp" unicode="&#xe315;" horiz-adv-x="563" 
d="M282 -10c-115 0 -203 89 -203 199v407h9v-406c0 -106 86 -191 194 -191c107 0 193 85 193 192v405h9v-406c0 -111 -88 -200 -202 -200zM149 679v9h264v-9h-264z" />
    <glyph glyph-name="umacron.smcp" unicode="&#xf661;" horiz-adv-x="563" 
d="M282 -10c-115 0 -203 89 -203 199v407h9v-406c0 -106 86 -191 194 -191c107 0 193 85 193 192v405h9v-406c0 -111 -88 -200 -202 -200zM149 679v9h264v-9h-264z" />
    <glyph glyph-name="uhungarumlaut.smcp" unicode="&#xe318;" horiz-adv-x="563" 
d="M282 -10c-115 0 -203 89 -203 199v407h9v-406c0 -106 86 -191 194 -191c107 0 193 85 193 192v405h9v-406c0 -111 -88 -200 -202 -200zM227 680l126 137h15l-129 -137h-12zM328 680l126 137h15l-129 -137h-12z" />
    <glyph glyph-name="uhungarumlaut.smcp" unicode="&#xf660;" horiz-adv-x="563" 
d="M282 -10c-115 0 -203 89 -203 199v407h9v-406c0 -106 86 -191 194 -191c107 0 193 85 193 192v405h9v-406c0 -111 -88 -200 -202 -200zM227 680l126 137h15l-129 -137h-12zM328 680l126 137h15l-129 -137h-12z" />
    <glyph glyph-name="uogonek.smcp" unicode="&#xe31b;" horiz-adv-x="564" 
d="M357 -182c-69 0 -114 34 -114 84c0 32 21 63 67 90c-9 -1 -19 -2 -28 -2c-115 0 -203 89 -203 199v407h9v-406c0 -106 86 -191 194 -191c21 0 40 3 59 9c6 2 12 5 19 8v-1c68 30 115 97 115 176v405h9v-406c0 -90 -58 -166 -140 -191c-63 -29 -91 -63 -91 -98
c0 -44 42 -74 104 -74c47 0 84 22 114 52l8 -6c-28 -28 -68 -55 -122 -55z" />
    <glyph glyph-name="uogonek.smcp" unicode="&#xf662;" horiz-adv-x="564" 
d="M357 -182c-69 0 -114 34 -114 84c0 32 21 63 67 90c-9 -1 -19 -2 -28 -2c-115 0 -203 89 -203 199v407h9v-406c0 -106 86 -191 194 -191c21 0 40 3 59 9c6 2 12 5 19 8v-1c68 30 115 97 115 176v405h9v-406c0 -90 -58 -166 -140 -191c-63 -29 -91 -63 -91 -98
c0 -44 42 -74 104 -74c47 0 84 22 114 52l8 -6c-28 -28 -68 -55 -122 -55z" />
    <glyph glyph-name="wacute.smcp" unicode="&#xe31d;" horiz-adv-x="880" 
d="M224 0l-179 596h10l174 -580l208 580h8l206 -580l174 580h10l-179 -596h-9l-207 579l-206 -579h-10zM440 679l123 137h15l-127 -137h-11z" />
    <glyph glyph-name="wacute.smcp" unicode="&#xf63a;" horiz-adv-x="880" 
d="M224 0l-179 596h10l174 -580l208 580h8l206 -580l174 580h10l-179 -596h-9l-207 579l-206 -579h-10zM440 679l123 137h15l-127 -137h-11z" />
    <glyph glyph-name="wgrave.smcp" unicode="&#xe31e;" horiz-adv-x="880" 
d="M224 0l-179 596h10l174 -580l208 580h8l206 -580l174 580h10l-179 -596h-9l-207 579l-206 -579h-10zM435 679l-128 137h15l125 -137h-12z" />
    <glyph glyph-name="wgrave.smcp" unicode="&#xf63d;" horiz-adv-x="880" 
d="M224 0l-179 596h10l174 -580l208 580h8l206 -580l174 580h10l-179 -596h-9l-207 579l-206 -579h-10zM435 679l-128 137h15l125 -137h-12z" />
    <glyph glyph-name="wcircumflex.smcp" unicode="&#xe31f;" horiz-adv-x="880" 
d="M224 0l-179 596h10l174 -580l208 580h8l206 -580l174 580h10l-179 -596h-9l-207 579l-206 -579h-10zM316 671l119 137h9l119 -137h-13l-111 128l-111 -128h-12z" />
    <glyph glyph-name="wcircumflex.smcp" unicode="&#xf63b;" horiz-adv-x="880" 
d="M224 0l-179 596h10l174 -580l208 580h8l206 -580l174 580h10l-179 -596h-9l-207 579l-206 -579h-10zM316 671l119 137h9l119 -137h-13l-111 128l-111 -128h-12z" />
    <glyph glyph-name="wdieresis.smcp" unicode="&#xe310;" horiz-adv-x="880" 
d="M224 0l-179 596h10l174 -580l208 580h8l206 -580l174 580h10l-179 -596h-9l-207 579l-206 -579h-10zM479 678v140h9v-140h-9zM390 678v140h9v-140h-9z" />
    <glyph glyph-name="wdieresis.smcp" unicode="&#xf63c;" horiz-adv-x="880" 
d="M224 0l-179 596h10l174 -580l208 580h8l206 -580l174 580h10l-179 -596h-9l-207 579l-206 -579h-10zM479 678v140h9v-140h-9zM390 678v140h9v-140h-9z" />
    <glyph glyph-name="yacute.smcp" unicode="&#xe321;" horiz-adv-x="520" 
d="M256 0v284l-205 312h11l198 -302l199 302h12l-206 -312v-284h-9zM259 677l123 137h15l-127 -137h-11z" />
    <glyph glyph-name="yacute.smcp" unicode="&#xf7fd;" horiz-adv-x="520" 
d="M256 0v284l-205 312h11l198 -302l199 302h12l-206 -312v-284h-9zM259 677l123 137h15l-127 -137h-11z" />
    <glyph glyph-name="ygrave.smcp" unicode="&#xe322;" horiz-adv-x="519" 
d="M255 0v284l-205 312h11l198 -302l199 302h12l-206 -312v-284h-9zM268 680l-128 137h15l125 -137h-12z" />
    <glyph glyph-name="ygrave.smcp" unicode="&#xf63f;" horiz-adv-x="519" 
d="M255 0v284l-205 312h11l198 -302l199 302h12l-206 -312v-284h-9zM268 680l-128 137h15l125 -137h-12z" />
    <glyph glyph-name="ycircumflex.smcp" unicode="&#xe323;" horiz-adv-x="520" 
d="M256 0v284l-205 312h11l198 -302l199 302h12l-206 -312v-284h-9zM141 679l119 137h9l119 -137h-13l-111 128l-111 -128h-12z" />
    <glyph glyph-name="ycircumflex.smcp" unicode="&#xf63e;" horiz-adv-x="520" 
d="M256 0v284l-205 312h11l198 -302l199 302h12l-206 -312v-284h-9zM141 679l119 137h9l119 -137h-13l-111 128l-111 -128h-12z" />
    <glyph glyph-name="ydieresis.smcp" unicode="&#xe324;" horiz-adv-x="520" 
d="M256 0v284l-205 312h11l198 -302l199 302h12l-206 -312v-284h-9zM306 679v140h9v-140h-9zM217 679v140h9v-140h-9z" />
    <glyph glyph-name="ydieresis.smcp" unicode="&#xf7ff;" horiz-adv-x="520" 
d="M256 0v284l-205 312h11l198 -302l199 302h12l-206 -312v-284h-9zM306 679v140h9v-140h-9zM217 679v140h9v-140h-9z" />
    <glyph glyph-name="zacute.smcp" unicode="&#xe328;" horiz-adv-x="507" 
d="M53 0v9l387 578h-373v9h385v-9l-389 -578h388v-9h-398zM246 679l123 137h15l-127 -137h-11z" />
    <glyph glyph-name="zacute.smcp" unicode="&#xf664;" horiz-adv-x="507" 
d="M53 0v9l387 578h-373v9h385v-9l-389 -578h388v-9h-398zM246 679l123 137h15l-127 -137h-11z" />
    <glyph glyph-name="zcaron.smcp" unicode="&#xe329;" horiz-adv-x="507" 
d="M53 0v9l387 578h-373v9h385v-9l-389 -578h388v-9h-398zM255 679l-119 137h12l111 -129l111 129h13l-119 -137h-9z" />
    <glyph glyph-name="zcaron.smcp" unicode="&#xf6ff;" horiz-adv-x="507" 
d="M53 0v9l387 578h-373v9h385v-9l-389 -578h388v-9h-398zM255 679l-119 137h12l111 -129l111 129h13l-119 -137h-9z" />
    <glyph glyph-name="zdotaccent.smcp" unicode="&#xe32a;" horiz-adv-x="507" 
d="M53 0v9l387 578h-373v9h385v-9l-389 -578h388v-9h-398zM255 678v140h10v-140h-10z" />
    <glyph glyph-name="zdotaccent.smcp" unicode="&#xf665;" horiz-adv-x="507" 
d="M53 0v9l387 578h-373v9h385v-9l-389 -578h388v-9h-398zM255 678v140h10v-140h-10z" />
    <glyph glyph-name="numbersign.alt" unicode="&#xf463;" horiz-adv-x="841" 
d="M450 0l59 154l-294 112l-103 -266h-10l104 269l-151 58l1 10l153 -59l115 295l-268 103v9l271 -103l57 148h10l-58 -152l293 -111l102 263h10l-103 -266l148 -57v-10l-151 58l-115 -296l265 -100v-10l-268 102l-58 -151h-9zM332 569l-114 -295l294 -112l114 296z" />
    <glyph glyph-name="one.LT" unicode="&#xe541;" 
d="M62 0v9h226v683c-11 -45 -57 -91 -126 -91h-8v9h5c95 0 129 68 129 120h10v-721h228v-9h-464z" />
    <glyph glyph-name="two.LT" unicode="&#xe542;" 
d="M71 0v16c0 114 111 195 222 274c107 77 213 154 213 258c0 107 -85 183 -206 183c-110 0 -178 -67 -214 -147l-10 5c39 83 109 151 224 151c128 0 216 -80 216 -192c0 -111 -108 -188 -216 -266c-113 -81 -218 -155 -218 -266v-6h440v-10h-451z" />
    <glyph glyph-name="three.LT" unicode="&#xe543;" 
d="M281 -10c-93 0 -174 36 -215 81l9 7c38 -43 120 -79 207 -79c127 0 222 78 222 191c0 121 -95 185 -215 185h-78v9h78c120 0 200 71 200 176c0 104 -89 171 -207 171c-86 0 -156 -42 -191 -76l-8 6c38 36 107 79 199 79c123 0 217 -70 217 -180c0 -94 -61 -164 -162 -180
c104 -15 176 -81 176 -190c0 -118 -96 -200 -232 -200z" />
    <glyph glyph-name="four.LT" unicode="&#xe544;" 
d="M423 0v201h-361l-3 10l365 519h9v-520h108v-9h-108v-201h-10zM70 210h353v501z" />
    <glyph glyph-name="five.LT" unicode="&#xe545;" 
d="M279 -10c-86 0 -163 32 -211 92l8 7c47 -58 120 -90 203 -90c136 0 237 107 237 239c0 163 -127 232 -242 232c-72 0 -163 -45 -188 -94l-8 2l57 352h342v-9h-334l-54 -326c30 44 115 84 185 84c122 0 252 -73 252 -241c0 -139 -102 -248 -247 -248z" />
    <glyph glyph-name="six.LT" unicode="&#xe546;" 
d="M295 -10c-133 0 -231 104 -231 232c0 44 13 89 37 124l255 384h13l-226 -337c40 36 92 59 150 59c135 0 232 -104 232 -230c0 -128 -96 -232 -230 -232zM295 -1c127 0 219 102 219 223c0 120 -93 220 -221 220c-120 0 -219 -101 -219 -220c0 -121 94 -223 221 -223z" />
    <glyph glyph-name="seven.LT" unicode="&#xe547;" 
d="M180 0l331 721h-444v9h455v-9l-331 -721h-11z" />
    <glyph glyph-name="eight.LT" unicode="&#xe548;" 
d="M296 -10c-146 0 -232 93 -232 203c0 103 69 183 185 201c-89 18 -146 86 -146 169c0 98 75 177 191 177c117 0 191 -79 191 -177c0 -81 -54 -151 -144 -169c115 -20 184 -97 184 -201c0 -111 -86 -203 -229 -203zM296 -1c136 0 219 88 219 194s-81 197 -221 197
c-138 0 -220 -92 -220 -197s83 -194 222 -194zM294 398c114 0 182 79 182 165c0 93 -71 168 -182 168c-109 0 -181 -75 -181 -168c0 -88 73 -165 181 -165z" />
    <glyph glyph-name="nine.LT" unicode="&#xe549;" 
d="M233 0h-12l224 338c-40 -37 -91 -59 -151 -59c-127 0 -230 104 -230 229c0 128 103 232 230 232s230 -103 230 -232c0 -47 -14 -88 -41 -129zM294 288c124 0 219 104 219 220c0 121 -98 223 -219 223c-119 0 -220 -102 -220 -223c0 -119 100 -220 220 -220z" />
    <glyph glyph-name="zero.LT" unicode="&#xe53f;" 
d="M294 -1c120 0 208 80 208 223v278c0 145 -86 231 -206 231c-121 0 -209 -87 -209 -231v-274c0 -144 88 -227 207 -227zM294 -10c-125 0 -217 86 -217 236v274c0 151 92 240 219 240c126 0 217 -89 216 -240v-278c0 -150 -92 -232 -218 -232z" />
    <glyph glyph-name="circleright.LT" unicode="&#xf465;" 
d="M294 -10c-125 0 -217 87 -217 237v273c0 150 90 240 217 240s218 -89 218 -240v-284c0 -150 -92 -226 -218 -226zM294 -1c120 0 208 74 208 217v284c0 145 -88 231 -208 231s-207 -87 -207 -231v-273c0 -144 88 -228 207 -228zM300 122c-54 0 -96 30 -96 94v303
c0 65 41 98 96 98c54 0 92 -32 92 -98v-45h-10v46c0 58 -33 87 -82 87s-86 -28 -86 -86v-306c0 -58 37 -83 86 -83s82 25 82 83v46h10v-45c0 -64 -39 -94 -92 -94z" />
    <glyph glyph-name="registered.LT" unicode="&#xf470;" 
d="M294 -10c-125 0 -217 87 -217 237v273c0 150 90 240 217 240s218 -89 218 -240v-284c0 -150 -92 -226 -218 -226zM294 -1c120 0 208 74 208 217v284c0 145 -88 231 -208 231s-207 -87 -207 -231v-273c0 -144 88 -228 207 -228zM203 132v481h90c70 0 105 -37 105 -101v-54
c0 -50 -20 -90 -68 -102c46 -10 62 -42 62 -91v-99c0 -15 3 -26 15 -34h-13c-10 6 -12 19 -12 34v99c0 54 -19 86 -89 86h-80v-219h-10zM293 604h-80v-244h80c67 0 95 40 95 98v54c0 59 -33 92 -95 92z" />
    <glyph glyph-name="dollar.LT" unicode="&#xf466;" 
d="M516 187c0 -120 -98 -194 -219 -197v-110h-10v110c-95 1 -183 43 -225 92l8 7c40 -47 126 -89 217 -90v381c-108 30 -213 61 -213 186c0 109 94 174 207 174h6v100h10v-101c94 -4 157 -42 193 -85l-7 -8c-36 43 -94 80 -186 84v-344c109 -32 219 -65 219 -199zM506 186
c0 127 -105 159 -209 191v-378c111 2 209 73 209 187zM84 566c0 -116 100 -147 203 -177v342h-6c-105 0 -197 -62 -197 -165z" />
    <glyph glyph-name="cent.LT" unicode="&#xf464;" 
d="M289 -130v120c-123 2 -216 78 -216 259c0 182 94 258 216 261v120h10v-120c99 -2 183 -52 210 -166l-10 -4c-26 113 -109 160 -204 160c-119 0 -212 -73 -212 -251c0 -177 92 -249 211 -249c97 0 181 48 206 161l10 -4c-26 -114 -112 -165 -211 -167v-120h-10z" />
    <glyph glyph-name="sterling.LT" unicode="&#xf471;" 
d="M111 325v9h95c-43 76 -93 147 -93 233c0 101 65 173 180 173c86 0 158 -45 186 -115l-11 -4c-27 68 -94 110 -175 110c-111 0 -170 -69 -170 -164c0 -85 51 -156 94 -233h181v-9h-176c29 -54 53 -110 53 -176c0 -29 -5 -55 -13 -77c51 -34 104 -73 165 -73
c62 0 81 39 81 92v13h9v-14c0 -58 -21 -100 -90 -100c-63 0 -117 39 -169 74c-20 -46 -59 -74 -114 -74c-54 0 -81 25 -81 67c0 38 31 66 79 66c37 0 74 -21 112 -46c8 21 12 45 12 72c0 65 -25 122 -55 176h-100zM144 -1c52 0 89 26 107 70c-37 24 -73 45 -109 45
c-42 0 -69 -24 -69 -57c0 -35 23 -58 71 -58z" />
    <glyph glyph-name="yen.LT" unicode="&#xf472;" 
d="M116 405v10h178l-208 315h12l202 -307l201 307h12l-207 -315h176v-10h-177v-147h177v-10h-177v-248h-10v248h-179v10h179v147h-179z" />
    <glyph glyph-name="florin.LT" unicode="&#xf468;" 
d="M144 379v10h160l44 174c33 130 68 167 167 167h2v-9c-96 0 -126 -31 -159 -161l-43 -171h164v-10h-166l-53 -212c-32 -125 -63 -167 -187 -167h-2v9c120 0 147 38 178 160l53 210h-158z" />
    <glyph glyph-name="percent.LT" unicode="&#xf469;" 
d="M99 0l383 730h11l-383 -730h-11zM184 496c-68 0 -122 55 -122 122c0 68 54 122 122 122c67 0 122 -54 122 -122c0 -67 -55 -122 -122 -122zM184 506c61 0 112 51 112 112c0 62 -51 113 -112 113s-112 -51 -112 -113c0 -61 51 -112 112 -112zM405 -11
c-68 0 -122 55 -122 122c0 68 54 122 122 122c67 0 122 -54 122 -122c0 -67 -55 -122 -122 -122zM405 -2c61 0 112 52 112 113c0 62 -51 113 -112 113s-112 -51 -112 -113c0 -61 51 -113 112 -113z" />
    <glyph glyph-name="period.T" unicode="&#xf182;" horiz-adv-x="294" 
d="M137 0v137h10v-137h-10z" />
    <glyph glyph-name="comma.T" unicode="&#xf183;" horiz-adv-x="294" 
d="M111 -117l51 204h13l-55 -204h-9z" />
    <glyph glyph-name="Euro.LT" unicode="&#xf467;" 
d="M37 492v10h76c1 149 91 238 218 238c71 0 128 -30 165 -73l-8 -6c-37 43 -93 70 -157 70c-120 0 -207 -86 -208 -229h337l-2 -10h-335v-252h295l-3 -10h-292v-3c0 -144 88 -228 208 -228c70 0 130 28 167 78l8 -7c-39 -53 -101 -80 -175 -80c-125 0 -218 87 -218 237v3
h-76v10h76v252h-76z" />
    <glyph glyph-name="published" unicode="&#x2117;" horiz-adv-x="875" 
d="M438 -125c-207 0 -375 168 -375 375s168 375 375 375s375 -168 375 -375s-168 -375 -375 -375zM438 -116c201 0 364 165 364 366c0 202 -163 366 -364 366c-202 0 -365 -164 -365 -366c0 -201 163 -366 365 -366zM336 58v373h131c70 0 119 -47 119 -109
s-39 -116 -118 -116h-122v-148h-10zM467 422h-121v-207h122c69 0 108 48 108 107c0 58 -47 100 -109 100z" />
    <glyph glyph-name="tcaron" unicode="&#x165;" horiz-adv-x="317" 
d="M26 492v8h89v118l9 10v-128h149v-8h-149v-330c0 -129 31 -153 149 -153v-9h-2c-123 0 -156 29 -156 161v331h-89zM214 591l70 146h13l-73 -146h-10z" />
    <glyph glyph-name="caronSlovak" unicode="&#xe413;" horiz-adv-x="513" 
d="M220 585l70 146h13l-73 -146h-10z" />
    <glyph glyph-name="fi" unicode="&#xe38c;" horiz-adv-x="481" 
d="M36 492v8h84v69c0 134 35 161 158 161h1v-10c-117 0 -149 -20 -149 -151v-69h149v-8h-149v-492h-10v492h-84zM393 -6v500h9v-500h-9zM393 573v151h9v-151h-9z" />
    <glyph glyph-name="fi" unicode="&#xfb01;" horiz-adv-x="481" 
d="M36 492v8h84v69c0 134 35 161 158 161h1v-10c-117 0 -149 -20 -149 -151v-69h149v-8h-149v-492h-10v492h-84zM393 -6v500h9v-500h-9zM393 573v151h9v-151h-9z" />
    <glyph glyph-name="fl" unicode="&#xe38d;" horiz-adv-x="487" 
d="M36 492v8h84v69c0 134 35 161 158 161h1v-10c-117 0 -149 -20 -149 -151v-69h149v-8h-149v-492h-10v492h-84zM395 5v730h9v-730h-9z" />
    <glyph glyph-name="fl" unicode="&#xfb02;" horiz-adv-x="487" 
d="M36 492v8h84v69c0 134 35 161 158 161h1v-10c-117 0 -149 -20 -149 -151v-69h149v-8h-149v-492h-10v492h-84zM395 5v730h9v-730h-9z" />
    <glyph glyph-name="lcaron" unicode="&#x13e;" horiz-adv-x="209" 
d="M160 584l70 146h13l-73 -146h-10zM83 0v730h9v-730h-9z" />
    <glyph glyph-name="dcaron" unicode="&#x10f;" horiz-adv-x="668" 
d="M314 -10c-144 0 -260 116 -260 260s116 260 260 260c118 0 220 -79 248 -195v415h9v-730h-9v186c-28 -117 -130 -196 -248 -196zM314 -1c138 0 249 113 249 251c0 139 -111 251 -249 251c-139 0 -250 -112 -250 -251c0 -138 111 -251 250 -251zM630 584l70 146h13
l-73 -146h-10z" />
    <glyph glyph-name="Lcaron" unicode="&#x13d;" horiz-adv-x="532" 
d="M83 0v730h10v-720h395v-10h-405zM259 584l70 146h13l-73 -146h-10z" />
    <glyph glyph-name="Anocross" unicode="&#xe731;" horiz-adv-x="682" 
d="M45 0l291 730h11l290 -730h-11l-285 716l-285 -716h-11z" />
    <glyph glyph-name="Eng" unicode="&#x14a;" horiz-adv-x="739" 
d="M433 -198v9h112c63 0 107 43 106 101v88l-563 714v-714h-10v730h10l563 -713v713h10v-819c0 -65 -46 -109 -116 -109h-112z" />
    <glyph glyph-name="A" unicode="A" horiz-adv-x="682" 
d="M45 0l291 730h11l290 -730h-11l-99 249h-372l-99 -249h-11zM341 717l-183 -459h365z" />
    <glyph glyph-name="Tbar" unicode="&#x166;" horiz-adv-x="611" 
d="M151 360v9h149v352h-247v9h506v-9h-249v-352h172v-9h-172v-360h-10v360h-149z" />
    <glyph glyph-name="uni2081" unicode="&#x2081;" horiz-adv-x="269" 
d="M48 0v9h85v384c-6 -25 -32 -49 -71 -49h-6v9h4c54 0 73 38 73 69h9v-413h84v-9h-178z" />
    <glyph glyph-name="uni2082" unicode="&#x2082;" horiz-adv-x="358" 
d="M50 0v14c0 64 68 111 132 156c62 43 124 87 124 146c0 61 -50 103 -122 103c-58 0 -104 -31 -127 -77l-9 5c24 47 73 81 136 81c79 0 131 -47 131 -112s-63 -108 -127 -153c-62 -43 -128 -89 -128 -149v-5h258v-9h-268z" />
    <glyph glyph-name="uni2083" unicode="&#x2083;" horiz-adv-x="349" 
d="M171 -6c-56 0 -104 23 -129 51l8 7c24 -28 70 -49 121 -49c74 0 127 45 127 109c0 67 -55 104 -123 104h-37v9h37c68 0 112 39 112 97s-46 97 -116 97c-51 0 -93 -26 -112 -48l-8 6c22 23 65 51 120 51c76 0 126 -42 126 -106c0 -53 -33 -92 -90 -102
c60 -9 101 -46 101 -108c0 -69 -56 -118 -137 -118z" />
    <glyph glyph-name="uni2084" unicode="&#x2084;" horiz-adv-x="367" 
d="M258 0v97h-219v10l220 315h9v-316h63v-9h-63v-97h-10zM50 106h208v299z" />
    <glyph glyph-name="uni2085" unicode="&#x2085;" horiz-adv-x="379" 
d="M192 -6c-63 0 -113 26 -139 81l9 5c24 -51 70 -77 130 -77c72 0 135 54 135 133c0 92 -70 132 -136 132c-61 0 -105 -35 -129 -86l-10 3l32 237h220v-8h-212l-29 -213c25 45 68 75 128 75c72 0 145 -43 145 -140c0 -80 -60 -142 -144 -142z" />
    <glyph glyph-name="uni2086" unicode="&#x2086;" horiz-adv-x="392" 
d="M196 -6c-81 0 -145 64 -145 146c0 35 13 69 33 95l137 187h12l-121 -163c23 17 52 27 85 27c80 0 145 -64 145 -145c0 -82 -65 -147 -146 -147zM196 3c75 0 136 62 136 137c0 77 -61 138 -136 138c-76 0 -136 -62 -136 -138c0 -77 60 -137 136 -137z" />
    <glyph glyph-name="uni2087" unicode="&#x2087;" horiz-adv-x="327" 
d="M83 0l204 413h-245v9h255v-8l-203 -414h-11z" />
    <glyph glyph-name="uni2088" unicode="&#x2088;" horiz-adv-x="355" 
d="M177 -6c-83 0 -134 53 -134 117c0 58 39 105 105 117c-49 11 -82 51 -82 98c0 58 45 102 111 102c68 0 112 -44 112 -102c0 -48 -32 -86 -84 -98c69 -12 106 -59 106 -117c0 -63 -50 -117 -134 -117zM177 3c78 0 125 48 125 108c0 59 -45 112 -125 112
c-78 0 -123 -53 -123 -112c0 -60 45 -108 123 -108zM177 233c62 0 103 43 103 93c0 54 -41 93 -103 93c-61 0 -101 -39 -101 -93c0 -50 40 -93 101 -93z" />
    <glyph glyph-name="uni2089" unicode="&#x2089;" horiz-adv-x="368" 
d="M147 0l121 172c-23 -19 -52 -30 -85 -30c-78 0 -142 63 -142 143c0 79 64 143 143 143s142 -63 142 -143c0 -32 -11 -63 -28 -87l-140 -198h-11zM184 151c74 0 133 60 133 134c0 75 -59 134 -133 134s-134 -60 -134 -134s60 -134 134 -134z" />
    <glyph glyph-name="uni2080" unicode="&#x2080;" horiz-adv-x="522" 
d="M261 -6c-120 0 -217 97 -217 217s97 217 217 217s217 -97 217 -217s-97 -217 -217 -217zM261 3c115 0 207 94 207 208s-92 208 -207 208s-207 -94 -207 -208s92 -208 207 -208z" />
    <glyph glyph-name="uni208D" unicode="&#x208d;" horiz-adv-x="278" 
d="M226 -111c-96 64 -168 169 -168 318c0 146 67 252 163 316l5 -8c-95 -62 -158 -169 -158 -308c0 -142 68 -247 163 -309z" />
    <glyph glyph-name="uni208E" unicode="&#x208e;" horiz-adv-x="279" 
d="M52 -111l-5 9c95 62 163 167 163 309c0 139 -63 246 -158 308l5 8c96 -64 163 -170 163 -316c0 -149 -72 -254 -168 -318z" />
    <glyph glyph-name="uni208A" unicode="&#x208a;" horiz-adv-x="291" 
d="M39 207v8h103v102h8v-102h102v-8h-102v-103h-8v103h-103z" />
    <glyph glyph-name="uni208B" unicode="&#x208b;" horiz-adv-x="291" 
d="M39 207v9h213v-9h-213z" />
    <glyph glyph-name="uni208C" unicode="&#x208c;" horiz-adv-x="291" 
d="M39 252v9h213v-9h-213zM39 160v8h213v-8h-213z" />
    <glyph glyph-name="IJ" unicode="&#x132;" horiz-adv-x="500" 
d="M202 0v10h43c103 0 167 72 167 165v555h10v-555c0 -101 -67 -175 -177 -175h-43zM80 0v730h10v-730h-10z" />
    <glyph glyph-name="idotaccent" unicode="&#xe785;" horiz-adv-x="168" 
d="M79 0v500h10v-500h-10zM79 579v151h10v-151h-10z" />
    <glyph glyph-name="kgreenlandic" unicode="&#x138;" horiz-adv-x="496" 
d="M449 0l-220 290l-138 -147v-143h-10v500h10v-344l324 344h13l-192 -203l225 -297h-12z" />
    <glyph glyph-name="eng" unicode="&#x14b;" horiz-adv-x="616" 
d="M381 -231v10c118 0 149 25 149 155v346c0 134 -87 221 -219 221c-122 0 -222 -91 -222 -216v-285h-10v500h9v-163c18 95 109 173 223 173c135 0 229 -89 229 -231v-346c0 -133 -34 -164 -158 -164h-1z" />
    <glyph glyph-name="tbar" unicode="&#x167;" horiz-adv-x="317" 
d="M26 492v8h89v118l9 10v-128h149v-8h-149v-219h138v-9h-138v-102c0 -129 31 -153 149 -153v-9h-1c-124 0 -157 29 -157 161v103h-88v9h88v219h-89z" />
    <glyph glyph-name="ij" unicode="&#x133;" horiz-adv-x="336" 
d="M80 -147v10h20c130 0 148 25 148 140v497h10v-497c0 -122 -23 -150 -158 -150h-20zM248 579v151h10v-151h-10zM79 0v500h10v-500h-10zM79 579v151h10v-151h-10z" />
    <glyph glyph-name="cordinal" unicode="&#xe181;" horiz-adv-x="438" 
d="M227 435c-83 0 -150 68 -150 152c0 83 69 149 152 149c64 0 115 -37 137 -92l-10 -4c-21 52 -67 87 -127 87c-77 0 -142 -62 -142 -140s63 -142 140 -142c62 0 111 35 132 86l10 -4c-23 -54 -76 -92 -142 -92z" />
    <glyph glyph-name="ordfeminine.alt" unicode="&#xe926;" horiz-adv-x="354" 
d="M147 434c-61 0 -100 25 -100 70c-1 60 57 79 117 91c57 10 120 20 120 62c0 38 -33 70 -106 70c-71 0 -113 -35 -113 -86v-2h-10v1c0 55 48 96 123 96c73 0 116 -31 116 -82v-213h-9v71c-16 -29 -66 -78 -138 -78zM147 443c73 0 123 54 138 85v107
c-10 -25 -57 -38 -120 -49c-58 -11 -108 -28 -108 -82c0 -38 34 -61 90 -61z" />
    <glyph glyph-name="anocross.smcp" unicode="&#xe220;" horiz-adv-x="565" 
d="M40 0l238 596h9l237 -596h-10l-232 582l-231 -582h-11z" />
    <glyph glyph-name="dcaron.smcp" unicode="&#xe239;" horiz-adv-x="605" 
d="M78 0v596h168c167 0 305 -129 305 -298s-138 -298 -305 -298h-168zM246 587h-158v-578h158c162 0 295 126 295 289c0 164 -133 289 -295 289zM262 679l-119 137h12l111 -129l111 129h13l-119 -137h-9z" />
    <glyph glyph-name="dcaron.smcp" unicode="&#xf645;" horiz-adv-x="605" 
d="M78 0v596h168c167 0 305 -129 305 -298s-138 -298 -305 -298h-168zM246 587h-158v-578h158c162 0 295 126 295 289c0 164 -133 289 -295 289zM262 679l-119 137h12l111 -129l111 129h13l-119 -137h-9z" />
    <glyph glyph-name="idotaccent.smcp" unicode="&#xe262;" horiz-adv-x="175" 
d="M83 0v596h10v-596h-10zM82 678v140h10v-140h-10z" />
    <glyph glyph-name="idotaccent.smcp" unicode="&#xf666;" horiz-adv-x="175" 
d="M83 0v596h10v-596h-10zM82 678v140h10v-140h-10z" />
    <glyph glyph-name="lcaron.smcp" unicode="&#xe26c;" horiz-adv-x="461" 
d="M78 0v596h10v-587h322v-9h-332zM213 450l70 146h13l-73 -146h-10z" />
    <glyph glyph-name="lcaron.smcp" unicode="&#xf651;" horiz-adv-x="461" 
d="M78 0v596h10v-587h322v-9h-332zM213 450l70 146h13l-73 -146h-10z" />
    <glyph glyph-name="eng.smcp" unicode="&#xe32b;" horiz-adv-x="633" 
d="M396 -208v10c118 0 149 23 149 152v46l-457 579v-579h-10v596h9l458 -581v581h10v-643c0 -132 -34 -161 -158 -161h-1z" />
    <glyph glyph-name="eng.smcp" unicode="&#xf62b;" horiz-adv-x="633" 
d="M396 -208v10c118 0 149 23 149 152v46l-457 579v-579h-10v596h9l458 -581v581h10v-643c0 -132 -34 -161 -158 -161h-1z" />
    <glyph glyph-name="tbar.smcp" unicode="&#xe30d;" horiz-adv-x="515" 
d="M372 300h-109v-300h-9v300h-111v8h111v279h-203v9h413v-9h-201v-279h109v-8z" />
    <glyph glyph-name="tbar.smcp" unicode="&#xf637;" horiz-adv-x="515" 
d="M372 300h-109v-300h-9v300h-111v8h111v279h-203v9h413v-9h-201v-279h109v-8z" />
    <glyph glyph-name="tcaron.smcp" unicode="&#xe309;" horiz-adv-x="515" 
d="M254 0v587h-203v9h413v-9h-201v-587h-9zM267 678l-119 137h12l111 -129l111 129h13l-119 -137h-9z" />
    <glyph glyph-name="tcaron.smcp" unicode="&#xf65e;" horiz-adv-x="515" 
d="M254 0v587h-203v9h413v-9h-201v-587h-9zM267 678l-119 137h12l111 -129l111 129h13l-119 -137h-9z" />
    <glyph glyph-name="ij.smcp" unicode="&#xe327;" horiz-adv-x="462" 
d="M192 0v10h48c84 0 135 63 135 141v445h10v-448c0 -84 -54 -148 -145 -148h-48zM80 0v596h9v-596h-9z" />
    <glyph glyph-name="ij.smcp" unicode="&#xf631;" horiz-adv-x="462" 
d="M192 0v10h48c84 0 135 63 135 141v445h10v-448c0 -84 -54 -148 -145 -148h-48zM80 0v596h9v-596h-9z" />
    <glyph glyph-name="ordfeminine.smcp" unicode="&#xe351;" horiz-adv-x="335" 
d="M47 441l116 289h11l115 -289h-11l-34 85h-153l-34 -85h-10zM168 717l-74 -182h146z" />
    <glyph glyph-name="ordmasculine.smcp" unicode="&#xe352;" horiz-adv-x="456" 
d="M228 435c-83 0 -150 67 -150 150c0 84 67 151 150 151c84 0 151 -67 151 -151c0 -83 -67 -150 -151 -150zM228 445c78 0 140 63 140 140c0 79 -62 142 -140 142s-140 -63 -140 -142c0 -77 62 -140 140 -140z" />
    <glyph glyph-name="cordinal.smcp" unicode="&#xe353;" horiz-adv-x="438" 
d="M228 435c-83 0 -150 67 -150 151c0 83 67 150 150 150c63 0 116 -36 139 -91l-10 -4c-21 52 -70 86 -129 86c-78 0 -140 -63 -140 -141s62 -141 140 -141c60 0 109 35 130 87l10 -4c-23 -55 -76 -93 -140 -93z" />
    <glyph glyph-name="altcedilla" unicode="&#xe416;" horiz-adv-x="513" 
d="M263 -214c-58 0 -94 19 -123 47l9 6c29 -28 59 -44 114 -44c67 0 112 33 112 75c0 39 -37 64 -110 64h-10v8h10c76 0 121 -28 121 -72c0 -48 -48 -84 -123 -84z" />
    <glyph glyph-name="dotbelow" unicode="&#xe415;" horiz-adv-x="512" 
d="M241 -185v140h10v-140h-10z" />
    <glyph glyph-name="doublegrave" unicode="&#xe412;" horiz-adv-x="513" 
d="M264 583l-141 137h15l138 -137h-12zM359 583l-119 137h15l116 -137h-12z" />
    <glyph glyph-name="invertedbreve" unicode="&#xe411;" horiz-adv-x="513" 
d="M94 582c0 68 53 143 162 143c102 0 161 -75 161 -143h-10c0 62 -55 134 -151 134c-103 0 -153 -72 -153 -134h-9z" />
    <glyph glyph-name="anglebracketleft" unicode="&#x3008;" horiz-adv-x="341" 
d="M280 -230l-228 480l228 480h12l-228 -480l228 -480h-12z" />
    <glyph glyph-name="anglebracketright" unicode="&#x3009;" horiz-adv-x="341" 
d="M53 -230h-11l228 480l-228 480h11l228 -480z" />
    <glyph glyph-name="anglebracketleft.cap" unicode="&#xe497;" horiz-adv-x="341" 
d="M280 -120l-228 480l228 480h12l-228 -480l228 -480h-12z" />
    <glyph glyph-name="anglebracketright.cap" unicode="&#xe498;" horiz-adv-x="341" 
d="M53 -120h-11l228 480l-228 480h11l228 -480z" />
    <glyph glyph-name="anglebracketleft.smcp" unicode="&#xe49f;" horiz-adv-x="344" 
d="M251 -98h-12l-187 391l186 393h12l-186 -393z" />
    <glyph glyph-name="anglebracketright.smcp" unicode="&#xe490;" horiz-adv-x="344" 
d="M103 -98h-11l187 391l-186 393h11l186 -393z" />
    <glyph glyph-name="doublebar.cap" unicode="&#xe464;" horiz-adv-x="297" 
d="M77 -120v960h10v-960h-10zM210 -120v960h10v-960h-10z" />
    <glyph glyph-name="doublebar" unicode="&#x2016;" horiz-adv-x="297" 
d="M77 -230v960h10v-960h-10zM210 -230v960h10v-960h-10z" />
    <glyph glyph-name="slash" unicode="/" horiz-adv-x="419" 
d="M32 0l346 730h11l-346 -730h-11z" />
    <glyph glyph-name="backslash" unicode="\" horiz-adv-x="419" 
d="M377 0l-346 730h11l346 -730h-11z" />
    <glyph glyph-name="servicemark" unicode="&#x2120;" horiz-adv-x="657" 
d="M279 440v290h7l151 -202l154 202h7v-290h-10v271l-151 -199l-149 199v-271h-9zM120 440c-34 0 -64 16 -81 36l7 6c16 -18 44 -34 74 -34c49 0 79 30 79 70c0 92 -155 54 -155 148c0 38 32 67 79 67c36 0 60 -15 75 -32l-7 -6c-14 16 -37 29 -68 29c-42 0 -70 -26 -70 -58
c0 -84 155 -49 155 -148c0 -45 -34 -78 -88 -78z" />
    <glyph glyph-name="uni20A1" unicode="&#x20a1;" horiz-adv-x="829" 
d="M174 -120h-10l71 172c-101 67 -168 182 -168 313c0 207 168 375 375 375c24 0 48 -3 72 -7l44 107h12l-45 -109c40 -9 78 -26 112 -47l64 156h12l-67 -161c45 -30 82 -68 111 -113l-9 -5c-28 43 -63 80 -106 109l-273 -664c23 -5 48 -7 73 -7c132 0 253 72 317 180l9 -4
c-66 -111 -189 -185 -326 -185c-26 0 -52 3 -77 8l-48 -118h-10l49 120c-41 9 -79 25 -113 47zM77 365c0 -126 64 -238 161 -304l272 663c-22 4 -45 7 -68 7c-202 0 -365 -164 -365 -366zM246 56c34 -22 73 -38 113 -48l274 668c-34 21 -71 37 -112 46z" />
    <glyph glyph-name="at.cap" unicode="&#xe513;" horiz-adv-x="881" 
d="M439 -10c-207 0 -373 167 -373 375c0 207 177 375 384 375s363 -156 363 -337c0 -97 -53 -212 -144 -212c-73 0 -105 52 -102 127c-13 -56 -58 -128 -148 -128c-83 0 -156 70 -142 185c15 115 92 176 177 175c82 0 121 -64 122 -134c7 63 15 128 15 128h8l-21 -194
c-11 -101 23 -151 91 -151c77 0 133 97 133 204c0 175 -151 328 -352 328c-202 0 -373 -164 -373 -366s160 -366 362 -366c105 0 199 44 265 116l9 -7c-69 -73 -167 -118 -274 -118zM420 200c94 0 141 81 149 171c10 93 -25 170 -115 170c-81 0 -153 -62 -167 -166
c-13 -97 44 -175 133 -175z" />
    <glyph glyph-name="uni20A2" unicode="&#x20a2;" horiz-adv-x="822" 
d="M438 -10c-207 0 -375 168 -375 375s168 375 375 375c133 0 249 -70 315 -174l-9 -5c-64 101 -175 170 -306 170c-202 0 -365 -164 -365 -366c0 -196 155 -358 350 -365v372h9v-178c19 100 104 178 219 178h42v-10h-42c-125 0 -219 -96 -219 -226v-137h6
c132 0 253 72 317 180l9 -4c-66 -111 -189 -185 -326 -185z" />
    <glyph glyph-name="tripleprime" unicode="&#x2034;" horiz-adv-x="333" 
d="M80 500c-1 36 -2 116 -2 146v84h10v-84c0 -16 -1 -133 -2 -146h-6zM164 500c-1 36 -2 116 -2 146v84h10v-84c0 -16 -1 -133 -2 -146h-6zM248 500c-2 36 -3 116 -3 146v84h10v-84c0 -16 0 -133 -1 -146h-6z" />
    <glyph glyph-name="at.smcp" unicode="&#xf60b;" horiz-adv-x="881" 
d="M439 -80c-207 0 -373 168 -373 376c0 207 177 375 384 375s363 -157 363 -337c0 -98 -53 -213 -144 -213c-73 0 -105 52 -102 128c-13 -56 -58 -128 -148 -128c-83 0 -156 70 -142 185c15 114 92 175 177 175c82 -1 121 -65 122 -134c7 63 15 128 15 128h8l-21 -195
c-11 -100 23 -150 91 -150c77 0 133 96 133 204c0 175 -151 328 -352 328c-202 0 -373 -165 -373 -366c0 -202 160 -367 362 -367c105 0 199 44 265 116l9 -6c-69 -74 -167 -119 -274 -119zM420 130c94 0 141 82 149 172c10 92 -25 169 -115 169c-81 0 -153 -61 -167 -165
c-13 -98 44 -176 133 -176z" />
    <glyph glyph-name="registered.cap" unicode="&#xe99c;" horiz-adv-x="875" 
d="M438 -10c-207 0 -375 168 -375 375s168 375 375 375s375 -168 375 -375s-168 -375 -375 -375zM438 -1c201 0 364 165 364 366c0 202 -163 366 -364 366c-202 0 -365 -164 -365 -366c0 -201 163 -366 365 -366zM319 180v374h155c69 0 118 -47 118 -111
c0 -60 -44 -112 -110 -115l109 -148h-13l-113 156h7c65 0 110 48 110 107c0 60 -46 102 -108 102h-146v-365h-9z" />
    <glyph glyph-name="franc" unicode="&#x20a3;" horiz-adv-x="564" 
d="M77 0v730h413v-9h-403v-290h403v-9h-403v-130h403v-9h-403v-283h-10z" />
    <glyph glyph-name="lira" unicode="&#x20a4;" horiz-adv-x="738" 
d="M83 409v9h109c-20 36 -35 77 -35 129c0 114 79 193 209 193c100 0 180 -42 215 -126l-9 -6c-34 83 -108 123 -206 123c-123 0 -199 -77 -199 -184c0 -51 15 -92 37 -129h284v-9h-279c27 -44 62 -82 88 -125h193v-9h-188c21 -36 36 -77 36 -126c0 -22 -6 -45 -16 -66
c55 -41 113 -82 192 -82c93 0 142 43 142 167v13h9v-14c0 -130 -54 -175 -150 -175c-82 0 -142 42 -196 83c-27 -48 -79 -86 -151 -86c-70 0 -111 34 -111 89c0 51 36 87 100 87c58 0 106 -37 157 -76c9 20 14 40 14 60c0 50 -15 90 -37 126h-205v9h200
c-27 43 -62 80 -89 125h-114zM168 -3c69 0 118 38 142 85c-50 38 -96 74 -153 74c-58 0 -90 -34 -90 -79c0 -48 35 -80 101 -80z" />
    <glyph glyph-name="uni20A6" unicode="&#x20a6;" horiz-adv-x="791" 
d="M23 441v9h81v280h10l221 -280h342v280h10v-280h80v-9h-80v-134h80v-9h-80v-298h-10l-235 298h-328v-298h-10v298h-81v9h81v134h-81zM342 441l106 -134h229v134h-335zM114 441v-134h321l-106 134h-215zM455 298l222 -282v282h-222zM322 450l-208 264v-264h208z" />
    <glyph glyph-name="peseta" unicode="&#x20a7;" horiz-adv-x="1237" 
d="M964 0h-95c-146 0 -202 63 -202 195v297h-114v-2c0 -138 -103 -242 -270 -242h-193v-248h-10v730h203c162 0 265 -96 270 -229h114v119l10 6v-125h131v-9h-131v-296c0 -129 53 -187 192 -187h95c152 0 210 53 210 123c0 80 -82 101 -163 125c-83 24 -163 47 -163 129
c0 73 61 124 157 124c67 0 119 -24 155 -64l-8 -5c-34 38 -83 60 -147 60c-90 0 -148 -46 -148 -114c0 -77 75 -98 159 -122c83 -24 168 -45 168 -133c0 -75 -63 -132 -220 -132zM283 721h-193v-463h193c161 0 259 99 259 232c0 134 -98 231 -259 231z" />
    <glyph glyph-name="uni20A8" unicode="&#x20a8;" horiz-adv-x="993" 
d="M731 -11c-228 0 -377 131 -443 314h10c114 0 212 93 212 209c0 114 -97 209 -210 209h-210v-721h-10v730h220c120 0 221 -98 221 -218c0 -121 -101 -217 -219 -217c63 -169 206 -296 429 -296c129 0 197 62 197 133c0 80 -79 102 -161 125s-163 47 -163 129
c0 73 61 124 158 124c67 0 118 -25 154 -65l-8 -5c-34 39 -82 61 -146 61c-91 0 -148 -46 -148 -114c0 -77 77 -99 158 -122c83 -23 166 -47 166 -133c0 -76 -70 -143 -207 -143z" />
    <glyph glyph-name="uni20A9" unicode="&#x20a9;" horiz-adv-x="1070" 
d="M23 441v9h115l-84 280h11l84 -280h285l101 280h7l101 -280h284l84 280h11l-84 -280h108v-9h-110l-41 -134h151v-9h-153l-89 -298h-10l-108 298h-296l-106 -298h-10l-90 298h-161v9h158l-40 134h-118zM441 441l-48 -134h290l-48 134h-194zM152 441l40 -134h191l48 134
h-279zM646 441l48 -134h191l40 134h-279zM195 298l85 -282l100 282h-185zM697 298l101 -282l84 282h-185zM538 713l-94 -263h188z" />
    <glyph glyph-name="uni20AA" unicode="&#x20aa;" horiz-adv-x="565" 
d="M210 0v582c4 0 10 -3 10 -7v-565h116c93 0 143 67 143 145v575h10v-575c0 -83 -53 -155 -152 -155h-127zM77 0v730h127c118 0 151 -71 151 -155v-417c0 -4 -4 -7 -10 -7v424c0 79 -30 146 -142 146h-116v-721h-10z" />
    <glyph glyph-name="uni20AE" unicode="&#x20ae;" horiz-adv-x="651" 
d="M189 386v11l131 53v271h-247v9h506v-9h-249v-267l142 59v-11l-142 -59v-115l142 59v-11l-142 -59v-317h-10v313l-131 -53v11l131 53v115z" />
    <glyph glyph-name="uni20B1" unicode="&#x20b1;" horiz-adv-x="671" 
d="M23 559v9h81v162h204c134 0 225 -65 257 -162h82v-9h-79c6 -22 9 -45 9 -69c0 -23 -3 -45 -8 -65h78v-9h-81c-30 -100 -123 -168 -258 -168h-194v-248h-10v416h-81v9h81v134h-81zM567 490c0 24 -3 47 -10 69h-443v-134h444c6 20 9 42 9 65zM308 258c128 0 218 64 248 158
h-442v-158h194zM308 721h-194v-153h440c-31 92 -119 153 -246 153z" />
    <glyph glyph-name="uni0E3F" unicode="&#xe3f;" horiz-adv-x="554" 
d="M77 71v596h195v63h10v-63h49c84 0 153 -67 153 -148c0 -70 -47 -128 -113 -141c71 -14 122 -76 122 -151c0 -87 -67 -156 -155 -156h-56v-71h-10v71h-195zM87 374v-294h185v294h-185zM87 658v-275h185v275h-185zM338 374h-56v-294h55c83 0 147 65 147 147
c0 81 -65 147 -146 147zM328 658h-46v-275h57c76 0 136 61 136 136c0 77 -69 139 -147 139z" />
    <glyph glyph-name="approxequal" unicode="&#x2248;" horiz-adv-x="482" 
d="M56 427v10c29 14 56 25 97 25c60 0 125 -37 177 -37c39 0 62 7 96 26l1 -10c-28 -16 -53 -26 -97 -26c-54 0 -122 38 -177 38c-40 0 -67 -12 -97 -26zM56 269l-1 10c29 14 57 25 98 25c59 0 125 -37 177 -37c39 0 64 9 96 27l1 -10c-28 -16 -54 -26 -97 -26
c-54 0 -123 36 -177 36c-40 0 -67 -10 -97 -25z" />
    <glyph glyph-name="uni215F" unicode="&#x215f;" horiz-adv-x="668" 
d="M98 0l527 730h12l-527 -730h-12zM48 308v9h85v384c-6 -25 -32 -49 -71 -49h-6v9h4c54 0 73 38 73 69h9v-413h84v-9h-178z" />
    <glyph glyph-name="onehalf" unicode="&#xbd;" horiz-adv-x="796" 
d="M488 0v14c0 64 68 111 132 156c62 43 124 87 124 146c0 61 -50 103 -122 103c-58 0 -104 -31 -127 -77l-9 5c24 47 73 81 136 81c79 0 131 -47 131 -112s-63 -108 -127 -153c-62 -43 -128 -89 -128 -149v-5h258v-9h-268zM98 0l527 730h12l-527 -730h-12zM48 308v9h85v384
c-6 -25 -32 -49 -71 -49h-6v9h4c54 0 73 38 73 69h9v-413h84v-9h-178z" />
    <glyph glyph-name="uni2153" unicode="&#x2153;" horiz-adv-x="808" 
d="M630 -6c-56 0 -104 23 -129 51l8 7c24 -28 70 -49 121 -49c74 0 127 45 127 109c0 67 -55 104 -123 104h-37v9h37c68 0 112 39 112 97s-46 97 -116 97c-51 0 -93 -26 -112 -48l-8 6c22 23 65 51 120 51c76 0 126 -42 126 -106c0 -53 -33 -92 -90 -102
c60 -9 101 -46 101 -108c0 -69 -56 -118 -137 -118zM98 0l527 730h12l-527 -730h-12zM48 308v9h85v384c-6 -25 -32 -49 -71 -49h-6v9h4c54 0 73 38 73 69h9v-413h84v-9h-178z" />
    <glyph glyph-name="uni2154" unicode="&#x2154;" horiz-adv-x="859" 
d="M681 -6c-56 0 -104 23 -129 51l8 7c24 -28 70 -49 121 -49c74 0 127 45 127 109c0 67 -55 104 -123 104h-37v9h37c68 0 112 39 112 97s-46 97 -116 97c-51 0 -93 -26 -112 -48l-8 6c22 23 65 51 120 51c76 0 126 -42 126 -106c0 -53 -33 -92 -90 -102
c60 -9 101 -46 101 -108c0 -69 -56 -118 -137 -118zM50 308v14c0 64 68 111 132 156c62 43 124 87 124 146c0 61 -50 103 -122 103c-58 0 -104 -31 -127 -77l-9 5c24 47 73 81 136 81c79 0 131 -47 131 -112s-63 -108 -127 -153c-62 -43 -128 -89 -128 -149v-5h258v-9h-268z
M178 1l527 730h12l-527 -730h-12z" />
    <glyph glyph-name="onequarter" unicode="&#xbc;" horiz-adv-x="720" 
d="M588 0v97h-219v10l220 315h9v-316h63v-9h-63v-97h-10zM380 106h208v299zM98 0l527 730h12l-527 -730h-12zM48 308v9h85v384c-6 -25 -32 -49 -71 -49h-6v9h4c54 0 73 38 73 69h9v-413h84v-9h-178z" />
    <glyph glyph-name="threequarters" unicode="&#xbe;" horiz-adv-x="822" 
d="M690 0v97h-219v10l220 315h9v-316h63v-9h-63v-97h-10zM482 106h208v299zM171 302c-56 0 -104 23 -129 51l8 7c24 -28 70 -49 121 -49c74 0 127 45 127 109c0 67 -55 104 -123 104h-37v9h37c68 0 112 39 112 97s-46 97 -116 97c-51 0 -93 -26 -112 -48l-8 6
c22 23 65 51 120 51c76 0 126 -42 126 -106c0 -53 -33 -92 -90 -102c60 -9 101 -46 101 -108c0 -69 -56 -118 -137 -118zM200 0l527 730h12l-527 -730h-12z" />
    <glyph glyph-name="uni2155" unicode="&#x2155;" horiz-adv-x="804" 
d="M617 -6c-63 0 -113 26 -139 81l9 5c24 -51 70 -77 130 -77c72 0 135 54 135 133c0 92 -70 132 -136 132c-61 0 -105 -35 -129 -86l-10 3l32 237h220v-8h-212l-29 -213c25 45 68 75 128 75c72 0 145 -43 145 -140c0 -80 -60 -142 -144 -142zM98 0l527 730h12l-527 -730
h-12zM48 308v9h85v384c-6 -25 -32 -49 -71 -49h-6v9h4c54 0 73 38 73 69h9v-413h84v-9h-178z" />
    <glyph glyph-name="uni2156" unicode="&#x2156;" horiz-adv-x="852" 
d="M665 -6c-63 0 -113 26 -139 81l9 5c24 -51 70 -77 130 -77c72 0 135 54 135 133c0 92 -70 132 -136 132c-61 0 -105 -35 -129 -86l-10 3l32 237h220v-8h-212l-29 -213c25 45 68 75 128 75c72 0 145 -43 145 -140c0 -80 -60 -142 -144 -142zM50 308v14
c0 64 68 111 132 156c62 43 124 87 124 146c0 61 -50 103 -122 103c-58 0 -104 -31 -127 -77l-9 5c24 47 73 81 136 81c79 0 131 -47 131 -112s-63 -108 -127 -153c-62 -43 -128 -89 -128 -149v-5h258v-9h-268zM166 -1l527 730h12l-527 -730h-12z" />
    <glyph glyph-name="uni2157" unicode="&#x2157;" horiz-adv-x="906" 
d="M719 -6c-63 0 -113 26 -139 81l9 5c24 -51 70 -77 130 -77c72 0 135 54 135 133c0 92 -70 132 -136 132c-61 0 -105 -35 -129 -86l-10 3l32 237h220v-8h-212l-29 -213c25 45 68 75 128 75c72 0 145 -43 145 -140c0 -80 -60 -142 -144 -142zM171 302
c-56 0 -104 23 -129 51l8 7c24 -28 70 -49 121 -49c74 0 127 45 127 109c0 67 -55 104 -123 104h-37v9h37c68 0 112 39 112 97s-46 97 -116 97c-51 0 -93 -26 -112 -48l-8 6c22 23 65 51 120 51c76 0 126 -42 126 -106c0 -53 -33 -92 -90 -102c60 -9 101 -46 101 -108
c0 -69 -56 -118 -137 -118zM200 0l527 730h12l-527 -730h-12z" />
    <glyph glyph-name="uni2158" unicode="&#x2158;" horiz-adv-x="849" 
d="M258 308v97h-219v10l220 315h9v-316h63v-9h-63v-97h-10zM50 414h208v299zM662 -6c-63 0 -113 26 -139 81l9 5c24 -51 70 -77 130 -77c72 0 135 54 135 133c0 92 -70 132 -136 132c-61 0 -105 -35 -129 -86l-10 3l32 237h220v-8h-212l-29 -213c25 45 68 75 128 75
c72 0 145 -43 145 -140c0 -80 -60 -142 -144 -142zM144 0l527 730h12l-527 -730h-12z" />
    <glyph glyph-name="uni2159" unicode="&#x2159;" horiz-adv-x="777" 
d="M575 -6c-81 0 -145 64 -145 146c0 35 13 69 33 95l137 187h12l-121 -163c23 17 52 27 85 27c80 0 145 -64 145 -145c0 -82 -65 -147 -146 -147zM575 3c75 0 136 62 136 137c0 77 -61 138 -136 138c-76 0 -136 -62 -136 -138c0 -77 60 -137 136 -137zM99 0l527 730h12
l-527 -730h-12zM48 308v9h85v384c-6 -25 -32 -49 -71 -49h-6v9h4c54 0 73 38 73 69h9v-413h84v-9h-178z" />
    <glyph glyph-name="uni215A" unicode="&#x215a;" horiz-adv-x="899" 
d="M697 -6c-81 0 -145 64 -145 146c0 35 13 69 33 95l137 187h12l-121 -163c23 17 52 27 85 27c80 0 145 -64 145 -145c0 -82 -65 -147 -146 -147zM697 3c75 0 136 62 136 137c0 77 -61 138 -136 138c-76 0 -136 -62 -136 -138c0 -77 60 -137 136 -137zM192 302
c-63 0 -113 26 -139 81l9 5c24 -51 70 -77 130 -77c72 0 135 54 135 133c0 92 -70 132 -136 132c-61 0 -105 -35 -129 -86l-10 3l32 237h220v-8h-212l-29 -213c25 45 68 75 128 75c72 0 145 -43 145 -140c0 -80 -60 -142 -144 -142zM221 0l527 730h12l-527 -730h-12z" />
    <glyph glyph-name="uni215B" unicode="&#x215b;" horiz-adv-x="823" 
d="M645 -6c-83 0 -134 53 -134 117c0 58 39 105 105 117c-49 11 -82 51 -82 98c0 58 45 102 111 102c68 0 112 -44 112 -102c0 -48 -32 -86 -84 -98c69 -12 106 -59 106 -117c0 -63 -50 -117 -134 -117zM645 3c78 0 125 48 125 108c0 59 -45 112 -125 112
c-78 0 -123 -53 -123 -112c0 -60 45 -108 123 -108zM645 233c62 0 103 43 103 93c0 54 -41 93 -103 93c-61 0 -101 -39 -101 -93c0 -50 40 -93 101 -93zM109 0l527 730h12l-527 -730h-12zM48 308v9h85v384c-6 -25 -32 -49 -71 -49h-6v9h4c54 0 73 38 73 69h9v-413h84v-9
h-178z" />
    <glyph glyph-name="uni215C" unicode="&#x215c;" horiz-adv-x="927" 
d="M749 -6c-83 0 -134 53 -134 117c0 58 39 105 105 117c-49 11 -82 51 -82 98c0 58 45 102 111 102c68 0 112 -44 112 -102c0 -48 -32 -86 -84 -98c69 -12 106 -59 106 -117c0 -63 -50 -117 -134 -117zM749 3c78 0 125 48 125 108c0 59 -45 112 -125 112
c-78 0 -123 -53 -123 -112c0 -60 45 -108 123 -108zM749 233c62 0 103 43 103 93c0 54 -41 93 -103 93c-61 0 -101 -39 -101 -93c0 -50 40 -93 101 -93zM171 302c-56 0 -104 23 -129 51l8 7c24 -28 70 -49 121 -49c74 0 127 45 127 109c0 67 -55 104 -123 104h-37v9h37
c68 0 112 39 112 97s-46 97 -116 97c-51 0 -93 -26 -112 -48l-8 6c22 23 65 51 120 51c76 0 126 -42 126 -106c0 -53 -33 -92 -90 -102c60 -9 101 -46 101 -108c0 -69 -56 -118 -137 -118zM201 0l527 730h12l-527 -730h-12z" />
    <glyph glyph-name="uni215D" unicode="&#x215d;" horiz-adv-x="947" 
d="M769 -6c-83 0 -134 53 -134 117c0 58 39 105 105 117c-49 11 -82 51 -82 98c0 58 45 102 111 102c68 0 112 -44 112 -102c0 -48 -32 -86 -84 -98c69 -12 106 -59 106 -117c0 -63 -50 -117 -134 -117zM769 3c78 0 125 48 125 108c0 59 -45 112 -125 112
c-78 0 -123 -53 -123 -112c0 -60 45 -108 123 -108zM769 233c62 0 103 43 103 93c0 54 -41 93 -103 93c-61 0 -101 -39 -101 -93c0 -50 40 -93 101 -93zM192 302c-63 0 -113 26 -139 81l9 5c24 -51 70 -77 130 -77c72 0 135 54 135 133c0 92 -70 132 -136 132
c-61 0 -105 -35 -129 -86l-10 3l32 237h220v-8h-212l-29 -213c25 45 68 75 128 75c72 0 145 -43 145 -140c0 -80 -60 -142 -144 -142zM221 0l527 730h12l-527 -730h-12z" />
    <glyph glyph-name="uni215E" unicode="&#x215e;" horiz-adv-x="853" 
d="M675 -6c-83 0 -134 53 -134 117c0 58 39 105 105 117c-49 11 -82 51 -82 98c0 58 45 102 111 102c68 0 112 -44 112 -102c0 -48 -32 -86 -84 -98c69 -12 106 -59 106 -117c0 -63 -50 -117 -134 -117zM675 3c78 0 125 48 125 108c0 59 -45 112 -125 112
c-78 0 -123 -53 -123 -112c0 -60 45 -108 123 -108zM675 233c62 0 103 43 103 93c0 54 -41 93 -103 93c-61 0 -101 -39 -101 -93c0 -50 40 -93 101 -93zM127 0l527 730h12l-527 -730h-12zM155 308l204 413h-245v9h255v-8l-203 -414h-11z" />
    <glyph glyph-name="uni2070" unicode="&#x2070;" horiz-adv-x="522" 
d="M261 302c-120 0 -217 97 -217 217s97 217 217 217s217 -97 217 -217s-97 -217 -217 -217zM261 311c115 0 207 94 207 208s-92 208 -207 208s-207 -94 -207 -208s92 -208 207 -208z" />
    <glyph glyph-name="onesuperior" unicode="&#xb9;" horiz-adv-x="269" 
d="M48 308v9h85v384c-6 -25 -32 -49 -71 -49h-6v9h4c54 0 73 38 73 69h9v-413h84v-9h-178z" />
    <glyph glyph-name="twosuperior" unicode="&#xb2;" horiz-adv-x="358" 
d="M50 308v14c0 64 68 111 132 156c62 43 124 87 124 146c0 61 -50 103 -122 103c-58 0 -104 -31 -127 -77l-9 5c24 47 73 81 136 81c79 0 131 -47 131 -112s-63 -108 -127 -153c-62 -43 -128 -89 -128 -149v-5h258v-9h-268z" />
    <glyph glyph-name="threesuperior" unicode="&#xb3;" horiz-adv-x="349" 
d="M171 302c-56 0 -104 23 -129 51l8 7c24 -28 70 -49 121 -49c74 0 127 45 127 109c0 67 -55 104 -123 104h-37v9h37c68 0 112 39 112 97s-46 97 -116 97c-51 0 -93 -26 -112 -48l-8 6c22 23 65 51 120 51c76 0 126 -42 126 -106c0 -53 -33 -92 -90 -102
c60 -9 101 -46 101 -108c0 -69 -56 -118 -137 -118z" />
    <glyph glyph-name="uni2074" unicode="&#x2074;" horiz-adv-x="367" 
d="M258 308v97h-219v10l220 315h9v-316h63v-9h-63v-97h-10zM50 414h208v299z" />
    <glyph glyph-name="uni2075" unicode="&#x2075;" horiz-adv-x="379" 
d="M192 302c-63 0 -113 26 -139 81l9 5c24 -51 70 -77 130 -77c72 0 135 54 135 133c0 92 -70 132 -136 132c-61 0 -105 -35 -129 -86l-10 3l32 237h220v-8h-212l-29 -213c25 45 68 75 128 75c72 0 145 -43 145 -140c0 -80 -60 -142 -144 -142z" />
    <glyph glyph-name="uni2076" unicode="&#x2076;" horiz-adv-x="383" 
d="M182 302c-81 0 -145 64 -145 146c0 35 13 69 33 95l137 187h12l-121 -163c23 17 52 27 85 27c80 0 145 -64 145 -145c0 -82 -65 -147 -146 -147zM182 311c75 0 136 62 136 137c0 77 -61 138 -136 138c-76 0 -136 -62 -136 -138c0 -77 60 -137 136 -137z" />
    <glyph glyph-name="uni2078" unicode="&#x2078;" horiz-adv-x="355" 
d="M177 302c-83 0 -134 53 -134 117c0 58 39 105 105 117c-49 11 -82 51 -82 98c0 58 45 102 111 102c68 0 112 -44 112 -102c0 -48 -32 -86 -84 -98c69 -12 106 -59 106 -117c0 -63 -50 -117 -134 -117zM177 311c78 0 125 48 125 108c0 59 -45 112 -125 112
c-78 0 -123 -53 -123 -112c0 -60 45 -108 123 -108zM177 541c62 0 103 43 103 93c0 54 -41 93 -103 93c-61 0 -101 -39 -101 -93c0 -50 40 -93 101 -93z" />
    <glyph glyph-name="uni2079" unicode="&#x2079;" horiz-adv-x="361" 
d="M147 308l121 172c-23 -19 -52 -30 -85 -30c-78 0 -142 63 -142 143c0 79 64 143 143 143s142 -63 142 -143c0 -32 -11 -63 -28 -87l-140 -198h-11zM184 459c74 0 133 60 133 134c0 75 -59 134 -133 134s-134 -60 -134 -134s60 -134 134 -134z" />
    <glyph glyph-name="uni2077" unicode="&#x2077;" horiz-adv-x="327" 
d="M83 308l204 413h-245v9h255v-8l-203 -414h-11z" />
    <glyph glyph-name="onesixteenth" unicode="&#xf215;" horiz-adv-x="1025" 
d="M823 -6c-82 0 -146 64 -146 146c0 35 13 69 33 95l138 187h11l-120 -163c23 17 52 27 85 27c79 0 144 -64 144 -145c0 -82 -65 -147 -145 -147zM823 3c75 0 136 62 136 137c0 77 -61 138 -136 138c-76 0 -137 -62 -137 -138c0 -77 61 -137 137 -137zM98 0l527 730h12
l-527 -730h-12zM451 0v9h85v382c-8 -24 -33 -47 -71 -47h-6v9h5c53 0 72 38 72 69h10v-413h84v-9h-179zM48 308v9h85v384c-6 -25 -32 -49 -71 -49h-6v9h4c54 0 73 38 73 69h9v-413h84v-9h-178z" />
    <glyph glyph-name="threesixteenths" unicode="&#xf216;" horiz-adv-x="1127" 
d="M924 -6c-81 0 -145 64 -145 146c0 35 13 69 33 95l137 187h12l-121 -163c23 17 52 27 85 27c80 0 145 -64 145 -145c0 -82 -65 -147 -146 -147zM924 3c75 0 136 62 136 137c0 77 -61 138 -136 138c-76 0 -136 -62 -136 -138c0 -77 60 -137 136 -137zM171 302
c-56 0 -104 23 -129 51l8 7c24 -28 70 -49 121 -49c74 0 127 45 127 109c0 67 -55 104 -123 104h-37v9h37c68 0 112 39 112 97s-46 97 -116 97c-51 0 -93 -26 -112 -48l-8 6c22 23 65 51 120 51c76 0 126 -42 126 -106c0 -53 -33 -92 -90 -102c60 -9 101 -46 101 -108
c0 -69 -56 -118 -137 -118zM200 0l527 730h12l-527 -730h-12zM553 0v9h85v384c-6 -25 -32 -49 -71 -49h-6v9h4c54 0 73 38 73 69h9v-413h84v-9h-178z" />
    <glyph glyph-name="fivesixteenths" unicode="&#xf217;" horiz-adv-x="1148" 
d="M946 -6c-81 0 -145 64 -145 146c0 35 13 69 33 95l137 187h12l-121 -163c23 17 52 27 85 27c80 0 145 -64 145 -145c0 -82 -65 -147 -146 -147zM946 3c75 0 136 62 136 137c0 77 -61 138 -136 138c-76 0 -136 -62 -136 -138c0 -77 60 -137 136 -137zM192 302
c-63 0 -113 26 -139 81l9 5c24 -51 70 -77 130 -77c72 0 135 54 135 133c0 92 -70 132 -136 132c-61 0 -105 -35 -129 -86l-10 3l32 237h220v-8h-212l-29 -213c25 45 68 75 128 75c72 0 145 -43 145 -140c0 -80 -60 -142 -144 -142zM221 0l527 730h12l-527 -730h-12zM574 0
v9h85v384c-6 -25 -32 -49 -71 -49h-6v9h4c54 0 73 38 73 69h9v-413h84v-9h-178z" />
    <glyph glyph-name="sevensixteenths" unicode="&#xf218;" horiz-adv-x="1054" 
d="M851 -6c-81 0 -145 64 -145 146c0 35 13 69 33 95l137 187h12l-121 -163c23 17 52 27 85 27c80 0 145 -64 145 -145c0 -82 -65 -147 -146 -147zM851 3c75 0 136 62 136 137c0 77 -61 138 -136 138c-76 0 -136 -62 -136 -138c0 -77 60 -137 136 -137zM127 0l527 730h12
l-527 -730h-12zM155 308l204 413h-245v9h255v-8l-203 -414h-11zM480 0v9h85v384c-6 -25 -32 -49 -71 -49h-6v9h4c54 0 73 38 73 69h9v-413h84v-9h-178z" />
    <glyph glyph-name="ninesixteenths" unicode="&#xf219;" horiz-adv-x="1058" 
d="M855 -6c-81 0 -145 64 -145 146c0 35 13 69 33 95l137 187h12l-121 -163c23 17 52 27 85 27c80 0 145 -64 145 -145c0 -82 -65 -147 -146 -147zM147 307l121 172c-23 -19 -52 -30 -85 -30c-78 0 -142 63 -142 143c0 79 64 143 143 143s142 -63 142 -143
c0 -32 -11 -63 -28 -87l-140 -198h-11zM855 3c75 0 136 62 136 137c0 77 -61 138 -136 138c-76 0 -136 -62 -136 -138c0 -77 60 -137 136 -137zM184 458c74 0 133 60 133 134c0 75 -59 134 -133 134s-134 -60 -134 -134s60 -134 134 -134zM131 0l527 730h12l-527 -730h-12z
M484 0v9h85v384c-6 -25 -32 -49 -71 -49h-6v9h4c54 0 73 38 73 69h9v-413h84v-9h-178z" />
    <glyph glyph-name="elevensixteenths" unicode="&#xf220;" horiz-adv-x="1264" 
d="M1062 -6c-82 0 -146 64 -146 146c0 35 13 69 33 95l138 187h11l-120 -163c23 17 52 27 85 27c79 0 144 -64 144 -145c0 -82 -65 -147 -145 -147zM1062 3c75 0 136 62 136 137c0 77 -61 138 -136 138c-76 0 -137 -62 -137 -138c0 -77 61 -137 137 -137zM337 0l527 730h12
l-527 -730h-12zM45 308v9h85v384c-6 -25 -32 -49 -71 -49h-6v9h4c54 0 73 38 73 69h9v-413h84v-9h-178zM287 308v9h85v384c-6 -25 -32 -49 -71 -49h-6v9h4c54 0 73 38 73 69h9v-413h84v-9h-178zM690 0v9h85v384c-6 -25 -32 -49 -71 -49h-6v9h4c54 0 73 38 73 69h9v-413h84
v-9h-178z" />
    <glyph glyph-name="thirteensixteenths" unicode="&#xf221;" horiz-adv-x="1362" 
d="M1161 -6c-82 0 -146 64 -146 146c0 35 13 69 33 95l138 187h11l-120 -163c23 17 52 27 85 27c79 0 144 -64 144 -145c0 -82 -65 -147 -145 -147zM1161 3c75 0 136 62 136 137c0 77 -61 138 -136 138c-76 0 -137 -62 -137 -138c0 -77 61 -137 137 -137zM436 0l527 730h13
l-527 -730h-13zM407 302c-56 0 -103 23 -128 51l8 7c24 -28 70 -49 120 -49c74 0 128 45 128 109c0 67 -55 104 -123 104h-38v9h38c68 0 112 39 112 97s-47 97 -117 97c-50 0 -93 -26 -111 -48l-8 6c21 23 64 51 119 51c77 0 126 -42 126 -106c0 -53 -33 -92 -90 -102
c60 -9 101 -46 101 -108c0 -69 -55 -118 -137 -118zM45 308v9h85v384c-6 -25 -32 -49 -71 -49h-6v9h4c54 0 73 38 73 69h9v-413h84v-9h-178zM789 0v9h85v384c-6 -25 -32 -49 -71 -49h-6v9h4c54 0 73 38 73 69h9v-413h84v-9h-178z" />
    <glyph glyph-name="fifteensixteenths" unicode="&#xf222;" horiz-adv-x="1385" 
d="M1184 -6c-82 0 -146 64 -146 146c0 35 13 69 33 95l138 187h11l-120 -163c23 17 52 27 85 27c79 0 144 -64 144 -145c0 -82 -65 -147 -145 -147zM1184 3c75 0 136 62 136 137c0 77 -61 138 -136 138c-76 0 -137 -62 -137 -138c0 -77 61 -137 137 -137zM430 302
c-63 0 -113 26 -140 81l9 5c25 -51 71 -77 131 -77c72 0 134 54 134 133c0 92 -70 132 -135 132c-62 0 -106 -35 -129 -86l-10 3l32 237h220v-8h-213l-28 -212c25 44 68 74 128 74c72 0 145 -43 145 -140c0 -80 -60 -142 -144 -142zM455 0l527 730h12l-527 -730h-12zM812 0
v9h85v384c-6 -25 -32 -49 -71 -49h-6v9h4c54 0 73 38 73 69h9v-413h84v-9h-178zM45 308v9h85v384c-6 -25 -32 -49 -71 -49h-6v9h4c54 0 73 38 73 69h9v-413h84v-9h-178z" />
    <glyph glyph-name="uni207A" unicode="&#x207a;" horiz-adv-x="291" 
d="M39 515v8h103v102h8v-102h102v-8h-102v-103h-8v103h-103z" />
    <glyph glyph-name="uni207B" unicode="&#x207b;" horiz-adv-x="291" 
d="M39 515v9h213v-9h-213z" />
    <glyph glyph-name="uni207C" unicode="&#x207c;" horiz-adv-x="291" 
d="M39 560v9h213v-9h-213zM39 468v8h213v-8h-213z" />
    <glyph glyph-name="uni207D" unicode="&#x207d;" horiz-adv-x="278" 
d="M226 197c-96 64 -168 169 -168 318c0 146 67 252 163 316l5 -8c-95 -62 -158 -169 -158 -308c0 -142 68 -247 163 -309z" />
    </font>
</defs>
</svg>
